<svg width="16" height="16" viewBox="0 0 16 16" fill="none" xmlns="http://www.w3.org/2000/svg">
<path d="M12.6167 2.09145C12.4293 1.90389 12.2067 1.75511 11.9617 1.65363C11.7167 1.55214 11.4541 1.49994 11.1889 1.5C10.9238 1.50006 10.6612 1.55239 10.4163 1.65399C10.1713 1.75559 9.94879 1.90447 9.76142 2.09212L3.42341 8.43878C3.04577 8.8173 2.8336 9.3301 2.83341 9.86478V12.0001C2.83341 12.2761 3.05741 12.5001 3.33341 12.5001H5.48208C6.01741 12.5001 6.53075 12.2868 6.90875 11.9088L13.2421 5.57145C13.6199 5.19277 13.832 4.67969 13.832 4.14478C13.832 3.60987 13.6199 3.0968 13.2421 2.71812L12.6167 2.09145ZM2.66675 13.5001C2.53414 13.5001 2.40696 13.5528 2.31319 13.6466C2.21943 13.7403 2.16675 13.8675 2.16675 14.0001C2.16675 14.1327 2.21943 14.2599 2.31319 14.3537C2.40696 14.4474 2.53414 14.5001 2.66675 14.5001H13.3334C13.466 14.5001 13.5932 14.4474 13.687 14.3537C13.7807 14.2599 13.8334 14.1327 13.8334 14.0001C13.8334 13.8675 13.7807 13.7403 13.687 13.6466C13.5932 13.5528 13.466 13.5001 13.3334 13.5001H2.66675Z" fill="#064E41"/>
</svg>
