<svg width="12" height="17" viewBox="0 0 12 17" fill="none" xmlns="http://www.w3.org/2000/svg">
<mask id="mask0_117_198" style="mask-type:alpha" maskUnits="userSpaceOnUse" x="-4" y="-2" width="20" height="21">
<rect x="-4" y="-1.5" width="20" height="20" fill="#D9D9D9"/>
</mask>
<g mask="url(#mask0_117_198)">
<path d="M4.49458 13.5C4.08153 13.5 3.72917 13.3531 3.4375 13.0594C3.14583 12.7656 3 12.4125 3 12V10.6042C2.20833 10.0861 1.59375 9.42188 1.15625 8.61146C0.71875 7.80104 0.5 6.93056 0.5 6C0.5 4.46792 1.03319 3.1682 2.09958 2.10083C3.16597 1.03361 4.46458 0.5 5.99542 0.5C7.52625 0.5 8.82639 1.03361 9.89583 2.10083C10.9653 3.1682 11.5 4.46792 11.5 6C11.5 6.92806 11.2812 7.79896 10.8438 8.61271C10.4062 9.42646 9.79167 10.0903 9 10.6042V12C9 12.4125 8.85292 12.7656 8.55875 13.0594C8.26472 13.3531 7.91118 13.5 7.49812 13.5H4.49458ZM4.25 16.5C4.0375 16.5 3.85938 16.4285 3.71563 16.2856C3.57188 16.1427 3.5 15.9656 3.5 15.7544C3.5 15.5431 3.57188 15.3646 3.71563 15.2188C3.85938 15.0729 4.0375 15 4.25 15H7.75C7.9625 15 8.14063 15.0715 8.28438 15.2144C8.42813 15.3573 8.5 15.5344 8.5 15.7456C8.5 15.9569 8.42813 16.1354 8.28438 16.2812C8.14063 16.4271 7.9625 16.5 7.75 16.5H4.25Z" fill="#064E41"/>
</g>
</svg>
