<svg width="20" height="21" viewBox="0 0 20 21" fill="none" xmlns="http://www.w3.org/2000/svg">
<mask id="mask0_445_4039" style="mask-type:alpha" maskUnits="userSpaceOnUse" x="0" y="0" width="20" height="21">
<rect y="0.5" width="20" height="20" fill="#D9D9D9"/>
</mask>
<g mask="url(#mask0_445_4039)">
<path d="M10 19.5L7 16.5H4.5C4.08333 16.4722 3.72917 16.3156 3.4375 16.03C3.14583 15.7443 3 15.401 3 15V4C3 3.5875 3.14687 3.23438 3.44062 2.94063C3.73437 2.64688 4.0875 2.5 4.5 2.5H15.5C15.9125 2.5 16.2656 2.64688 16.5594 2.94063C16.8531 3.23438 17 3.5875 17 4V15C17 15.401 16.8542 15.7443 16.5625 16.03C16.2708 16.3156 15.9167 16.4722 15.5 16.5H13L10 19.5ZM10.005 11C10.835 11 11.5417 10.7067 12.125 10.12C12.7083 9.53333 13 8.825 13 7.995C13 7.165 12.7067 6.45833 12.12 5.875C11.5333 5.29167 10.825 5 9.995 5C9.165 5 8.45833 5.29333 7.875 5.88C7.29167 6.46667 7 7.175 7 8.005C7 8.835 7.29333 9.54167 7.88 10.125C8.46667 10.7083 9.175 11 10.005 11ZM4.5 15H15.5V13.8958C14.7083 13.2708 13.8438 12.7986 12.9062 12.4792C11.9688 12.1597 11 12 10 12C9 12 8.03125 12.1597 7.09375 12.4792C6.15625 12.7986 5.29167 13.2708 4.5 13.8958V15Z" fill="#064E41"/>
</g>
</svg>
