<svg width="20" height="21" viewBox="0 0 20 21" fill="none" xmlns="http://www.w3.org/2000/svg">
<mask id="mask0_445_4073" style="mask-type:alpha" maskUnits="userSpaceOnUse" x="0" y="0" width="20" height="21">
<rect y="0.5" width="20" height="20" fill="#D9D9D9"/>
</mask>
<g mask="url(#mask0_445_4073)">
<path d="M17.5 13.75V8.74996L10.6666 12.1666C10.4554 12.2777 10.2325 12.3333 9.99788 12.3333C9.76315 12.3333 9.54163 12.2777 9.33329 12.1666L2.33329 8.66663C2.1944 8.59718 2.09024 8.50461 2.02079 8.38892C1.95135 8.27336 1.91663 8.14489 1.91663 8.0035C1.91663 7.86225 1.95135 7.7326 2.02079 7.61454C2.09024 7.49649 2.1944 7.40274 2.33329 7.33329L9.33329 3.83329C9.43857 3.77774 9.54676 3.73607 9.65788 3.70829C9.76899 3.68051 9.88302 3.66663 9.99996 3.66663C10.1169 3.66663 10.2309 3.68051 10.342 3.70829C10.4532 3.73607 10.5613 3.77774 10.6666 3.83329L18.5833 7.79163C18.7083 7.86107 18.809 7.95135 18.8854 8.06246C18.9618 8.17357 19 8.30496 19 8.45663V13.75C19 13.9625 18.9285 14.1406 18.7856 14.2843C18.6427 14.4281 18.4656 14.5 18.2543 14.5C18.0431 14.5 17.8645 14.4281 17.7187 14.2843C17.5729 14.1406 17.5 13.9625 17.5 13.75ZM9.33329 17.1666L5.33329 15.1666C5.08329 15.0416 4.8819 14.8582 4.72913 14.6162C4.57635 14.3744 4.49996 14.1134 4.49996 13.8333V11.4375L9.33329 13.8541C9.54454 13.9652 9.76746 14.0208 10.002 14.0208C10.2368 14.0208 10.4583 13.9652 10.6666 13.8541L15.5 11.4375V13.8333C15.5 14.1134 15.4236 14.3744 15.2708 14.6162C15.118 14.8582 14.9166 15.0416 14.6666 15.1666L10.6666 17.1666C10.5613 17.2222 10.4532 17.2638 10.342 17.2916C10.2309 17.3194 10.1169 17.3333 9.99996 17.3333C9.88302 17.3333 9.76899 17.3194 9.65788 17.2916C9.54676 17.2638 9.43857 17.2222 9.33329 17.1666Z" fill="#064E41"/>
</g>
</svg>
