<svg width="44" height="44" viewBox="0 0 44 44" fill="none" xmlns="http://www.w3.org/2000/svg">
<path d="M28.7538 32.5674L26.3524 33.727L17.6559 15.7167L14.1136 14.4214L14.7159 12.6944L18.2768 13.9362L19.5187 10.3753L21.2991 10.9962L20.0573 14.5571L28.7538 32.5674ZM12.8532 18.0357C11.5946 18.6453 10.5595 19.6351 9.89419 20.8651C9.22888 22.0951 8.96703 23.5031 9.14567 24.8901C9.32431 26.277 9.93439 27.5727 10.8897 28.594C11.8449 29.6153 13.0971 30.3105 14.469 30.5812L15.6286 32.9826C16.9098 35.6361 20.0969 36.7476 22.7504 35.4663C23.6149 35.0488 24.3092 34.4323 24.8258 33.7238L24.8387 33.6584L17.035 17.4971C15.6612 17.2277 14.21 17.3806 12.8532 18.0357ZM16.0213 26.1301L13.3506 25.1987L14.282 22.528L16.9527 23.4594L16.0213 26.1301ZM33.7623 15.3427C32.1622 12.0288 28.1739 10.6379 24.86 12.2381C23.5153 12.8874 22.4931 13.9288 21.8377 15.1781L29.6414 31.3393C30.5527 31.4175 31.4794 31.2514 32.3559 30.8281C35.0094 29.5468 36.1208 26.3598 34.8395 23.7063L33.68 21.3049C34.6052 19.5108 34.7131 17.3118 33.7623 15.3427ZM29.2289 19.7526L26.5582 18.8213L27.4896 16.1506L30.1603 17.082L29.2289 19.7526Z" fill="#EA88BD"/>
</svg>
