<svg width="20" height="20" viewBox="0 0 20 20" fill="none" xmlns="http://www.w3.org/2000/svg">
<path d="M12.0832 10.4167C12.0832 10.9692 11.8637 11.4991 11.473 11.8898C11.0823 12.2805 10.5524 12.5 9.99984 12.5C9.4473 12.5 8.9174 12.2805 8.5267 11.8898C8.136 11.4991 7.9165 10.9692 7.9165 10.4167C7.9165 9.86417 8.136 9.33427 8.5267 8.94357C8.9174 8.55287 9.4473 8.33337 9.99984 8.33337C10.5524 8.33337 11.0823 8.55287 11.473 8.94357C11.8637 9.33427 12.0832 9.86417 12.0832 10.4167Z" stroke="#DD579B" stroke-width="1.5" stroke-linecap="round" stroke-linejoin="round"/>
<path d="M9.99977 2.5C11.8414 2.5 13.3314 4.0975 13.3314 5.93917C13.5992 5.86861 13.8776 5.83333 14.1664 5.83333C14.9237 5.83298 15.6586 6.0905 16.25 6.56349C16.8414 7.03649 17.2541 7.69676 17.4202 8.43561C17.5863 9.17446 17.4958 9.94784 17.1637 10.6284C16.8316 11.309 16.2777 11.8562 15.5931 12.18C15.8643 12.5465 16.0574 12.9648 16.1605 13.409C16.2636 13.8531 16.2745 14.3137 16.1925 14.7622C16.1105 15.2107 15.9373 15.6376 15.6837 16.0166C15.4301 16.3955 15.1015 16.7184 14.7182 16.9652C14.3348 17.2121 13.9049 17.3777 13.455 17.4517C13.0051 17.5258 12.5448 17.5068 12.1025 17.3958C11.6603 17.2849 11.2455 17.0844 10.8838 16.8068C10.5221 16.5291 10.2212 16.1802 9.99977 15.7817C9.77831 16.1802 9.47744 16.5291 9.11576 16.8068C8.75408 17.0844 8.33929 17.2849 7.89704 17.3958C7.45478 17.5068 6.99447 17.5258 6.54457 17.4517C6.09467 17.3777 5.66475 17.2121 5.28139 16.9652C4.89804 16.7184 4.5694 16.3955 4.31581 16.0166C4.06222 15.6376 3.88907 15.2107 3.80706 14.7622C3.72505 14.3137 3.73593 13.8531 3.83902 13.409C3.94212 12.9648 4.13524 12.5465 4.40644 12.18C3.65397 11.8266 3.06073 11.2047 2.74311 10.4364C2.42549 9.66816 2.40641 8.80893 2.68963 8.02732C2.97285 7.24571 3.53791 6.59815 4.27395 6.21167C5.01 5.82519 5.86389 5.7277 6.66811 5.93833C6.66811 4.09833 8.15894 2.5 9.99977 2.5Z" fill="white" stroke="#DD579B" stroke-width="1.5" stroke-linecap="round" stroke-linejoin="round"/>
<circle cx="10" cy="10" r="2" fill="#DD579B"/>
</svg>
