<svg width="25" height="27" viewBox="0 0 25 27" fill="none" xmlns="http://www.w3.org/2000/svg">
<path d="M12.4999 0.208374C13.7818 0.208374 15.0112 0.717599 15.9176 1.62402C16.8241 2.53045 17.3333 3.75983 17.3333 5.04171L17.3309 5.10817L17.3671 5.08642C18.3853 4.49572 19.5852 4.30004 20.7384 4.53662L21.0247 4.60429C21.6351 4.76932 22.2068 5.05337 22.7069 5.44012C23.2071 5.82686 23.6259 6.30867 23.9392 6.85783C24.5767 7.96705 24.7496 9.28334 24.4202 10.5195C24.0908 11.7557 23.2859 12.8115 22.1811 13.4565L22.0989 13.5L22.1847 13.5472C23.2498 14.1699 24.0371 15.1754 24.3863 16.3587C24.7354 17.542 24.6201 18.8139 24.0637 19.9151L23.9417 20.1398C23.6282 20.6898 23.2089 21.1722 22.7081 21.5594C22.2073 21.9465 21.6349 22.2308 21.0237 22.3956C20.4126 22.5605 19.7748 22.6028 19.1472 22.5201C18.5197 22.4374 17.9147 22.2313 17.3671 21.9137L17.3309 21.8895L17.3333 21.9584C17.3333 23.1984 16.8567 24.391 16.002 25.2895C15.1474 26.188 13.9801 26.7237 12.7416 26.7857L12.4999 26.7917C11.2181 26.7917 9.98869 26.2825 9.08226 25.3761C8.17584 24.4696 7.66661 23.2403 7.66661 21.9584L7.66782 21.8907L7.63278 21.9137C6.61471 22.5048 5.41482 22.7009 4.26153 22.4647L3.97636 22.397C3.3658 22.2321 2.79388 21.9481 2.29348 21.5614C1.79309 21.1746 1.37411 20.6927 1.06065 20.1435C0.423404 19.0346 0.250359 17.7189 0.579247 16.483C0.908135 15.2471 1.71228 14.1914 2.81636 13.546L2.90095 13.5L2.81515 13.4541C1.75013 12.8314 0.962768 11.8258 0.613619 10.6426C0.264471 9.45927 0.379839 8.18736 0.936195 7.08621L1.05703 6.86025C1.37051 6.30983 1.7899 5.82695 2.29098 5.43948C2.79207 5.052 3.36493 4.76759 3.97651 4.60268C4.58809 4.43776 5.22627 4.3956 5.85423 4.47863C6.48219 4.56166 7.08749 4.76822 7.63519 5.08642L7.66661 5.10817V5.04171C7.66661 3.80166 8.14322 2.60906 8.99786 1.71056C9.8525 0.812063 11.0198 0.276418 12.2583 0.214416L12.4999 0.208374ZM12.4999 9.87504C11.5385 9.87504 10.6165 10.257 9.93668 10.9368C9.25686 11.6166 8.87494 12.5386 8.87494 13.5C8.87494 14.4614 9.25686 15.3835 9.93668 16.0633C10.6165 16.7431 11.5385 17.125 12.4999 17.125C13.4614 17.125 14.3834 16.7431 15.0632 16.0633C15.743 15.3835 16.1249 14.4614 16.1249 13.5C16.1249 12.5386 15.743 11.6166 15.0632 10.9368C14.3834 10.257 13.4614 9.87504 12.4999 9.87504Z" fill="#EA88BD"/>
</svg>
