<svg width="18" height="17" viewBox="0 0 18 17" fill="none" xmlns="http://www.w3.org/2000/svg">
<path d="M1.2085 15.5834C1.2085 15.9659 1.52725 16.2917 1.91683 16.2917H11.1252C11.5218 16.2917 11.8335 15.9659 11.8335 15.5834V14.875H1.2085V15.5834ZM6.521 6.37504C3.86475 6.37504 1.2085 7.79171 1.2085 10.625H11.8335C11.8335 7.79171 9.17725 6.37504 6.521 6.37504ZM3.06433 9.20837C3.85058 8.11046 5.52225 7.79171 6.521 7.79171C7.51975 7.79171 9.19141 8.11046 9.97766 9.20837H3.06433ZM1.2085 12.0417H11.8335V13.4584H1.2085V12.0417ZM13.2502 3.54171V0.708374H11.8335V3.54171H8.29183L8.45475 4.95837H15.2264L14.2347 14.875H13.2502V16.2917H14.4685C15.0635 16.2917 15.5522 15.8313 15.6231 15.2505L16.7918 3.54171H13.2502Z" fill="white"/>
</svg>
