<svg width="20" height="23" viewBox="0 0 20 23" fill="none" xmlns="http://www.w3.org/2000/svg">
<path d="M16.3507 9.2056C18.8887 15.5651 13.976 20.615 13.976 20.615C13.976 20.615 7.16703 20.9131 4.39838 13.9756C1.62972 7.03807 6.77303 2.56618 6.77303 2.56618C6.77303 2.56618 13.8127 2.8461 16.3507 9.2056ZM12.5354 17.0052L13.9336 13.8318L12.5354 17.0052ZM11.2749 13.8467L8.07601 12.5079L11.2749 13.8467ZM10.1945 11.1394L11.5926 7.96596L10.1945 11.1394ZM13.976 20.615L8.57378 7.07839L13.976 20.615Z" fill="#7FB8AE"/>
<path d="M13.976 20.615C13.976 20.615 18.8887 15.5651 16.3507 9.2056C13.8127 2.8461 6.77303 2.56618 6.77303 2.56618C6.77303 2.56618 1.62972 7.03807 4.39838 13.9756C7.16703 20.9131 13.976 20.615 13.976 20.615ZM13.976 20.615L8.57378 7.07839M12.5354 17.0052L13.9336 13.8318M11.2749 13.8467L8.07601 12.5079M10.1945 11.1394L11.5926 7.96596" stroke="#064E41" stroke-width="2" stroke-linecap="round" stroke-linejoin="round"/>
</svg>
