<svg width="19" height="18" viewBox="0 0 19 18" fill="none" xmlns="http://www.w3.org/2000/svg">
<path d="M13.2933 3.49814C18.9389 7.37266 17.6636 14.3015 17.6636 14.3015C17.6636 14.3015 12.1701 18.3354 6.01134 14.1087C-0.147377 9.88203 1.64096 3.30532 1.64096 3.30532C1.64096 3.30532 7.64767 -0.376369 13.2933 3.49814ZM14.4591 12.1023L13.8566 8.68727L14.4591 12.1023ZM11.6551 10.1779L8.25193 10.8439L11.6551 10.1779ZM9.25173 8.52852L8.64927 5.1135L9.25173 8.52852ZM17.6636 14.3015L5.64663 6.05437L17.6636 14.3015Z" fill="#7FB8AE"/>
<path d="M17.6636 14.3015C17.6636 14.3015 18.9389 7.37266 13.2933 3.49814C7.64767 -0.376369 1.64096 3.30532 1.64096 3.30532C1.64096 3.30532 -0.147377 9.88203 6.01134 14.1087C12.1701 18.3354 17.6636 14.3015 17.6636 14.3015ZM17.6636 14.3015L5.64663 6.05437M14.4591 12.1023L13.8566 8.68727M11.6551 10.1779L8.25193 10.8439M9.25173 8.52852L8.64927 5.1135" stroke="#064E41" stroke-width="2" stroke-linecap="round" stroke-linejoin="round"/>
</svg>
