<svg width="21" height="21" viewBox="0 0 21 21" fill="none" xmlns="http://www.w3.org/2000/svg">
<path fill-rule="evenodd" clip-rule="evenodd" d="M10.4998 2.16663C15.1023 2.16663 18.8332 5.89746 18.8332 10.5C18.8332 15.1025 15.1023 18.8333 10.4998 18.8333C5.89734 18.8333 2.1665 15.1025 2.1665 10.5C2.1665 5.89746 5.89734 2.16663 10.4998 2.16663ZM10.4998 3.83329C8.73173 3.83329 7.03603 4.53567 5.78579 5.78591C4.53555 7.03616 3.83317 8.73185 3.83317 10.5C3.83317 12.2681 4.53555 13.9638 5.78579 15.214C7.03603 16.4642 8.73173 17.1666 10.4998 17.1666C12.2679 17.1666 13.9636 16.4642 15.2139 15.214C16.4641 13.9638 17.1665 12.2681 17.1665 10.5C17.1665 8.73185 16.4641 7.03616 15.2139 5.78591C13.9636 4.53567 12.2679 3.83329 10.4998 3.83329ZM11.7498 6.33329C12.5103 6.33219 13.241 6.62812 13.7864 7.15799C14.3318 7.68787 14.6488 8.4098 14.6696 9.16993C14.6905 9.93006 14.4137 10.6683 13.8981 11.2273C13.3826 11.7863 12.6692 12.1218 11.9098 12.1625L11.7498 12.1666H9.6665V13.8333C9.66627 14.0457 9.58494 14.25 9.43913 14.4044C9.29332 14.5589 9.09404 14.6518 8.88201 14.6643C8.66997 14.6767 8.46119 14.6077 8.29831 14.4714C8.13543 14.3351 8.03076 14.1417 8.00567 13.9308L7.99984 13.8333V7.99996C7.9997 7.57948 8.15851 7.17449 8.44442 6.86617C8.73033 6.55785 9.12221 6.369 9.5415 6.33746L9.6665 6.33329H11.7498ZM11.7498 7.99996H9.6665V10.5H11.7498C12.0709 10.4998 12.3795 10.3761 12.6118 10.1546C12.8442 9.93309 12.9823 9.63067 12.9978 9.31003C13.0132 8.98939 12.9047 8.6751 12.6947 8.43229C12.4847 8.18948 12.1894 8.03677 11.8698 8.00579L11.7498 7.99996Z" fill="white"/>
</svg>
