<svg width="19" height="19" viewBox="0 0 19 19" fill="none" xmlns="http://www.w3.org/2000/svg">
<path d="M5.93783 5.54167C6.81228 5.54167 7.52116 4.83278 7.52116 3.95833C7.52116 3.08388 6.81228 2.375 5.93783 2.375C5.06337 2.375 4.35449 3.08388 4.35449 3.95833C4.35449 4.83278 5.06337 5.54167 5.93783 5.54167Z" fill="white" stroke="white" stroke-width="2" stroke-linecap="round" stroke-linejoin="round"/>
<path d="M13.0628 5.54167C13.9373 5.54167 14.6462 4.83278 14.6462 3.95833C14.6462 3.08388 13.9373 2.375 13.0628 2.375C12.1884 2.375 11.4795 3.08388 11.4795 3.95833C11.4795 4.83278 12.1884 5.54167 13.0628 5.54167Z" fill="white" stroke="white" stroke-width="2" stroke-linecap="round" stroke-linejoin="round"/>
<path d="M3.9585 7.91663H7.91683L7.12516 16.625H4.75016L3.9585 7.91663ZM11.0835 7.91663H15.0418L15.8335 12.2708H14.646L14.2502 16.625H11.8752L11.4793 12.2708H10.2918L11.0835 7.91663Z" fill="white" stroke="white" stroke-width="2" stroke-linecap="round" stroke-linejoin="round"/>
</svg>
