<svg width="11" height="13" viewBox="0 0 11 13" fill="none" xmlns="http://www.w3.org/2000/svg">
<path d="M4.62434 0.517209C4.85242 0.341043 5.16159 0.166626 5.49992 0.166626C5.83825 0.166626 6.14742 0.341043 6.3755 0.517209C6.62284 0.707959 6.86317 0.968126 7.07375 1.27263C7.18109 1.42779 7.28142 1.59696 7.37475 1.78013C7.90745 1.50473 8.49359 1.34829 9.09267 1.32163C9.75067 1.29071 10.1666 1.84429 10.1666 2.38213V3.66663C10.1667 4.80335 9.7519 5.90103 9.00006 6.75361C8.24823 7.60619 7.21106 8.15504 6.08325 8.29713V10.088C6.71092 9.69771 7.63609 9.23979 8.85875 8.93413C8.93355 8.91406 9.0116 8.90908 9.08834 8.9195C9.16509 8.92991 9.23899 8.9555 9.30573 8.99478C9.37248 9.03405 9.43074 9.08622 9.47712 9.14825C9.52349 9.21028 9.55704 9.28092 9.57583 9.35606C9.59461 9.43119 9.59824 9.50931 9.58652 9.58586C9.57479 9.66242 9.54794 9.73587 9.50752 9.80193C9.46711 9.868 9.41395 9.92535 9.35113 9.97066C9.28832 10.016 9.21711 10.0483 9.14167 10.0658C7.2645 10.5354 6.204 11.4016 5.9625 11.6163C5.82659 11.7376 5.69184 11.8333 5.49992 11.8333C5.31034 11.8333 5.17559 11.74 5.04084 11.6192C4.80692 11.4104 3.74584 10.5377 1.85817 10.0658C1.78339 10.0476 1.71294 10.0148 1.65089 9.96933C1.58883 9.92382 1.5364 9.86648 1.4966 9.80061C1.45681 9.73475 1.43043 9.66166 1.41901 9.58555C1.40758 9.50945 1.41133 9.43184 1.43003 9.35719C1.44873 9.28255 1.48202 9.21233 1.52797 9.15061C1.57392 9.08888 1.63164 9.03685 1.69779 8.99753C1.76393 8.95821 1.83721 8.93236 1.91339 8.92147C1.98957 8.91059 2.06716 8.91489 2.14167 8.93413C3.36375 9.23979 4.28834 9.69829 4.91659 10.088V8.29713C3.78878 8.15504 2.75161 7.60619 1.99977 6.75361C1.24794 5.90103 0.833146 4.80335 0.833252 3.66663V2.37396C0.833252 1.84371 1.23692 1.29479 1.88734 1.31229C2.3155 1.32396 2.96884 1.41029 3.63734 1.75738C3.726 1.58354 3.824 1.42079 3.92609 1.27321C4.13609 0.968126 4.377 0.707376 4.62434 0.517209Z" fill="white"/>
</svg>
