<svg width="32" height="32" viewBox="0 0 32 32" fill="none" xmlns="http://www.w3.org/2000/svg">
<path d="M5.84344 25.5979C7.33094 24.5278 8.90929 23.6815 10.5785 23.0591C12.2477 22.4364 14.0549 22.125 16 22.125C17.9451 22.125 19.7523 22.4364 21.4215 23.0591C23.0907 23.6815 24.6691 24.5278 26.1566 25.5979C27.3121 24.402 28.2415 22.9898 28.9448 21.3611C29.6483 19.7322 30 17.9451 30 16C30 12.1208 28.6365 8.81771 25.9094 6.09063C23.1823 3.36354 19.8792 2 16 2C12.1208 2 8.81771 3.36354 6.09063 6.09063C3.36354 8.81771 2 12.1208 2 16C2 17.9451 2.35175 19.7322 3.05525 21.3611C3.75846 22.9898 4.68785 24.402 5.84344 25.5979ZM16 16.875C14.5259 16.875 13.2824 16.3685 12.2694 15.3556C11.2565 14.3426 10.75 13.0991 10.75 11.625C10.75 10.1509 11.2565 8.90739 12.2694 7.89444C13.2824 6.88148 14.5259 6.375 16 6.375C17.4741 6.375 18.7176 6.88148 19.7306 7.89444C20.7435 8.90739 21.25 10.1509 21.25 11.625C21.25 13.0991 20.7435 14.3426 19.7306 15.3556C18.7176 16.3685 17.4741 16.875 16 16.875ZM16 31.75C13.8035 31.75 11.7472 31.3411 9.83125 30.5233C7.91529 29.7054 6.24827 28.5876 4.83019 27.1698C3.4124 25.7517 2.29458 24.0847 1.47675 22.1688C0.658916 20.2528 0.25 18.1965 0.25 16C0.25 13.8035 0.658916 11.7472 1.47675 9.83125C2.29458 7.91529 3.4124 6.24827 4.83019 4.83019C6.24827 3.4124 7.91529 2.29458 9.83125 1.47675C11.7472 0.658916 13.8035 0.25 16 0.25C18.1965 0.25 20.2528 0.658916 22.1688 1.47675C24.0847 2.29458 25.7517 3.4124 27.1698 4.83019C28.5876 6.24827 29.7054 7.91529 30.5233 9.83125C31.3411 11.7472 31.75 13.8035 31.75 16C31.75 18.1965 31.3411 20.2528 30.5233 22.1688C29.7054 24.0847 28.5876 25.7517 27.1698 27.1698C25.7517 28.5876 24.0847 29.7054 22.1688 30.5233C20.2528 31.3411 18.1965 31.75 16 31.75Z" fill="white"/>
</svg>
