<svg width="15" height="15" viewBox="0 0 15 15" fill="none" xmlns="http://www.w3.org/2000/svg">
<g clip-path="url(#clip0_1326_283)">
<path d="M8.56932 5.13033L7.0196 3.90059C7.08597 3.77335 7.11443 3.62974 7.10161 3.4868C7.08879 3.34386 7.03524 3.20761 6.9473 3.0942C6.85936 2.98079 6.74073 2.89499 6.60549 2.84698C6.47024 2.79898 6.32407 2.79078 6.18431 2.82337C6.04455 2.85596 5.91707 2.92796 5.817 3.03082C5.71694 3.13369 5.64849 3.26311 5.61977 3.40372C5.59106 3.54433 5.60329 3.69022 5.65501 3.82409C5.70673 3.95795 5.79578 4.07417 5.91157 4.15894L5.06554 5.94726C5.02945 6.02397 4.96844 6.08619 4.89244 6.12377C4.81645 6.16135 4.72996 6.17207 4.6471 6.15418L2.6114 5.717C2.60894 5.67342 2.6026 5.62972 2.59239 5.58589C2.55804 5.43863 2.47999 5.30519 2.36846 5.20307C2.25693 5.10096 2.11714 5.03494 1.96743 5.01368C1.81772 4.99242 1.66508 5.01692 1.52953 5.08394C1.39399 5.15097 1.28187 5.25741 1.20788 5.38929C1.1339 5.52117 1.10151 5.67233 1.11496 5.82294C1.12841 5.97356 1.18707 6.11659 1.28325 6.23327C1.37943 6.34996 1.50864 6.43484 1.65391 6.47679C1.79919 6.51874 1.95376 6.5158 2.09733 6.46835L4.15382 10.9946C4.24348 11.1916 4.39852 11.3515 4.59264 11.4471C4.78676 11.5428 5.008 11.5684 5.21882 11.5195L10.8941 10.1963C11.1052 10.1471 11.2928 10.0263 11.4248 9.85436C11.5569 9.68245 11.6253 9.47009 11.6184 9.25342L11.4612 4.2851C11.4831 4.28205 11.505 4.27797 11.5269 4.27286C11.6768 4.23781 11.8123 4.15746 11.915 4.04273C12.0177 3.928 12.0826 3.78444 12.1008 3.63156C12.1191 3.47868 12.0899 3.32387 12.0171 3.18817C11.9444 3.05248 11.8316 2.94246 11.6942 2.87306C11.5567 2.80366 11.4012 2.77825 11.2489 2.80027C11.0965 2.82229 10.9545 2.89068 10.8424 2.99615C10.7302 3.10162 10.6532 3.23907 10.6218 3.38981C10.5905 3.54055 10.6063 3.6973 10.6671 3.83875L9.0354 5.13101C8.96902 5.1835 8.88685 5.212 8.80224 5.21187C8.71762 5.21175 8.63553 5.18301 8.56932 5.13033ZM7.54629 8.66649C7.35257 8.71166 7.14885 8.67802 6.97993 8.57298C6.81102 8.46794 6.69075 8.3001 6.64558 8.10638C6.60041 7.91266 6.63405 7.70894 6.73909 7.54002C6.84413 7.37111 7.01197 7.25084 7.20569 7.20567C7.39941 7.1605 7.60313 7.19414 7.77205 7.29918C7.94096 7.40422 8.06123 7.57206 8.1064 7.76578C8.15157 7.9595 8.11793 8.16322 8.01289 8.33214C7.90785 8.50105 7.74001 8.62132 7.54629 8.66649Z" fill="#FDC349"/>
<path d="M7.54629 8.66649C7.35257 8.71166 7.14885 8.67802 6.97993 8.57298C6.81102 8.46794 6.69075 8.3001 6.64558 8.10638C6.60041 7.91266 6.63405 7.70894 6.73909 7.54002C6.84413 7.37111 7.01197 7.25084 7.20569 7.20567C7.39941 7.1605 7.60313 7.19414 7.77205 7.29918C7.94096 7.40422 8.06123 7.57206 8.1064 7.76578C8.15157 7.9595 8.11793 8.16322 8.01289 8.33214C7.90785 8.50105 7.74001 8.62132 7.54629 8.66649Z" fill="white"/>
</g>
<defs>
<clipPath id="clip0_1326_283">
<rect width="12" height="12" fill="white" transform="translate(0 2.72485) rotate(-13.1245)"/>
</clipPath>
</defs>
</svg>
