<svg width="59" height="67" viewBox="0 0 59 67" fill="none" xmlns="http://www.w3.org/2000/svg">
<path d="M29.3261 8.55416C30.7251 8.56978 31.983 8.90238 33.0995 9.55147C33.8632 9.99569 34.3635 10.5022 34.5999 11.0716C34.8285 11.6365 34.842 12.3811 34.6402 13.3048L34.3919 14.2238C34.2274 14.8814 34.1932 15.3545 34.2894 15.6428C34.3779 15.9269 34.5973 16.1708 34.9479 16.3747L35.4741 16.6804L30.3153 19.6794L29.7421 19.3465C29.1029 18.9751 28.6952 18.5553 28.5185 18.0869C28.334 17.6142 28.3648 16.8624 28.6107 15.8312L28.8472 14.9054C28.9849 14.3541 28.9982 13.902 28.8876 13.5496C28.7862 13.1914 28.5563 12.9081 28.1978 12.6996C27.6522 12.3824 26.9985 12.2686 26.2373 12.3577C25.468 12.4424 24.6739 12.723 23.8547 13.1993C23.0829 13.6478 22.3821 14.2095 21.7514 14.884C21.1131 15.5544 20.5655 16.3214 20.1081 17.1853L16.4371 15.0509C17.2625 14.1908 18.0736 13.4386 18.8703 12.7939C19.6672 12.1496 20.5085 11.5698 21.3945 11.0544C23.7191 9.70304 25.8809 8.89932 27.8797 8.64371C28.3777 8.57864 28.8596 8.54884 29.3261 8.55416Z" fill="white"/>
<path d="M37.2047 17.6865L41.3669 20.1064L36.2081 23.1054L32.0457 20.6857L37.2047 17.6865Z" fill="white"/>
<path d="M7.58911 31.0581C8.60628 31.2782 9.53528 31.5475 10.376 31.8656C11.2165 32.1838 12.028 32.577 12.8098 33.0454C14.8608 34.2743 16.4243 35.6746 17.5003 37.2463C18.5763 38.8086 19.1143 40.475 19.1143 42.2457C19.1143 43.1541 18.9506 43.8715 18.6226 44.3982C18.2948 44.9155 17.7357 45.3501 16.9456 45.7019L16.1384 46.0111C15.5669 46.2434 15.1927 46.4827 15.0162 46.7294C14.8397 46.9665 14.7515 47.2935 14.7515 47.7107V48.3364L10.1996 45.6091V44.9278C10.1996 44.1675 10.3381 43.5787 10.6156 43.1609C10.893 42.7337 11.4774 42.333 12.3684 41.9582L13.1755 41.6351C13.6547 41.4402 14.0035 41.1951 14.2221 40.8995C14.4487 40.6091 14.5623 40.2508 14.5623 39.8243C14.5623 39.1757 14.3605 38.5494 13.9569 37.9463C13.5534 37.3336 12.9904 36.8107 12.2673 36.3775C11.5864 35.9697 10.8508 35.6865 10.0606 35.5283C9.27047 35.3608 8.44656 35.3264 7.58911 35.4245V31.0581Z" fill="white"/>
<path d="M10.1995 47.6675L14.7515 50.3943V55.3448L10.1996 52.618L10.1995 47.6675Z" fill="white"/>
<path d="M49.4276 32.4444C49.6639 32.4444 49.8827 32.471 50.0845 32.5238C51.1605 32.797 51.6985 33.8188 51.6985 35.5896C51.6985 36.498 51.5346 37.4118 51.2068 38.3314C50.8789 39.2414 50.3198 40.3458 49.5298 41.6441L48.7226 42.9204C48.1511 43.8377 47.7768 44.5251 47.6003 44.9832C47.4239 45.4317 47.3357 45.8647 47.3357 46.2818V46.9076L42.7838 49.6347V48.9534C42.7838 48.1932 42.9226 47.4378 43.1998 46.6877C43.4776 45.9283 44.0616 44.8274 44.9526 43.3853L45.7597 42.0951C46.2389 41.3259 46.5877 40.6626 46.8062 40.1053C47.0329 39.5429 47.1465 39.0484 47.1465 38.6219C47.1465 37.9732 46.9447 37.5889 46.5414 37.469C46.1378 37.3402 45.5744 37.4919 44.8515 37.9248C44.1706 38.3328 43.4353 38.9315 42.645 39.7199C41.855 40.4995 41.031 41.4517 40.1736 42.5772V38.2107C41.1908 37.2121 42.1195 36.3681 42.9598 35.6791C43.8007 34.9901 44.6122 34.4115 45.3937 33.9433C47.0605 32.9447 48.4047 32.4452 49.4276 32.4444Z" fill="white"/>
<path d="M47.3357 48.9657V53.916L42.7838 56.6428V51.6928L47.3357 48.9657Z" fill="white"/>
<path fill-rule="evenodd" clip-rule="evenodd" d="M1.50006 20.7896C0.607073 20.7647 0 21.488 0 22.7675V48.1668C0 49.9469 1.17503 52.0586 2.6605 52.9488L25.4673 66.6149C26.9527 67.5049 28.1278 66.801 28.1278 65.0211V39.6213C28.1278 37.8412 26.9527 35.73 25.4673 34.8396L2.6605 21.1738C2.24296 20.9233 1.84947 20.7993 1.50006 20.7896ZM10.376 31.8656C9.53528 31.5475 8.60628 31.2782 7.58911 31.0581V35.4245C8.44656 35.3264 9.27047 35.3608 10.0606 35.5283C10.8508 35.6865 11.5864 35.9697 12.2673 36.3775C12.9904 36.8107 13.5534 37.3336 13.9569 37.9463C14.3605 38.5494 14.5623 39.1757 14.5623 39.8243C14.5623 40.2508 14.4487 40.6091 14.2221 40.8995C14.0035 41.1951 13.6547 41.4402 13.1755 41.6351L12.3684 41.9582C11.4774 42.333 10.893 42.7337 10.6156 43.1609C10.3381 43.5787 10.1996 44.1675 10.1996 44.9278V45.6091L14.7515 48.3364V47.7107C14.7515 47.2935 14.8397 46.9665 15.0162 46.7294C15.1927 46.4827 15.5669 46.2434 16.1384 46.0111L16.9456 45.7019C17.7357 45.3501 18.2948 44.9155 18.6226 44.3982C18.9506 43.8715 19.1143 43.1541 19.1143 42.2457C19.1143 40.475 18.5763 38.8086 17.5003 37.2463C16.4243 35.6746 14.8608 34.2743 12.8098 33.0454C12.028 32.577 11.2165 32.1838 10.376 31.8656ZM14.7515 50.3943L10.1995 47.6675L10.1996 52.618L14.7515 55.3448V50.3943Z" fill="#ED348C"/>
<path fill-rule="evenodd" clip-rule="evenodd" d="M29.454 0C28.4953 0 27.5365 0.222914 26.7939 0.668742L3.08333 14.9004C1.59785 15.7921 1.59785 17.2021 3.08333 18.0937L26.7939 32.3254C28.2794 33.2171 30.6284 33.2171 32.1137 32.3254L55.8243 18.0937C57.3098 17.2022 57.3098 15.7921 55.8243 14.9006L32.1137 0.668903C31.371 0.222753 30.4125 0 29.454 0ZM29.3261 8.55416C30.7251 8.56978 31.983 8.90238 33.0995 9.55147C33.8632 9.99569 34.3635 10.5022 34.5999 11.0716C34.8285 11.6365 34.842 12.3811 34.6402 13.3048L34.3919 14.2238C34.2274 14.8814 34.1932 15.3545 34.2894 15.6428C34.3779 15.9269 34.5973 16.1708 34.9479 16.3747L35.4741 16.6804L30.3153 19.6794L29.7421 19.3465C29.1029 18.9751 28.6952 18.5553 28.5185 18.0869C28.334 17.6142 28.3648 16.8624 28.6107 15.8312L28.8472 14.9054C28.9849 14.3541 28.9982 13.902 28.8876 13.5496C28.7862 13.1914 28.5563 12.9081 28.1978 12.6996C27.6522 12.3824 26.9985 12.2686 26.2373 12.3577C25.468 12.4424 24.6739 12.723 23.8547 13.1993C23.0829 13.6478 22.3821 14.2095 21.7514 14.884C21.1131 15.5544 20.5655 16.3214 20.1081 17.1853L16.4371 15.0509C17.2625 14.1908 18.0736 13.4386 18.8703 12.7939C19.6672 12.1496 20.5085 11.5698 21.3945 11.0544C23.7191 9.70304 25.8809 8.89932 27.8797 8.64371C28.3777 8.57864 28.8596 8.54884 29.3261 8.55416ZM37.2047 17.6865L41.3669 20.1064L36.2081 23.1054L32.0457 20.6857L37.2047 17.6865Z" fill="#C95C9C"/>
<path fill-rule="evenodd" clip-rule="evenodd" d="M57.4999 20.7899C57.1507 20.7996 56.7575 20.9236 56.3398 21.1741L33.5323 34.84C32.0468 35.7302 30.8718 37.8419 30.8718 39.622V65.0219C30.8718 66.8017 32.0468 67.5052 33.5323 66.6149L56.34 52.9495C57.8254 52.0592 59 49.9478 59 48.1678V35.4678V22.7678C59 21.4886 58.3931 20.7651 57.4999 20.7899ZM50.0845 32.5238C49.8827 32.471 49.6639 32.4444 49.4276 32.4444C48.4047 32.4452 47.0605 32.9447 45.3937 33.9433C44.6122 34.4115 43.8007 34.9901 42.9598 35.6791C42.1195 36.3681 41.1908 37.2121 40.1736 38.2107V42.5772C41.031 41.4517 41.855 40.4995 42.645 39.7199C43.4353 38.9315 44.1706 38.3328 44.8515 37.9248C45.5744 37.4919 46.1378 37.3402 46.5414 37.469C46.9447 37.5889 47.1465 37.9732 47.1465 38.6219C47.1465 39.0484 47.0329 39.5429 46.8062 40.1053C46.5877 40.6626 46.2389 41.3259 45.7597 42.0951L44.9526 43.3853C44.0616 44.8274 43.4776 45.9283 43.1998 46.6877C42.9226 47.4378 42.7838 48.1932 42.7838 48.9534V49.6347L47.3357 46.9076V46.2818C47.3357 45.8647 47.4239 45.4317 47.6003 44.9832C47.7768 44.5251 48.1511 43.8377 48.7226 42.9204L49.5298 41.6441C50.3198 40.3458 50.8789 39.2414 51.2068 38.3314C51.5346 37.4118 51.6985 36.498 51.6985 35.5896C51.6985 33.8188 51.1605 32.797 50.0845 32.5238ZM47.3357 53.916V48.9657L42.7838 51.6928V56.6428L47.3357 53.916Z" fill="#F7A6CC"/>
</svg>
