<svg width="175" height="145" viewBox="0 0 175 145" fill="none" xmlns="http://www.w3.org/2000/svg">
<g filter="url(#filter0_d_432_1776)">
<rect x="4" width="167" height="137" rx="5" fill="url(#paint0_radial_432_1776)"/>
<rect x="4" width="167" height="137" rx="5" fill="url(#paint1_linear_432_1776)" fill-opacity="0.2"/>
<rect x="4.5" y="0.5" width="166" height="136" rx="4.5" stroke="white"/>
</g>
<g filter="url(#filter1_d_432_1776)">
<path d="M162.23 51.3118L162.23 51.3114C162.284 50.8037 162.177 50.2919 161.924 49.8483L161.403 50.1454L161.924 49.8483C161.671 49.4048 161.285 49.052 160.821 48.8398C160.821 48.8398 160.821 48.8398 160.821 48.8398L145.001 41.6078L145.001 41.6077C144.523 41.3891 143.986 41.3314 143.472 41.4434L143.472 41.4434L126.477 45.1496C125.978 45.2583 125.526 45.5211 125.185 45.9008L125.631 46.3018L125.185 45.9008C124.844 46.2805 124.63 46.758 124.575 47.2656L124.575 47.266L123.988 52.7352C123.919 53.3769 124.108 54.0197 124.513 54.5222C124.918 55.0248 125.506 55.3458 126.147 55.4148L127.374 55.5465L126.074 67.6404C125.016 67.9704 124.065 68.584 123.327 69.4181C122.493 70.3599 121.971 71.5367 121.833 72.7869L121.833 72.7887L121.441 76.4348C121.372 77.0765 121.561 77.7194 121.966 78.2219L121.966 78.2219C122.371 78.7244 122.959 79.0455 123.601 79.1144L156.416 82.6403C157.058 82.7092 157.7 82.5204 158.203 82.1154C158.705 81.7104 159.026 81.1224 159.095 80.4806L159.487 76.8345L159.487 76.8328C159.618 75.5818 159.358 74.321 158.744 73.2235C158.199 72.2516 157.4 71.45 156.436 70.9027L157.736 58.8089L158.962 58.9406C159.604 59.0096 160.247 58.8208 160.749 58.4158C161.252 58.0108 161.573 57.4227 161.642 56.781L162.23 51.3118ZM126.54 74.5352L126.672 73.3087C126.707 72.9834 126.87 72.6853 127.125 72.48C127.379 72.2747 127.705 72.179 128.031 72.214L153.553 74.9563C153.879 74.9913 154.177 75.154 154.382 75.4087C154.587 75.6635 154.683 75.9893 154.648 76.3146L154.516 77.5411L126.54 74.5352ZM130.97 67.6347L132.213 56.0665L134.666 56.3301L133.423 67.8983L130.97 67.6347ZM138.262 68.4183L139.505 56.85L145.604 57.5054L144.361 69.0736L138.262 68.4183ZM149.201 69.5935L150.444 58.0253L152.897 58.2889L151.654 69.8571L149.201 69.5935ZM129.087 50.8355L129.227 49.5286L143.716 46.3701L157.203 52.5363L157.063 53.8414L129.087 50.8355Z" fill="white" stroke="#FA579B" stroke-width="1.2"/>
<g filter="url(#filter2_d_432_1776)">
<path d="M117.367 45.8137L118.581 40.0996C118.616 39.9342 118.697 39.7819 118.814 39.6598C118.932 39.5378 119.081 39.4508 119.245 39.4087C119.408 39.3665 119.581 39.3709 119.742 39.4213C119.904 39.4716 120.048 39.566 120.159 39.6938L123.978 44.1144L129.813 43.4859C129.981 43.4667 130.151 43.4951 130.304 43.5679C130.457 43.6407 130.586 43.755 130.677 43.8977C130.767 44.0404 130.816 44.2057 130.818 44.3748C130.819 44.5439 130.773 44.71 130.684 44.8541L127.628 49.8421L130.02 55.1641C130.327 55.8473 129.711 56.5857 128.979 56.4147L123.272 55.0773L118.917 59.001C118.359 59.5049 117.463 59.1538 117.402 58.4064L116.931 52.5905L111.848 49.6947C111.702 49.6109 111.582 49.4877 111.502 49.3391C111.422 49.1904 111.385 49.0224 111.396 48.854C111.407 48.6855 111.465 48.5235 111.563 48.3864C111.661 48.2492 111.796 48.1423 111.952 48.078L117.367 45.8137Z" fill="white" stroke="#DD579B" stroke-width="1.5" stroke-linecap="round" stroke-linejoin="round"/>
</g>
</g>
<g filter="url(#filter3_d_432_1776)">
<path d="M27.743 74.5539L27.4057 74.4445L27.1312 74.6688L11.7734 87.2152L10.8502 87.9695L11.9843 88.337L18.4759 90.4404L20.1575 99.3941L20.2287 99.7732L20.5956 99.8923L32.6 103.789L32.9374 103.899L33.2121 103.674L42.9846 95.6875L43.2833 95.4434L43.2121 95.0643L41.5306 86.1107L43.1763 84.7672L44.9929 94.44L45.1129 95.0788L45.7517 94.9588L48.8627 94.3746L49.5015 94.2546L49.3816 93.6158L47.0445 81.1718L46.9733 80.7925L46.6062 80.6735L27.743 74.5539ZM24.1301 96.3546L23.314 92.009L30.8471 94.4564L31.1847 94.566L31.4594 94.3414L37.5913 89.3276L38.4074 93.6733L31.9981 98.8974L24.1301 96.3546ZM28.3451 79.4464L38.5696 82.7634L30.2452 89.564L20.0207 86.247L28.3451 79.4464Z" fill="white" stroke="#FA579B" stroke-width="1.3"/>
</g>
<mask id="path-6-outside-1_432_1776" maskUnits="userSpaceOnUse" x="31" y="59" width="116" height="26" fill="black">
<rect fill="white" x="31" y="59" width="116" height="26"/>
<path d="M43.62 62.4C44.3107 62.4 44.8053 62.5587 45.104 62.876C45.4027 63.1933 45.552 63.5947 45.552 64.08C45.552 64.5653 45.4027 64.9667 45.104 65.284C44.8053 65.5827 44.3107 65.732 43.62 65.732H37.6V70.8H43.2C43.8907 70.8 44.3853 70.9587 44.684 71.276C44.9827 71.5933 45.132 71.9947 45.132 72.48C45.132 72.9653 44.9827 73.3667 44.684 73.684C44.3853 73.9827 43.8907 74.132 43.2 74.132H37.6V80.18C37.6 80.572 37.544 80.908 37.432 81.188C37.32 81.4493 37.1707 81.664 36.984 81.832C36.7973 81.9813 36.5827 82.0933 36.34 82.168C36.0973 82.2427 35.8547 82.28 35.612 82.28C35.1267 82.28 34.6787 82.1307 34.268 81.832C33.8573 81.5147 33.652 80.964 33.652 80.18V65.256C33.652 64.192 33.8573 63.4547 34.268 63.044C34.6787 62.6147 35.416 62.4 36.48 62.4H43.62ZM58.8279 77.128C58.8279 77.6507 58.8373 78.0893 58.8559 78.444C58.8933 78.78 58.9306 79.0787 58.9679 79.34C59.0239 79.5827 59.0613 79.8067 59.0799 80.012C59.1173 80.1987 59.1359 80.404 59.1359 80.628C59.1359 81.0947 58.9773 81.4867 58.6599 81.804C58.3613 82.1213 57.9133 82.28 57.3159 82.28C56.6813 82.28 56.1679 82.112 55.7759 81.776C55.4026 81.44 55.1039 80.964 54.8799 80.348C54.4506 80.9453 53.8999 81.4213 53.2279 81.776C52.5559 82.112 51.8746 82.28 51.1839 82.28C49.6719 82.28 48.5146 81.8973 47.7119 81.132C46.9279 80.348 46.5359 79.228 46.5359 77.772C46.5359 76.932 46.6853 76.2413 46.9839 75.7C47.3013 75.14 47.7213 74.7013 48.2439 74.384C48.7853 74.0667 49.4106 73.852 50.1199 73.74C50.8293 73.6093 51.5759 73.544 52.3599 73.544C52.7893 73.544 53.2186 73.5627 53.6479 73.6C54.0773 73.6373 54.4879 73.684 54.8799 73.74V72.704C54.8799 72.1253 54.7119 71.7053 54.3759 71.444C54.0586 71.1827 53.6293 71.052 53.0879 71.052C52.7146 71.052 52.3973 71.1267 52.1359 71.276C51.8746 71.4067 51.6226 71.5747 51.3799 71.78C51.1373 71.9853 50.8759 72.172 50.5959 72.34C50.3159 72.4893 49.9333 72.564 49.4479 72.564C48.8506 72.564 48.3746 72.424 48.0199 72.144C47.6653 71.8453 47.4879 71.4813 47.4879 71.052C47.4879 70.492 47.6466 70.0067 47.9639 69.596C48.2999 69.1667 48.7199 68.8213 49.2239 68.56C49.7466 68.28 50.3253 68.0747 50.9599 67.944C51.6133 67.7947 52.2573 67.72 52.8919 67.72C53.6759 67.72 54.4226 67.8227 55.1319 68.028C55.8599 68.2147 56.4946 68.5133 57.0359 68.924C57.5773 69.316 58.0066 69.82 58.3239 70.436C58.6599 71.0333 58.8279 71.7427 58.8279 72.564V77.128ZM53.1439 76.288C52.3413 76.288 51.6973 76.3907 51.2119 76.596C50.7266 76.8013 50.4839 77.2027 50.4839 77.8C50.4839 78.192 50.6146 78.4813 50.8759 78.668C51.1559 78.8547 51.5386 78.948 52.0239 78.948C52.3413 78.948 52.6679 78.9013 53.0039 78.808C53.3399 78.696 53.6479 78.5467 53.9279 78.36C54.2079 78.1733 54.4319 77.9587 54.5999 77.716C54.7866 77.4547 54.8799 77.1747 54.8799 76.876C54.8799 76.6893 54.7586 76.5493 54.5159 76.456C54.2733 76.344 53.8159 76.288 53.1439 76.288ZM68.7242 78.948C69.2095 78.948 69.6015 78.864 69.9002 78.696C70.2175 78.528 70.4882 78.3227 70.7122 78.08C70.8615 77.912 70.9922 77.744 71.1042 77.576C71.2349 77.408 71.3749 77.2587 71.5242 77.128C71.6735 76.9787 71.8509 76.8573 72.0562 76.764C72.2615 76.6707 72.5229 76.624 72.8402 76.624C73.4375 76.624 73.8855 76.7733 74.1842 77.072C74.4829 77.3707 74.6322 77.7347 74.6322 78.164C74.6322 78.7053 74.4922 79.2187 74.2122 79.704C73.9509 80.1707 73.5869 80.5813 73.1202 80.936C72.5602 81.3653 71.9162 81.7013 71.1882 81.944C70.4602 82.168 69.6389 82.28 68.7242 82.28C67.5669 82.28 66.5495 82.112 65.6722 81.776C64.7949 81.4213 64.0669 80.9267 63.4882 80.292C62.9095 79.6387 62.4709 78.8733 62.1722 77.996C61.8922 77.1 61.7522 76.1013 61.7522 75C61.7522 73.9173 61.8922 72.928 62.1722 72.032C62.4709 71.136 62.9095 70.3707 63.4882 69.736C64.0669 69.0827 64.7949 68.588 65.6722 68.252C66.5495 67.8973 67.5669 67.72 68.7242 67.72C69.6949 67.72 70.5629 67.8507 71.3282 68.112C72.0935 68.3733 72.7655 68.7467 73.3442 69.232C74.1469 69.8853 74.5482 70.6507 74.5482 71.528C74.5482 72.0693 74.3802 72.4893 74.0442 72.788C73.7082 73.068 73.2882 73.208 72.7842 73.208C72.4855 73.208 72.2335 73.18 72.0282 73.124C71.8415 73.0493 71.6735 72.956 71.5242 72.844C71.3935 72.732 71.2629 72.6013 71.1322 72.452C71.0202 72.3027 70.8895 72.144 70.7402 71.976C70.4415 71.6587 70.1149 71.4253 69.7602 71.276C69.4055 71.1267 69.0602 71.052 68.7242 71.052C67.6975 71.052 66.9322 71.4067 66.4282 72.116C65.9429 72.8253 65.7002 73.7867 65.7002 75C65.7002 76.2133 65.9429 77.1747 66.4282 77.884C66.9322 78.5933 67.6975 78.948 68.7242 78.948ZM85.2812 80.152C84.9265 80.7493 84.4412 81.2533 83.8252 81.664C83.2092 82.0747 82.5185 82.28 81.7532 82.28C80.2598 82.28 79.0838 81.8693 78.2252 81.048C77.3665 80.208 76.9372 78.8453 76.9372 76.96V69.82C76.9372 69.036 77.1425 68.4947 77.5532 68.196C77.9638 67.8787 78.4118 67.72 78.8972 67.72C79.1398 67.72 79.3825 67.7573 79.6252 67.832C79.8678 67.9067 80.0825 68.028 80.2692 68.196C80.4558 68.3453 80.6052 68.56 80.7172 68.84C80.8292 69.1013 80.8852 69.428 80.8852 69.82V76.792C80.8852 77.5387 81.0532 78.0893 81.3892 78.444C81.7438 78.78 82.1918 78.948 82.7332 78.948C83.5172 78.948 84.1332 78.5933 84.5812 77.884C85.0478 77.156 85.2812 76.12 85.2812 74.776V69.82C85.2812 69.036 85.4865 68.4947 85.8972 68.196C86.3078 67.8787 86.7558 67.72 87.2412 67.72C87.4838 67.72 87.7265 67.7573 87.9692 67.832C88.2118 67.9067 88.4265 68.028 88.6132 68.196C88.7998 68.3453 88.9492 68.56 89.0612 68.84C89.1732 69.1013 89.2292 69.428 89.2292 69.82V77.128C89.2292 77.6507 89.2385 78.0893 89.2572 78.444C89.2945 78.78 89.3318 79.0787 89.3692 79.34C89.4252 79.5827 89.4625 79.8067 89.4812 80.012C89.5185 80.1987 89.5372 80.404 89.5372 80.628C89.5372 81.0947 89.3878 81.4867 89.0892 81.804C88.8092 82.1213 88.3705 82.28 87.7732 82.28C87.1012 82.28 86.5692 82.112 86.1772 81.776C85.7852 81.4213 85.4865 80.88 85.2812 80.152ZM96.4711 77.464C96.4711 78.3413 96.7791 78.78 97.3951 78.78C98.4404 78.78 98.9631 79.2467 98.9631 80.18C98.9631 81.0013 98.6924 81.5613 98.1511 81.86C97.6098 82.14 96.9284 82.28 96.1071 82.28C95.6031 82.28 95.1271 82.196 94.6791 82.028C94.2498 81.8787 93.8671 81.6267 93.5311 81.272C93.2138 80.9173 92.9618 80.46 92.7751 79.9C92.6071 79.34 92.5231 78.6587 92.5231 77.856V63.38C92.5231 62.596 92.7284 62.0547 93.1391 61.756C93.5498 61.4387 93.9978 61.28 94.4831 61.28C94.7258 61.28 94.9684 61.3173 95.2111 61.392C95.4538 61.4667 95.6684 61.588 95.8551 61.756C96.0418 61.9053 96.1911 62.12 96.3031 62.4C96.4151 62.6613 96.4711 62.988 96.4711 63.38V77.464ZM100.771 65.34C100.771 64.556 100.976 64.0147 101.387 63.716C101.797 63.3987 102.245 63.24 102.731 63.24C102.973 63.24 103.216 63.2773 103.459 63.352C103.701 63.4267 103.916 63.548 104.103 63.716C104.289 63.8653 104.439 64.08 104.551 64.36C104.663 64.6213 104.719 64.948 104.719 65.34V68H106.539C107.229 68 107.724 68.1587 108.023 68.476C108.321 68.7933 108.471 69.1947 108.471 69.68C108.471 70.1653 108.321 70.5667 108.023 70.884C107.724 71.1827 107.229 71.332 106.539 71.332H104.719V76.848C104.719 77.632 104.831 78.164 105.055 78.444C105.297 78.724 105.652 78.864 106.119 78.864C106.436 78.864 106.688 78.8267 106.875 78.752C107.061 78.6773 107.295 78.64 107.575 78.64C107.892 78.64 108.163 78.752 108.387 78.976C108.611 79.2 108.723 79.5173 108.723 79.928C108.723 80.4133 108.611 80.8053 108.387 81.104C108.163 81.4027 107.873 81.6453 107.519 81.832C107.183 82 106.8 82.112 106.371 82.168C105.96 82.2427 105.549 82.28 105.139 82.28C103.832 82.28 102.777 81.888 101.975 81.104C101.172 80.3013 100.771 78.9573 100.771 77.072V71.332H100.547C99.856 71.332 99.3613 71.1827 99.0626 70.884C98.764 70.5667 98.6146 70.1653 98.6146 69.68C98.6146 69.1947 98.764 68.7933 99.0626 68.476C99.3613 68.1587 99.856 68 100.547 68H100.771V65.34ZM111.24 71.332C110.549 71.332 110.055 71.1827 109.756 70.884C109.476 70.5667 109.336 70.1653 109.336 69.68C109.336 69.1947 109.485 68.7933 109.784 68.476C110.083 68.1587 110.577 68 111.268 68H112.892C113.769 68 114.367 68.168 114.684 68.504C115.02 68.8213 115.188 69.3907 115.188 70.212V80.18C115.188 80.572 115.132 80.908 115.02 81.188C114.908 81.4493 114.759 81.664 114.572 81.832C114.385 81.9813 114.171 82.0933 113.928 82.168C113.685 82.2427 113.443 82.28 113.2 82.28C112.715 82.28 112.267 82.1307 111.856 81.832C111.445 81.5147 111.24 80.964 111.24 80.18V71.332ZM111.044 64.248C111.044 63.6507 111.259 63.1467 111.688 62.736C112.117 62.3253 112.631 62.12 113.228 62.12C113.825 62.12 114.339 62.3253 114.768 62.736C115.197 63.1467 115.412 63.6507 115.412 64.248C115.412 64.8453 115.197 65.3493 114.768 65.76C114.339 66.1707 113.825 66.376 113.228 66.376C112.631 66.376 112.117 66.1707 111.688 65.76C111.259 65.3493 111.044 64.8453 111.044 64.248ZM125.892 78.948C126.377 78.948 126.816 78.9013 127.208 78.808C127.6 78.7147 127.954 78.6213 128.272 78.528C128.589 78.416 128.878 78.3133 129.14 78.22C129.401 78.1267 129.653 78.08 129.896 78.08C130.325 78.08 130.67 78.2013 130.932 78.444C131.212 78.6867 131.352 79.0227 131.352 79.452C131.352 80.0307 131.137 80.5067 130.708 80.88C130.278 81.2347 129.765 81.524 129.168 81.748C128.589 81.9533 127.982 82.0933 127.348 82.168C126.732 82.2427 126.218 82.28 125.808 82.28C124.613 82.28 123.54 82.112 122.588 81.776C121.636 81.44 120.824 80.964 120.152 80.348C119.498 79.7133 118.994 78.948 118.64 78.052C118.285 77.1373 118.108 76.12 118.108 75C118.108 73.9173 118.248 72.928 118.528 72.032C118.826 71.136 119.265 70.3707 119.844 69.736C120.441 69.0827 121.169 68.588 122.028 68.252C122.905 67.8973 123.922 67.72 125.08 67.72C126.162 67.72 127.114 67.888 127.936 68.224C128.757 68.5413 129.438 68.98 129.98 69.54C130.521 70.0813 130.922 70.716 131.184 71.444C131.464 72.1533 131.604 72.9093 131.604 73.712C131.604 74.72 131.352 75.4293 130.848 75.84C130.362 76.2507 129.616 76.456 128.608 76.456H122.196C122.401 77.24 122.793 77.856 123.372 78.304C123.969 78.7333 124.809 78.948 125.892 78.948ZM125.08 71.052C124.333 71.052 123.726 71.248 123.26 71.64C122.812 72.0133 122.485 72.5453 122.28 73.236H127.628C127.572 72.4707 127.31 71.92 126.844 71.584C126.377 71.2293 125.789 71.052 125.08 71.052ZM138.962 78.948C139.186 78.948 139.401 78.9387 139.606 78.92C139.83 78.9013 140.026 78.8547 140.194 78.78C140.381 78.7053 140.53 78.6027 140.642 78.472C140.754 78.3227 140.81 78.136 140.81 77.912C140.81 77.5573 140.633 77.2867 140.278 77.1C139.924 76.9133 139.485 76.7453 138.962 76.596C138.44 76.428 137.861 76.26 137.226 76.092C136.61 75.9053 136.041 75.6533 135.518 75.336C134.996 75 134.557 74.5707 134.202 74.048C133.848 73.5067 133.67 72.7973 133.67 71.92C133.67 71.1733 133.82 70.5387 134.118 70.016C134.436 69.4747 134.856 69.036 135.378 68.7C135.901 68.364 136.498 68.1213 137.17 67.972C137.861 67.804 138.57 67.72 139.298 67.72C139.802 67.72 140.344 67.7573 140.922 67.832C141.52 67.888 142.07 68.0187 142.574 68.224C143.097 68.4107 143.526 68.6813 143.862 69.036C144.217 69.372 144.394 69.8107 144.394 70.352C144.394 70.8373 144.236 71.192 143.918 71.416C143.601 71.64 143.228 71.752 142.798 71.752C142.574 71.752 142.341 71.7147 142.098 71.64C141.874 71.5653 141.613 71.4907 141.314 71.416C141.034 71.3227 140.717 71.2387 140.362 71.164C140.008 71.0893 139.606 71.052 139.158 71.052C138.692 71.052 138.318 71.1267 138.038 71.276C137.758 71.4067 137.618 71.6213 137.618 71.92C137.618 72.2187 137.796 72.452 138.15 72.62C138.505 72.788 138.944 72.956 139.466 73.124C139.989 73.2733 140.558 73.4507 141.174 73.656C141.809 73.8427 142.388 74.104 142.91 74.44C143.433 74.7573 143.872 75.168 144.226 75.672C144.581 76.176 144.758 76.8293 144.758 77.632C144.758 78.4533 144.609 79.1627 144.31 79.76C144.012 80.3387 143.601 80.8147 143.078 81.188C142.556 81.5613 141.94 81.832 141.23 82C140.521 82.1867 139.756 82.28 138.934 82.28C138.318 82.28 137.665 82.224 136.974 82.112C136.284 82 135.649 81.8227 135.07 81.58C134.492 81.3187 134.006 80.992 133.614 80.6C133.241 80.208 133.054 79.7413 133.054 79.2C133.054 78.7147 133.213 78.3507 133.53 78.108C133.848 77.8653 134.221 77.744 134.65 77.744C134.893 77.744 135.164 77.8093 135.462 77.94C135.761 78.052 136.088 78.192 136.442 78.36C136.797 78.5093 137.18 78.6493 137.59 78.78C138.02 78.892 138.477 78.948 138.962 78.948Z"/>
</mask>
<path d="M43.62 62.4C44.3107 62.4 44.8053 62.5587 45.104 62.876C45.4027 63.1933 45.552 63.5947 45.552 64.08C45.552 64.5653 45.4027 64.9667 45.104 65.284C44.8053 65.5827 44.3107 65.732 43.62 65.732H37.6V70.8H43.2C43.8907 70.8 44.3853 70.9587 44.684 71.276C44.9827 71.5933 45.132 71.9947 45.132 72.48C45.132 72.9653 44.9827 73.3667 44.684 73.684C44.3853 73.9827 43.8907 74.132 43.2 74.132H37.6V80.18C37.6 80.572 37.544 80.908 37.432 81.188C37.32 81.4493 37.1707 81.664 36.984 81.832C36.7973 81.9813 36.5827 82.0933 36.34 82.168C36.0973 82.2427 35.8547 82.28 35.612 82.28C35.1267 82.28 34.6787 82.1307 34.268 81.832C33.8573 81.5147 33.652 80.964 33.652 80.18V65.256C33.652 64.192 33.8573 63.4547 34.268 63.044C34.6787 62.6147 35.416 62.4 36.48 62.4H43.62ZM58.8279 77.128C58.8279 77.6507 58.8373 78.0893 58.8559 78.444C58.8933 78.78 58.9306 79.0787 58.9679 79.34C59.0239 79.5827 59.0613 79.8067 59.0799 80.012C59.1173 80.1987 59.1359 80.404 59.1359 80.628C59.1359 81.0947 58.9773 81.4867 58.6599 81.804C58.3613 82.1213 57.9133 82.28 57.3159 82.28C56.6813 82.28 56.1679 82.112 55.7759 81.776C55.4026 81.44 55.1039 80.964 54.8799 80.348C54.4506 80.9453 53.8999 81.4213 53.2279 81.776C52.5559 82.112 51.8746 82.28 51.1839 82.28C49.6719 82.28 48.5146 81.8973 47.7119 81.132C46.9279 80.348 46.5359 79.228 46.5359 77.772C46.5359 76.932 46.6853 76.2413 46.9839 75.7C47.3013 75.14 47.7213 74.7013 48.2439 74.384C48.7853 74.0667 49.4106 73.852 50.1199 73.74C50.8293 73.6093 51.5759 73.544 52.3599 73.544C52.7893 73.544 53.2186 73.5627 53.6479 73.6C54.0773 73.6373 54.4879 73.684 54.8799 73.74V72.704C54.8799 72.1253 54.7119 71.7053 54.3759 71.444C54.0586 71.1827 53.6293 71.052 53.0879 71.052C52.7146 71.052 52.3973 71.1267 52.1359 71.276C51.8746 71.4067 51.6226 71.5747 51.3799 71.78C51.1373 71.9853 50.8759 72.172 50.5959 72.34C50.3159 72.4893 49.9333 72.564 49.4479 72.564C48.8506 72.564 48.3746 72.424 48.0199 72.144C47.6653 71.8453 47.4879 71.4813 47.4879 71.052C47.4879 70.492 47.6466 70.0067 47.9639 69.596C48.2999 69.1667 48.7199 68.8213 49.2239 68.56C49.7466 68.28 50.3253 68.0747 50.9599 67.944C51.6133 67.7947 52.2573 67.72 52.8919 67.72C53.6759 67.72 54.4226 67.8227 55.1319 68.028C55.8599 68.2147 56.4946 68.5133 57.0359 68.924C57.5773 69.316 58.0066 69.82 58.3239 70.436C58.6599 71.0333 58.8279 71.7427 58.8279 72.564V77.128ZM53.1439 76.288C52.3413 76.288 51.6973 76.3907 51.2119 76.596C50.7266 76.8013 50.4839 77.2027 50.4839 77.8C50.4839 78.192 50.6146 78.4813 50.8759 78.668C51.1559 78.8547 51.5386 78.948 52.0239 78.948C52.3413 78.948 52.6679 78.9013 53.0039 78.808C53.3399 78.696 53.6479 78.5467 53.9279 78.36C54.2079 78.1733 54.4319 77.9587 54.5999 77.716C54.7866 77.4547 54.8799 77.1747 54.8799 76.876C54.8799 76.6893 54.7586 76.5493 54.5159 76.456C54.2733 76.344 53.8159 76.288 53.1439 76.288ZM68.7242 78.948C69.2095 78.948 69.6015 78.864 69.9002 78.696C70.2175 78.528 70.4882 78.3227 70.7122 78.08C70.8615 77.912 70.9922 77.744 71.1042 77.576C71.2349 77.408 71.3749 77.2587 71.5242 77.128C71.6735 76.9787 71.8509 76.8573 72.0562 76.764C72.2615 76.6707 72.5229 76.624 72.8402 76.624C73.4375 76.624 73.8855 76.7733 74.1842 77.072C74.4829 77.3707 74.6322 77.7347 74.6322 78.164C74.6322 78.7053 74.4922 79.2187 74.2122 79.704C73.9509 80.1707 73.5869 80.5813 73.1202 80.936C72.5602 81.3653 71.9162 81.7013 71.1882 81.944C70.4602 82.168 69.6389 82.28 68.7242 82.28C67.5669 82.28 66.5495 82.112 65.6722 81.776C64.7949 81.4213 64.0669 80.9267 63.4882 80.292C62.9095 79.6387 62.4709 78.8733 62.1722 77.996C61.8922 77.1 61.7522 76.1013 61.7522 75C61.7522 73.9173 61.8922 72.928 62.1722 72.032C62.4709 71.136 62.9095 70.3707 63.4882 69.736C64.0669 69.0827 64.7949 68.588 65.6722 68.252C66.5495 67.8973 67.5669 67.72 68.7242 67.72C69.6949 67.72 70.5629 67.8507 71.3282 68.112C72.0935 68.3733 72.7655 68.7467 73.3442 69.232C74.1469 69.8853 74.5482 70.6507 74.5482 71.528C74.5482 72.0693 74.3802 72.4893 74.0442 72.788C73.7082 73.068 73.2882 73.208 72.7842 73.208C72.4855 73.208 72.2335 73.18 72.0282 73.124C71.8415 73.0493 71.6735 72.956 71.5242 72.844C71.3935 72.732 71.2629 72.6013 71.1322 72.452C71.0202 72.3027 70.8895 72.144 70.7402 71.976C70.4415 71.6587 70.1149 71.4253 69.7602 71.276C69.4055 71.1267 69.0602 71.052 68.7242 71.052C67.6975 71.052 66.9322 71.4067 66.4282 72.116C65.9429 72.8253 65.7002 73.7867 65.7002 75C65.7002 76.2133 65.9429 77.1747 66.4282 77.884C66.9322 78.5933 67.6975 78.948 68.7242 78.948ZM85.2812 80.152C84.9265 80.7493 84.4412 81.2533 83.8252 81.664C83.2092 82.0747 82.5185 82.28 81.7532 82.28C80.2598 82.28 79.0838 81.8693 78.2252 81.048C77.3665 80.208 76.9372 78.8453 76.9372 76.96V69.82C76.9372 69.036 77.1425 68.4947 77.5532 68.196C77.9638 67.8787 78.4118 67.72 78.8972 67.72C79.1398 67.72 79.3825 67.7573 79.6252 67.832C79.8678 67.9067 80.0825 68.028 80.2692 68.196C80.4558 68.3453 80.6052 68.56 80.7172 68.84C80.8292 69.1013 80.8852 69.428 80.8852 69.82V76.792C80.8852 77.5387 81.0532 78.0893 81.3892 78.444C81.7438 78.78 82.1918 78.948 82.7332 78.948C83.5172 78.948 84.1332 78.5933 84.5812 77.884C85.0478 77.156 85.2812 76.12 85.2812 74.776V69.82C85.2812 69.036 85.4865 68.4947 85.8972 68.196C86.3078 67.8787 86.7558 67.72 87.2412 67.72C87.4838 67.72 87.7265 67.7573 87.9692 67.832C88.2118 67.9067 88.4265 68.028 88.6132 68.196C88.7998 68.3453 88.9492 68.56 89.0612 68.84C89.1732 69.1013 89.2292 69.428 89.2292 69.82V77.128C89.2292 77.6507 89.2385 78.0893 89.2572 78.444C89.2945 78.78 89.3318 79.0787 89.3692 79.34C89.4252 79.5827 89.4625 79.8067 89.4812 80.012C89.5185 80.1987 89.5372 80.404 89.5372 80.628C89.5372 81.0947 89.3878 81.4867 89.0892 81.804C88.8092 82.1213 88.3705 82.28 87.7732 82.28C87.1012 82.28 86.5692 82.112 86.1772 81.776C85.7852 81.4213 85.4865 80.88 85.2812 80.152ZM96.4711 77.464C96.4711 78.3413 96.7791 78.78 97.3951 78.78C98.4404 78.78 98.9631 79.2467 98.9631 80.18C98.9631 81.0013 98.6924 81.5613 98.1511 81.86C97.6098 82.14 96.9284 82.28 96.1071 82.28C95.6031 82.28 95.1271 82.196 94.6791 82.028C94.2498 81.8787 93.8671 81.6267 93.5311 81.272C93.2138 80.9173 92.9618 80.46 92.7751 79.9C92.6071 79.34 92.5231 78.6587 92.5231 77.856V63.38C92.5231 62.596 92.7284 62.0547 93.1391 61.756C93.5498 61.4387 93.9978 61.28 94.4831 61.28C94.7258 61.28 94.9684 61.3173 95.2111 61.392C95.4538 61.4667 95.6684 61.588 95.8551 61.756C96.0418 61.9053 96.1911 62.12 96.3031 62.4C96.4151 62.6613 96.4711 62.988 96.4711 63.38V77.464ZM100.771 65.34C100.771 64.556 100.976 64.0147 101.387 63.716C101.797 63.3987 102.245 63.24 102.731 63.24C102.973 63.24 103.216 63.2773 103.459 63.352C103.701 63.4267 103.916 63.548 104.103 63.716C104.289 63.8653 104.439 64.08 104.551 64.36C104.663 64.6213 104.719 64.948 104.719 65.34V68H106.539C107.229 68 107.724 68.1587 108.023 68.476C108.321 68.7933 108.471 69.1947 108.471 69.68C108.471 70.1653 108.321 70.5667 108.023 70.884C107.724 71.1827 107.229 71.332 106.539 71.332H104.719V76.848C104.719 77.632 104.831 78.164 105.055 78.444C105.297 78.724 105.652 78.864 106.119 78.864C106.436 78.864 106.688 78.8267 106.875 78.752C107.061 78.6773 107.295 78.64 107.575 78.64C107.892 78.64 108.163 78.752 108.387 78.976C108.611 79.2 108.723 79.5173 108.723 79.928C108.723 80.4133 108.611 80.8053 108.387 81.104C108.163 81.4027 107.873 81.6453 107.519 81.832C107.183 82 106.8 82.112 106.371 82.168C105.96 82.2427 105.549 82.28 105.139 82.28C103.832 82.28 102.777 81.888 101.975 81.104C101.172 80.3013 100.771 78.9573 100.771 77.072V71.332H100.547C99.856 71.332 99.3613 71.1827 99.0626 70.884C98.764 70.5667 98.6146 70.1653 98.6146 69.68C98.6146 69.1947 98.764 68.7933 99.0626 68.476C99.3613 68.1587 99.856 68 100.547 68H100.771V65.34ZM111.24 71.332C110.549 71.332 110.055 71.1827 109.756 70.884C109.476 70.5667 109.336 70.1653 109.336 69.68C109.336 69.1947 109.485 68.7933 109.784 68.476C110.083 68.1587 110.577 68 111.268 68H112.892C113.769 68 114.367 68.168 114.684 68.504C115.02 68.8213 115.188 69.3907 115.188 70.212V80.18C115.188 80.572 115.132 80.908 115.02 81.188C114.908 81.4493 114.759 81.664 114.572 81.832C114.385 81.9813 114.171 82.0933 113.928 82.168C113.685 82.2427 113.443 82.28 113.2 82.28C112.715 82.28 112.267 82.1307 111.856 81.832C111.445 81.5147 111.24 80.964 111.24 80.18V71.332ZM111.044 64.248C111.044 63.6507 111.259 63.1467 111.688 62.736C112.117 62.3253 112.631 62.12 113.228 62.12C113.825 62.12 114.339 62.3253 114.768 62.736C115.197 63.1467 115.412 63.6507 115.412 64.248C115.412 64.8453 115.197 65.3493 114.768 65.76C114.339 66.1707 113.825 66.376 113.228 66.376C112.631 66.376 112.117 66.1707 111.688 65.76C111.259 65.3493 111.044 64.8453 111.044 64.248ZM125.892 78.948C126.377 78.948 126.816 78.9013 127.208 78.808C127.6 78.7147 127.954 78.6213 128.272 78.528C128.589 78.416 128.878 78.3133 129.14 78.22C129.401 78.1267 129.653 78.08 129.896 78.08C130.325 78.08 130.67 78.2013 130.932 78.444C131.212 78.6867 131.352 79.0227 131.352 79.452C131.352 80.0307 131.137 80.5067 130.708 80.88C130.278 81.2347 129.765 81.524 129.168 81.748C128.589 81.9533 127.982 82.0933 127.348 82.168C126.732 82.2427 126.218 82.28 125.808 82.28C124.613 82.28 123.54 82.112 122.588 81.776C121.636 81.44 120.824 80.964 120.152 80.348C119.498 79.7133 118.994 78.948 118.64 78.052C118.285 77.1373 118.108 76.12 118.108 75C118.108 73.9173 118.248 72.928 118.528 72.032C118.826 71.136 119.265 70.3707 119.844 69.736C120.441 69.0827 121.169 68.588 122.028 68.252C122.905 67.8973 123.922 67.72 125.08 67.72C126.162 67.72 127.114 67.888 127.936 68.224C128.757 68.5413 129.438 68.98 129.98 69.54C130.521 70.0813 130.922 70.716 131.184 71.444C131.464 72.1533 131.604 72.9093 131.604 73.712C131.604 74.72 131.352 75.4293 130.848 75.84C130.362 76.2507 129.616 76.456 128.608 76.456H122.196C122.401 77.24 122.793 77.856 123.372 78.304C123.969 78.7333 124.809 78.948 125.892 78.948ZM125.08 71.052C124.333 71.052 123.726 71.248 123.26 71.64C122.812 72.0133 122.485 72.5453 122.28 73.236H127.628C127.572 72.4707 127.31 71.92 126.844 71.584C126.377 71.2293 125.789 71.052 125.08 71.052ZM138.962 78.948C139.186 78.948 139.401 78.9387 139.606 78.92C139.83 78.9013 140.026 78.8547 140.194 78.78C140.381 78.7053 140.53 78.6027 140.642 78.472C140.754 78.3227 140.81 78.136 140.81 77.912C140.81 77.5573 140.633 77.2867 140.278 77.1C139.924 76.9133 139.485 76.7453 138.962 76.596C138.44 76.428 137.861 76.26 137.226 76.092C136.61 75.9053 136.041 75.6533 135.518 75.336C134.996 75 134.557 74.5707 134.202 74.048C133.848 73.5067 133.67 72.7973 133.67 71.92C133.67 71.1733 133.82 70.5387 134.118 70.016C134.436 69.4747 134.856 69.036 135.378 68.7C135.901 68.364 136.498 68.1213 137.17 67.972C137.861 67.804 138.57 67.72 139.298 67.72C139.802 67.72 140.344 67.7573 140.922 67.832C141.52 67.888 142.07 68.0187 142.574 68.224C143.097 68.4107 143.526 68.6813 143.862 69.036C144.217 69.372 144.394 69.8107 144.394 70.352C144.394 70.8373 144.236 71.192 143.918 71.416C143.601 71.64 143.228 71.752 142.798 71.752C142.574 71.752 142.341 71.7147 142.098 71.64C141.874 71.5653 141.613 71.4907 141.314 71.416C141.034 71.3227 140.717 71.2387 140.362 71.164C140.008 71.0893 139.606 71.052 139.158 71.052C138.692 71.052 138.318 71.1267 138.038 71.276C137.758 71.4067 137.618 71.6213 137.618 71.92C137.618 72.2187 137.796 72.452 138.15 72.62C138.505 72.788 138.944 72.956 139.466 73.124C139.989 73.2733 140.558 73.4507 141.174 73.656C141.809 73.8427 142.388 74.104 142.91 74.44C143.433 74.7573 143.872 75.168 144.226 75.672C144.581 76.176 144.758 76.8293 144.758 77.632C144.758 78.4533 144.609 79.1627 144.31 79.76C144.012 80.3387 143.601 80.8147 143.078 81.188C142.556 81.5613 141.94 81.832 141.23 82C140.521 82.1867 139.756 82.28 138.934 82.28C138.318 82.28 137.665 82.224 136.974 82.112C136.284 82 135.649 81.8227 135.07 81.58C134.492 81.3187 134.006 80.992 133.614 80.6C133.241 80.208 133.054 79.7413 133.054 79.2C133.054 78.7147 133.213 78.3507 133.53 78.108C133.848 77.8653 134.221 77.744 134.65 77.744C134.893 77.744 135.164 77.8093 135.462 77.94C135.761 78.052 136.088 78.192 136.442 78.36C136.797 78.5093 137.18 78.6493 137.59 78.78C138.02 78.892 138.477 78.948 138.962 78.948Z" fill="white"/>
<path d="M45.104 65.284L46.5182 66.6982L46.5396 66.6768L46.5604 66.6547L45.104 65.284ZM37.6 65.732V63.732H35.6V65.732H37.6ZM37.6 70.8H35.6V72.8H37.6V70.8ZM44.684 73.684L46.0982 75.0982L46.1196 75.0768L46.1404 75.0547L44.684 73.684ZM37.6 74.132V72.132H35.6V74.132H37.6ZM37.432 81.188L39.2703 81.9758L39.2799 81.9534L39.289 81.9308L37.432 81.188ZM36.984 81.832L38.2334 83.3937L38.2788 83.3574L38.3219 83.3186L36.984 81.832ZM36.34 82.168L35.7518 80.2564H35.7518L36.34 82.168ZM34.268 81.832L33.0451 83.4146L33.0681 83.4324L33.0917 83.4495L34.268 81.832ZM34.268 63.044L35.6822 64.4582L35.6979 64.4425L35.7133 64.4264L34.268 63.044ZM43.62 64.4C43.7172 64.4 43.7879 64.4056 43.8359 64.4121C43.884 64.4185 43.9025 64.4248 43.8981 64.4234C43.8932 64.4219 43.8617 64.4112 43.8143 64.3827C43.7655 64.3535 43.7064 64.3092 43.6476 64.2467L46.5604 61.5053C45.7119 60.6038 44.5476 60.4 43.62 60.4V64.4ZM43.6476 64.2467C43.6345 64.2328 43.6185 64.2131 43.6028 64.1878C43.5869 64.1624 43.5745 64.1365 43.5656 64.1125C43.5469 64.0623 43.552 64.044 43.552 64.08H47.552C47.552 63.148 47.2491 62.237 46.5604 61.5053L43.6476 64.2467ZM43.552 64.08C43.552 64.116 43.5469 64.0977 43.5656 64.0475C43.5745 64.0235 43.5869 63.9976 43.6028 63.9722C43.6185 63.9469 43.6345 63.9272 43.6476 63.9133L46.5604 66.6547C47.2491 65.923 47.552 65.012 47.552 64.08H43.552ZM43.6898 63.8698C43.8202 63.7393 43.9323 63.7049 43.931 63.7053C43.9296 63.7058 43.9051 63.7129 43.8513 63.7197C43.7976 63.7264 43.7217 63.732 43.62 63.732V67.732C44.5199 67.732 45.6661 67.5503 46.5182 66.6982L43.6898 63.8698ZM43.62 63.732H37.6V67.732H43.62V63.732ZM35.6 65.732V70.8H39.6V65.732H35.6ZM37.6 72.8H43.2V68.8H37.6V72.8ZM43.2 72.8C43.2972 72.8 43.3679 72.8056 43.4159 72.8121C43.464 72.8185 43.4825 72.8248 43.4781 72.8234C43.4732 72.8219 43.4417 72.8112 43.3943 72.7827C43.3455 72.7535 43.2864 72.7092 43.2276 72.6467L46.1404 69.9053C45.2919 69.0038 44.1276 68.8 43.2 68.8V72.8ZM43.2276 72.6467C43.2145 72.6328 43.1985 72.6131 43.1828 72.5878C43.1669 72.5624 43.1545 72.5365 43.1456 72.5125C43.1269 72.4623 43.132 72.444 43.132 72.48H47.132C47.132 71.548 46.8291 70.637 46.1404 69.9053L43.2276 72.6467ZM43.132 72.48C43.132 72.516 43.1269 72.4977 43.1456 72.4475C43.1545 72.4235 43.1669 72.3976 43.1828 72.3722C43.1985 72.3469 43.2145 72.3272 43.2276 72.3133L46.1404 75.0547C46.8291 74.323 47.132 73.412 47.132 72.48H43.132ZM43.2698 72.2698C43.4002 72.1393 43.5123 72.1049 43.511 72.1053C43.5096 72.1058 43.4851 72.1129 43.4313 72.1197C43.3776 72.1264 43.3017 72.132 43.2 72.132V76.132C44.0999 76.132 45.2461 75.9503 46.0982 75.0982L43.2698 72.2698ZM43.2 72.132H37.6V76.132H43.2V72.132ZM35.6 74.132V80.18H39.6V74.132H35.6ZM35.6 80.18C35.6 80.3902 35.5689 80.4606 35.575 80.4452L39.289 81.9308C39.5191 81.3554 39.6 80.7538 39.6 80.18H35.6ZM35.5937 80.4002C35.5865 80.4171 35.5852 80.4158 35.5942 80.4029C35.6036 80.3893 35.6206 80.3683 35.6461 80.3454L38.3219 83.3186C38.7509 82.9326 39.0592 82.4683 39.2703 81.9758L35.5937 80.4002ZM35.7346 80.2703C35.7388 80.2669 35.7432 80.2638 35.7474 80.261C35.7516 80.2582 35.7552 80.2562 35.7579 80.2548C35.7635 80.2519 35.7625 80.2532 35.7518 80.2564L36.9282 84.0796C37.3962 83.9356 37.8383 83.7098 38.2334 83.3937L35.7346 80.2703ZM35.7518 80.2564C35.6909 80.2752 35.6462 80.28 35.612 80.28V84.28C36.0631 84.28 36.5038 84.2101 36.9282 84.0796L35.7518 80.2564ZM35.612 80.28C35.5697 80.28 35.53 80.2768 35.4443 80.2145L33.0917 83.4495C33.8273 83.9845 34.6836 84.28 35.612 84.28V80.28ZM35.4909 80.2494C35.5485 80.2939 35.5951 80.3443 35.6295 80.3928C35.6629 80.4398 35.6768 80.4738 35.68 80.4822C35.6827 80.4895 35.6752 80.4717 35.6672 80.4201C35.6593 80.3684 35.652 80.29 35.652 80.18H31.652C31.652 81.2582 31.9344 82.5563 33.0451 83.4146L35.4909 80.2494ZM35.652 80.18V65.256H31.652V80.18H35.652ZM35.652 65.256C35.652 64.8404 35.6935 64.5824 35.7327 64.4415C35.7714 64.3025 35.7858 64.3546 35.6822 64.4582L32.8538 61.6298C31.8576 62.626 31.652 64.0613 31.652 65.256H35.652ZM35.7133 64.4264C35.6145 64.5298 35.5604 64.5184 35.6881 64.4813C35.8203 64.4428 36.0701 64.4 36.48 64.4V60.4C35.268 60.4 33.8176 60.6214 32.8227 61.6616L35.7133 64.4264ZM36.48 64.4H43.62V60.4H36.48V64.4ZM58.8559 78.444L56.8587 78.5491L56.8618 78.6071L56.8682 78.6649L58.8559 78.444ZM58.9679 79.34L56.988 79.6228L57.0001 79.7069L57.0192 79.7897L58.9679 79.34ZM59.0799 80.012L57.0882 80.1931L57.0978 80.2995L57.1188 80.4042L59.0799 80.012ZM58.6599 81.804L57.2457 80.3898L57.2243 80.4112L57.2035 80.4333L58.6599 81.804ZM55.7759 81.776L54.438 83.2626L54.456 83.2788L54.4744 83.2945L55.7759 81.776ZM54.8799 80.348L56.7595 79.6645L55.4656 76.1063L53.2559 79.1807L54.8799 80.348ZM53.2279 81.776L54.1224 83.5649L54.142 83.555L54.1615 83.5448L53.2279 81.776ZM47.7119 81.132L46.2977 82.5462L46.3146 82.563L46.3318 82.5795L47.7119 81.132ZM46.9839 75.7L45.2439 74.714L45.2383 74.7239L45.2328 74.7338L46.9839 75.7ZM48.2439 74.384L47.2325 72.6586L47.2192 72.6664L47.206 72.6744L48.2439 74.384ZM50.1199 73.74L50.4319 75.7155L50.4571 75.7115L50.4823 75.7069L50.1199 73.74ZM53.6479 73.6L53.4747 75.5925L53.6479 73.6ZM54.8799 73.74L54.5971 75.7199L56.8799 76.046V73.74H54.8799ZM54.3759 71.444L53.1045 72.9879L53.126 73.0056L53.1481 73.0227L54.3759 71.444ZM52.1359 71.276L53.0304 73.0649L53.08 73.04L53.1282 73.0125L52.1359 71.276ZM51.3799 71.78L52.6718 73.3068H52.6718L51.3799 71.78ZM50.5959 72.34L51.5371 74.1047L51.5816 74.081L51.6249 74.055L50.5959 72.34ZM48.0199 72.144L46.7317 73.6738L46.7558 73.6942L46.7806 73.7138L48.0199 72.144ZM47.9639 69.596L46.3889 68.3634L46.3814 68.3731L47.9639 69.596ZM49.2239 68.56L50.1446 70.3355L50.1565 70.3293L50.1684 70.323L49.2239 68.56ZM50.9599 67.944L51.3632 69.9029L51.3845 69.8985L51.4056 69.8937L50.9599 67.944ZM55.1319 68.028L54.5758 69.9491L54.6054 69.9577L54.6352 69.9653L55.1319 68.028ZM57.0359 68.924L55.8272 70.5174L55.8449 70.5308L55.8629 70.5439L57.0359 68.924ZM58.3239 70.436L56.546 71.3519L56.5628 71.3845L56.5808 71.4165L58.3239 70.436ZM51.2119 76.596L51.9912 78.4379H51.9912L51.2119 76.596ZM50.8759 78.668L49.7135 80.2955L49.7397 80.3142L49.7665 80.3321L50.8759 78.668ZM53.0039 78.808L53.5392 80.735L53.5882 80.7214L53.6364 80.7054L53.0039 78.808ZM53.9279 78.36L52.8185 76.6959L52.8185 76.6959L53.9279 78.36ZM54.5999 77.716L52.9725 76.5535L52.9639 76.5655L52.9556 76.5776L54.5999 77.716ZM54.5159 76.456L53.6778 78.2719L53.7371 78.2993L53.798 78.3227L54.5159 76.456ZM56.8279 77.128C56.8279 77.6711 56.8376 78.1474 56.8587 78.5491L60.8532 78.3389C60.837 78.0313 60.8279 77.6303 60.8279 77.128H56.8279ZM56.8682 78.6649C56.9072 79.0162 56.9471 79.3361 56.988 79.6228L60.9478 79.0572C60.9141 78.8212 60.8793 78.5438 60.8437 78.2231L56.8682 78.6649ZM57.0192 79.7897C57.0588 79.9614 57.0792 80.0944 57.0882 80.1931L61.0717 79.8309C61.0434 79.5189 60.9891 79.2039 60.9167 78.8903L57.0192 79.7897ZM57.1188 80.4042C57.1262 80.4415 57.1359 80.5133 57.1359 80.628H61.1359C61.1359 80.2947 61.1083 79.9558 61.0411 79.6198L57.1188 80.4042ZM57.1359 80.628C57.1359 80.6308 57.1364 80.5876 57.163 80.5216C57.1904 80.4541 57.2266 80.4089 57.2457 80.3898L60.0742 83.2182C60.7829 82.5094 61.1359 81.6015 61.1359 80.628H57.1359ZM57.2035 80.4333C57.2442 80.3901 57.2887 80.3539 57.3328 80.3258C57.3763 80.2981 57.4117 80.283 57.4322 80.2757C57.4697 80.2625 57.4431 80.28 57.3159 80.28V84.28C58.2536 84.28 59.316 84.0251 60.1163 83.1747L57.2035 80.4333ZM57.3159 80.28C57.1739 80.28 57.1013 80.2611 57.077 80.2532C57.058 80.247 57.0651 80.2469 57.0775 80.2575L54.4744 83.2945C55.3067 84.0079 56.3175 84.28 57.3159 84.28V80.28ZM57.1139 80.2894C57.0471 80.2294 56.9046 80.0634 56.7595 79.6645L53.0004 81.0315C53.3033 81.8646 53.7581 82.6506 54.438 83.2626L57.1139 80.2894ZM53.2559 79.1807C53.0132 79.5184 52.7021 79.792 52.2944 80.0072L54.1615 83.5448C55.0977 83.0506 55.888 82.3722 56.504 81.5153L53.2559 79.1807ZM52.3335 79.9871C51.9144 80.1967 51.5375 80.28 51.1839 80.28V84.28C52.2117 84.28 53.1975 84.0273 54.1224 83.5649L52.3335 79.9871ZM51.1839 80.28C49.9959 80.28 49.4049 79.9828 49.0921 79.6845L46.3318 82.5795C47.6243 83.8119 49.348 84.28 51.1839 84.28V80.28ZM49.1262 79.7178C48.8238 79.4154 48.5359 78.8701 48.5359 77.772H44.5359C44.5359 79.5859 45.0321 81.2806 46.2977 82.5462L49.1262 79.7178ZM48.5359 77.772C48.5359 77.1539 48.6478 76.8244 48.7351 76.6662L45.2328 74.7338C44.7228 75.6582 44.5359 76.7101 44.5359 77.772H48.5359ZM48.724 76.686C48.8821 76.407 49.0667 76.2242 49.2819 76.0936L47.206 72.6744C46.3758 73.1785 45.7204 73.873 45.2439 74.714L48.724 76.686ZM49.2554 76.1094C49.5524 75.9353 49.934 75.7941 50.4319 75.7155L49.808 71.7645C48.8872 71.9099 48.0181 72.1981 47.2325 72.6586L49.2554 76.1094ZM50.4823 75.7069C51.0623 75.6001 51.6871 75.544 52.3599 75.544V71.544C51.4648 71.544 50.5963 71.6186 49.7576 71.7731L50.4823 75.7069ZM52.3599 75.544C52.7312 75.544 53.1027 75.5601 53.4747 75.5925L53.8212 71.6075C53.3345 71.5652 52.8473 71.544 52.3599 71.544V75.544ZM53.4747 75.5925C53.8705 75.6269 54.2445 75.6695 54.5971 75.7199L55.1628 71.7601C54.7314 71.6985 54.284 71.6478 53.8212 71.6075L53.4747 75.5925ZM56.8799 73.74V72.704H52.8799V73.74H56.8799ZM56.8799 72.704C56.8799 71.7455 56.5879 70.6307 55.6038 69.8653L53.1481 73.0227C53.0889 72.9767 53.0344 72.9211 52.9885 72.8592C52.9431 72.7978 52.9143 72.741 52.897 72.6978C52.8642 72.6157 52.8799 72.6011 52.8799 72.704H56.8799ZM55.6474 69.9001C54.8721 69.2617 53.9448 69.052 53.0879 69.052V73.052C53.2005 73.052 53.2419 73.0659 53.2336 73.0633C53.2286 73.0618 53.2118 73.0562 53.1873 73.0433C53.1623 73.0302 53.1337 73.0119 53.1045 72.9879L55.6474 69.9001ZM53.0879 69.052C52.4493 69.052 51.7718 69.1806 51.1437 69.5395L53.1282 73.0125C53.0786 73.0408 53.0411 73.0517 53.028 73.0548C53.0167 73.0575 53.0337 73.052 53.0879 73.052V69.052ZM51.2415 69.4871C50.8259 69.695 50.4417 69.954 50.0881 70.2532L52.6718 73.3068C52.8035 73.1954 52.9234 73.1184 53.0304 73.0649L51.2415 69.4871ZM50.0881 70.2532C49.93 70.387 49.7569 70.511 49.5669 70.625L51.6249 74.055C51.995 73.833 52.3445 73.5837 52.6718 73.3068L50.0881 70.2532ZM49.6548 70.5753C49.7246 70.538 49.7551 70.5374 49.7159 70.545C49.677 70.5526 49.5918 70.564 49.4479 70.564V74.564C50.1029 74.564 50.854 74.469 51.5371 74.1047L49.6548 70.5753ZM49.4479 70.564C49.3027 70.564 49.2292 70.5467 49.2073 70.5403C49.1904 70.5353 49.2171 70.541 49.2592 70.5742L46.7806 73.7138C47.5874 74.3507 48.546 74.564 49.4479 74.564V70.564ZM49.3082 70.6142C49.3137 70.6188 49.3687 70.668 49.4189 70.7711C49.4712 70.8783 49.4879 70.9819 49.4879 71.052H45.4879C45.4879 72.1229 45.9667 73.0297 46.7317 73.6738L49.3082 70.6142ZM49.4879 71.052C49.4879 70.8973 49.5217 70.851 49.5465 70.8189L46.3814 68.3731C45.7715 69.1624 45.4879 70.0867 45.4879 71.052H49.4879ZM49.5389 70.8286C49.6909 70.6344 49.8843 70.4705 50.1446 70.3355L48.3033 66.7845C47.5556 67.1722 46.909 67.6989 46.3889 68.3634L49.5389 70.8286ZM50.1684 70.323C50.5061 70.142 50.9001 69.9983 51.3632 69.9029L50.5566 65.9851C49.7505 66.1511 48.9871 66.418 48.2795 66.797L50.1684 70.323ZM51.4056 69.8937C51.9209 69.7759 52.4154 69.72 52.8919 69.72V65.72C52.0992 65.72 51.3057 65.8134 50.5143 65.9943L51.4056 69.8937ZM52.8919 69.72C53.4994 69.72 54.058 69.7992 54.5758 69.9491L55.6881 66.1069C54.7872 65.8461 53.8525 65.72 52.8919 65.72V69.72ZM54.6352 69.9653C55.1328 70.0929 55.5194 70.2839 55.8272 70.5174L58.2447 67.3306C57.4698 66.7428 56.5871 66.3364 55.6287 66.0907L54.6352 69.9653ZM55.8629 70.5439C56.1407 70.7451 56.3668 71.0042 56.546 71.3519L60.1019 69.5201C59.6464 68.6358 59.0138 67.8869 58.209 67.3041L55.8629 70.5439ZM56.5808 71.4165C56.7179 71.6603 56.8279 72.018 56.8279 72.564H60.8279C60.8279 71.4673 60.602 70.4064 60.0671 69.4555L56.5808 71.4165ZM56.8279 72.564V77.128H60.8279V72.564H56.8279ZM53.1439 74.288C52.1997 74.288 51.2589 74.4045 50.4327 74.7541L51.9912 78.4379C52.1356 78.3768 52.4828 78.288 53.1439 78.288V74.288ZM50.4327 74.7541C49.8521 74.9997 49.3203 75.4111 48.9545 76.0162C48.5992 76.6037 48.4839 77.235 48.4839 77.8H52.4839C52.4839 77.7677 52.49 77.8997 52.3774 78.0858C52.2542 78.2896 52.0864 78.3977 51.9912 78.4379L50.4327 74.7541ZM48.4839 77.8C48.4839 78.6772 48.8081 79.6488 49.7135 80.2955L52.0384 77.0405C52.1914 77.1498 52.323 77.3069 52.4047 77.4878C52.4802 77.6551 52.4839 77.7771 52.4839 77.8H48.4839ZM49.7665 80.3321C50.4905 80.8147 51.3101 80.948 52.0239 80.948V76.948C51.9662 76.948 51.9232 76.9452 51.893 76.942C51.8629 76.9387 51.8483 76.9353 51.8468 76.935C51.8442 76.9343 51.9014 76.948 51.9853 77.0039L49.7665 80.3321ZM52.0239 80.948C52.5391 80.948 53.046 80.8721 53.5392 80.735L52.4687 76.881C52.2899 76.9306 52.1435 76.948 52.0239 76.948V80.948ZM53.6364 80.7054C54.1322 80.5401 54.6019 80.3144 55.0373 80.0241L52.8185 76.6959C52.694 76.7789 52.5477 76.8519 52.3715 76.9106L53.6364 80.7054ZM55.0373 80.0241C55.4981 79.717 55.9141 79.3315 56.2443 78.8544L52.9556 76.5776C52.9498 76.5859 52.9178 76.6297 52.8185 76.6959L55.0373 80.0241ZM56.2274 78.8785C56.6371 78.3049 56.8799 77.6235 56.8799 76.876H52.8799C52.8799 76.813 52.8904 76.7439 52.9126 76.6775C52.9342 76.6125 52.9601 76.5709 52.9725 76.5535L56.2274 78.8785ZM56.8799 76.876C56.8799 76.3055 56.6787 75.7578 56.3003 75.3211C55.9558 74.9236 55.5449 74.7089 55.2339 74.5893L53.798 78.3227C53.7297 78.2964 53.5008 78.1984 53.2776 77.9409C53.0205 77.6442 52.8799 77.2598 52.8799 76.876H56.8799ZM55.3541 74.6401C54.956 74.4564 54.5424 74.3826 54.234 74.3448C53.8974 74.3036 53.528 74.288 53.1439 74.288V78.288C53.4319 78.288 53.6272 78.3004 53.7479 78.3152C53.8066 78.3224 53.8302 78.3281 53.8269 78.3273C53.8244 78.3267 53.8102 78.3232 53.7869 78.3155C53.7639 78.3079 53.7261 78.2942 53.6778 78.2719L55.3541 74.6401ZM69.9002 78.696L68.9644 76.9284L68.9419 76.9404L68.9197 76.9528L69.9002 78.696ZM70.7122 78.08L72.1818 79.4366L72.1945 79.4228L72.207 79.4087L70.7122 78.08ZM71.1042 77.576L69.5255 76.3481L69.4806 76.4058L69.4401 76.4666L71.1042 77.576ZM71.5242 77.128L72.8412 78.6332L72.8913 78.5893L72.9384 78.5422L71.5242 77.128ZM74.1842 77.072L75.5984 75.6578L75.5984 75.6578L74.1842 77.072ZM74.2122 79.704L72.4798 78.7046L72.4734 78.7156L72.4672 78.7268L74.2122 79.704ZM73.1202 80.936L71.91 79.3437L71.9033 79.3488L73.1202 80.936ZM71.1882 81.944L71.7764 83.8556L71.7986 83.8487L71.8206 83.8414L71.1882 81.944ZM65.6722 81.776L64.9226 83.6302L64.9397 83.6371L64.9569 83.6437L65.6722 81.776ZM63.4882 80.292L61.991 81.6181L62.0006 81.6289L62.0103 81.6395L63.4882 80.292ZM62.1722 77.996L60.2632 78.5926L60.2708 78.6166L60.2789 78.6405L62.1722 77.996ZM62.1722 72.032L60.2748 71.3995L60.2689 71.4174L60.2632 71.4354L62.1722 72.032ZM63.4882 69.736L64.9661 71.0835L64.9758 71.0729L64.9854 71.0621L63.4882 69.736ZM65.6722 68.252L66.3875 70.1197L66.4047 70.1131L66.4218 70.1062L65.6722 68.252ZM71.3282 68.112L70.6819 70.0047L71.3282 68.112ZM73.3442 69.232L72.059 70.7644L72.0702 70.7738L72.0816 70.7831L73.3442 69.232ZM74.0442 72.788L75.3246 74.3244L75.3491 74.304L75.3729 74.2828L74.0442 72.788ZM72.0282 73.124L71.2854 74.981L71.3916 75.0234L71.502 75.0535L72.0282 73.124ZM71.5242 72.844L70.2226 74.3625L70.2721 74.4049L70.3242 74.444L71.5242 72.844ZM71.1322 72.452L69.5322 73.652L69.5774 73.7123L69.627 73.769L71.1322 72.452ZM70.7402 71.976L72.235 70.6473L72.2161 70.626L72.1966 70.6053L70.7402 71.976ZM69.7602 71.276L68.9841 73.1193L69.7602 71.276ZM66.4282 72.116L64.7978 70.9576L64.7876 70.972L64.7776 70.9866L66.4282 72.116ZM66.4282 77.884L64.7776 79.0134L64.7876 79.028L64.7978 79.0424L66.4282 77.884ZM68.7242 80.948C69.418 80.948 70.1837 80.8312 70.8807 80.4391L68.9197 76.9528C68.9726 76.9231 68.9949 76.9226 68.9631 76.9294C68.9301 76.9365 68.8543 76.948 68.7242 76.948V80.948ZM70.836 80.4636C71.3358 80.199 71.7915 79.8593 72.1818 79.4366L69.2426 76.7234C69.1848 76.786 69.0993 76.857 68.9644 76.9284L70.836 80.4636ZM72.207 79.4087C72.411 79.1793 72.5996 78.9384 72.7683 78.6854L69.4401 76.4666C69.3847 76.5496 69.3121 76.6447 69.2174 76.7513L72.207 79.4087ZM72.6829 78.8039C72.741 78.7292 72.7944 78.6741 72.8412 78.6332L70.2072 75.6228C69.9553 75.8432 69.7287 76.0868 69.5255 76.3481L72.6829 78.8039ZM72.9384 78.5422C72.9241 78.5565 72.9102 78.5677 72.8986 78.5756C72.8871 78.5834 72.8812 78.5859 72.8838 78.5847L71.2286 74.9433C70.8199 75.129 70.4401 75.3836 70.11 75.7138L72.9384 78.5422ZM72.8838 78.5847C72.8106 78.618 72.7632 78.6269 72.7578 78.6279C72.7525 78.6288 72.7774 78.624 72.8402 78.624V74.624C72.3456 74.624 71.7771 74.694 71.2286 74.9433L72.8838 78.5847ZM72.8402 78.624C72.9782 78.624 73.0175 78.6419 72.9917 78.6334C72.9769 78.6284 72.945 78.6161 72.9032 78.591C72.8606 78.5655 72.8145 78.5307 72.77 78.4862L75.5984 75.6578C74.7924 74.8518 73.7458 74.624 72.8402 74.624V78.624ZM72.77 78.4862C72.7459 78.4621 72.703 78.4088 72.6698 78.3281C72.637 78.2481 72.6322 78.1858 72.6322 78.164H76.6322C76.6322 77.214 76.279 76.3384 75.5984 75.6578L72.77 78.4862ZM72.6322 78.164C72.6322 78.3419 72.5909 78.512 72.4798 78.7046L75.9446 80.7034C76.3935 79.9253 76.6322 79.0688 76.6322 78.164H72.6322ZM72.4672 78.7268C72.3524 78.9318 72.1792 79.1391 71.91 79.3437L74.3304 82.5283C74.9945 82.0236 75.5493 81.4096 75.9572 80.6812L72.4672 78.7268ZM71.9033 79.3488C71.5343 79.6317 71.0915 79.8681 70.5557 80.0466L71.8206 83.8414C72.7409 83.5346 73.5861 83.099 74.3371 82.5232L71.9033 79.3488ZM70.6 80.0324C70.0963 80.1874 69.4782 80.28 68.7242 80.28V84.28C69.7995 84.28 70.8241 84.1486 71.7764 83.8556L70.6 80.0324ZM68.7242 80.28C67.7566 80.28 66.9903 80.1392 66.3875 79.9083L64.9569 83.6437C66.1087 84.0848 67.3771 84.28 68.7242 84.28V80.28ZM66.4218 79.9218C65.7935 79.6678 65.3232 79.3361 64.9661 78.9445L62.0103 81.6395C62.8105 82.5172 63.7962 83.1749 64.9226 83.6302L66.4218 79.9218ZM64.9854 78.9659C64.5934 78.5233 64.284 77.9934 64.0655 77.3515L60.2789 78.6405C60.6577 79.7533 61.2257 80.754 61.991 81.6181L64.9854 78.9659ZM64.0811 77.3995C63.8709 76.7266 63.7522 75.9331 63.7522 75H59.7522C59.7522 76.2695 59.9135 77.4734 60.2632 78.5926L64.0811 77.3995ZM63.7522 75C63.7522 74.0893 63.8699 73.3045 64.0811 72.6285L60.2632 71.4354C59.9145 72.5515 59.7522 73.7454 59.7522 75H63.7522ZM64.0696 72.6645C64.2887 72.0069 64.5937 71.492 64.9661 71.0835L62.0103 68.3885C61.2254 69.2494 60.653 70.2651 60.2748 71.3995L64.0696 72.6645ZM64.9854 71.0621C65.3346 70.6677 65.787 70.3497 66.3875 70.1197L64.9569 66.3843C63.8027 66.8263 62.7991 67.4976 61.991 68.4099L64.9854 71.0621ZM66.4218 70.1062C67.0143 69.8667 67.7681 69.72 68.7242 69.72V65.72C67.3656 65.72 66.0848 65.928 64.9226 66.3978L66.4218 70.1062ZM68.7242 69.72C69.5177 69.72 70.1615 69.827 70.6819 70.0047L71.9745 66.2193C70.9642 65.8743 69.872 65.72 68.7242 65.72V69.72ZM70.6819 70.0047C71.2305 70.192 71.6823 70.4484 72.059 70.7644L74.6294 67.6996C73.8488 67.0449 72.9565 66.5546 71.9745 66.2193L70.6819 70.0047ZM72.0816 70.7831C72.5111 71.1326 72.5482 71.3632 72.5482 71.528H76.5482C76.5482 69.9382 75.7826 68.638 74.6067 67.6809L72.0816 70.7831ZM72.5482 71.528C72.5482 71.5931 72.5381 71.574 72.5652 71.5062C72.5788 71.4724 72.599 71.4332 72.6272 71.3929C72.6555 71.3526 72.6863 71.3191 72.7155 71.2932L75.3729 74.2828C76.2225 73.5276 76.5482 72.5135 76.5482 71.528H72.5482ZM72.7638 71.2516C72.7749 71.2423 72.789 71.2324 72.8052 71.2234C72.8213 71.2145 72.8352 71.2088 72.8447 71.2056C72.8647 71.199 72.8505 71.208 72.7842 71.208V75.208C73.6808 75.208 74.5753 74.9488 75.3246 74.3244L72.7638 71.2516ZM72.7842 71.208C72.6961 71.208 72.6332 71.2038 72.592 71.1992C72.5503 71.1946 72.5402 71.1906 72.5544 71.1945L71.502 75.0535C71.9322 75.1709 72.3733 75.208 72.7842 75.208V71.208ZM72.771 71.267C72.7349 71.2526 72.7227 71.2429 72.7242 71.244L70.3242 74.444C70.6243 74.6691 70.9482 74.8461 71.2854 74.981L72.771 71.267ZM72.8258 71.3255C72.7777 71.2843 72.7144 71.223 72.6373 71.135L69.627 73.769C69.8114 73.9797 70.0094 74.1797 70.2226 74.3625L72.8258 71.3255ZM72.7322 71.252C72.581 71.0505 72.414 70.8487 72.235 70.6473L69.2454 73.3047C69.365 73.4393 69.4593 73.5549 69.5322 73.652L72.7322 71.252ZM72.1966 70.6053C71.7319 70.1116 71.1802 69.7038 70.5363 69.4327L68.9841 73.1193C69.0495 73.1468 69.1511 73.2058 69.2838 73.3467L72.1966 70.6053ZM70.5363 69.4327C69.9714 69.1949 69.3627 69.052 68.7242 69.052V73.052C68.7577 73.052 68.8396 73.0585 68.9841 73.1193L70.5363 69.4327ZM68.7242 69.052C67.1828 69.052 65.7479 69.6205 64.7978 70.9576L68.0585 73.2744C68.1165 73.1929 68.2122 73.052 68.7242 73.052V69.052ZM64.7776 70.9866C63.9886 72.1397 63.7002 73.5434 63.7002 75H67.7002C67.7002 74.03 67.8971 73.5109 68.0788 73.2454L64.7776 70.9866ZM63.7002 75C63.7002 76.4566 63.9886 77.8603 64.7776 79.0134L68.0788 76.7546C67.8971 76.4891 67.7002 75.97 67.7002 75H63.7002ZM64.7978 79.0424C65.7479 80.3795 67.1828 80.948 68.7242 80.948V76.948C68.2122 76.948 68.1165 76.8071 68.0585 76.7256L64.7978 79.0424ZM85.2812 80.152L87.2061 79.6091L85.9409 75.1235L83.5614 79.1309L85.2812 80.152ZM83.8252 81.664L82.7158 79.9999L83.8252 81.664ZM78.2252 81.048L76.8266 82.4777L76.8346 82.4855L76.8427 82.4933L78.2252 81.048ZM77.5532 68.196L78.7295 69.8135L78.753 69.7964L78.7761 69.7786L77.5532 68.196ZM79.6252 67.832L79.037 69.7436V69.7436L79.6252 67.832ZM80.2692 68.196L78.9312 69.6826L78.9744 69.7214L79.0198 69.7577L80.2692 68.196ZM80.7172 68.84L78.8602 69.5828L78.8693 69.6054L78.8789 69.6278L80.7172 68.84ZM81.3892 78.444L79.9373 79.8195L79.9744 79.8587L80.0137 79.8959L81.3892 78.444ZM84.5812 77.884L82.8974 76.8046L82.8902 76.816L84.5812 77.884ZM85.8972 68.196L87.0735 69.8135L87.097 69.7964L87.1201 69.7786L85.8972 68.196ZM87.9692 67.832L87.381 69.7436L87.381 69.7436L87.9692 67.832ZM88.6132 68.196L87.2752 69.6826L87.3184 69.7214L87.3638 69.7577L88.6132 68.196ZM89.0612 68.84L87.2042 69.5828L87.2133 69.6054L87.2229 69.6278L89.0612 68.84ZM89.2572 78.444L87.2599 78.5491L87.263 78.6071L87.2694 78.6649L89.2572 78.444ZM89.3692 79.34L87.3893 79.6228L87.4013 79.7069L87.4204 79.7897L89.3692 79.34ZM89.4812 80.012L87.4894 80.1931L87.499 80.2995L87.52 80.4042L89.4812 80.012ZM89.0892 81.804L87.6328 80.4333L87.6107 80.4567L87.5895 80.4808L89.0892 81.804ZM86.1772 81.776L84.8353 83.2591L84.8552 83.2771L84.8756 83.2945L86.1772 81.776ZM83.5614 79.1309C83.3695 79.4542 83.0995 79.7441 82.7158 79.9999L84.9346 83.3281C85.7828 82.7626 86.4835 82.0444 87.0009 81.1731L83.5614 79.1309ZM82.7158 79.9999C82.4398 80.1838 82.1378 80.28 81.7532 80.28V84.28C82.8992 84.28 83.9785 83.9655 84.9346 83.3281L82.7158 79.9999ZM81.7532 80.28C80.6364 80.28 80.0048 79.9826 79.6076 79.6027L76.8427 82.4933C78.1629 83.7561 79.8833 84.28 81.7532 84.28V80.28ZM79.6237 79.6183C79.3205 79.3216 78.9372 78.6056 78.9372 76.96H74.9372C74.9372 79.0851 75.4125 81.0944 76.8266 82.4777L79.6237 79.6183ZM78.9372 76.96V69.82H74.9372V76.96H78.9372ZM78.9372 69.82C78.9372 69.7098 78.9445 69.6328 78.9521 69.5837C78.9597 69.5346 78.9663 69.5218 78.9612 69.5353C78.9555 69.5501 78.9373 69.5926 78.8965 69.6482C78.8545 69.7055 78.7982 69.7635 78.7295 69.8135L76.3768 66.5785C75.2146 67.4238 74.9372 68.7546 74.9372 69.82H78.9372ZM78.7761 69.7786C78.8289 69.7377 78.8583 69.7266 78.8649 69.7243C78.8699 69.7225 78.8771 69.72 78.8972 69.72V65.72C77.9375 65.72 77.0652 66.0455 76.3303 66.6134L78.7761 69.7786ZM78.8972 69.72C78.9314 69.72 78.976 69.7248 79.037 69.7436L80.2133 65.9204C79.789 65.7899 79.3483 65.72 78.8972 65.72V69.72ZM79.037 69.7436C79.0247 69.7398 79.0058 69.7324 78.984 69.7201C78.9622 69.7078 78.9442 69.6943 78.9312 69.6826L81.6071 66.7094C81.2019 66.3448 80.7307 66.0796 80.2133 65.9204L79.037 69.7436ZM79.0198 69.7577C78.8747 69.6417 78.8435 69.5411 78.8602 69.5828L82.5741 68.0972C82.3668 67.5789 82.0369 67.049 81.5185 66.6343L79.0198 69.7577ZM78.8789 69.6278C78.8639 69.5928 78.8662 69.5854 78.8719 69.6189C78.8777 69.6526 78.8852 69.7174 78.8852 69.82H82.8852C82.8852 69.2531 82.8064 68.6377 82.5554 68.0522L78.8789 69.6278ZM78.8852 69.82V76.792H82.8852V69.82H78.8852ZM78.8852 76.792C78.8852 77.7874 79.1026 78.9384 79.9373 79.8195L82.8411 77.0685C82.9208 77.1527 82.9338 77.2132 82.9241 77.1814C82.912 77.1417 82.8852 77.0229 82.8852 76.792H78.8852ZM80.0137 79.8959C80.7813 80.6231 81.7402 80.948 82.7332 80.948V76.948C82.7013 76.948 82.6842 76.9455 82.6795 76.9447C82.6751 76.944 82.6807 76.9446 82.6934 76.9493C82.7063 76.9542 82.7213 76.9614 82.7362 76.9707C82.751 76.98 82.7605 76.9882 82.7646 76.9921L80.0137 79.8959ZM82.7332 80.948C84.2592 80.948 85.4886 80.1927 86.2721 78.952L82.8902 76.816C82.8085 76.9454 82.7649 76.9605 82.7852 76.9488C82.7925 76.9446 82.7988 76.9427 82.7985 76.9427C82.7971 76.9431 82.7776 76.948 82.7332 76.948V80.948ZM86.2649 78.9633C87.0229 77.7809 87.2812 76.3072 87.2812 74.776H83.2812C83.2812 75.9328 83.0727 76.5311 82.8974 76.8047L86.2649 78.9633ZM87.2812 74.776V69.82H83.2812V74.776H87.2812ZM87.2812 69.82C87.2812 69.7098 87.2885 69.6328 87.2961 69.5837C87.3037 69.5346 87.3103 69.5218 87.3052 69.5353C87.2995 69.5501 87.2813 69.5926 87.2405 69.6482C87.1985 69.7055 87.1422 69.7635 87.0735 69.8135L84.7208 66.5785C83.5586 67.4238 83.2812 68.7546 83.2812 69.82H87.2812ZM87.1201 69.7786C87.1729 69.7377 87.2023 69.7266 87.2089 69.7243C87.2139 69.7225 87.2211 69.72 87.2412 69.72V65.72C86.2815 65.72 85.4092 66.0455 84.6743 66.6134L87.1201 69.7786ZM87.2412 69.72C87.2754 69.72 87.32 69.7248 87.381 69.7436L88.5573 65.9204C88.133 65.7899 87.6923 65.72 87.2412 65.72V69.72ZM87.381 69.7436C87.3687 69.7398 87.3498 69.7324 87.328 69.7201C87.3062 69.7078 87.2882 69.6943 87.2752 69.6826L89.9511 66.7094C89.5459 66.3448 89.0747 66.0796 88.5573 65.9204L87.381 69.7436ZM87.3638 69.7577C87.2187 69.6417 87.1875 69.5411 87.2042 69.5828L90.9181 68.0972C90.7108 67.5789 90.3809 67.049 89.8625 66.6343L87.3638 69.7577ZM87.2229 69.6278C87.2079 69.5928 87.2102 69.5854 87.2159 69.6189C87.2217 69.6526 87.2292 69.7174 87.2292 69.82H91.2292C91.2292 69.2531 91.1504 68.6377 90.8994 68.0522L87.2229 69.6278ZM87.2292 69.82V77.128H91.2292V69.82H87.2292ZM87.2292 77.128C87.2292 77.6711 87.2388 78.1473 87.2599 78.5491L91.2544 78.3389C91.2382 78.0313 91.2292 77.6303 91.2292 77.128H87.2292ZM87.2694 78.6649C87.3084 79.0162 87.3483 79.3361 87.3893 79.6228L91.3491 79.0572C91.3153 78.8212 91.2806 78.5438 91.2449 78.2231L87.2694 78.6649ZM87.4204 79.7897C87.46 79.9614 87.4804 80.0944 87.4894 80.1931L91.4729 79.8309C91.4446 79.5189 91.3903 79.2039 91.3179 78.8903L87.4204 79.7897ZM87.52 80.4042C87.5274 80.4415 87.5372 80.5133 87.5372 80.628H91.5372C91.5372 80.2947 91.5095 79.9558 91.4423 79.6198L87.52 80.4042ZM87.5372 80.628C87.5372 80.6453 87.535 80.6156 87.5562 80.56C87.5783 80.5021 87.6099 80.4575 87.6328 80.4333L90.5456 83.1747C91.2196 82.4585 91.5372 81.5645 91.5372 80.628H87.5372ZM87.5895 80.4808C87.6377 80.4261 87.6913 80.3804 87.745 80.3448C87.798 80.3098 87.8424 80.2902 87.8699 80.2802C87.9202 80.2621 87.9018 80.28 87.7732 80.28V84.28C88.7006 84.28 89.7932 84.0289 90.5888 83.1272L87.5895 80.4808ZM87.7732 80.28C87.6011 80.28 87.5085 80.2582 87.4724 80.2468C87.4424 80.2374 87.4542 80.2364 87.4787 80.2575L84.8756 83.2945C85.7277 84.0249 86.7704 84.28 87.7732 84.28V80.28ZM87.519 80.2929C87.5014 80.277 87.3511 80.1232 87.2061 79.6091L83.3563 80.6949C83.6219 81.6368 84.0689 82.5656 84.8353 83.2591L87.519 80.2929ZM98.1511 81.86L99.0699 83.6364L99.0938 83.6241L99.1172 83.6112L98.1511 81.86ZM94.6791 82.028L95.3813 80.1553L95.3588 80.1469L95.3361 80.139L94.6791 82.028ZM93.5311 81.272L92.0406 82.6056L92.0596 82.6268L92.0792 82.6475L93.5311 81.272ZM92.7751 79.9L90.8594 80.4747L90.8681 80.5037L90.8777 80.5325L92.7751 79.9ZM93.1391 61.756L94.3154 63.3735L94.339 63.3564L94.362 63.3386L93.1391 61.756ZM95.2111 61.392L95.7993 59.4804L95.7993 59.4804L95.2111 61.392ZM95.8551 61.756L94.5172 63.2426L94.5603 63.2814L94.6057 63.3177L95.8551 61.756ZM96.3031 62.4L94.4461 63.1428L94.4552 63.1654L94.4648 63.1878L96.3031 62.4ZM94.4711 77.464C94.4711 78.0755 94.5674 78.8911 95.0653 79.6003C95.6538 80.4385 96.5476 80.78 97.3951 80.78V76.78C97.478 76.78 97.6468 76.7952 97.8486 76.891C98.0604 76.9916 98.2273 77.1428 98.3389 77.3017C98.4416 77.448 98.4711 77.562 98.4762 77.584C98.4813 77.6055 98.4711 77.5727 98.4711 77.464H94.4711ZM97.3951 80.78C97.6618 80.78 97.4883 80.8445 97.2391 80.6219C97.1115 80.508 97.0319 80.3754 96.9914 80.267C96.9553 80.1703 96.9631 80.1283 96.9631 80.18H100.963C100.963 79.3427 100.718 78.3659 99.9031 77.6381C99.1312 76.9489 98.1737 76.78 97.3951 76.78V80.78ZM96.9631 80.18C96.9631 80.3817 96.9285 80.4095 96.9594 80.3457C96.9763 80.3106 97.0064 80.2623 97.0532 80.2128C97.1001 80.1633 97.1479 80.1293 97.1849 80.1088L99.1172 83.6112C100.506 82.8452 100.963 81.4547 100.963 80.18H96.9631ZM97.2322 80.0836C97.0562 80.1746 96.7148 80.28 96.1071 80.28V84.28C97.142 84.28 98.1633 84.1054 99.0699 83.6364L97.2322 80.0836ZM96.1071 80.28C95.83 80.28 95.593 80.2347 95.3813 80.1553L93.9768 83.9007C94.6612 84.1573 95.3762 84.28 96.1071 84.28V80.28ZM95.3361 80.139C95.2314 80.1026 95.1158 80.0367 94.983 79.8965L92.0792 82.6475C92.6184 83.2166 93.2682 83.6548 94.0221 83.917L95.3361 80.139ZM95.0216 79.9384C94.9245 79.8299 94.7929 79.6289 94.6725 79.2675L90.8777 80.5325C91.1306 81.2911 91.5031 82.0048 92.0406 82.6056L95.0216 79.9384ZM94.6907 79.3253C94.5951 79.0066 94.5231 78.531 94.5231 77.856H90.5231C90.5231 78.7863 90.6191 79.6734 90.8594 80.4747L94.6907 79.3253ZM94.5231 77.856V63.38H90.5231V77.856H94.5231ZM94.5231 63.38C94.5231 63.2698 94.5304 63.1928 94.538 63.1437C94.5456 63.0946 94.5522 63.0818 94.5471 63.0953C94.5415 63.1101 94.5232 63.1526 94.4824 63.2082C94.4404 63.2655 94.3841 63.3235 94.3154 63.3735L91.9627 60.1385C90.8006 60.9838 90.5231 62.3146 90.5231 63.38H94.5231ZM94.362 63.3386C94.4148 63.2977 94.4443 63.2866 94.4508 63.2843C94.4558 63.2825 94.463 63.28 94.4831 63.28V59.28C93.5235 59.28 92.6512 59.6055 91.9162 60.1734L94.362 63.3386ZM94.4831 63.28C94.5173 63.28 94.562 63.2848 94.6229 63.3036L95.7993 59.4804C95.3749 59.3499 94.9342 59.28 94.4831 59.28V63.28ZM94.6229 63.3036C94.6106 63.2998 94.5918 63.2924 94.57 63.2801C94.5481 63.2678 94.5301 63.2543 94.5172 63.2426L97.193 60.2694C96.7878 59.9048 96.3166 59.6396 95.7993 59.4804L94.6229 63.3036ZM94.6057 63.3177C94.4607 63.2017 94.4295 63.1011 94.4461 63.1428L98.16 61.6572C97.9527 61.1389 97.6229 60.609 97.1045 60.1943L94.6057 63.3177ZM94.4648 63.1878C94.4498 63.1528 94.4521 63.1454 94.4578 63.1789C94.4636 63.2126 94.4711 63.2774 94.4711 63.38H98.4711C98.4711 62.8131 98.3923 62.1977 98.1414 61.6122L94.4648 63.1878ZM94.4711 63.38V77.464H98.4711V63.38H94.4711ZM101.387 63.716L102.563 65.3335L102.586 65.3164L102.61 65.2986L101.387 63.716ZM103.459 63.352L102.87 65.2636L102.87 65.2636L103.459 63.352ZM104.103 63.716L102.765 65.2026L102.808 65.2414L102.853 65.2777L104.103 63.716ZM104.551 64.36L102.694 65.1028L102.703 65.1254L102.712 65.1478L104.551 64.36ZM104.719 68H102.719V70H104.719V68ZM108.023 70.884L109.437 72.2982L109.458 72.2768L109.479 72.2547L108.023 70.884ZM104.719 71.332V69.332H102.719V71.332H104.719ZM105.055 78.444L103.493 79.6934L103.517 79.7241L103.543 79.7539L105.055 78.444ZM106.875 78.752L106.132 76.895L106.875 78.752ZM108.387 81.104L106.787 79.904V79.904L108.387 81.104ZM107.519 81.832L108.413 83.6209L108.432 83.6115L108.45 83.6018L107.519 81.832ZM106.371 82.168L106.112 80.1848L106.062 80.1913L106.013 80.2003L106.371 82.168ZM101.975 81.104L100.56 82.5182L100.569 82.5265L100.577 82.5348L101.975 81.104ZM100.771 71.332H102.771V69.332H100.771V71.332ZM99.0626 70.884L97.6062 72.2547L97.627 72.2768L97.6484 72.2982L99.0626 70.884ZM99.0626 68.476L97.6062 67.1053L99.0626 68.476ZM100.771 68V70H102.771V68H100.771ZM102.771 65.34C102.771 65.2298 102.778 65.1528 102.786 65.1037C102.793 65.0546 102.8 65.0418 102.795 65.0553C102.789 65.0701 102.771 65.1126 102.73 65.1682C102.688 65.2255 102.632 65.2835 102.563 65.3335L100.21 62.0985C99.0481 62.9438 98.7706 64.2746 98.7706 65.34H102.771ZM102.61 65.2986C102.662 65.2577 102.692 65.2466 102.698 65.2443C102.703 65.2425 102.711 65.24 102.731 65.24V61.24C101.771 61.24 100.899 61.5655 100.164 62.1334L102.61 65.2986ZM102.731 65.24C102.765 65.24 102.809 65.2448 102.87 65.2636L104.047 61.4404C103.622 61.3099 103.182 61.24 102.731 61.24V65.24ZM102.87 65.2636C102.858 65.2598 102.839 65.2524 102.818 65.2401C102.796 65.2278 102.778 65.2143 102.765 65.2026L105.441 62.2294C105.035 61.8648 104.564 61.5996 104.047 61.4404L102.87 65.2636ZM102.853 65.2777C102.708 65.1617 102.677 65.0611 102.694 65.1028L106.408 63.6172C106.2 63.0989 105.87 62.569 105.352 62.1543L102.853 65.2777ZM102.712 65.1478C102.697 65.1128 102.7 65.1054 102.705 65.1389C102.711 65.1726 102.719 65.2374 102.719 65.34H106.719C106.719 64.7731 106.64 64.1577 106.389 63.5722L102.712 65.1478ZM102.719 65.34V68H106.719V65.34H102.719ZM104.719 70H106.539V66H104.719V70ZM106.539 70C106.636 70 106.707 70.0056 106.755 70.0121C106.803 70.0185 106.821 70.0248 106.817 70.0234C106.812 70.0219 106.78 70.0112 106.733 69.9827C106.684 69.9535 106.625 69.9092 106.566 69.8467L109.479 67.1053C108.631 66.2038 107.466 66 106.539 66V70ZM106.566 69.8467C106.553 69.8328 106.537 69.8131 106.521 69.7878C106.506 69.7624 106.493 69.7365 106.484 69.7125C106.466 69.6623 106.471 69.644 106.471 69.68H110.471C110.471 68.748 110.168 67.837 109.479 67.1053L106.566 69.8467ZM106.471 69.68C106.471 69.716 106.466 69.6977 106.484 69.6475C106.493 69.6235 106.506 69.5976 106.521 69.5722C106.537 69.5469 106.553 69.5272 106.566 69.5133L109.479 72.2547C110.168 71.523 110.471 70.612 110.471 69.68H106.471ZM106.608 69.4698C106.739 69.3393 106.851 69.3049 106.85 69.3053C106.848 69.3058 106.824 69.3129 106.77 69.3197C106.716 69.3264 106.64 69.332 106.539 69.332V73.332C107.438 73.332 108.585 73.1503 109.437 72.2982L106.608 69.4698ZM106.539 69.332H104.719V73.332H106.539V69.332ZM102.719 71.332V76.848H106.719V71.332H102.719ZM102.719 76.848C102.719 77.3234 102.752 77.8006 102.846 78.247C102.936 78.675 103.11 79.2154 103.493 79.6934L106.616 77.1946C106.701 77.3006 106.741 77.3869 106.756 77.422C106.77 77.4575 106.768 77.4624 106.76 77.423C106.742 77.3374 106.719 77.1566 106.719 76.848H102.719ZM103.543 79.7539C104.261 80.5815 105.234 80.864 106.119 80.864V76.864C106.082 76.864 106.135 76.8583 106.237 76.8987C106.35 76.9434 106.47 77.0235 106.566 77.1341L103.543 79.7539ZM106.119 80.864C106.56 80.864 107.098 80.8168 107.617 80.609L106.132 76.895C106.175 76.8777 106.208 76.8681 106.228 76.8632C106.247 76.8582 106.256 76.8571 106.253 76.8576C106.249 76.8581 106.237 76.8598 106.214 76.8613C106.19 76.8628 106.159 76.864 106.119 76.864V80.864ZM107.617 80.609C107.552 80.6352 107.51 80.6421 107.506 80.6429C107.501 80.6437 107.522 80.64 107.575 80.64V76.64C107.133 76.64 106.628 76.6966 106.132 76.895L107.617 80.609ZM107.575 80.64C107.493 80.64 107.378 80.6245 107.251 80.572C107.124 80.5196 107.031 80.4488 106.972 80.3902L109.801 77.5618C109.201 76.962 108.421 76.64 107.575 76.64V80.64ZM106.972 80.3902C106.86 80.278 106.79 80.1527 106.753 80.0476C106.719 79.9513 106.723 79.9011 106.723 79.928H110.723C110.723 79.1509 110.502 78.2628 109.801 77.5618L106.972 80.3902ZM106.723 79.928C106.723 80.019 106.712 80.0494 106.716 80.0366C106.718 80.0295 106.723 80.0121 106.735 79.9876C106.747 79.9628 106.764 79.934 106.787 79.904L109.987 82.304C110.539 81.5678 110.723 80.716 110.723 79.928H106.723ZM106.787 79.904C106.753 79.9484 106.699 80.0032 106.587 80.0622L108.45 83.6018C109.047 83.2875 109.572 82.857 109.987 82.304L106.787 79.904ZM106.624 80.0431C106.516 80.0974 106.353 80.1533 106.112 80.1848L106.629 84.1512C107.247 84.0707 107.85 83.9026 108.413 83.6209L106.624 80.0431ZM106.013 80.2003C105.718 80.2538 105.427 80.28 105.139 80.28V84.28C105.671 84.28 106.202 84.2315 106.728 84.1357L106.013 80.2003ZM105.139 80.28C104.262 80.28 103.74 80.0324 103.372 79.6732L100.577 82.5348C101.815 83.7436 103.402 84.28 105.139 84.28V80.28ZM103.389 79.6898C103.144 79.4452 102.771 78.7589 102.771 77.072H98.7706C98.7706 79.1558 99.1997 81.1575 100.56 82.5182L103.389 79.6898ZM102.771 77.072V71.332H98.7706V77.072H102.771ZM100.771 69.332H100.547V73.332H100.771V69.332ZM100.547 69.332C100.445 69.332 100.369 69.3264 100.315 69.3197C100.262 69.3129 100.237 69.3058 100.236 69.3053C100.234 69.3049 100.346 69.3393 100.477 69.4698L97.6484 72.2982C98.5005 73.1503 99.6468 73.332 100.547 73.332V69.332ZM100.519 69.5133C100.532 69.5272 100.548 69.5469 100.564 69.5722C100.58 69.5976 100.592 69.6235 100.601 69.6475C100.62 69.6977 100.615 69.716 100.615 69.68H96.6146C96.6146 70.612 96.9176 71.523 97.6062 72.2547L100.519 69.5133ZM100.615 69.68C100.615 69.644 100.62 69.6623 100.601 69.7125C100.592 69.7365 100.58 69.7624 100.564 69.7878C100.548 69.8131 100.532 69.8328 100.519 69.8467L97.6062 67.1053C96.9176 67.837 96.6146 68.748 96.6146 69.68H100.615ZM100.519 69.8467C100.46 69.9092 100.401 69.9535 100.352 69.9827C100.305 70.0112 100.273 70.0219 100.268 70.0234C100.264 70.0248 100.283 70.0185 100.331 70.0121C100.379 70.0056 100.449 70 100.547 70V66C99.6191 66 98.4547 66.2038 97.6062 67.1053L100.519 69.8467ZM100.547 70H100.771V66H100.547V70ZM102.771 68V65.34H98.7706V68H102.771ZM111.24 71.332H113.24V69.332H111.24V71.332ZM109.756 70.884L108.256 72.2072L108.298 72.2541L108.342 72.2982L109.756 70.884ZM109.784 68.476L108.328 67.1053L109.784 68.476ZM114.684 68.504L113.23 69.8772L113.269 69.9188L113.311 69.958L114.684 68.504ZM115.02 81.188L116.858 81.9758L116.868 81.9534L116.877 81.9308L115.02 81.188ZM114.572 81.832L115.821 83.3937L115.867 83.3574L115.91 83.3186L114.572 81.832ZM113.928 82.168L114.516 84.0796L113.928 82.168ZM111.856 81.832L110.633 83.4146L110.656 83.4324L110.68 83.4495L111.856 81.832ZM111.688 62.736L110.306 61.2907L111.688 62.736ZM111.688 65.76L110.306 67.2053L111.688 65.76ZM111.24 69.332C111.138 69.332 111.062 69.3264 111.009 69.3197C110.955 69.3129 110.93 69.3058 110.929 69.3053C110.928 69.3049 111.04 69.3393 111.17 69.4698L108.342 72.2982C109.194 73.1503 110.34 73.332 111.24 73.332V69.332ZM111.256 69.5608C111.27 69.5769 111.285 69.5973 111.299 69.6211C111.313 69.6449 111.323 69.6674 111.329 69.6863C111.343 69.7251 111.336 69.7297 111.336 69.68H107.336C107.336 70.5764 107.607 71.4711 108.256 72.2072L111.256 69.5608ZM111.336 69.68C111.336 69.644 111.341 69.6623 111.322 69.7125C111.313 69.7365 111.301 69.7624 111.285 69.7878C111.269 69.8131 111.253 69.8328 111.24 69.8467L108.328 67.1053C107.639 67.837 107.336 68.748 107.336 69.68H111.336ZM111.24 69.8467C111.182 69.9092 111.122 69.9535 111.074 69.9827C111.026 70.0112 110.995 70.0219 110.99 70.0234C110.986 70.0248 111.004 70.0185 111.052 70.0121C111.1 70.0056 111.171 70 111.268 70V66C110.34 66 109.176 66.2038 108.328 67.1053L111.24 69.8467ZM111.268 70H112.892V66H111.268V70ZM112.892 70C113.217 70 113.39 70.0326 113.457 70.0513C113.522 70.0698 113.391 70.0478 113.23 69.8772L116.138 67.1308C115.22 66.1583 113.876 66 112.892 66V70ZM113.311 69.958C113.159 69.8143 113.132 69.6949 113.144 69.735C113.149 69.7537 113.161 69.8006 113.171 69.8831C113.181 69.9652 113.188 70.0736 113.188 70.212H117.188C117.188 69.2366 117.011 67.9506 116.057 67.05L113.311 69.958ZM113.188 70.212V80.18H117.188V70.212H113.188ZM113.188 80.18C113.188 80.3902 113.157 80.4606 113.163 80.4452L116.877 81.9308C117.107 81.3554 117.188 80.7538 117.188 80.18H113.188ZM113.182 80.4002C113.174 80.4171 113.173 80.4159 113.182 80.4029C113.192 80.3893 113.209 80.3683 113.234 80.3454L115.91 83.3186C116.339 82.9326 116.647 82.4683 116.858 81.9758L113.182 80.4002ZM113.323 80.2703C113.327 80.2669 113.331 80.2638 113.335 80.261C113.34 80.2582 113.343 80.2562 113.346 80.2548C113.352 80.2519 113.35 80.2532 113.34 80.2564L114.516 84.0796C114.984 83.9356 115.426 83.7098 115.821 83.3937L113.323 80.2703ZM113.34 80.2564C113.279 80.2752 113.234 80.28 113.2 80.28V84.28C113.651 84.28 114.092 84.2101 114.516 84.0796L113.34 80.2564ZM113.2 80.28C113.158 80.28 113.118 80.2768 113.032 80.2145L110.68 83.4495C111.415 83.9845 112.272 84.28 113.2 84.28V80.28ZM113.079 80.2494C113.136 80.2939 113.183 80.3443 113.218 80.3928C113.251 80.4398 113.265 80.4738 113.268 80.4822C113.271 80.4895 113.263 80.4717 113.255 80.4201C113.247 80.3684 113.24 80.29 113.24 80.18H109.24C109.24 81.2582 109.522 82.5563 110.633 83.4146L113.079 80.2494ZM113.24 80.18V71.332H109.24V80.18H113.24ZM113.044 64.248C113.044 64.2189 113.047 64.2039 113.047 64.2001C113.048 64.1968 113.048 64.1996 113.045 64.2057C113.042 64.2118 113.04 64.2146 113.042 64.2129C113.043 64.2108 113.051 64.1999 113.07 64.1813L110.306 61.2907C109.479 62.081 109.044 63.1082 109.044 64.248H113.044ZM113.07 64.1813C113.114 64.1395 113.136 64.1317 113.138 64.131C113.14 64.1301 113.163 64.12 113.228 64.12V60.12C112.119 60.12 111.109 60.5219 110.306 61.2907L113.07 64.1813ZM113.228 64.12C113.293 64.12 113.316 64.1301 113.318 64.131C113.32 64.1317 113.342 64.1395 113.386 64.1813L116.15 61.2907C115.347 60.5219 114.337 60.12 113.228 60.12V64.12ZM113.386 64.1813C113.405 64.1999 113.413 64.2108 113.414 64.2129C113.416 64.2146 113.414 64.2118 113.411 64.2057C113.408 64.1996 113.408 64.1968 113.409 64.2001C113.409 64.2039 113.412 64.2189 113.412 64.248H117.412C117.412 63.1082 116.977 62.081 116.15 61.2907L113.386 64.1813ZM113.412 64.248C113.412 64.2771 113.409 64.2921 113.409 64.2959C113.408 64.2992 113.408 64.2964 113.411 64.2903C113.414 64.2842 113.416 64.2814 113.414 64.2831C113.413 64.2852 113.405 64.2961 113.386 64.3147L116.15 67.2053C116.977 66.415 117.412 65.3878 117.412 64.248H113.412ZM113.386 64.3147C113.342 64.3565 113.32 64.3643 113.318 64.365C113.316 64.3659 113.293 64.376 113.228 64.376V68.376C114.337 68.376 115.347 67.9741 116.15 67.2053L113.386 64.3147ZM113.228 64.376C113.163 64.376 113.14 64.3659 113.138 64.365C113.136 64.3643 113.114 64.3565 113.07 64.3147L110.306 67.2053C111.109 67.9741 112.119 68.376 113.228 68.376V64.376ZM113.07 64.3147C113.051 64.2961 113.043 64.2852 113.042 64.2831C113.04 64.2814 113.042 64.2842 113.045 64.2903C113.048 64.2964 113.048 64.2992 113.047 64.2959C113.047 64.2921 113.044 64.2771 113.044 64.248H109.044C109.044 65.3878 109.479 66.415 110.306 67.2053L113.07 64.3147ZM127.208 78.808L126.744 76.8624L127.208 78.808ZM128.272 78.528L128.836 80.4467L128.887 80.4317L128.937 80.414L128.272 78.528ZM130.932 78.444L129.571 79.9096L129.596 79.9329L129.622 79.9554L130.932 78.444ZM130.708 80.88L131.981 82.4219L132.001 82.4058L132.02 82.3892L130.708 80.88ZM129.168 81.748L129.836 83.6329L129.853 83.6269L129.87 83.6207L129.168 81.748ZM127.348 82.168L127.114 80.1817L127.107 80.1825L127.348 82.168ZM122.588 81.776L123.253 79.89L122.588 81.776ZM120.152 80.348L118.758 81.7826L118.779 81.8027L118.8 81.8223L120.152 80.348ZM118.64 78.052L116.775 78.7751L116.78 78.7881L118.64 78.052ZM118.528 72.032L116.63 71.3995L116.624 71.4174L116.619 71.4354L118.528 72.032ZM119.844 69.736L118.368 68.3865L118.366 68.3885L119.844 69.736ZM122.028 68.252L122.756 70.1145L122.767 70.1104L122.777 70.1062L122.028 68.252ZM127.936 68.224L127.178 70.0751L127.197 70.0825L127.215 70.0896L127.936 68.224ZM129.98 69.54L128.542 70.93L128.553 70.9422L128.565 70.9542L129.98 69.54ZM131.184 71.444L129.301 72.1197L129.312 72.1492L129.323 72.1783L131.184 71.444ZM130.848 75.84L129.584 74.2895L129.57 74.3012L129.556 74.3132L130.848 75.84ZM122.196 76.456V74.456H119.604L120.261 76.9627L122.196 76.456ZM123.372 78.304L122.147 79.8854L122.175 79.9072L122.204 79.928L123.372 78.304ZM123.26 71.64L124.54 73.1765L124.546 73.1714L123.26 71.64ZM122.28 73.236L120.363 72.6661L119.599 75.236H122.28V73.236ZM127.628 73.236V75.236H129.779L129.622 73.09L127.628 73.236ZM126.844 71.584L125.633 73.1763L125.654 73.192L125.675 73.2071L126.844 71.584ZM125.892 80.948C126.502 80.948 127.1 80.8895 127.671 80.7536L126.744 76.8624C126.531 76.9131 126.252 76.948 125.892 76.948V80.948ZM127.671 80.7536C128.09 80.6539 128.479 80.5517 128.836 80.4467L127.707 76.6093C127.43 76.6909 127.109 76.7755 126.744 76.8624L127.671 80.7536ZM128.937 80.414C129.257 80.3013 129.548 80.1978 129.812 80.1035L128.467 76.3365C128.208 76.4289 127.921 76.5307 127.606 76.642L128.937 80.414ZM129.812 80.1035C129.888 80.0763 129.913 80.08 129.896 80.08V76.08C129.393 76.08 128.914 76.177 128.467 76.3365L129.812 80.1035ZM129.896 80.08C129.923 80.08 129.887 80.0838 129.814 80.0579C129.734 80.03 129.647 79.9801 129.571 79.9096L132.293 76.9784C131.589 76.3247 130.721 76.08 129.896 76.08V80.08ZM129.622 79.9554C129.532 79.8779 129.452 79.77 129.401 79.6472C129.352 79.5319 129.352 79.4548 129.352 79.452H133.352C133.352 78.5446 133.031 77.6172 132.242 76.9326L129.622 79.9554ZM129.352 79.452C129.352 79.4727 129.35 79.4767 129.352 79.4678C129.354 79.4584 129.358 79.4415 129.367 79.4208C129.377 79.4 129.387 79.3834 129.396 79.3724C129.404 79.3617 129.406 79.3617 129.395 79.3708L132.02 82.3892C132.895 81.6286 133.352 80.5982 133.352 79.452H129.352ZM129.434 79.3381C129.198 79.5327 128.885 79.718 128.465 79.8753L129.87 83.6207C130.645 83.33 131.358 82.9366 131.981 82.4219L129.434 79.3381ZM128.499 79.8631C128.067 80.0165 127.606 80.1238 127.114 80.1817L127.581 84.1543C128.358 84.0629 129.111 83.8901 129.836 83.6329L128.499 79.8631ZM127.107 80.1825C126.535 80.2519 126.108 80.28 125.808 80.28V84.28C126.328 84.28 126.928 84.2335 127.588 84.1535L127.107 80.1825ZM125.808 80.28C124.799 80.28 123.956 80.1381 123.253 79.89L121.922 83.662C123.123 84.0859 124.427 84.28 125.808 84.28V80.28ZM123.253 79.89C122.528 79.634 121.956 79.289 121.503 78.8737L118.8 81.8223C119.691 82.639 120.743 83.246 121.922 83.662L123.253 79.89ZM121.545 78.9134C121.107 78.4873 120.756 77.9643 120.499 77.3159L116.78 78.7881C117.233 79.9317 117.89 80.9393 118.758 81.7826L121.545 78.9134ZM120.504 77.3289C120.251 76.6751 120.108 75.9074 120.108 75H116.108C116.108 76.3326 116.319 77.5995 116.775 78.7751L120.504 77.3289ZM120.108 75C120.108 74.0893 120.225 73.3045 120.437 72.6285L116.619 71.4354C116.27 72.5515 116.108 73.7454 116.108 75H120.108ZM120.425 72.6645C120.644 72.0069 120.949 71.492 121.322 71.0835L118.366 68.3885C117.581 69.2494 117.008 70.2651 116.63 71.3995L120.425 72.6645ZM121.32 71.0855C121.702 70.6676 122.171 70.3437 122.756 70.1145L121.299 66.3895C120.167 66.8323 119.18 67.4977 118.368 68.3865L121.32 71.0855ZM122.777 70.1062C123.37 69.8667 124.124 69.72 125.08 69.72V65.72C123.721 65.72 122.44 65.928 121.278 66.3978L122.777 70.1062ZM125.08 69.72C125.958 69.72 126.644 69.8565 127.178 70.0751L128.693 66.3729C127.585 65.9195 126.366 65.72 125.08 65.72V69.72ZM127.215 70.0896C127.801 70.316 128.227 70.6044 128.542 70.93L131.418 68.15C130.65 67.3556 129.713 66.7667 128.656 66.3584L127.215 70.0896ZM128.565 70.9542C128.896 71.2847 129.139 71.6664 129.301 72.1197L133.066 70.7683C132.706 69.7656 132.146 68.878 131.394 68.1258L128.565 70.9542ZM129.323 72.1783C129.506 72.6417 129.604 73.1473 129.604 73.712H133.604C133.604 72.6713 133.421 71.665 133.044 70.7097L129.323 72.1783ZM129.604 73.712C129.604 74.0604 129.559 74.2498 129.53 74.3305C129.507 74.3955 129.51 74.3499 129.584 74.2895L132.111 77.3905C133.289 76.4302 133.604 74.9877 133.604 73.712H129.604ZM129.556 74.3132C129.578 74.2946 129.547 74.3315 129.393 74.3736C129.236 74.417 128.983 74.456 128.608 74.456V78.456C129.827 78.456 131.134 78.2175 132.14 77.3668L129.556 74.3132ZM128.608 74.456H122.196V78.456H128.608V74.456ZM120.261 76.9627C120.565 78.1251 121.182 79.1382 122.147 79.8854L124.596 76.7226C124.404 76.5738 124.237 76.3549 124.13 75.9493L120.261 76.9627ZM122.204 79.928C123.268 80.6926 124.578 80.948 125.892 80.948V76.948C125.04 76.948 124.67 76.7741 124.539 76.68L122.204 79.928ZM125.08 69.052C123.972 69.052 122.876 69.3501 121.973 70.1086L124.546 73.1714C124.576 73.1459 124.694 73.052 125.08 73.052V69.052ZM121.979 70.1036C121.164 70.7831 120.654 71.687 120.363 72.6661L124.197 73.8059C124.316 73.4037 124.459 73.2436 124.54 73.1764L121.979 70.1036ZM122.28 75.236H127.628V71.236H122.28V75.236ZM129.622 73.09C129.538 71.9443 129.107 70.7494 128.012 69.9609L125.675 73.2071C125.652 73.1902 125.629 73.1687 125.609 73.1454C125.6 73.1344 125.594 73.1248 125.589 73.1176C125.585 73.1103 125.583 73.1063 125.583 73.1065C125.584 73.1087 125.619 73.1847 125.633 73.382L129.622 73.09ZM128.054 69.9917C127.171 69.3206 126.132 69.052 125.08 69.052V73.052C125.446 73.052 125.583 73.1381 125.633 73.1763L128.054 69.9917ZM139.606 78.92L139.44 76.9269L139.433 76.9275L139.425 76.9282L139.606 78.92ZM140.194 78.78L139.451 76.923L139.416 76.9371L139.382 76.9524L140.194 78.78ZM140.642 78.472L142.161 79.7736L142.203 79.7241L142.242 79.672L140.642 78.472ZM140.278 77.1L139.347 78.8698L140.278 77.1ZM138.962 76.596L138.35 78.5001L138.381 78.5101L138.413 78.519L138.962 76.596ZM137.226 76.092L136.646 78.006L136.68 78.0163L136.714 78.0254L137.226 76.092ZM135.518 75.336L134.437 77.0184L134.458 77.0322L134.48 77.0456L135.518 75.336ZM134.202 74.048L132.529 75.1441L132.538 75.1576L132.547 75.171L134.202 74.048ZM134.118 70.016L132.393 69.0046L132.387 69.0141L132.382 69.0237L134.118 70.016ZM137.17 67.972L137.604 69.9244L137.624 69.92L137.643 69.9153L137.17 67.972ZM140.922 67.832L140.666 69.8156L140.701 69.82L140.736 69.8233L140.922 67.832ZM142.574 68.224L141.82 70.0762L141.86 70.0927L141.902 70.1075L142.574 68.224ZM143.862 69.036L142.41 70.4115L142.447 70.4507L142.487 70.4879L143.862 69.036ZM143.918 71.416L145.072 73.0499V73.0499L143.918 71.416ZM142.098 71.64L141.466 73.5374L141.488 73.5447L141.51 73.5516L142.098 71.64ZM141.314 71.416L140.682 73.3134L140.755 73.3377L140.829 73.3563L141.314 71.416ZM138.038 71.276L138.884 73.0884L138.932 73.0658L138.979 73.0407L138.038 71.276ZM138.15 72.62L139.006 70.8125V70.8125L138.15 72.62ZM139.466 73.124L138.854 75.0281L138.885 75.0381L138.917 75.047L139.466 73.124ZM141.174 73.656L140.542 75.5534L140.576 75.5647L140.61 75.5747L141.174 73.656ZM142.91 74.44L141.829 76.1224L141.85 76.1362L141.872 76.1496L142.91 74.44ZM144.226 75.672L145.862 74.521V74.521L144.226 75.672ZM144.31 79.76L146.087 80.6773L146.093 80.6659L146.099 80.6544L144.31 79.76ZM143.078 81.188L144.241 82.8155L143.078 81.188ZM141.23 82L140.769 80.0538L140.745 80.0595L140.721 80.0659L141.23 82ZM136.974 82.112L137.294 80.1378L136.974 82.112ZM135.07 81.58L134.247 83.4027L134.272 83.4139L134.297 83.4244L135.07 81.58ZM133.614 80.6L132.166 81.9793L132.183 81.997L132.2 82.0142L133.614 80.6ZM133.53 78.108L132.315 76.5193V76.5193L133.53 78.108ZM135.462 77.94L134.661 79.7723L134.71 79.7938L134.76 79.8127L135.462 77.94ZM136.442 78.36L135.586 80.1675L135.626 80.1863L135.666 80.2033L136.442 78.36ZM137.59 78.78L136.984 80.6859L137.034 80.7019L137.085 80.7152L137.59 78.78ZM138.962 80.948C139.242 80.948 139.517 80.9364 139.787 80.9118L139.425 76.9282C139.285 76.941 139.131 76.948 138.962 76.948V80.948ZM139.772 80.9131C140.171 80.8798 140.594 80.7909 141.006 80.6076L139.382 76.9524C139.458 76.9184 139.489 76.9228 139.44 76.9269L139.772 80.9131ZM140.937 80.637C141.373 80.4626 141.806 80.1874 142.161 79.7736L139.124 77.1704C139.254 77.0179 139.389 76.948 139.451 76.923L140.937 80.637ZM142.242 79.672C142.663 79.1115 142.81 78.4797 142.81 77.912H138.81C138.81 77.7923 138.846 77.5339 139.042 77.272L142.242 79.672ZM142.81 77.912C142.81 77.3842 142.673 76.8391 142.35 76.3469C142.036 75.8676 141.617 75.5443 141.21 75.3302L139.347 78.8698C139.294 78.8424 139.141 78.7477 139.004 78.5391C138.859 78.3176 138.81 78.0851 138.81 77.912H142.81ZM141.21 75.3302C140.699 75.0614 140.123 74.8477 139.512 74.673L138.413 78.519C138.846 78.643 139.148 78.7653 139.347 78.8698L141.21 75.3302ZM139.574 74.6919C139.013 74.5115 138.4 74.3338 137.738 74.1586L136.714 78.0254C137.322 78.1862 137.866 78.3445 138.35 78.5001L139.574 74.6919ZM137.806 74.178C137.342 74.0374 136.928 73.8522 136.556 73.6264L134.48 77.0456C135.154 77.4545 135.878 77.7733 136.646 78.006L137.806 74.178ZM136.6 73.6536C136.308 73.466 136.063 73.2282 135.857 72.925L132.547 75.171C133.051 75.9131 133.683 76.534 134.437 77.0184L136.6 73.6536ZM135.875 72.9519C135.797 72.8332 135.67 72.5426 135.67 71.92H131.67C131.67 73.052 131.898 74.1801 132.529 75.1441L135.875 72.9519ZM135.67 71.92C135.67 71.4386 135.766 71.1642 135.855 71.0083L132.382 69.0237C131.873 69.9131 131.67 70.9081 131.67 71.92H135.67ZM135.844 71.0274C136.004 70.7544 136.204 70.5467 136.46 70.3824L134.297 67.0176C133.507 67.5253 132.867 68.1949 132.393 69.0046L135.844 71.0274ZM136.46 70.3824C136.764 70.1868 137.137 70.0281 137.604 69.9244L136.736 66.0196C135.859 66.2146 135.038 66.5412 134.297 67.0176L136.46 70.3824ZM137.643 69.9153C138.175 69.7859 138.726 69.72 139.298 69.72V65.72C138.415 65.72 137.547 65.8221 136.697 66.0287L137.643 69.9153ZM139.298 69.72C139.705 69.72 140.16 69.7502 140.666 69.8156L141.178 65.8484C140.527 65.7645 139.9 65.72 139.298 65.72V69.72ZM140.736 69.8233C141.158 69.8628 141.515 69.9519 141.82 70.0762L143.329 66.3718C142.626 66.0854 141.882 65.9132 141.109 65.8407L140.736 69.8233ZM141.902 70.1075C142.169 70.2029 142.318 70.3144 142.41 70.4115L145.314 67.6605C144.734 67.0483 144.025 66.6184 143.247 66.3405L141.902 70.1075ZM142.487 70.4879C142.477 70.4791 142.462 70.463 142.446 70.4395C142.43 70.4158 142.417 70.3906 142.407 70.3666C142.386 70.3159 142.394 70.3015 142.394 70.352H146.394C146.394 69.3271 146.036 68.3407 145.238 67.5841L142.487 70.4879ZM142.394 70.352C142.394 70.3812 142.389 70.3005 142.45 70.1653C142.517 70.0149 142.63 69.8772 142.765 69.7821L145.072 73.0499C146.053 72.3573 146.394 71.3053 146.394 70.352H142.394ZM142.765 69.7821C142.773 69.7765 142.783 69.7703 142.795 69.7645C142.807 69.7588 142.817 69.7548 142.825 69.7523C142.843 69.7471 142.838 69.752 142.798 69.752V73.752C143.595 73.752 144.381 73.5371 145.072 73.0499L142.765 69.7821ZM142.798 69.752C142.798 69.752 142.763 69.7522 142.686 69.7284L141.51 73.5516C141.918 73.6772 142.35 73.752 142.798 73.752V69.752ZM142.731 69.7426C142.446 69.6478 142.134 69.5593 141.799 69.4757L140.829 73.3563C141.092 73.422 141.302 73.4829 141.466 73.5374L142.731 69.7426ZM141.947 69.5186C141.58 69.3965 141.187 69.2939 140.774 69.2069L139.95 73.1211C140.246 73.1835 140.488 73.2488 140.682 73.3134L141.947 69.5186ZM140.774 69.2069C140.257 69.098 139.714 69.052 139.158 69.052V73.052C139.499 73.052 139.758 73.0807 139.95 73.1211L140.774 69.2069ZM139.158 69.052C138.506 69.052 137.771 69.1518 137.097 69.5113L138.979 73.0407C138.917 73.0742 138.888 73.0756 138.92 73.0692C138.953 73.0627 139.028 73.052 139.158 73.052V69.052ZM137.192 69.4636C136.784 69.6541 136.36 69.9636 136.048 70.4425C135.733 70.9256 135.618 71.4482 135.618 71.92H139.618C139.618 72.0931 139.574 72.359 139.398 72.6275C139.226 72.8918 139.012 73.0285 138.884 73.0884L137.192 69.4636ZM135.618 71.92C135.618 73.2433 136.501 74.052 137.294 74.4275L139.006 70.8125C139.025 70.8212 139.184 70.8986 139.344 71.1088C139.525 71.3473 139.618 71.6412 139.618 71.92H135.618ZM137.294 74.4275C137.752 74.6445 138.278 74.8429 138.854 75.0281L140.078 71.2199C139.609 71.0691 139.258 70.9315 139.006 70.8125L137.294 74.4275ZM138.917 75.047C139.407 75.1871 139.948 75.3555 140.542 75.5534L141.807 71.7586C141.168 71.5458 140.571 71.3596 140.016 71.201L138.917 75.047ZM140.61 75.5747C141.074 75.7111 141.476 75.8958 141.829 76.1224L143.992 72.7576C143.299 72.3122 142.544 71.9742 141.739 71.7373L140.61 75.5747ZM141.872 76.1496C142.157 76.3227 142.393 76.5425 142.591 76.823L145.862 74.521C145.35 73.7935 144.708 73.1919 143.948 72.7304L141.872 76.1496ZM142.591 76.823C142.646 76.9012 142.758 77.1175 142.758 77.632H146.758C146.758 76.5411 146.516 75.4508 145.862 74.521L142.591 76.823ZM142.758 77.632C142.758 78.2129 142.653 78.6025 142.521 78.8656L146.099 80.6544C146.565 79.7228 146.758 78.6937 146.758 77.632H142.758ZM142.533 78.8427C142.378 79.1433 142.176 79.3744 141.916 79.5605L144.241 82.8155C145.025 82.2549 145.645 81.5341 146.087 80.6773L142.533 78.8427ZM141.916 79.5605C141.631 79.7642 141.26 79.9376 140.769 80.0538L141.691 83.9462C142.619 83.7264 143.48 83.3585 144.241 82.8155L141.916 79.5605ZM140.721 80.0659C140.196 80.2039 139.604 80.28 138.934 80.28V84.28C139.907 84.28 140.845 84.1694 141.739 83.9341L140.721 80.0659ZM138.934 80.28C138.439 80.28 137.893 80.2349 137.294 80.1378L136.654 84.0862C137.437 84.2131 138.198 84.28 138.934 84.28V80.28ZM137.294 80.1378C136.742 80.0482 136.261 79.9108 135.844 79.7356L134.297 83.4244C135.036 83.7346 135.825 83.9518 136.654 84.0862L137.294 80.1378ZM135.893 79.7573C135.503 79.581 135.227 79.3841 135.028 79.1858L132.2 82.0142C132.786 82.5999 133.48 83.0563 134.247 83.4027L135.893 79.7573ZM135.062 79.2207C135.049 79.2062 135.044 79.1989 135.044 79.1995C135.044 79.1996 135.045 79.201 135.047 79.2036C135.048 79.2063 135.05 79.2095 135.051 79.2132C135.053 79.2169 135.054 79.2203 135.055 79.2232C135.055 79.226 135.056 79.2277 135.056 79.2278C135.056 79.2284 135.054 79.22 135.054 79.2H131.054C131.054 80.2549 131.438 81.2154 132.166 81.9793L135.062 79.2207ZM135.054 79.2C135.054 79.1727 135.059 79.2426 135.007 79.3622C134.949 79.4936 134.855 79.613 134.745 79.6967L132.315 76.5193C131.395 77.2227 131.054 78.2411 131.054 79.2H135.054ZM134.745 79.6967C134.738 79.7025 134.726 79.7102 134.711 79.7181C134.696 79.726 134.681 79.7324 134.666 79.7371C134.636 79.7471 134.626 79.744 134.65 79.744V75.744C133.817 75.744 133.008 75.9894 132.315 76.5193L134.745 79.6967ZM134.65 79.744C134.592 79.744 134.562 79.7363 134.566 79.7372C134.567 79.7375 134.576 79.7397 134.592 79.7453C134.609 79.7509 134.631 79.7595 134.661 79.7723L136.264 76.1077C135.794 75.9023 135.246 75.744 134.65 75.744V79.744ZM134.76 79.8127C134.996 79.9012 135.271 80.0181 135.586 80.1675L137.298 76.5525C136.904 76.3659 136.526 76.2028 136.164 76.0673L134.76 79.8127ZM135.666 80.2033C136.082 80.3786 136.522 80.539 136.984 80.6859L138.197 76.8741C137.837 76.7596 137.511 76.6401 137.218 76.5167L135.666 80.2033ZM137.085 80.7152C137.694 80.874 138.322 80.948 138.962 80.948V76.948C138.631 76.948 138.345 76.91 138.095 76.8448L137.085 80.7152Z" fill="#DD579B" mask="url(#path-6-outside-1_432_1776)"/>
<defs>
<filter id="filter0_d_432_1776" x="0" y="0" width="175" height="145" filterUnits="userSpaceOnUse" color-interpolation-filters="sRGB">
<feFlood flood-opacity="0" result="BackgroundImageFix"/>
<feColorMatrix in="SourceAlpha" type="matrix" values="0 0 0 0 0 0 0 0 0 0 0 0 0 0 0 0 0 0 127 0" result="hardAlpha"/>
<feOffset dy="4"/>
<feGaussianBlur stdDeviation="2"/>
<feComposite in2="hardAlpha" operator="out"/>
<feColorMatrix type="matrix" values="0 0 0 0 0 0 0 0 0 0 0 0 0 0 0 0 0 0 0.25 0"/>
<feBlend mode="normal" in2="BackgroundImageFix" result="effect1_dropShadow_432_1776"/>
<feBlend mode="normal" in="SourceGraphic" in2="effect1_dropShadow_432_1776" result="shape"/>
</filter>
<filter id="filter1_d_432_1776" x="103" y="26" width="63.8433" height="61.2543" filterUnits="userSpaceOnUse" color-interpolation-filters="sRGB">
<feFlood flood-opacity="0" result="BackgroundImageFix"/>
<feColorMatrix in="SourceAlpha" type="matrix" values="0 0 0 0 0 0 0 0 0 0 0 0 0 0 0 0 0 0 127 0" result="hardAlpha"/>
<feOffset/>
<feGaussianBlur stdDeviation="2"/>
<feComposite in2="hardAlpha" operator="out"/>
<feColorMatrix type="matrix" values="0 0 0 0 1 0 0 0 0 1 0 0 0 0 1 0 0 0 1 0"/>
<feBlend mode="normal" in2="BackgroundImageFix" result="effect1_dropShadow_432_1776"/>
<feBlend mode="normal" in="SourceGraphic" in2="effect1_dropShadow_432_1776" result="shape"/>
</filter>
<filter id="filter2_d_432_1776" x="103" y="34" width="37.2192" height="37.2191" filterUnits="userSpaceOnUse" color-interpolation-filters="sRGB">
<feFlood flood-opacity="0" result="BackgroundImageFix"/>
<feColorMatrix in="SourceAlpha" type="matrix" values="0 0 0 0 0 0 0 0 0 0 0 0 0 0 0 0 0 0 127 0" result="hardAlpha"/>
<feOffset dy="4"/>
<feGaussianBlur stdDeviation="2"/>
<feComposite in2="hardAlpha" operator="out"/>
<feColorMatrix type="matrix" values="0 0 0 0 0 0 0 0 0 0 0 0 0 0 0 0 0 0 0.25 0"/>
<feBlend mode="normal" in2="BackgroundImageFix" result="effect1_dropShadow_432_1776"/>
<feBlend mode="normal" in="SourceGraphic" in2="effect1_dropShadow_432_1776" result="shape"/>
</filter>
<filter id="filter3_d_432_1776" x="4" y="63.0001" width="52.3433" height="52.3431" filterUnits="userSpaceOnUse" color-interpolation-filters="sRGB">
<feFlood flood-opacity="0" result="BackgroundImageFix"/>
<feColorMatrix in="SourceAlpha" type="matrix" values="0 0 0 0 0 0 0 0 0 0 0 0 0 0 0 0 0 0 127 0" result="hardAlpha"/>
<feOffset/>
<feGaussianBlur stdDeviation="2"/>
<feComposite in2="hardAlpha" operator="out"/>
<feColorMatrix type="matrix" values="0 0 0 0 1 0 0 0 0 1 0 0 0 0 1 0 0 0 1 0"/>
<feBlend mode="normal" in2="BackgroundImageFix" result="effect1_dropShadow_432_1776"/>
<feBlend mode="normal" in="SourceGraphic" in2="effect1_dropShadow_432_1776" result="shape"/>
</filter>
<radialGradient id="paint0_radial_432_1776" cx="0" cy="0" r="1" gradientUnits="userSpaceOnUse" gradientTransform="translate(86.9939 69) rotate(-11.0375) scale(120.134 143.082)">
<stop stop-color="#E7E7E7"/>
<stop offset="0.34" stop-color="#F3C8DB"/>
<stop offset="0.735" stop-color="#FF6CBB"/>
</radialGradient>
<linearGradient id="paint1_linear_432_1776" x1="4" y1="7.5" x2="158.766" y2="142.344" gradientUnits="userSpaceOnUse">
<stop stop-color="#DEF744" stop-opacity="0"/>
<stop offset="1" stop-color="#DEF744"/>
</linearGradient>
</defs>
</svg>
