<svg width="81" height="46" viewBox="0 0 81 46" fill="none" xmlns="http://www.w3.org/2000/svg">
<mask id="path-1-outside-1_561_1767" maskUnits="userSpaceOnUse" x="0" y="9.40503" width="59" height="25" fill="black">
<rect fill="white" y="9.40503" width="59" height="25"/>
<path d="M10.96 12.605C11.552 12.605 11.976 12.741 12.232 13.013C12.488 13.285 12.616 13.629 12.616 14.045C12.616 14.461 12.488 14.805 12.232 15.077C11.976 15.333 11.552 15.461 10.96 15.461H5.8V19.805H10.6C11.192 19.805 11.616 19.941 11.872 20.213C12.128 20.485 12.256 20.829 12.256 21.245C12.256 21.661 12.128 22.005 11.872 22.277C11.616 22.533 11.192 22.661 10.6 22.661H5.8V27.845C5.8 28.181 5.752 28.469 5.656 28.709C5.56 28.933 5.432 29.117 5.272 29.261C5.112 29.389 4.928 29.485 4.72 29.549C4.512 29.613 4.304 29.645 4.096 29.645C3.68 29.645 3.296 29.517 2.944 29.261C2.592 28.989 2.416 28.517 2.416 27.845V15.053C2.416 14.141 2.592 13.509 2.944 13.157C3.296 12.789 3.928 12.605 4.84 12.605H10.96ZM27.9728 27.437C28.0688 27.709 28.1168 27.957 28.1168 28.181C28.1168 28.613 27.9808 28.965 27.7088 29.237C27.4368 29.509 27.0528 29.645 26.5568 29.645C26.0608 29.645 25.6528 29.509 25.3328 29.237C25.0128 28.965 24.7248 28.485 24.4688 27.797L23.7248 25.781H17.2208L16.5008 27.797C16.2448 28.485 15.9568 28.965 15.6368 29.237C15.3168 29.509 14.9088 29.645 14.4128 29.645C13.9168 29.645 13.5328 29.509 13.2608 29.237C12.9888 28.965 12.8528 28.613 12.8528 28.181C12.8528 27.957 12.9008 27.709 12.9968 27.437L17.4368 15.317C17.6448 14.725 17.8528 14.237 18.0608 13.853C18.2848 13.469 18.5168 13.173 18.7568 12.965C18.9968 12.741 19.2528 12.589 19.5248 12.509C19.7968 12.413 20.1088 12.365 20.4608 12.365C20.8128 12.365 21.1248 12.413 21.3968 12.509C21.6848 12.589 21.9488 12.741 22.1888 12.965C22.4288 13.173 22.6528 13.469 22.8608 13.853C23.0848 14.237 23.3088 14.725 23.5328 15.317L27.9728 27.437ZM18.2528 22.925H22.6928L20.4608 16.781L18.2528 22.925ZM41.863 32.285C40.807 32.285 39.775 32.093 38.767 31.709C37.775 31.341 36.807 30.637 35.863 29.597C34.887 29.501 33.999 29.253 33.199 28.853C32.415 28.453 31.743 27.901 31.183 27.197C30.623 26.477 30.191 25.605 29.887 24.581C29.583 23.557 29.431 22.365 29.431 21.005C29.431 19.549 29.607 18.277 29.959 17.189C30.327 16.101 30.831 15.205 31.471 14.501C32.127 13.781 32.911 13.245 33.823 12.893C34.735 12.541 35.751 12.365 36.871 12.365C37.991 12.365 39.007 12.541 39.919 12.893C40.847 13.245 41.631 13.781 42.271 14.501C42.927 15.205 43.431 16.101 43.783 17.189C44.151 18.277 44.335 19.549 44.335 21.005C44.335 23.101 43.983 24.805 43.279 26.117C42.575 27.413 41.599 28.357 40.351 28.949C40.799 29.157 41.239 29.293 41.671 29.357C42.119 29.405 42.575 29.429 43.039 29.429C43.471 29.429 43.775 29.525 43.951 29.717C44.143 29.925 44.239 30.189 44.239 30.509C44.239 31.005 44.039 31.421 43.639 31.757C43.239 32.109 42.647 32.285 41.863 32.285ZM36.871 26.789C38.103 26.789 39.087 26.309 39.823 25.349C40.575 24.389 40.951 22.941 40.951 21.005C40.951 19.069 40.575 17.621 39.823 16.661C39.087 15.701 38.103 15.221 36.871 15.221C35.655 15.221 34.671 15.701 33.919 16.661C33.183 17.621 32.815 19.069 32.815 21.005C32.815 22.941 33.183 24.389 33.919 25.349C34.671 26.309 35.655 26.789 36.871 26.789ZM51.1506 26.789C51.3426 26.789 51.5266 26.781 51.7026 26.765C51.8946 26.749 52.0626 26.709 52.2066 26.645C52.3666 26.581 52.4946 26.493 52.5906 26.381C52.6866 26.253 52.7346 26.093 52.7346 25.901C52.7346 25.597 52.5826 25.365 52.2786 25.205C51.9746 25.045 51.5986 24.901 51.1506 24.773C50.7026 24.629 50.2066 24.485 49.6626 24.341C49.1346 24.181 48.6466 23.965 48.1986 23.693C47.7506 23.405 47.3746 23.037 47.0706 22.589C46.7666 22.125 46.6146 21.517 46.6146 20.765C46.6146 20.125 46.7426 19.581 46.9986 19.133C47.2706 18.669 47.6306 18.293 48.0786 18.005C48.5266 17.717 49.0386 17.509 49.6146 17.381C50.2066 17.237 50.8146 17.165 51.4386 17.165C51.8706 17.165 52.3346 17.197 52.8306 17.261C53.3426 17.309 53.8146 17.421 54.2466 17.597C54.6946 17.757 55.0626 17.989 55.3506 18.293C55.6546 18.581 55.8066 18.957 55.8066 19.421C55.8066 19.837 55.6706 20.141 55.3986 20.333C55.1266 20.525 54.8066 20.621 54.4386 20.621C54.2466 20.621 54.0466 20.589 53.8386 20.525C53.6466 20.461 53.4226 20.397 53.1666 20.333C52.9266 20.253 52.6546 20.181 52.3506 20.117C52.0466 20.053 51.7026 20.021 51.3186 20.021C50.9186 20.021 50.5986 20.085 50.3586 20.213C50.1186 20.325 49.9986 20.509 49.9986 20.765C49.9986 21.021 50.1506 21.221 50.4546 21.365C50.7586 21.509 51.1346 21.653 51.5826 21.797C52.0306 21.925 52.5186 22.077 53.0466 22.253C53.5906 22.413 54.0866 22.637 54.5346 22.925C54.9826 23.197 55.3586 23.549 55.6626 23.981C55.9666 24.413 56.1186 24.973 56.1186 25.661C56.1186 26.365 55.9906 26.973 55.7346 27.485C55.4786 27.981 55.1266 28.389 54.6786 28.709C54.2306 29.029 53.7026 29.261 53.0946 29.405C52.4866 29.565 51.8306 29.645 51.1266 29.645C50.5986 29.645 50.0386 29.597 49.4466 29.501C48.8546 29.405 48.3106 29.253 47.8146 29.045C47.3186 28.821 46.9026 28.541 46.5666 28.205C46.2466 27.869 46.0866 27.469 46.0866 27.005C46.0866 26.589 46.2226 26.277 46.4946 26.069C46.7666 25.861 47.0866 25.757 47.4546 25.757C47.6626 25.757 47.8946 25.813 48.1506 25.925C48.4066 26.021 48.6866 26.141 48.9906 26.285C49.2946 26.413 49.6226 26.533 49.9746 26.645C50.3426 26.741 50.7346 26.789 51.1506 26.789Z"/>
</mask>
<path d="M10.96 12.605C11.552 12.605 11.976 12.741 12.232 13.013C12.488 13.285 12.616 13.629 12.616 14.045C12.616 14.461 12.488 14.805 12.232 15.077C11.976 15.333 11.552 15.461 10.96 15.461H5.8V19.805H10.6C11.192 19.805 11.616 19.941 11.872 20.213C12.128 20.485 12.256 20.829 12.256 21.245C12.256 21.661 12.128 22.005 11.872 22.277C11.616 22.533 11.192 22.661 10.6 22.661H5.8V27.845C5.8 28.181 5.752 28.469 5.656 28.709C5.56 28.933 5.432 29.117 5.272 29.261C5.112 29.389 4.928 29.485 4.72 29.549C4.512 29.613 4.304 29.645 4.096 29.645C3.68 29.645 3.296 29.517 2.944 29.261C2.592 28.989 2.416 28.517 2.416 27.845V15.053C2.416 14.141 2.592 13.509 2.944 13.157C3.296 12.789 3.928 12.605 4.84 12.605H10.96ZM27.9728 27.437C28.0688 27.709 28.1168 27.957 28.1168 28.181C28.1168 28.613 27.9808 28.965 27.7088 29.237C27.4368 29.509 27.0528 29.645 26.5568 29.645C26.0608 29.645 25.6528 29.509 25.3328 29.237C25.0128 28.965 24.7248 28.485 24.4688 27.797L23.7248 25.781H17.2208L16.5008 27.797C16.2448 28.485 15.9568 28.965 15.6368 29.237C15.3168 29.509 14.9088 29.645 14.4128 29.645C13.9168 29.645 13.5328 29.509 13.2608 29.237C12.9888 28.965 12.8528 28.613 12.8528 28.181C12.8528 27.957 12.9008 27.709 12.9968 27.437L17.4368 15.317C17.6448 14.725 17.8528 14.237 18.0608 13.853C18.2848 13.469 18.5168 13.173 18.7568 12.965C18.9968 12.741 19.2528 12.589 19.5248 12.509C19.7968 12.413 20.1088 12.365 20.4608 12.365C20.8128 12.365 21.1248 12.413 21.3968 12.509C21.6848 12.589 21.9488 12.741 22.1888 12.965C22.4288 13.173 22.6528 13.469 22.8608 13.853C23.0848 14.237 23.3088 14.725 23.5328 15.317L27.9728 27.437ZM18.2528 22.925H22.6928L20.4608 16.781L18.2528 22.925ZM41.863 32.285C40.807 32.285 39.775 32.093 38.767 31.709C37.775 31.341 36.807 30.637 35.863 29.597C34.887 29.501 33.999 29.253 33.199 28.853C32.415 28.453 31.743 27.901 31.183 27.197C30.623 26.477 30.191 25.605 29.887 24.581C29.583 23.557 29.431 22.365 29.431 21.005C29.431 19.549 29.607 18.277 29.959 17.189C30.327 16.101 30.831 15.205 31.471 14.501C32.127 13.781 32.911 13.245 33.823 12.893C34.735 12.541 35.751 12.365 36.871 12.365C37.991 12.365 39.007 12.541 39.919 12.893C40.847 13.245 41.631 13.781 42.271 14.501C42.927 15.205 43.431 16.101 43.783 17.189C44.151 18.277 44.335 19.549 44.335 21.005C44.335 23.101 43.983 24.805 43.279 26.117C42.575 27.413 41.599 28.357 40.351 28.949C40.799 29.157 41.239 29.293 41.671 29.357C42.119 29.405 42.575 29.429 43.039 29.429C43.471 29.429 43.775 29.525 43.951 29.717C44.143 29.925 44.239 30.189 44.239 30.509C44.239 31.005 44.039 31.421 43.639 31.757C43.239 32.109 42.647 32.285 41.863 32.285ZM36.871 26.789C38.103 26.789 39.087 26.309 39.823 25.349C40.575 24.389 40.951 22.941 40.951 21.005C40.951 19.069 40.575 17.621 39.823 16.661C39.087 15.701 38.103 15.221 36.871 15.221C35.655 15.221 34.671 15.701 33.919 16.661C33.183 17.621 32.815 19.069 32.815 21.005C32.815 22.941 33.183 24.389 33.919 25.349C34.671 26.309 35.655 26.789 36.871 26.789ZM51.1506 26.789C51.3426 26.789 51.5266 26.781 51.7026 26.765C51.8946 26.749 52.0626 26.709 52.2066 26.645C52.3666 26.581 52.4946 26.493 52.5906 26.381C52.6866 26.253 52.7346 26.093 52.7346 25.901C52.7346 25.597 52.5826 25.365 52.2786 25.205C51.9746 25.045 51.5986 24.901 51.1506 24.773C50.7026 24.629 50.2066 24.485 49.6626 24.341C49.1346 24.181 48.6466 23.965 48.1986 23.693C47.7506 23.405 47.3746 23.037 47.0706 22.589C46.7666 22.125 46.6146 21.517 46.6146 20.765C46.6146 20.125 46.7426 19.581 46.9986 19.133C47.2706 18.669 47.6306 18.293 48.0786 18.005C48.5266 17.717 49.0386 17.509 49.6146 17.381C50.2066 17.237 50.8146 17.165 51.4386 17.165C51.8706 17.165 52.3346 17.197 52.8306 17.261C53.3426 17.309 53.8146 17.421 54.2466 17.597C54.6946 17.757 55.0626 17.989 55.3506 18.293C55.6546 18.581 55.8066 18.957 55.8066 19.421C55.8066 19.837 55.6706 20.141 55.3986 20.333C55.1266 20.525 54.8066 20.621 54.4386 20.621C54.2466 20.621 54.0466 20.589 53.8386 20.525C53.6466 20.461 53.4226 20.397 53.1666 20.333C52.9266 20.253 52.6546 20.181 52.3506 20.117C52.0466 20.053 51.7026 20.021 51.3186 20.021C50.9186 20.021 50.5986 20.085 50.3586 20.213C50.1186 20.325 49.9986 20.509 49.9986 20.765C49.9986 21.021 50.1506 21.221 50.4546 21.365C50.7586 21.509 51.1346 21.653 51.5826 21.797C52.0306 21.925 52.5186 22.077 53.0466 22.253C53.5906 22.413 54.0866 22.637 54.5346 22.925C54.9826 23.197 55.3586 23.549 55.6626 23.981C55.9666 24.413 56.1186 24.973 56.1186 25.661C56.1186 26.365 55.9906 26.973 55.7346 27.485C55.4786 27.981 55.1266 28.389 54.6786 28.709C54.2306 29.029 53.7026 29.261 53.0946 29.405C52.4866 29.565 51.8306 29.645 51.1266 29.645C50.5986 29.645 50.0386 29.597 49.4466 29.501C48.8546 29.405 48.3106 29.253 47.8146 29.045C47.3186 28.821 46.9026 28.541 46.5666 28.205C46.2466 27.869 46.0866 27.469 46.0866 27.005C46.0866 26.589 46.2226 26.277 46.4946 26.069C46.7666 25.861 47.0866 25.757 47.4546 25.757C47.6626 25.757 47.8946 25.813 48.1506 25.925C48.4066 26.021 48.6866 26.141 48.9906 26.285C49.2946 26.413 49.6226 26.533 49.9746 26.645C50.3426 26.741 50.7346 26.789 51.1506 26.789Z" fill="white"/>
<path d="M12.232 15.077L13.6462 16.4912L13.6676 16.4698L13.6884 16.4478L12.232 15.077ZM5.8 15.461V13.461H3.8V15.461H5.8ZM5.8 19.805H3.8V21.805H5.8V19.805ZM11.872 22.277L13.2862 23.6912L13.3076 23.6698L13.3284 23.6478L11.872 22.277ZM5.8 22.661V20.661H3.8V22.661H5.8ZM5.656 28.709L7.49429 29.4969L7.5039 29.4745L7.51295 29.4518L5.656 28.709ZM5.272 29.261L6.52139 30.8228L6.56675 30.7865L6.60993 30.7476L5.272 29.261ZM4.72 29.549L4.13183 27.6375L4.13183 27.6375L4.72 29.549ZM2.944 29.261L1.7211 30.8436L1.74413 30.8614L1.76766 30.8785L2.944 29.261ZM2.944 13.157L4.35821 14.5712L4.37393 14.5555L4.38928 14.5395L2.944 13.157ZM10.96 14.605C11.1126 14.605 11.1494 14.6237 11.1111 14.6115C11.0626 14.5959 10.9205 14.5378 10.7756 14.3838L13.6884 11.6423C12.8826 10.7861 11.7889 10.605 10.96 10.605V14.605ZM10.7756 14.3838C10.7241 14.329 10.6763 14.255 10.6456 14.1725C10.6162 14.0936 10.616 14.0437 10.616 14.045H14.616C14.616 13.1824 14.3344 12.3287 13.6884 11.6423L10.7756 14.3838ZM10.616 14.045C10.616 14.0464 10.6162 13.9964 10.6456 13.9176C10.6763 13.835 10.7241 13.7611 10.7756 13.7063L13.6884 16.4478C14.3344 15.7614 14.616 14.9077 14.616 14.045H10.616ZM10.8178 13.6628C10.9696 13.511 11.11 13.4606 11.144 13.4504C11.1704 13.4424 11.1217 13.461 10.96 13.461V17.461C11.7612 17.461 12.8368 17.3007 13.6462 16.4912L10.8178 13.6628ZM10.96 13.461H5.8V17.461H10.96V13.461ZM3.8 15.461V19.805H7.8V15.461H3.8ZM5.8 21.805H10.6V17.805H5.8V21.805ZM10.6 21.805C10.7526 21.805 10.7894 21.8237 10.7511 21.8115C10.7026 21.7959 10.5605 21.7378 10.4156 21.5838L13.3284 18.8423C12.5226 17.9861 11.4289 17.805 10.6 17.805V21.805ZM10.4156 21.5838C10.3641 21.529 10.3163 21.455 10.2856 21.3725C10.2562 21.2936 10.256 21.2437 10.256 21.245H14.256C14.256 20.3824 13.9744 19.5287 13.3284 18.8423L10.4156 21.5838ZM10.256 21.245C10.256 21.2464 10.2562 21.1964 10.2856 21.1176C10.3163 21.035 10.3641 20.9611 10.4156 20.9063L13.3284 23.6478C13.9744 22.9614 14.256 22.1077 14.256 21.245H10.256ZM10.4578 20.8628C10.6096 20.711 10.75 20.6606 10.784 20.6504C10.8104 20.6424 10.7617 20.661 10.6 20.661V24.661C11.4012 24.661 12.4768 24.5007 13.2862 23.6912L10.4578 20.8628ZM10.6 20.661H5.8V24.661H10.6V20.661ZM3.8 22.661V27.845H7.8V22.661H3.8ZM3.8 27.845C3.8 27.9189 3.79464 27.9637 3.79121 27.9842C3.78785 28.0044 3.78732 27.9956 3.79905 27.9662L7.51295 29.4518C7.72712 28.9164 7.8 28.3629 7.8 27.845H3.8ZM3.81771 27.9212C3.82077 27.914 3.85181 27.8485 3.93407 27.7744L6.60993 30.7476C7.01219 30.3856 7.29923 29.952 7.49429 29.4969L3.81771 27.9212ZM4.02261 27.6993C4.0449 27.6815 4.06768 27.6669 4.08887 27.6559C4.10983 27.6449 4.12515 27.6395 4.13183 27.6375L5.30817 31.4606C5.74152 31.3272 6.15298 31.1175 6.52139 30.8228L4.02261 27.6993ZM4.13183 27.6375C4.11765 27.6418 4.10853 27.6436 4.10389 27.6443C4.09933 27.645 4.09699 27.645 4.096 27.645V31.645C4.51243 31.645 4.91848 31.5805 5.30817 31.4606L4.13183 27.6375ZM4.096 27.645C4.09498 27.645 4.09871 27.645 4.10598 27.6461C4.11332 27.6473 4.12117 27.6492 4.12846 27.6517C4.13568 27.6541 4.13942 27.656 4.13913 27.6559C4.13871 27.6556 4.13241 27.6523 4.12034 27.6436L1.76766 30.8785C2.44464 31.3708 3.23693 31.645 4.096 31.645V27.645ZM4.1669 27.6785C4.23914 27.7343 4.29865 27.7981 4.34401 27.862C4.38843 27.9246 4.4115 27.9762 4.42196 28.0043C4.44 28.0526 4.416 28.0174 4.416 27.845H0.416C0.416 28.8112 0.669071 30.0307 1.7211 30.8436L4.1669 27.6785ZM4.416 27.845V15.053H0.416V27.845H4.416ZM4.416 15.053C4.416 14.7135 4.45012 14.5198 4.47469 14.4316C4.49874 14.3452 4.49115 14.4383 4.35821 14.5712L1.52979 11.7428C0.592242 12.6804 0.416 14.0103 0.416 15.053H4.416ZM4.38928 14.5395C4.26113 14.6735 4.16609 14.6851 4.24107 14.6633C4.32065 14.6401 4.50611 14.605 4.84 14.605V10.605C3.77996 10.605 2.43496 10.7958 1.49872 11.7746L4.38928 14.5395ZM4.84 14.605H10.96V10.605H4.84V14.605ZM27.9728 27.437L29.8588 26.7714L29.8548 26.7602L29.8508 26.7491L27.9728 27.437ZM27.7088 29.237L29.123 30.6512L29.123 30.6512L27.7088 29.237ZM25.3328 29.237L24.0375 30.7609L24.0375 30.7609L25.3328 29.237ZM24.4688 27.797L22.5925 28.4895L22.5944 28.4945L24.4688 27.797ZM23.7248 25.781L25.6011 25.0886L25.1186 23.781H23.7248V25.781ZM17.2208 25.781V23.781H15.8114L15.3373 25.1084L17.2208 25.781ZM16.5008 27.797L18.3753 28.4945L18.3799 28.4821L18.3843 28.4697L16.5008 27.797ZM15.6368 29.237L16.9321 30.7609H16.9321L15.6368 29.237ZM13.2608 29.237L14.675 27.8228L13.2608 29.237ZM12.9968 27.437L11.1189 26.7491L11.1148 26.7602L11.1108 26.7714L12.9968 27.437ZM17.4368 15.317L19.3148 16.005L19.3193 15.9925L19.3237 15.98L17.4368 15.317ZM18.0608 13.853L16.3333 12.8453L16.3173 12.8726L16.3022 12.9005L18.0608 13.853ZM18.7568 12.965L20.0667 14.4764L20.0945 14.4523L20.1215 14.4271L18.7568 12.965ZM19.5248 12.509L20.0891 14.4278L20.1402 14.4127L20.1905 14.395L19.5248 12.509ZM21.3968 12.509L20.7312 14.395L20.7956 14.4178L20.8615 14.4361L21.3968 12.509ZM22.1888 12.965L20.8242 14.4271L20.8511 14.4523L20.879 14.4764L22.1888 12.965ZM22.8608 13.853L21.1022 14.8056L21.1173 14.8334L21.1333 14.8608L22.8608 13.853ZM23.5328 15.317L25.4108 14.6291L25.4071 14.6191L25.4034 14.6092L23.5328 15.317ZM18.2528 22.925L16.3707 22.2486L15.4088 24.925H18.2528V22.925ZM22.6928 22.925V24.925H25.5473L24.5726 22.2421L22.6928 22.925ZM20.4608 16.781L22.3406 16.0981L20.4506 10.8956L18.5787 16.1046L20.4608 16.781ZM26.0868 28.1027C26.1065 28.1583 26.1144 28.1925 26.1173 28.2071C26.12 28.2214 26.1168 28.2115 26.1168 28.181H30.1168C30.1168 27.6757 30.0096 27.1988 29.8588 26.7714L26.0868 28.1027ZM26.1168 28.181C26.1168 28.1858 26.1165 28.1329 26.1492 28.0482C26.1837 27.959 26.2374 27.88 26.2946 27.8228L29.123 30.6512C29.8177 29.9566 30.1168 29.0722 30.1168 28.181H26.1168ZM26.2946 27.8228C26.3816 27.7358 26.4773 27.6832 26.5491 27.6578C26.6124 27.6354 26.6252 27.645 26.5568 27.645V31.645C27.4228 31.645 28.376 31.3983 29.123 30.6512L26.2946 27.8228ZM26.5568 27.645C26.4915 27.645 26.4828 27.6362 26.5113 27.6457C26.5253 27.6503 26.5447 27.6583 26.5671 27.6708C26.5896 27.6834 26.6103 27.698 26.6281 27.7132L24.0375 30.7609C24.7824 31.394 25.6765 31.645 26.5568 31.645V27.645ZM26.6281 27.7132C26.6789 27.7563 26.6587 27.7555 26.5918 27.644C26.527 27.5361 26.4408 27.3617 26.3433 27.0996L22.5944 28.4945C22.8923 29.2953 23.3286 30.1583 24.0375 30.7609L26.6281 27.7132ZM26.3451 27.1046L25.6011 25.0886L21.8485 26.4735L22.5925 28.4895L26.3451 27.1046ZM23.7248 23.781H17.2208V27.781H23.7248V23.781ZM15.3373 25.1084L14.6173 27.1244L18.3843 28.4697L19.1043 26.4537L15.3373 25.1084ZM14.6264 27.0996C14.5288 27.3617 14.4426 27.5361 14.3778 27.644C14.3109 27.7555 14.2908 27.7563 14.3415 27.7132L16.9321 30.7609C17.6411 30.1583 18.0773 29.2953 18.3753 28.4945L14.6264 27.0996ZM14.3415 27.7132C14.3593 27.698 14.3801 27.6834 14.4025 27.6708C14.4249 27.6583 14.4444 27.6503 14.4584 27.6457C14.4868 27.6362 14.4782 27.645 14.4128 27.645V31.645C15.2932 31.645 16.1872 31.394 16.9321 30.7609L14.3415 27.7132ZM14.4128 27.645C14.3444 27.645 14.3572 27.6354 14.4205 27.6578C14.4924 27.6832 14.588 27.7358 14.675 27.8228L11.8466 30.6512C12.5937 31.3983 13.5469 31.645 14.4128 31.645V27.645ZM14.675 27.8228C14.7322 27.88 14.7859 27.959 14.8204 28.0482C14.8531 28.1329 14.8528 28.1858 14.8528 28.181H10.8528C10.8528 29.0722 11.152 29.9566 11.8466 30.6512L14.675 27.8228ZM14.8528 28.181C14.8528 28.2115 14.8496 28.2214 14.8524 28.2071C14.8552 28.1925 14.8632 28.1583 14.8828 28.1027L11.1108 26.7714C10.96 27.1988 10.8528 27.6757 10.8528 28.181H14.8528ZM14.8748 28.125L19.3148 16.005L15.5589 14.6291L11.1189 26.7491L14.8748 28.125ZM19.3237 15.98C19.5104 15.4486 19.6783 15.0661 19.8194 14.8056L16.3022 12.9005C16.0273 13.4079 15.7792 14.0014 15.5499 14.6541L19.3237 15.98ZM19.7884 14.8608C19.9425 14.5966 20.0443 14.4958 20.0667 14.4764L17.447 11.4536C16.9893 11.8503 16.6272 12.3415 16.3333 12.8453L19.7884 14.8608ZM20.1215 14.4271C20.1471 14.4032 20.1572 14.3984 20.1499 14.4027C20.1463 14.4049 20.1391 14.4089 20.1284 14.4136C20.1176 14.4183 20.1044 14.4233 20.0891 14.4278L18.9605 10.5903C18.3459 10.771 17.8238 11.1001 17.3922 11.5029L20.1215 14.4271ZM20.1905 14.395C20.2074 14.389 20.2873 14.365 20.4608 14.365V10.365C19.9303 10.365 19.3862 10.437 18.8592 10.623L20.1905 14.395ZM20.4608 14.365C20.6343 14.365 20.7142 14.389 20.7312 14.395L22.0625 10.623C21.5354 10.437 20.9913 10.365 20.4608 10.365V14.365ZM20.8615 14.4361C20.8518 14.4334 20.8423 14.43 20.8334 14.4263C20.8245 14.4226 20.8176 14.419 20.8129 14.4163C20.8029 14.4105 20.8071 14.4112 20.8242 14.4271L23.5534 11.5029C23.1019 11.0815 22.5595 10.7563 21.9321 10.582L20.8615 14.4361ZM20.879 14.4764C20.8777 14.4753 20.9004 14.4949 20.942 14.5499C20.9835 14.6048 21.0382 14.6873 21.1022 14.8056L24.6194 12.9005C24.3367 12.3786 23.9749 11.8664 23.4987 11.4537L20.879 14.4764ZM21.1333 14.8608C21.2834 15.1182 21.4625 15.4969 21.6622 16.0248L25.4034 14.6092C25.1551 13.9531 24.8862 13.3559 24.5884 12.8453L21.1333 14.8608ZM21.6549 16.005L26.0949 28.125L29.8508 26.7491L25.4108 14.6291L21.6549 16.005ZM18.2528 24.925H22.6928V20.925H18.2528V24.925ZM24.5726 22.2421L22.3406 16.0981L18.581 17.4639L20.813 23.6079L24.5726 22.2421ZM18.5787 16.1046L16.3707 22.2486L20.135 23.6014L22.343 17.4574L18.5787 16.1046ZM38.767 31.709L39.479 29.8401L39.4708 29.8369L39.4626 29.8339L38.767 31.709ZM35.863 29.597L37.3439 28.2528L36.8259 27.6821L36.0588 27.6066L35.863 29.597ZM33.199 28.853L32.2901 30.6346L32.2973 30.6382L32.3046 30.6419L33.199 28.853ZM31.183 27.197L29.6043 28.4249L29.611 28.4335L29.6178 28.4421L31.183 27.197ZM29.887 24.581L27.9697 25.1502V25.1502L29.887 24.581ZM29.959 17.189L28.0644 16.5482L28.0602 16.5608L28.0561 16.5734L29.959 17.189ZM31.471 14.501L29.9926 13.154L29.9911 13.1557L31.471 14.501ZM33.823 12.893L34.5432 14.7589L33.823 12.893ZM39.919 12.893L39.1988 14.7589L39.2097 14.763L39.919 12.893ZM42.271 14.501L40.7762 15.8298L40.7918 15.8473L40.8078 15.8645L42.271 14.501ZM43.783 17.189L41.8801 17.8047L41.8842 17.8173L41.8884 17.8298L43.783 17.189ZM43.279 26.117L45.0365 27.0717L45.0413 27.0627L43.279 26.117ZM40.351 28.949L39.4938 27.142L35.6435 28.9685L39.5088 30.763L40.351 28.949ZM41.671 29.357L41.3779 31.3354L41.4178 31.3413L41.4579 31.3456L41.671 29.357ZM43.951 29.717L42.4767 31.0685L42.4814 31.0736L43.951 29.717ZM43.639 31.757L42.3526 30.2256L42.335 30.2404L42.3177 30.2556L43.639 31.757ZM39.823 25.349L38.2485 24.1157L38.2421 24.1239L38.2358 24.1322L39.823 25.349ZM39.823 16.661L38.2358 17.8779L38.2421 17.8862L38.2485 17.8944L39.823 16.661ZM33.919 16.661L32.3445 15.4277L32.3381 15.4359L32.3318 15.4442L33.919 16.661ZM33.919 25.349L32.3318 26.5659L32.3381 26.5742L32.3445 26.5824L33.919 25.349ZM41.863 30.285C41.0556 30.285 40.2646 30.1393 39.479 29.8401L38.055 33.578C39.2854 34.0467 40.5584 34.285 41.863 34.285V30.285ZM39.4626 29.8339C38.8532 29.6078 38.1402 29.1301 37.3439 28.2528L34.3821 30.9412C35.4738 32.144 36.6968 33.0742 38.0714 33.5842L39.4626 29.8339ZM36.0588 27.6066C35.3025 27.5322 34.6547 27.3448 34.0934 27.0642L32.3046 30.6419C33.3433 31.1613 34.4715 31.4698 35.6672 31.5874L36.0588 27.6066ZM34.1079 27.0715C33.5842 26.8043 33.1343 26.4374 32.7482 25.952L29.6178 28.4421C30.3517 29.3647 31.2458 30.1018 32.2901 30.6346L34.1079 27.0715ZM32.7617 25.9691C32.3783 25.4763 32.0493 24.8372 31.8043 24.0118L27.9697 25.1502C28.3327 26.3728 28.8677 27.4778 29.6043 28.4249L32.7617 25.9691ZM31.8043 24.0118C31.5677 23.215 31.431 22.2222 31.431 21.005H27.431C27.431 22.5079 27.5983 23.8991 27.9697 25.1502L31.8043 24.0118ZM31.431 21.005C31.431 19.7038 31.589 18.648 31.8619 17.8047L28.0561 16.5734C27.625 17.906 27.431 19.3943 27.431 21.005H31.431ZM31.8536 17.8298C32.1512 16.9498 32.5304 16.3089 32.9509 15.8464L29.9911 13.1557C29.1316 14.1011 28.5028 15.2523 28.0644 16.5482L31.8536 17.8298ZM32.9494 15.848C33.3955 15.3583 33.9196 14.9995 34.5432 14.7589L33.1028 11.0272C31.9024 11.4905 30.8585 12.2037 29.9926 13.154L32.9494 15.848ZM34.5432 14.7589C35.1945 14.5075 35.9618 14.365 36.871 14.365V10.365C35.5402 10.365 34.2755 10.5746 33.1028 11.0272L34.5432 14.7589ZM36.871 14.365C37.7802 14.365 38.5475 14.5075 39.1988 14.7589L40.6392 11.0272C39.4665 10.5746 38.2018 10.365 36.871 10.365V14.365ZM39.2097 14.763C39.8455 15.0042 40.3572 15.3584 40.7762 15.8298L43.7658 13.1723C42.9048 12.2037 41.8485 11.4859 40.6283 11.023L39.2097 14.763ZM40.8078 15.8645C41.2302 16.3178 41.6014 16.9433 41.8801 17.8047L45.6859 16.5734C45.2606 15.2588 44.6238 14.0922 43.7342 13.1376L40.8078 15.8645ZM41.8884 17.8298C42.1708 18.6646 42.335 19.7114 42.335 21.005H46.335C46.335 19.3867 46.1312 17.8894 45.6776 16.5482L41.8884 17.8298ZM42.335 21.005C42.335 22.8979 42.014 24.2445 41.5167 25.1714L45.0413 27.0627C45.952 25.3656 46.335 23.3042 46.335 21.005H42.335ZM41.5216 25.1624C41.0053 26.1128 40.3324 26.7442 39.4938 27.142L41.2082 30.756C42.8656 29.9698 44.1447 28.7132 45.0364 27.0717L41.5216 25.1624ZM39.5088 30.763C40.1086 31.0415 40.7329 31.2399 41.3779 31.3354L41.9641 27.3786C41.7451 27.3462 41.4894 27.2725 41.1932 27.135L39.5088 30.763ZM41.4579 31.3456C41.9788 31.4015 42.5059 31.429 43.039 31.429V27.429C42.6441 27.429 42.2592 27.4086 41.8841 27.3684L41.4579 31.3456ZM43.039 31.429C43.1181 31.429 43.0868 31.4392 42.9887 31.4082C42.8809 31.3741 42.6734 31.283 42.4767 31.0685L45.4253 28.3656C44.6836 27.5564 43.677 27.429 43.039 27.429V31.429ZM42.4814 31.0736C42.3989 30.9842 42.3308 30.8738 42.2874 30.7545C42.2455 30.6392 42.239 30.5501 42.239 30.509H46.239C46.239 29.7569 45.9987 28.9867 45.4206 28.3605L42.4814 31.0736ZM42.239 30.509C42.239 30.4798 42.247 30.4087 42.2865 30.3264C42.3247 30.247 42.364 30.2161 42.3526 30.2256L44.9254 33.2884C45.7502 32.5956 46.239 31.6309 46.239 30.509H42.239ZM42.3177 30.2556C42.3671 30.2122 42.3874 30.2174 42.3251 30.236C42.256 30.2565 42.1113 30.285 41.863 30.285V34.285C42.9093 34.285 44.0561 34.0541 44.9603 33.2585L42.3177 30.2556ZM36.871 28.789C38.7116 28.789 40.2876 28.0302 41.4102 26.5659L38.2358 24.1322C37.8864 24.5879 37.4944 24.789 36.871 24.789V28.789ZM41.3975 26.5824C42.5457 25.1166 42.951 23.1428 42.951 21.005H38.951C38.951 22.7392 38.6044 23.6615 38.2485 24.1157L41.3975 26.5824ZM42.951 21.005C42.951 18.8672 42.5457 16.8935 41.3975 15.4277L38.2485 17.8944C38.6044 18.3486 38.951 19.2708 38.951 21.005H42.951ZM41.4102 15.4442C40.2876 13.9799 38.7116 13.221 36.871 13.221V17.221C37.4944 17.221 37.8864 17.4222 38.2358 17.8779L41.4102 15.4442ZM36.871 13.221C35.0382 13.221 33.4744 13.9854 32.3445 15.4277L35.4935 17.8944C35.8676 17.4167 36.2718 17.221 36.871 17.221V13.221ZM32.3318 15.4442C31.2097 16.9077 30.815 18.8743 30.815 21.005H34.815C34.815 19.2638 35.1563 18.3343 35.5062 17.8779L32.3318 15.4442ZM30.815 21.005C30.815 23.1358 31.2097 25.1023 32.3318 26.5659L35.5062 24.1322C35.1563 23.6757 34.815 22.7463 34.815 21.005H30.815ZM32.3445 26.5824C33.4744 28.0247 35.0382 28.789 36.871 28.789V24.789C36.2718 24.789 35.8676 24.5934 35.4935 24.1157L32.3445 26.5824ZM51.7026 26.765L51.5365 24.7719L51.529 24.7726L51.5216 24.7732L51.7026 26.765ZM52.2066 26.645L51.4638 24.7881L51.4288 24.8021L51.3943 24.8174L52.2066 26.645ZM52.5906 26.381L54.1091 27.6826L54.1515 27.6332L54.1906 27.581L52.5906 26.381ZM52.2786 25.205L51.3471 26.9749L52.2786 25.205ZM51.1506 24.773L50.5386 26.6771L50.5697 26.6871L50.6012 26.6961L51.1506 24.773ZM49.6626 24.341L49.0826 26.2551L49.1166 26.2654L49.1508 26.2744L49.6626 24.341ZM48.1986 23.693L47.1171 25.3754L47.1387 25.3893L47.1607 25.4026L48.1986 23.693ZM47.0706 22.589L45.3977 23.6851L45.4066 23.6986L45.4157 23.712L47.0706 22.589ZM46.9986 19.133L45.2732 18.1216L45.2676 18.1311L45.2621 18.1408L46.9986 19.133ZM49.6146 17.381L50.0485 19.3334L50.068 19.3291L50.0873 19.3244L49.6146 17.381ZM52.8306 17.261L52.5747 19.2446L52.6092 19.249L52.6439 19.2523L52.8306 17.261ZM54.2466 17.597L53.492 19.4492L53.5326 19.4658L53.574 19.4805L54.2466 17.597ZM55.3506 18.293L53.8987 19.6685L53.9359 19.7078L53.9751 19.7449L55.3506 18.293ZM55.3986 20.333L56.552 21.967V21.967L55.3986 20.333ZM53.8386 20.525L53.2062 22.4224L53.2282 22.4297L53.2505 22.4366L53.8386 20.525ZM53.1666 20.333L52.5342 22.2304L52.607 22.2547L52.6816 22.2733L53.1666 20.333ZM50.3586 20.213L51.2044 22.0254L51.2527 22.0028L51.2998 21.9777L50.3586 20.213ZM50.4546 21.365L51.3108 19.5576L50.4546 21.365ZM51.5826 21.797L50.9706 23.7011L51.0017 23.7111L51.0332 23.7201L51.5826 21.797ZM53.0466 22.253L52.4142 24.1504L52.448 24.1617L52.4823 24.1718L53.0466 22.253ZM54.5346 22.925L53.4531 24.6074L53.4747 24.6213L53.4967 24.6346L54.5346 22.925ZM55.6626 23.981L57.2982 22.83L55.6626 23.981ZM55.7346 27.485L57.5119 28.4023L57.5177 28.3909L57.5235 28.3795L55.7346 27.485ZM54.6786 28.709L55.8411 30.3365L54.6786 28.709ZM53.0946 29.405L52.6337 27.4589L52.6096 27.4646L52.5856 27.4709L53.0946 29.405ZM49.4466 29.501L49.7668 27.5268L49.4466 29.501ZM47.8146 29.045L46.9915 30.8678L47.0162 30.8789L47.0412 30.8894L47.8146 29.045ZM46.5666 28.205L45.1184 29.5843L45.1352 29.602L45.1524 29.6192L46.5666 28.205ZM46.4946 26.069L45.2797 24.4803V24.4803L46.4946 26.069ZM48.1506 25.925L47.349 27.7573L47.3981 27.7788L47.4484 27.7977L48.1506 25.925ZM48.9906 26.285L48.1345 28.0925L48.1741 28.1113L48.2145 28.1283L48.9906 26.285ZM49.9746 26.645L49.3682 28.5509L49.4186 28.5669L49.4698 28.5803L49.9746 26.645ZM51.1506 28.789C51.398 28.789 51.6426 28.7787 51.8837 28.7568L51.5216 24.7732C51.4106 24.7833 51.2873 24.789 51.1506 24.789V28.789ZM51.8687 28.7581C52.2359 28.7275 52.6305 28.6453 53.0189 28.4727L51.3943 24.8174C51.4947 24.7728 51.5533 24.7705 51.5365 24.7719L51.8687 28.7581ZM52.9494 28.502C53.3585 28.3383 53.7704 28.0778 54.1091 27.6826L51.0721 25.0794C51.2188 24.9083 51.3747 24.8237 51.4638 24.7881L52.9494 28.502ZM54.1906 27.581C54.595 27.0418 54.7346 26.4368 54.7346 25.901H50.7346C50.7346 25.7493 50.7782 25.4642 50.9906 25.181L54.1906 27.581ZM54.7346 25.901C54.7346 25.3986 54.6033 24.8758 54.2935 24.403C53.9922 23.943 53.5917 23.636 53.2101 23.4352L51.3471 26.9749C51.2696 26.9341 51.0971 26.8231 50.9477 26.5951C50.7899 26.3543 50.7346 26.0995 50.7346 25.901H54.7346ZM53.2101 23.4352C52.7501 23.1931 52.237 23.0034 51.7001 22.85L50.6012 26.6961C50.9603 26.7987 51.1992 26.897 51.3471 26.9749L53.2101 23.4352ZM51.7626 22.869C51.2758 22.7125 50.7458 22.5589 50.1744 22.4076L49.1508 26.2744C49.6675 26.4112 50.1294 26.5456 50.5386 26.6771L51.7626 22.869ZM50.2426 22.427C49.8668 22.3131 49.5338 22.1639 49.2366 21.9835L47.1607 25.4026C47.7595 25.7662 48.4024 26.049 49.0826 26.2551L50.2426 22.427ZM49.2801 22.0107C49.0629 21.871 48.8807 21.6946 48.7256 21.466L45.4157 23.712C45.8686 24.3795 46.4384 24.9391 47.1171 25.3754L49.2801 22.0107ZM48.7435 21.493C48.7164 21.4516 48.6146 21.2623 48.6146 20.765H44.6146C44.6146 21.7717 44.8168 22.7985 45.3977 23.6851L48.7435 21.493ZM48.6146 20.765C48.6146 20.3903 48.6887 20.2065 48.7351 20.1253L45.2621 18.1408C44.7966 18.9555 44.6146 19.8598 44.6146 20.765H48.6146ZM48.724 20.1445C48.8387 19.9488 48.9792 19.8037 49.1601 19.6874L46.9971 16.3227C46.282 16.7824 45.7025 17.3893 45.2732 18.1216L48.724 20.1445ZM49.1601 19.6874C49.3896 19.5399 49.6779 19.4158 50.0485 19.3334L49.1808 15.4287C48.3994 15.6023 47.6636 15.8942 46.9971 16.3227L49.1601 19.6874ZM50.0873 19.3244C50.5209 19.2189 50.97 19.165 51.4386 19.165V15.165C50.6592 15.165 49.8924 15.2551 49.1419 15.4377L50.0873 19.3244ZM51.4386 19.165C51.773 19.165 52.1507 19.1899 52.5747 19.2446L53.0866 15.2775C52.5186 15.2042 51.9683 15.165 51.4386 15.165V19.165ZM52.6439 19.2523C52.9806 19.2839 53.259 19.3543 53.492 19.4492L55.0012 15.7448C54.3702 15.4878 53.7046 15.3342 53.0173 15.2698L52.6439 19.2523ZM53.574 19.4805C53.7665 19.5493 53.8547 19.6221 53.8987 19.6685L56.8025 16.9175C56.2705 16.356 55.6228 15.9648 54.9193 15.7135L53.574 19.4805ZM53.9751 19.7449C53.926 19.6984 53.8734 19.6271 53.8384 19.5406C53.8053 19.4586 53.8066 19.4092 53.8066 19.421H57.8066C57.8066 18.4735 57.474 17.5497 56.7261 16.8411L53.9751 19.7449ZM53.8066 19.421C53.8066 19.4156 53.8072 19.3048 53.879 19.1443C53.9576 18.9686 54.0878 18.8103 54.2453 18.6991L56.552 21.967C57.4879 21.3063 57.8066 20.305 57.8066 19.421H53.8066ZM54.2453 18.6991C54.2863 18.6701 54.3338 18.6472 54.3799 18.6334C54.4242 18.6201 54.4475 18.621 54.4386 18.621V22.621C55.1741 22.621 55.9072 22.4221 56.552 21.967L54.2453 18.6991ZM54.4386 18.621C54.4541 18.621 54.4618 18.6223 54.4606 18.6221C54.4592 18.6219 54.4482 18.6201 54.4268 18.6135L53.2505 22.4366C53.624 22.5515 54.0227 22.621 54.4386 22.621V18.621ZM54.4711 18.6277C54.2185 18.5435 53.9434 18.4657 53.6517 18.3927L52.6816 22.2733C52.9019 22.3284 53.0747 22.3786 53.2062 22.4224L54.4711 18.6277ZM53.7991 18.4357C53.4727 18.3269 53.1251 18.2362 52.7626 18.1599L51.9386 22.0741C52.1841 22.1258 52.3805 22.1792 52.5342 22.2304L53.7991 18.4357ZM52.7626 18.1599C52.2958 18.0617 51.8101 18.021 51.3186 18.021V22.021C51.5952 22.021 51.7974 22.0444 51.9386 22.0741L52.7626 18.1599ZM51.3186 18.021C50.7335 18.021 50.0515 18.1102 49.4174 18.4483L51.2998 21.9777C51.217 22.0219 51.1655 22.0313 51.1709 22.0302C51.1727 22.0298 51.1854 22.0274 51.2107 22.0252C51.236 22.0229 51.2716 22.021 51.3186 22.021V18.021ZM49.5129 18.4007C49.1246 18.5818 48.7157 18.8789 48.4134 19.3425C48.1083 19.8103 47.9986 20.3146 47.9986 20.765H51.9986C51.9986 20.9594 51.949 21.2437 51.7638 21.5276C51.5815 21.8071 51.3526 21.9562 51.2044 22.0254L49.5129 18.4007ZM47.9986 20.765C47.9986 22.0456 48.8565 22.821 49.5985 23.1725L51.3108 19.5576C51.3545 19.5782 51.5325 19.67 51.7049 19.8969C51.8988 20.152 51.9986 20.4649 51.9986 20.765H47.9986ZM49.5985 23.1725C50.0059 23.3655 50.4693 23.54 50.9706 23.7011L52.1946 19.893C51.7999 19.7661 51.5114 19.6526 51.3108 19.5576L49.5985 23.1725ZM51.0332 23.7201C51.4486 23.8388 51.9086 23.9819 52.4142 24.1504L53.6791 20.3557C53.1287 20.1722 52.6126 20.0113 52.1321 19.874L51.0332 23.7201ZM52.4823 24.1718C52.8553 24.2815 53.1754 24.4289 53.4531 24.6074L55.6161 21.2427C54.9978 20.8452 54.3259 20.5446 53.611 20.3343L52.4823 24.1718ZM53.4967 24.6346C53.7072 24.7624 53.8803 24.9236 54.027 25.132L57.2982 22.83C56.8369 22.1745 56.2581 21.6316 55.5726 21.2155L53.4967 24.6346ZM54.027 25.132C54.0314 25.1382 54.1186 25.2612 54.1186 25.661H58.1186C58.1186 24.6848 57.9019 23.6878 57.2982 22.83L54.027 25.132ZM54.1186 25.661C54.1186 26.1246 54.0346 26.4129 53.9458 26.5906L57.5235 28.3795C57.9466 27.5332 58.1186 26.6054 58.1186 25.661H54.1186ZM53.9574 26.5677C53.8449 26.7856 53.7021 26.9488 53.5161 27.0816L55.8411 30.3365C56.5512 29.8293 57.1123 29.1764 57.5119 28.4023L53.9574 26.5677ZM53.5161 27.0816C53.3057 27.2319 53.0232 27.3666 52.6337 27.4589L53.5556 31.3512C54.382 31.1555 55.1556 30.8262 55.8411 30.3365L53.5161 27.0816ZM52.5856 27.4709C52.1622 27.5823 51.6791 27.645 51.1266 27.645V31.645C51.9822 31.645 52.811 31.5478 53.6036 31.3392L52.5856 27.4709ZM51.1266 27.645C50.7191 27.645 50.2669 27.6079 49.7668 27.5268L49.1265 31.4752C49.8104 31.5861 50.4781 31.645 51.1266 31.645V27.645ZM49.7668 27.5268C49.3129 27.4532 48.9231 27.3411 48.5881 27.2006L47.0412 30.8894C47.6982 31.1649 48.3964 31.3568 49.1265 31.4752L49.7668 27.5268ZM48.6378 27.2223C48.3303 27.0834 48.1232 26.9332 47.9808 26.7908L45.1524 29.6192C45.6821 30.1489 46.307 30.5587 46.9915 30.8678L48.6378 27.2223ZM48.0149 26.8257C48.0145 26.8253 48.0215 26.8326 48.0318 26.8485C48.0424 26.8646 48.0537 26.8856 48.0636 26.9102C48.0735 26.9349 48.0797 26.9579 48.0832 26.9769C48.0866 26.9955 48.0866 27.0057 48.0866 27.005H44.0866C44.0866 27.9826 44.4442 28.8765 45.1184 29.5843L48.0149 26.8257ZM48.0866 27.005C48.0866 27.0124 48.0855 27.1126 48.022 27.2582C47.9534 27.4156 47.8417 27.5567 47.7095 27.6577L45.2797 24.4803C44.4052 25.1491 44.0866 26.1154 44.0866 27.005H48.0866ZM47.7095 27.6577C47.669 27.6887 47.6158 27.7179 47.5568 27.7371C47.4994 27.7558 47.461 27.757 47.4546 27.757V23.757C46.6824 23.757 45.9273 23.9851 45.2797 24.4803L47.7095 27.6577ZM47.4546 27.757C47.3794 27.757 47.331 27.747 47.3153 27.7432C47.3002 27.7395 47.3106 27.7406 47.349 27.7573L48.9523 24.0927C48.5256 23.906 48.0159 23.757 47.4546 23.757V27.757ZM47.4484 27.7977C47.6419 27.8703 47.8699 27.9672 48.1345 28.0925L49.8468 24.4776C49.5034 24.3149 49.1713 24.1718 48.8529 24.0524L47.4484 27.7977ZM48.2145 28.1283C48.5802 28.2823 48.9654 28.4227 49.3682 28.5509L50.581 24.7392C50.2798 24.6433 50.009 24.5438 49.7667 24.4418L48.2145 28.1283ZM49.4698 28.5803C50.0172 28.7231 50.5801 28.789 51.1506 28.789V24.789C50.8892 24.789 50.668 24.759 50.4795 24.7098L49.4698 28.5803Z" fill="#FB549C" mask="url(#path-1-outside-1_561_1767)"/>
<mask id="path-3-outside-2_561_1767" maskUnits="userSpaceOnUse" x="58.4121" y="4.83147" width="21.4266" height="30.0685" fill="black">
<rect fill="white" x="58.4121" y="4.83147" width="21.4266" height="30.0685"/>
<path d="M70.3257 12.0429C69.6909 11.9612 69.1985 12.0269 68.8485 12.24C68.5011 12.4319 68.1893 12.6821 67.913 12.9907C67.7349 13.2044 67.5675 13.4195 67.4105 13.6359C67.2775 13.8338 67.1141 14.0171 66.9203 14.1858C66.7477 14.3572 66.5263 14.49 66.2561 14.5843C66.0097 14.6601 65.6961 14.6735 65.3152 14.6245C64.617 14.5346 64.1125 14.2761 63.8018 13.849C63.5123 13.4246 63.4111 12.8738 63.4982 12.1967C63.5718 11.6254 63.7562 11.1114 64.0516 10.6547C64.3708 10.1796 64.7335 9.78534 65.1394 9.47193C65.8559 8.91885 66.6895 8.54216 67.6401 8.34187C68.612 8.14429 69.6586 8.11767 70.78 8.26198C71.6052 8.36818 72.397 8.56686 73.1554 8.85804C73.9137 9.14922 74.5606 9.5551 75.0958 10.0757C75.655 10.5778 76.0695 11.2012 76.3393 11.9457C76.6303 12.6929 76.7105 13.5744 76.5798 14.59C76.4599 15.521 76.2056 16.3271 75.8168 17.0084C75.4308 17.6685 74.9866 18.2782 74.4845 18.8373C74.0035 19.3992 73.4908 19.957 72.9463 20.5107C72.4258 21.0459 71.9591 21.6634 71.5464 22.3631C71.2749 22.8014 71.0341 23.1683 70.824 23.4639C70.6166 23.7384 70.3949 23.9572 70.1588 24.1204C69.9439 24.2863 69.6934 24.3939 69.4075 24.4431C69.1242 24.4712 68.7816 24.4594 68.3796 24.4077C67.7237 24.3232 67.268 24.1033 67.0126 23.7478C66.7572 23.3923 66.6609 22.9712 66.7235 22.4845C66.7698 22.1248 66.8915 21.7641 67.0886 21.4023C67.2885 21.0193 67.532 20.6312 67.8192 20.238C68.2394 19.6468 68.6832 19.1232 69.1506 18.6671C69.6207 18.1899 70.0563 17.7297 70.4575 17.2866C70.8614 16.8224 71.2018 16.35 71.4787 15.8694C71.7796 15.3704 71.9695 14.8141 72.0484 14.2005C72.1328 13.5445 72.0037 13.0439 71.6609 12.6987C71.3209 12.3323 70.8758 12.1137 70.3257 12.0429ZM65.242 28.2304C65.3318 27.5322 65.6514 26.9711 66.2007 26.547C66.7739 26.1046 67.4096 25.9283 68.1078 26.0181C68.806 26.108 69.3764 26.4395 69.8189 27.0127C70.264 27.5647 70.4417 28.1898 70.3518 28.888C70.262 29.5863 69.9318 30.1461 69.3614 30.5674C68.791 30.9887 68.1566 31.1544 67.4584 31.0645C66.7601 30.9747 66.1884 30.6537 65.7432 30.1017C65.3192 29.5524 65.1521 28.9287 65.242 28.2304Z"/>
</mask>
<path d="M70.3257 12.0429C69.6909 11.9612 69.1985 12.0269 68.8485 12.24C68.5011 12.4319 68.1893 12.6821 67.913 12.9907C67.7349 13.2044 67.5675 13.4195 67.4105 13.6359C67.2775 13.8338 67.1141 14.0171 66.9203 14.1858C66.7477 14.3572 66.5263 14.49 66.2561 14.5843C66.0097 14.6601 65.6961 14.6735 65.3152 14.6245C64.617 14.5346 64.1125 14.2761 63.8018 13.849C63.5123 13.4246 63.4111 12.8738 63.4982 12.1967C63.5718 11.6254 63.7562 11.1114 64.0516 10.6547C64.3708 10.1796 64.7335 9.78534 65.1394 9.47193C65.8559 8.91885 66.6895 8.54216 67.6401 8.34187C68.612 8.14429 69.6586 8.11767 70.78 8.26198C71.6052 8.36818 72.397 8.56686 73.1554 8.85804C73.9137 9.14922 74.5606 9.5551 75.0958 10.0757C75.655 10.5778 76.0695 11.2012 76.3393 11.9457C76.6303 12.6929 76.7105 13.5744 76.5798 14.59C76.4599 15.521 76.2056 16.3271 75.8168 17.0084C75.4308 17.6685 74.9866 18.2782 74.4845 18.8373C74.0035 19.3992 73.4908 19.957 72.9463 20.5107C72.4258 21.0459 71.9591 21.6634 71.5464 22.3631C71.2749 22.8014 71.0341 23.1683 70.824 23.4639C70.6166 23.7384 70.3949 23.9572 70.1588 24.1204C69.9439 24.2863 69.6934 24.3939 69.4075 24.4431C69.1242 24.4712 68.7816 24.4594 68.3796 24.4077C67.7237 24.3232 67.268 24.1033 67.0126 23.7478C66.7572 23.3923 66.6609 22.9712 66.7235 22.4845C66.7698 22.1248 66.8915 21.7641 67.0886 21.4023C67.2885 21.0193 67.532 20.6312 67.8192 20.238C68.2394 19.6468 68.6832 19.1232 69.1506 18.6671C69.6207 18.1899 70.0563 17.7297 70.4575 17.2866C70.8614 16.8224 71.2018 16.35 71.4787 15.8694C71.7796 15.3704 71.9695 14.8141 72.0484 14.2005C72.1328 13.5445 72.0037 13.0439 71.6609 12.6987C71.3209 12.3323 70.8758 12.1137 70.3257 12.0429ZM65.242 28.2304C65.3318 27.5322 65.6514 26.9711 66.2007 26.547C66.7739 26.1046 67.4096 25.9283 68.1078 26.0181C68.806 26.108 69.3764 26.4395 69.8189 27.0127C70.264 27.5647 70.4417 28.1898 70.3518 28.888C70.262 29.5863 69.9318 30.1461 69.3614 30.5674C68.791 30.9887 68.1566 31.1544 67.4584 31.0645C66.7601 30.9747 66.1884 30.6537 65.7432 30.1017C65.3192 29.5524 65.1521 28.9287 65.242 28.2304Z" fill="white"/>
<path d="M68.8485 12.24L69.8157 13.9906L69.8524 13.9702L69.8883 13.9484L68.8485 12.24ZM67.913 12.9907L66.423 11.6566L66.3993 11.6831L66.3765 11.7104L67.913 12.9907ZM67.4105 13.6359L65.7914 12.4619L65.7704 12.4908L65.7505 12.5204L67.4105 13.6359ZM66.9203 14.1858L65.6073 12.6771L65.5578 12.7202L65.5113 12.7665L66.9203 14.1858ZM66.2561 14.5843L66.8445 16.4957L66.8799 16.4848L66.9148 16.4726L66.2561 14.5843ZM63.8018 13.849L62.1496 14.9761L62.1667 15.001L62.1844 15.0254L63.8018 13.849ZM64.0516 10.6547L62.3915 9.53931L62.3817 9.55387L62.3722 9.5686L64.0516 10.6547ZM65.1394 9.47193L63.9173 7.88877L63.9173 7.88877L65.1394 9.47193ZM67.6401 8.34187L67.2417 6.38196L67.2347 6.38337L67.2278 6.38483L67.6401 8.34187ZM73.1554 8.85804L73.8722 6.99094L73.1554 8.85804ZM75.0958 10.0757L73.7014 11.5094L73.7299 11.5371L73.7595 11.5637L75.0958 10.0757ZM76.3393 11.9457L74.459 12.6272L74.4671 12.6494L74.4756 12.6715L76.3393 11.9457ZM75.8168 17.0084L77.5432 18.0181L77.5486 18.009L77.5539 17.9997L75.8168 17.0084ZM74.4845 18.8373L72.9965 17.501L72.9806 17.5187L72.9652 17.5367L74.4845 18.8373ZM72.9463 20.5107L71.5202 19.1084L71.5126 19.1163L72.9463 20.5107ZM71.5464 22.3631L73.2466 23.4164L73.2581 23.3979L73.2691 23.3792L71.5464 22.3631ZM70.824 23.4639L72.4197 24.6697L72.4373 24.6465L72.4542 24.6227L70.824 23.4639ZM70.1588 24.1204L69.0216 22.4752L68.9783 22.5051L68.9367 22.5372L70.1588 24.1204ZM69.4075 24.4431L69.6048 26.4334L69.6761 26.4263L69.7468 26.4141L69.4075 24.4431ZM67.0126 23.7478L65.3883 24.9146L65.3883 24.9146L67.0126 23.7478ZM67.0886 21.4023L68.8449 22.3592L68.8534 22.3435L68.8617 22.3276L67.0886 21.4023ZM67.8192 20.238L69.4343 21.4177L69.4419 21.4073L69.4493 21.3967L67.8192 20.238ZM69.1506 18.6671L70.5474 20.0985L70.5616 20.0847L70.5754 20.0706L69.1506 18.6671ZM70.4575 17.2866L71.9401 18.629L71.9534 18.6143L71.9664 18.5994L70.4575 17.2866ZM71.4787 15.8694L69.7659 14.8368L69.7557 14.8537L69.7459 14.8708L71.4787 15.8694ZM71.6609 12.6987L70.1949 14.0592L70.2178 14.0839L70.2416 14.1078L71.6609 12.6987ZM66.2007 26.547L67.4228 28.1302L67.4228 28.1302L66.2007 26.547ZM69.8189 27.0127L68.2357 28.2348L68.2487 28.2516L68.2621 28.2682L69.8189 27.0127ZM69.3614 30.5674L70.5496 32.1761L70.5496 32.1761L69.3614 30.5674ZM65.7432 30.1017L64.1601 31.3239L64.1731 31.3407L64.1864 31.3573L65.7432 30.1017ZM70.581 10.0593C69.7343 9.95032 68.7115 9.98202 67.8086 10.5315L69.8883 13.9484C69.782 14.0131 69.7162 14.0172 69.7448 14.0134C69.7773 14.009 69.8788 14.0019 70.0704 14.0266L70.581 10.0593ZM67.8813 10.4894C67.329 10.7945 66.8424 11.1882 66.423 11.6566L69.403 14.3249C69.5363 14.176 69.6732 14.0693 69.8157 13.9906L67.8813 10.4894ZM66.3765 11.7104C66.1709 11.9572 65.9757 12.2077 65.7914 12.4619L69.0297 14.8098C69.1592 14.6312 69.299 14.4516 69.4495 14.2711L66.3765 11.7104ZM65.7505 12.5204C65.7226 12.5619 65.6788 12.6149 65.6073 12.6771L68.2333 15.6944C68.5494 15.4194 68.8324 15.1058 69.0706 14.7513L65.7505 12.5204ZM65.5113 12.7665C65.5462 12.7318 65.577 12.7102 65.596 12.6988C65.6142 12.6879 65.6172 12.6889 65.5973 12.6959L66.9148 16.4726C67.4176 16.2973 67.9106 16.0209 68.3294 15.6051L65.5113 12.7665ZM65.6676 12.6728C65.7386 12.6509 65.7723 12.6521 65.7506 12.653C65.7294 12.6539 65.6719 12.6539 65.5705 12.6409L65.0599 16.6081C65.5975 16.6773 66.2252 16.6864 66.8445 16.4957L65.6676 12.6728ZM65.5705 12.6409C65.3971 12.6186 65.3291 12.5853 65.3253 12.5833C65.3247 12.583 65.338 12.5899 65.3586 12.6072C65.3796 12.6248 65.4009 12.6473 65.4192 12.6726L62.1844 15.0254C62.9161 16.0315 64.0053 16.4724 65.0599 16.6081L65.5705 12.6409ZM65.454 12.7219C65.4801 12.7602 65.4806 12.7821 65.4759 12.7562C65.4698 12.7232 65.4591 12.6286 65.4819 12.452L61.5146 11.9415C61.3858 12.942 61.504 14.0296 62.1496 14.9761L65.454 12.7219ZM65.4819 12.452C65.5196 12.159 65.6073 11.9321 65.7309 11.7409L62.3722 9.5686C61.9051 10.2908 61.6239 11.0919 61.5146 11.9415L65.4819 12.452ZM65.7116 11.7702C65.9248 11.453 66.1443 11.2228 66.3616 11.0551L63.9173 7.88877C63.3226 8.34783 62.8169 8.90626 62.3915 9.53931L65.7116 11.7702ZM66.3616 11.0551C66.8225 10.6993 67.3744 10.4418 68.0525 10.2989L67.2278 6.38483C66.0046 6.64256 64.8893 7.1384 63.9173 7.88877L66.3616 11.0551ZM68.0386 10.3018C68.7675 10.1536 69.591 10.1255 70.5247 10.2456L71.0353 6.27834C69.7262 6.10987 68.4565 6.135 67.2417 6.38196L68.0386 10.3018ZM70.5247 10.2456C71.1958 10.332 71.8324 10.4924 72.4385 10.7251L73.8722 6.99094C72.9616 6.6413 72.0146 6.40437 71.0353 6.27834L70.5247 10.2456ZM72.4385 10.7251C72.9664 10.9279 73.3768 11.1938 73.7014 11.5094L76.4902 8.64193C75.7443 7.91645 74.861 7.37059 73.8722 6.99094L72.4385 10.7251ZM73.7595 11.5637C74.0604 11.834 74.2951 12.175 74.459 12.6272L78.2196 11.2642C77.8438 10.2273 77.2495 9.32166 76.4321 8.58765L73.7595 11.5637ZM74.4756 12.6715C74.6161 13.0322 74.6957 13.5613 74.5961 14.3347L78.5634 14.8453C78.7253 13.5875 78.6445 12.3537 78.203 11.2199L74.4756 12.6715ZM74.5961 14.3347C74.5032 15.0565 74.3163 15.6026 74.0798 16.0171L77.5539 17.9997C78.0949 17.0516 78.4167 15.9855 78.5634 14.8453L74.5961 14.3347ZM74.0904 15.9987C73.7714 16.5442 73.4067 17.0441 72.9965 17.501L75.9725 20.1736C76.5665 19.5122 77.0901 18.7928 77.5432 18.0181L74.0904 15.9987ZM72.9652 17.5367C72.5155 18.0619 72.0341 18.5859 71.5203 19.1084L74.3724 21.9129C74.9475 21.3281 75.4915 20.7364 76.0038 20.1379L72.9652 17.5367ZM71.5126 19.1163C70.8717 19.7752 70.3103 20.5221 69.8237 21.3471L73.2691 23.3792C73.6079 22.8047 73.9798 22.3167 74.3801 21.9051L71.5126 19.1163ZM69.8462 21.3099C69.5886 21.7259 69.3718 22.055 69.1939 22.3052L72.4542 24.6227C72.6965 24.2817 72.9613 23.8769 73.2466 23.4164L69.8462 21.3099ZM69.2284 22.2581C69.1247 22.3953 69.0516 22.4544 69.0216 22.4752L71.296 25.7656C71.7382 25.46 72.1086 25.0814 72.4197 24.6697L69.2284 22.2581ZM68.9367 22.5372C68.9627 22.5171 68.9918 22.5002 69.0204 22.4879C69.0484 22.4759 69.0663 22.4725 69.0681 22.4721L69.7468 26.4141C70.3316 26.3135 70.8902 26.0824 71.3809 25.7036L68.9367 22.5372ZM69.2102 22.4529C69.1261 22.4612 68.9444 22.4639 68.6349 22.424L68.1243 26.3913C68.6188 26.4549 69.1223 26.4812 69.6048 26.4334L69.2102 22.4529ZM68.6349 22.424C68.5499 22.4131 68.4908 22.4002 68.4534 22.3899C68.416 22.3797 68.4058 22.3736 68.4154 22.3783C68.4256 22.3832 68.4572 22.3998 68.4999 22.4344C68.5436 22.4697 68.592 22.5184 68.637 22.5809L65.3883 24.9146C66.1013 25.9072 67.1983 26.2721 68.1243 26.3913L68.6349 22.424ZM68.637 22.5809C68.648 22.5963 68.6608 22.6174 68.6727 22.6437C68.6846 22.67 68.6931 22.6959 68.6984 22.7191C68.7095 22.7676 68.7019 22.7806 68.7071 22.7398L64.7399 22.2293C64.621 23.1527 64.8008 24.0969 65.3883 24.9146L68.637 22.5809ZM68.7071 22.7398C68.7178 22.6572 68.7504 22.5326 68.8449 22.3592L65.3324 20.4454C65.0326 20.9956 64.8218 21.5925 64.7399 22.2293L68.7071 22.7398ZM68.8617 22.3276C69.0099 22.0436 69.1987 21.7402 69.4343 21.4177L66.2041 19.0584C65.8653 19.5223 65.567 19.9951 65.3155 20.477L68.8617 22.3276ZM69.4493 21.3967C69.8076 20.8927 70.1747 20.4623 70.5474 20.0985L67.7538 17.2357C67.1918 17.7841 66.6712 18.401 66.1891 19.0793L69.4493 21.3967ZM70.5754 20.0706C71.0629 19.5757 71.518 19.0952 71.9401 18.629L68.9749 15.9443C68.5946 16.3643 68.1785 16.804 67.7258 17.2636L70.5754 20.0706ZM71.9664 18.5994C72.4458 18.0483 72.8638 17.4716 73.2116 16.868L69.7459 14.8708C69.5398 15.2283 69.277 15.5965 68.9486 15.9739L71.9664 18.5994ZM73.1916 16.9019C73.6443 16.1509 73.9199 15.3271 74.0321 14.4557L70.0648 13.9452C70.019 14.301 69.9148 14.5898 69.7659 14.8368L73.1916 16.9019ZM74.0321 14.4557C74.165 13.4231 74.0014 12.2175 73.0803 11.2896L70.2416 14.1078C70.1995 14.0654 70.1616 14.0153 70.1314 13.9612C70.1016 13.9077 70.0859 13.8622 70.0783 13.8328C70.0643 13.7785 70.0832 13.8021 70.0648 13.9452L74.0321 14.4557ZM73.1269 11.3383C72.4333 10.5908 71.5409 10.1828 70.581 10.0593L70.0704 14.0266C70.1533 14.0372 70.1868 14.0534 70.1904 14.0551C70.193 14.0564 70.1927 14.0565 70.1912 14.0554C70.1898 14.0543 70.1909 14.0549 70.1949 14.0592L73.1269 11.3383ZM67.2256 28.4857C67.2489 28.305 67.3002 28.2248 67.4228 28.1302L64.9786 24.9639C64.0026 25.7173 63.4148 26.7594 63.2583 27.9752L67.2256 28.4857ZM67.4228 28.1302C67.5895 28.0015 67.6969 27.9818 67.8525 28.0018L68.3631 24.0345C67.1222 23.8748 65.9582 24.2076 64.9786 24.9639L67.4228 28.1302ZM67.8525 28.0018C68.0081 28.0218 68.107 28.0681 68.2357 28.2348L71.402 25.7905C70.6458 24.8109 69.604 24.1942 68.3631 24.0345L67.8525 28.0018ZM68.2621 28.2682C68.3678 28.3994 68.3879 28.4797 68.3682 28.6328L72.3355 29.1433C72.4955 27.8999 72.1603 26.73 71.3757 25.7571L68.2621 28.2682ZM68.3682 28.6328C68.3485 28.7858 68.3087 28.8585 68.1732 28.9586L70.5496 32.1761C71.5549 31.4336 72.1755 30.3868 72.3355 29.1433L68.3682 28.6328ZM68.1732 28.9586C68.0142 29.076 67.8962 29.1044 67.7137 29.0809L67.2031 33.0482C68.417 33.2044 69.5677 32.9013 70.5496 32.1761L68.1732 28.9586ZM67.7137 29.0809C67.5311 29.0574 67.4241 29.0001 67.3 28.8462L64.1864 31.3573C64.9527 32.3074 65.9892 32.8919 67.2031 33.0482L67.7137 29.0809ZM67.3264 28.8796C67.2317 28.757 67.2024 28.6665 67.2256 28.4857L63.2583 27.9752C63.1019 29.1909 63.4067 30.3479 64.1601 31.3239L67.3264 28.8796Z" fill="#FB549C" mask="url(#path-3-outside-2_561_1767)"/>
</svg>
