<svg width="41" height="22" viewBox="0 0 41 22" fill="none" xmlns="http://www.w3.org/2000/svg">
<path d="M20.5623 17.5808C20.5623 17.5808 22.755 17.4059 22.755 19.774L24.9478 17.5808C24.9478 17.5808 22.755 17.7871 22.755 15.3877L20.5623 17.5808Z" fill="white"/>
<path d="M0.819336 8.2391L0.819336 0.623108C0.819336 0.3098 1.07255 0.0565434 1.38581 0.0565434H4.63844C4.95169 0.0565434 5.20491 0.3098 5.20491 0.623108L5.20491 8.1921C5.20491 8.53152 4.93081 8.80566 4.59145 8.80566H1.38581C1.07255 8.80566 0.819336 8.55241 0.819336 8.2391Z" fill="white"/>
<path d="M13.9788 4.40869V0.0563178H18.3643V4.44263H14.0127C13.9944 4.44263 13.9788 4.42696 13.9788 4.40869Z" fill="white"/>
<path d="M9.59058 4.40624V0.549946C9.59058 0.275801 9.81247 0.0538745 10.0866 0.0538745H13.9761V4.44019H9.62451C9.60624 4.44019 9.59058 4.42452 9.59058 4.40624Z" fill="white"/>
<path d="M22.7524 0.672569V3.86048C22.7524 4.18162 22.4914 4.44271 22.1703 4.44271H18.3669V0.0563965L22.1364 0.0563965C22.4757 0.0563965 22.7524 0.333152 22.7524 0.672569Z" fill="white"/>
<path d="M0.819336 17.5807L0.819336 21.967H5.20491V17.5807H0.819336Z" fill="white"/>
<path d="M27.0835 3.81346V0.604666C27.0835 0.286136 27.3419 0.0302687 27.6578 0.0302687H29.4094C30.5476 0.0302687 31.4717 0.954525 31.4717 2.09288V4.41919H27.6891C27.355 4.41919 27.0861 4.14766 27.0861 3.81607L27.0835 3.81346Z" fill="white"/>
<path d="M27.0832 21.9671V17.5808H31.4687V19.8418C31.4687 21.0167 30.5159 21.9697 29.3412 21.9697H27.0806L27.0832 21.9671Z" fill="white"/>
<path d="M22.6951 8.19993V5.02247C22.6951 4.68828 22.9666 4.41674 23.3007 4.41674H26.4776C26.8118 4.41674 27.0832 4.68828 27.0832 5.02247V8.15294C27.0832 8.51324 26.7909 8.80566 26.4306 8.80566H23.3007C22.9666 8.80566 22.6951 8.53413 22.6951 8.19993Z" fill="white"/>
<path d="M9.5905 8.23649V4.41674H13.9761V8.75606C13.9761 8.78217 13.9552 8.80566 13.9265 8.80566H10.157C9.84372 8.80566 9.58789 8.55241 9.58789 8.23649H9.5905Z" fill="white"/>
<path d="M13.9788 21.9331V17.5468H17.7822C18.1033 17.5468 18.3643 17.8079 18.3643 18.129V21.33C18.3643 21.6642 18.0928 21.9331 17.7613 21.9331H13.9788Z" fill="white"/>
<path d="M10.2091 17.5547H13.9786V21.941H10.2587C9.89061 21.941 9.59302 21.6434 9.59302 21.2752V18.1709C9.59302 17.8314 9.86973 17.5547 10.2091 17.5547Z" fill="white"/>
<path d="M22.7551 21.2517V17.6799C22.7551 17.6251 22.7995 17.5781 22.8569 17.5781H27.0415C27.0963 17.5781 27.1433 17.6225 27.1433 17.6799V21.8652C27.1433 21.92 27.0989 21.967 27.0415 21.967H23.4704C23.0762 21.967 22.7551 21.6459 22.7551 21.2517Z" fill="white"/>
<path d="M29.2761 0.0302734V4.41658C32.9099 4.41658 35.8571 7.36429 35.8571 10.9987C35.8571 14.633 32.9099 17.5807 29.2761 17.5807V21.9671C35.3324 21.9671 40.2427 17.0559 40.2427 10.9987C40.2427 4.94138 35.3324 0.0302734 29.2761 0.0302734Z" fill="white"/>
<path d="M0.819504 17.5677L0.819504 13.8106C0.819504 13.4686 1.09882 13.1892 1.44079 13.1892H4.53158C4.90226 13.1892 5.20507 13.4921 5.20507 13.8628V17.5677C5.20507 17.5677 5.19985 17.5781 5.19463 17.5781H0.827335C0.827335 17.5781 0.816895 17.5729 0.816895 17.5677H0.819504Z" fill="white"/>
<path d="M5.20508 9.37215V12.6253C5.20508 12.9382 5.45869 13.1919 5.77155 13.1919H9.02418C9.33703 13.1919 9.59065 12.9382 9.59065 12.6253V9.37215C9.59065 9.05925 9.33703 8.80559 9.02418 8.80559H5.77155C5.45869 8.80559 5.20508 9.05925 5.20508 9.37215Z" fill="white"/>
<path d="M5.20499 10.9988C5.20499 10.9988 5.37989 13.1919 3.01221 13.1919L5.20499 15.3851C5.20499 15.3851 4.99877 13.1919 7.39778 13.1919L5.20499 10.9988Z" fill="white"/>
<path d="M13.9814 2.24951C13.9814 2.24951 14.1563 4.44267 11.7886 4.44267L13.9814 6.63582C13.9814 6.63582 13.7751 4.44267 16.1741 4.44267L13.9814 2.24951Z" fill="white"/>
<path d="M18.3669 15.385C18.3669 15.385 18.5418 17.5782 16.1741 17.5782L18.3669 19.7713C18.3669 19.7713 18.1606 17.5782 20.5596 17.5782L18.3669 15.385Z" fill="white"/>
<path d="M27.0832 2.24951C27.0832 2.24951 27.2581 4.44267 24.8904 4.44267L27.0832 6.63582C27.0832 6.63582 26.8769 4.44267 29.276 4.44267L27.0832 2.24951Z" fill="white"/>
<path d="M22.755 2.24951C22.755 2.24951 22.5801 4.44267 24.9478 4.44267L22.755 6.63582C22.755 6.63582 22.9613 4.44267 20.5623 4.44267L22.755 2.24951Z" fill="white"/>
<path d="M13.9787 6.6123C13.9787 6.6123 13.8038 8.80546 16.1715 8.80546L13.9787 10.9986C13.9787 10.9986 14.1849 8.80546 11.7859 8.80546L13.9787 6.6123Z" fill="white"/>
<path d="M5.20499 6.6123C5.20499 6.6123 5.03009 8.80546 7.39778 8.80546L5.20499 10.9986C5.20499 10.9986 5.41122 8.80546 3.01221 8.80546L5.20499 6.6123Z" fill="white"/>
<path d="M18.3643 16.7531V14.9072C18.3643 13.9594 19.1317 13.1918 20.0793 13.1918H22.7498V17.5781H19.1892C18.7323 17.5781 18.3643 17.2074 18.3643 16.7531Z" fill="white"/>
<path d="M13.9788 9.39304V12.6044C13.9788 12.9289 14.2417 13.1919 14.5661 13.1919H17.777C18.1014 13.1919 18.3643 12.9289 18.3643 12.6044V9.39304C18.3643 9.0686 18.1014 8.80559 17.777 8.80559H14.5661C14.2417 8.80559 13.9788 9.0686 13.9788 9.39304Z" fill="white"/>
<path d="M18.3644 10.9988C18.3644 10.9988 18.1895 13.1919 20.5572 13.1919L18.3644 15.3851C18.3644 15.3851 18.5706 13.1919 16.1716 13.1919L18.3644 10.9988Z" fill="white"/>
<path d="M22.7549 17.5784V13.1921H27.0882C27.117 13.1921 27.1405 13.2156 27.1405 13.2443V17.5784H22.7549Z" fill="#0090FF"/>
<path d="M27.1431 9.41653V12.5809C27.1431 12.9184 27.4166 13.1919 27.7539 13.1919H30.9178C31.2552 13.1919 31.5286 12.9184 31.5286 12.5809V9.41653C31.5286 9.07911 31.2552 8.80558 30.9178 8.80558H27.7539C27.4166 8.80558 27.1431 9.07911 27.1431 9.41653Z" fill="#0090FF"/>
<path d="M27.1405 10.9988C27.1405 10.9988 27.3154 13.1919 24.9478 13.1919L27.1405 15.3851C27.1405 15.3851 26.9343 13.1919 29.3333 13.1919L27.1405 10.9988Z" fill="#0090FF"/>
<path d="M0.816895 4.44263L0.816895 0.628104C0.816895 0.312185 1.07272 0.0537052 1.39119 0.0537052H4.63077C4.94664 0.0537052 5.20507 0.309574 5.20507 0.628104V4.44263H0.819506H0.816895Z" fill="#D83273"/>
</svg>
