<svg width="58" height="15" viewBox="0 0 58 15" fill="none" xmlns="http://www.w3.org/2000/svg">
<mask id="path-1-outside-1_1340_1673" maskUnits="userSpaceOnUse" x="0" y="0" width="58" height="15" fill="black">
<rect fill="white" width="58" height="15"/>
<path d="M5.6416 1.47754C6.111 1.47754 6.72624 1.59375 7.4873 1.82617C7.57845 1.85352 7.65137 1.86719 7.70605 1.86719C7.75163 1.86719 7.88835 1.82617 8.11621 1.74414C8.18913 1.7168 8.2666 1.70312 8.34863 1.70312C8.65397 1.70312 8.97526 1.94466 9.3125 2.42773C9.6543 2.91081 9.8252 3.37109 9.8252 3.80859C9.8252 4.0638 9.74772 4.28027 9.59277 4.45801C9.44238 4.63118 9.25781 4.71777 9.03906 4.71777C8.85677 4.71777 8.70866 4.68132 8.59473 4.6084C8.48079 4.53548 8.23014 4.31901 7.84277 3.95898C7.2959 3.44857 6.75814 3.19336 6.22949 3.19336C5.97428 3.19336 5.76921 3.25488 5.61426 3.37793C5.46387 3.50098 5.38867 3.66276 5.38867 3.86328C5.38867 4.25977 5.7373 4.55827 6.43457 4.75879C7.37793 5.03678 7.98177 5.23958 8.24609 5.36719C9.4082 5.93229 9.98926 6.764 9.98926 7.8623C9.98926 8.83301 9.59277 9.62598 8.7998 10.2412C7.98861 10.8701 6.92904 11.1846 5.62109 11.1846C5.03776 11.1846 4.42253 11.1162 3.77539 10.9795C3.12826 10.8382 2.66113 10.6742 2.37402 10.4873C2.15527 10.3415 1.95703 10.0247 1.7793 9.53711C1.60612 9.04492 1.51953 8.56641 1.51953 8.10156C1.51953 7.87826 1.5651 7.70964 1.65625 7.5957C1.77018 7.44987 1.91374 7.37695 2.08691 7.37695C2.26009 7.37695 2.42643 7.46582 2.58594 7.64355C2.68164 7.74382 2.90723 8.0651 3.2627 8.60742C3.43132 8.86263 3.69792 9.07454 4.0625 9.24316C4.43164 9.41178 4.81217 9.49609 5.2041 9.49609C5.54134 9.49609 5.81478 9.43457 6.02441 9.31152C6.23405 9.18392 6.33887 9.02214 6.33887 8.82617C6.33887 8.64388 6.25684 8.48665 6.09277 8.35449C5.92871 8.22233 5.66211 8.09928 5.29297 7.98535C4.64128 7.78027 4.14453 7.59342 3.80273 7.4248C3.46094 7.25163 3.14193 7.03516 2.8457 6.77539C2.12565 6.13737 1.76562 5.41276 1.76562 4.60156C1.76562 4.20052 1.85905 3.81087 2.0459 3.43262C2.23275 3.0498 2.49707 2.7194 2.83887 2.44141C3.60449 1.79883 4.53874 1.47754 5.6416 1.47754ZM13.8857 4.22559C14.1637 4.22559 14.3369 4.25065 14.4053 4.30078C14.4736 4.34635 14.5078 4.46484 14.5078 4.65625C14.5078 4.82487 14.5625 4.90918 14.6719 4.90918C14.7174 4.90918 14.8701 4.82259 15.1299 4.64941C15.3258 4.51725 15.5742 4.40788 15.875 4.32129C16.1803 4.23014 16.4561 4.18457 16.7021 4.18457C17.2809 4.18457 17.7982 4.38509 18.2539 4.78613C18.6003 5.09147 18.8691 5.47656 19.0605 5.94141C19.2611 6.42904 19.3613 6.94173 19.3613 7.47949C19.3613 8.62793 18.974 9.57357 18.1992 10.3164C17.6022 10.8952 16.9232 11.1846 16.1621 11.1846C15.7747 11.1846 15.376 11.0934 14.9658 10.9111C14.8838 10.8747 14.8177 10.8564 14.7676 10.8564C14.6309 10.8564 14.5625 10.9932 14.5625 11.2666C14.5625 11.6266 14.6833 11.8864 14.9248 12.0459C15.1481 12.1963 15.2803 12.2965 15.3213 12.3467C15.3669 12.4014 15.3896 12.4902 15.3896 12.6133C15.3896 12.8867 15.237 13.0964 14.9316 13.2422C14.6263 13.3926 14.1956 13.4678 13.6396 13.4678C12.6507 13.4678 11.7848 13.2695 11.042 12.873C10.6637 12.6725 10.4746 12.4242 10.4746 12.1279C10.4746 11.9912 10.502 11.8864 10.5566 11.8135C10.6159 11.7451 10.7275 11.6722 10.8916 11.5947C11.1286 11.4854 11.2721 11.2871 11.3223 11C11.377 10.7129 11.418 9.88802 11.4453 8.52539C11.4134 7.4043 11.3724 6.77539 11.3223 6.63867C11.304 6.5931 11.2767 6.56348 11.2402 6.5498C11.2083 6.53613 11.0967 6.51107 10.9053 6.47461C10.7594 6.44727 10.641 6.38118 10.5498 6.27637C10.4587 6.16699 10.4131 6.03711 10.4131 5.88672C10.4131 5.70443 10.4769 5.54492 10.6045 5.4082C10.7321 5.26693 10.9395 5.13021 11.2266 4.99805C12.3431 4.49219 13.2295 4.2347 13.8857 4.22559ZM14.5625 6.80957L14.46 8.68945C14.4554 8.76693 14.4531 8.84212 14.4531 8.91504C14.4531 9.05632 14.5146 9.17025 14.6377 9.25684C14.7607 9.34342 14.9248 9.38672 15.1299 9.38672C15.7588 9.38672 16.0732 8.86947 16.0732 7.83496C16.0732 7.16504 15.9411 6.69336 15.6768 6.41992C15.5127 6.2513 15.3167 6.16699 15.0889 6.16699C14.7653 6.16699 14.5898 6.38118 14.5625 6.80957ZM26.1768 7.9375H22.9639C22.8226 7.9375 22.752 7.99902 22.752 8.12207C22.752 8.41829 22.9115 8.69857 23.2305 8.96289C23.554 9.22266 23.9004 9.35254 24.2695 9.35254C24.4883 9.35254 24.7298 9.31152 24.9941 9.22949C25.263 9.1429 25.484 9.03809 25.6572 8.91504C25.8122 8.80566 25.9352 8.75098 26.0264 8.75098C26.1449 8.75098 26.2611 8.82389 26.375 8.96973C26.4889 9.11556 26.5459 9.26595 26.5459 9.4209C26.5459 9.74902 26.3408 10.0658 25.9307 10.3711C25.2061 10.9134 24.3698 11.1846 23.4219 11.1846C22.4648 11.1846 21.6628 10.9066 21.0156 10.3506C20.7012 10.0771 20.4414 9.74674 20.2363 9.35938C19.9674 8.8444 19.833 8.30208 19.833 7.73242C19.833 6.9668 20.0654 6.27865 20.5303 5.66797C20.9313 5.13932 21.4417 4.74512 22.0615 4.48535C22.5264 4.28939 23.0299 4.19141 23.5723 4.19141C24.4382 4.19141 25.1742 4.4375 25.7803 4.92969C26.0856 5.17578 26.3317 5.46745 26.5186 5.80469C26.7327 6.1875 26.8398 6.5612 26.8398 6.92578C26.8398 7.22201 26.7783 7.46582 26.6553 7.65723C26.5322 7.84408 26.3727 7.9375 26.1768 7.9375ZM23.1416 6.65918H23.832C24.1237 6.65918 24.2695 6.52474 24.2695 6.25586C24.2695 6.00977 24.1989 5.80924 24.0576 5.6543C23.9163 5.49935 23.7318 5.42188 23.5039 5.42188C23.2487 5.42188 23.0482 5.52214 22.9023 5.72266C22.7656 5.90951 22.6973 6.09863 22.6973 6.29004C22.6973 6.42676 22.7292 6.52246 22.793 6.57715C22.8613 6.63184 22.9775 6.65918 23.1416 6.65918ZM31.1807 4.19141C31.9919 4.19141 32.7074 4.39421 33.3271 4.7998C33.915 5.18717 34.209 5.66797 34.209 6.24219C34.209 6.63867 34.0723 6.95996 33.7988 7.20605C33.5436 7.43848 33.236 7.55469 32.876 7.55469C32.4977 7.55469 32.2129 7.41797 32.0215 7.14453C31.9622 7.05794 31.8757 6.83691 31.7617 6.48145C31.6387 6.09863 31.404 5.90723 31.0576 5.90723C30.807 5.90723 30.5951 6.0166 30.4219 6.23535C30.2533 6.4541 30.1689 6.72298 30.1689 7.04199C30.1689 7.58887 30.3649 8.07422 30.7568 8.49805C31.0758 8.83984 31.4769 9.01074 31.96 9.01074C32.1878 9.01074 32.3792 8.99251 32.5342 8.95605C32.6891 8.91504 32.8919 8.83529 33.1426 8.7168C33.2064 8.6849 33.277 8.66895 33.3545 8.66895C33.5094 8.66895 33.6462 8.74186 33.7646 8.8877C33.8831 9.03353 33.9424 9.20443 33.9424 9.40039C33.9424 9.60547 33.8581 9.82194 33.6895 10.0498C33.5208 10.2731 33.2998 10.4691 33.0264 10.6377C32.4339 11.0023 31.7344 11.1846 30.9277 11.1846C29.9889 11.1846 29.1891 10.9111 28.5283 10.3643C27.6807 9.67155 27.2568 8.78971 27.2568 7.71875C27.2568 6.6888 27.651 5.83659 28.4395 5.16211C29.1914 4.51497 30.1051 4.19141 31.1807 4.19141ZM38.4541 4.66309V8.63477C38.4541 8.94922 38.4814 9.17936 38.5361 9.3252C38.5954 9.47103 38.7116 9.60547 38.8848 9.72852C39.026 9.82878 39.1195 9.91536 39.165 9.98828C39.2152 10.0566 39.2402 10.1455 39.2402 10.2549C39.2402 10.8428 38.4951 11.1367 37.0049 11.1367C36.2028 11.1367 35.5671 11.0729 35.0977 10.9453C34.9382 10.8997 34.8083 10.82 34.708 10.7061C34.6123 10.5921 34.5645 10.4622 34.5645 10.3164C34.5645 10.1934 34.5895 10.0977 34.6396 10.0293C34.6898 9.96094 34.8174 9.85156 35.0225 9.70117C35.1637 9.59635 35.264 9.42546 35.3232 9.18848C35.3825 8.9515 35.4121 8.59831 35.4121 8.12891C35.4121 7.97852 35.4007 7.69824 35.3779 7.28809C35.3597 6.87337 35.346 6.63184 35.3369 6.56348C35.3096 6.37663 35.182 6.23307 34.9541 6.13281C34.6715 6.00977 34.5303 5.82747 34.5303 5.58594C34.5303 5.29883 34.7148 5.08464 35.084 4.94336C35.5944 4.7474 36.1413 4.58105 36.7246 4.44434C37.3079 4.30762 37.7591 4.23926 38.0781 4.23926C38.3288 4.23926 38.4541 4.38053 38.4541 4.66309ZM37.1006 1.66895C37.4971 1.66895 37.8115 1.74414 38.0439 1.89453C38.2764 2.04036 38.3926 2.23861 38.3926 2.48926C38.3926 2.84017 38.2171 3.11816 37.8662 3.32324C37.3102 3.64681 36.638 3.80859 35.8496 3.80859C35.5169 3.80859 35.2526 3.74479 35.0566 3.61719C34.7923 3.45312 34.6602 3.22526 34.6602 2.93359C34.6602 2.54167 34.9404 2.23405 35.501 2.01074C36.0706 1.78288 36.6038 1.66895 37.1006 1.66895ZM43.5469 4.18457C44.3398 4.18457 45.012 4.38509 45.5635 4.78613C45.8551 5.00033 46.0579 5.24642 46.1719 5.52441C46.2904 5.79785 46.3496 6.17611 46.3496 6.65918L46.3359 7.67773C46.3359 8.38411 46.3861 8.84212 46.4863 9.05176C46.5365 9.15202 46.5843 9.21582 46.6299 9.24316C46.6755 9.27051 46.7712 9.29557 46.917 9.31836C47.0628 9.34115 47.1357 9.43685 47.1357 9.60547C47.1357 9.82422 47.0469 10.0521 46.8691 10.2891C46.696 10.526 46.4704 10.7243 46.1924 10.8838C45.8506 11.0843 45.4928 11.1846 45.1191 11.1846C44.6406 11.1846 44.2624 11.0205 43.9844 10.6924C43.8887 10.5739 43.7998 10.5146 43.7178 10.5146C43.6266 10.5146 43.5059 10.5716 43.3555 10.6855C42.8997 11.0182 42.3825 11.1846 41.8037 11.1846C41.2067 11.1846 40.7236 11.057 40.3545 10.8018C40.113 10.6331 39.9215 10.4144 39.7803 10.1455C39.639 9.87207 39.5684 9.58724 39.5684 9.29102C39.5684 8.81706 39.7598 8.39779 40.1426 8.0332C40.7396 7.45898 41.6328 7.1696 42.8223 7.16504C43.0866 7.16504 43.2529 7.13997 43.3213 7.08984C43.3896 7.03516 43.4238 6.91211 43.4238 6.7207C43.4238 6.23763 43.3737 5.889 43.2734 5.6748C43.1732 5.45605 43.0091 5.34668 42.7812 5.34668C42.6445 5.34668 42.5215 5.3877 42.4121 5.46973C42.3073 5.55176 42.1751 5.70215 42.0156 5.9209C41.61 6.49967 41.1862 6.78906 40.7441 6.78906C40.5208 6.78906 40.3385 6.72298 40.1973 6.59082C40.056 6.45866 39.9854 6.28548 39.9854 6.07129C39.9854 5.85254 40.0719 5.63379 40.2451 5.41504C40.4229 5.19629 40.6621 5.00488 40.9629 4.84082C41.7878 4.40332 42.6491 4.18457 43.5469 4.18457ZM43.0889 8.14258C42.8883 8.14258 42.7129 8.22461 42.5625 8.38867C42.4167 8.55273 42.3438 8.7487 42.3438 8.97656C42.3438 9.19531 42.3962 9.37305 42.501 9.50977C42.6058 9.64193 42.7448 9.70801 42.918 9.70801C43.2826 9.70801 43.4648 9.40039 43.4648 8.78516C43.4648 8.53451 43.4375 8.36589 43.3828 8.2793C43.3327 8.19271 43.2347 8.14714 43.0889 8.14258ZM51.4902 5.5791V7.77344C51.4902 8.74414 51.5039 9.30924 51.5312 9.46875C51.5632 9.62826 51.6771 9.7513 51.873 9.83789C52.0417 9.91081 52.1533 9.97917 52.208 10.043C52.2673 10.1068 52.2969 10.1979 52.2969 10.3164C52.2969 10.4668 52.2422 10.6035 52.1328 10.7266C52.028 10.8496 51.8867 10.9362 51.709 10.9863C51.3809 11.0866 50.8271 11.1367 50.0479 11.1367C49.1683 11.1367 48.5508 11.0706 48.1953 10.9385C48.0312 10.8792 47.8968 10.7881 47.792 10.665C47.6872 10.5374 47.6348 10.4053 47.6348 10.2686C47.6348 10.1592 47.6621 10.0749 47.7168 10.0156C47.776 9.95638 47.9014 9.88574 48.0928 9.80371C48.2705 9.72624 48.3799 9.51432 48.4209 9.16797C48.4938 8.57552 48.5303 7.73242 48.5303 6.63867C48.5303 5.52669 48.4984 4.8112 48.4346 4.49219C48.3708 4.17318 48.2113 3.9362 47.9561 3.78125C47.7646 3.67188 47.6325 3.56934 47.5596 3.47363C47.4912 3.37337 47.457 3.2526 47.457 3.11133C47.457 2.88802 47.5641 2.69434 47.7783 2.53027C47.9925 2.36165 48.3343 2.20671 48.8037 2.06543C49.1182 1.96973 49.526 1.87858 50.0273 1.79199C50.5286 1.7054 50.8932 1.66211 51.1211 1.66211C51.4811 1.66211 51.6611 1.88542 51.6611 2.33203C51.6611 2.47786 51.6383 2.81283 51.5928 3.33691C51.5335 4.15267 51.4993 4.90007 51.4902 5.5791ZM54.6348 8.22461C55.0312 8.22461 55.3708 8.37272 55.6533 8.66895C55.9359 8.96061 56.0771 9.30241 56.0771 9.69434C56.0771 10.0999 55.9313 10.4508 55.6396 10.7471C55.348 11.0387 54.9993 11.1846 54.5938 11.1846C54.1973 11.1846 53.8577 11.0501 53.5752 10.7812C53.2699 10.4896 53.1172 10.1296 53.1172 9.70117C53.1172 9.30469 53.2516 8.96973 53.5205 8.69629C53.8213 8.38184 54.1927 8.22461 54.6348 8.22461ZM54.6006 1.76465C55.0062 1.76465 55.3503 1.91048 55.6328 2.20215C56.0111 2.58496 56.2002 3.12728 56.2002 3.8291C56.2002 4.29395 56.1182 4.79525 55.9541 5.33301C55.7946 5.86621 55.5804 6.34245 55.3115 6.76172C55.0062 7.23568 54.7601 7.47266 54.5732 7.47266C54.391 7.47266 54.1335 7.1696 53.8008 6.56348C53.5547 6.11686 53.3587 5.63835 53.2129 5.12793C53.0716 4.61751 53.001 4.15039 53.001 3.72656C53.001 3.20703 53.1172 2.77181 53.3496 2.4209C53.6367 1.9834 54.0537 1.76465 54.6006 1.76465Z"/>
</mask>
<path d="M5.6416 1.47754C6.111 1.47754 6.72624 1.59375 7.4873 1.82617C7.57845 1.85352 7.65137 1.86719 7.70605 1.86719C7.75163 1.86719 7.88835 1.82617 8.11621 1.74414C8.18913 1.7168 8.2666 1.70312 8.34863 1.70312C8.65397 1.70312 8.97526 1.94466 9.3125 2.42773C9.6543 2.91081 9.8252 3.37109 9.8252 3.80859C9.8252 4.0638 9.74772 4.28027 9.59277 4.45801C9.44238 4.63118 9.25781 4.71777 9.03906 4.71777C8.85677 4.71777 8.70866 4.68132 8.59473 4.6084C8.48079 4.53548 8.23014 4.31901 7.84277 3.95898C7.2959 3.44857 6.75814 3.19336 6.22949 3.19336C5.97428 3.19336 5.76921 3.25488 5.61426 3.37793C5.46387 3.50098 5.38867 3.66276 5.38867 3.86328C5.38867 4.25977 5.7373 4.55827 6.43457 4.75879C7.37793 5.03678 7.98177 5.23958 8.24609 5.36719C9.4082 5.93229 9.98926 6.764 9.98926 7.8623C9.98926 8.83301 9.59277 9.62598 8.7998 10.2412C7.98861 10.8701 6.92904 11.1846 5.62109 11.1846C5.03776 11.1846 4.42253 11.1162 3.77539 10.9795C3.12826 10.8382 2.66113 10.6742 2.37402 10.4873C2.15527 10.3415 1.95703 10.0247 1.7793 9.53711C1.60612 9.04492 1.51953 8.56641 1.51953 8.10156C1.51953 7.87826 1.5651 7.70964 1.65625 7.5957C1.77018 7.44987 1.91374 7.37695 2.08691 7.37695C2.26009 7.37695 2.42643 7.46582 2.58594 7.64355C2.68164 7.74382 2.90723 8.0651 3.2627 8.60742C3.43132 8.86263 3.69792 9.07454 4.0625 9.24316C4.43164 9.41178 4.81217 9.49609 5.2041 9.49609C5.54134 9.49609 5.81478 9.43457 6.02441 9.31152C6.23405 9.18392 6.33887 9.02214 6.33887 8.82617C6.33887 8.64388 6.25684 8.48665 6.09277 8.35449C5.92871 8.22233 5.66211 8.09928 5.29297 7.98535C4.64128 7.78027 4.14453 7.59342 3.80273 7.4248C3.46094 7.25163 3.14193 7.03516 2.8457 6.77539C2.12565 6.13737 1.76562 5.41276 1.76562 4.60156C1.76562 4.20052 1.85905 3.81087 2.0459 3.43262C2.23275 3.0498 2.49707 2.7194 2.83887 2.44141C3.60449 1.79883 4.53874 1.47754 5.6416 1.47754ZM13.8857 4.22559C14.1637 4.22559 14.3369 4.25065 14.4053 4.30078C14.4736 4.34635 14.5078 4.46484 14.5078 4.65625C14.5078 4.82487 14.5625 4.90918 14.6719 4.90918C14.7174 4.90918 14.8701 4.82259 15.1299 4.64941C15.3258 4.51725 15.5742 4.40788 15.875 4.32129C16.1803 4.23014 16.4561 4.18457 16.7021 4.18457C17.2809 4.18457 17.7982 4.38509 18.2539 4.78613C18.6003 5.09147 18.8691 5.47656 19.0605 5.94141C19.2611 6.42904 19.3613 6.94173 19.3613 7.47949C19.3613 8.62793 18.974 9.57357 18.1992 10.3164C17.6022 10.8952 16.9232 11.1846 16.1621 11.1846C15.7747 11.1846 15.376 11.0934 14.9658 10.9111C14.8838 10.8747 14.8177 10.8564 14.7676 10.8564C14.6309 10.8564 14.5625 10.9932 14.5625 11.2666C14.5625 11.6266 14.6833 11.8864 14.9248 12.0459C15.1481 12.1963 15.2803 12.2965 15.3213 12.3467C15.3669 12.4014 15.3896 12.4902 15.3896 12.6133C15.3896 12.8867 15.237 13.0964 14.9316 13.2422C14.6263 13.3926 14.1956 13.4678 13.6396 13.4678C12.6507 13.4678 11.7848 13.2695 11.042 12.873C10.6637 12.6725 10.4746 12.4242 10.4746 12.1279C10.4746 11.9912 10.502 11.8864 10.5566 11.8135C10.6159 11.7451 10.7275 11.6722 10.8916 11.5947C11.1286 11.4854 11.2721 11.2871 11.3223 11C11.377 10.7129 11.418 9.88802 11.4453 8.52539C11.4134 7.4043 11.3724 6.77539 11.3223 6.63867C11.304 6.5931 11.2767 6.56348 11.2402 6.5498C11.2083 6.53613 11.0967 6.51107 10.9053 6.47461C10.7594 6.44727 10.641 6.38118 10.5498 6.27637C10.4587 6.16699 10.4131 6.03711 10.4131 5.88672C10.4131 5.70443 10.4769 5.54492 10.6045 5.4082C10.7321 5.26693 10.9395 5.13021 11.2266 4.99805C12.3431 4.49219 13.2295 4.2347 13.8857 4.22559ZM14.5625 6.80957L14.46 8.68945C14.4554 8.76693 14.4531 8.84212 14.4531 8.91504C14.4531 9.05632 14.5146 9.17025 14.6377 9.25684C14.7607 9.34342 14.9248 9.38672 15.1299 9.38672C15.7588 9.38672 16.0732 8.86947 16.0732 7.83496C16.0732 7.16504 15.9411 6.69336 15.6768 6.41992C15.5127 6.2513 15.3167 6.16699 15.0889 6.16699C14.7653 6.16699 14.5898 6.38118 14.5625 6.80957ZM26.1768 7.9375H22.9639C22.8226 7.9375 22.752 7.99902 22.752 8.12207C22.752 8.41829 22.9115 8.69857 23.2305 8.96289C23.554 9.22266 23.9004 9.35254 24.2695 9.35254C24.4883 9.35254 24.7298 9.31152 24.9941 9.22949C25.263 9.1429 25.484 9.03809 25.6572 8.91504C25.8122 8.80566 25.9352 8.75098 26.0264 8.75098C26.1449 8.75098 26.2611 8.82389 26.375 8.96973C26.4889 9.11556 26.5459 9.26595 26.5459 9.4209C26.5459 9.74902 26.3408 10.0658 25.9307 10.3711C25.2061 10.9134 24.3698 11.1846 23.4219 11.1846C22.4648 11.1846 21.6628 10.9066 21.0156 10.3506C20.7012 10.0771 20.4414 9.74674 20.2363 9.35938C19.9674 8.8444 19.833 8.30208 19.833 7.73242C19.833 6.9668 20.0654 6.27865 20.5303 5.66797C20.9313 5.13932 21.4417 4.74512 22.0615 4.48535C22.5264 4.28939 23.0299 4.19141 23.5723 4.19141C24.4382 4.19141 25.1742 4.4375 25.7803 4.92969C26.0856 5.17578 26.3317 5.46745 26.5186 5.80469C26.7327 6.1875 26.8398 6.5612 26.8398 6.92578C26.8398 7.22201 26.7783 7.46582 26.6553 7.65723C26.5322 7.84408 26.3727 7.9375 26.1768 7.9375ZM23.1416 6.65918H23.832C24.1237 6.65918 24.2695 6.52474 24.2695 6.25586C24.2695 6.00977 24.1989 5.80924 24.0576 5.6543C23.9163 5.49935 23.7318 5.42188 23.5039 5.42188C23.2487 5.42188 23.0482 5.52214 22.9023 5.72266C22.7656 5.90951 22.6973 6.09863 22.6973 6.29004C22.6973 6.42676 22.7292 6.52246 22.793 6.57715C22.8613 6.63184 22.9775 6.65918 23.1416 6.65918ZM31.1807 4.19141C31.9919 4.19141 32.7074 4.39421 33.3271 4.7998C33.915 5.18717 34.209 5.66797 34.209 6.24219C34.209 6.63867 34.0723 6.95996 33.7988 7.20605C33.5436 7.43848 33.236 7.55469 32.876 7.55469C32.4977 7.55469 32.2129 7.41797 32.0215 7.14453C31.9622 7.05794 31.8757 6.83691 31.7617 6.48145C31.6387 6.09863 31.404 5.90723 31.0576 5.90723C30.807 5.90723 30.5951 6.0166 30.4219 6.23535C30.2533 6.4541 30.1689 6.72298 30.1689 7.04199C30.1689 7.58887 30.3649 8.07422 30.7568 8.49805C31.0758 8.83984 31.4769 9.01074 31.96 9.01074C32.1878 9.01074 32.3792 8.99251 32.5342 8.95605C32.6891 8.91504 32.8919 8.83529 33.1426 8.7168C33.2064 8.6849 33.277 8.66895 33.3545 8.66895C33.5094 8.66895 33.6462 8.74186 33.7646 8.8877C33.8831 9.03353 33.9424 9.20443 33.9424 9.40039C33.9424 9.60547 33.8581 9.82194 33.6895 10.0498C33.5208 10.2731 33.2998 10.4691 33.0264 10.6377C32.4339 11.0023 31.7344 11.1846 30.9277 11.1846C29.9889 11.1846 29.1891 10.9111 28.5283 10.3643C27.6807 9.67155 27.2568 8.78971 27.2568 7.71875C27.2568 6.6888 27.651 5.83659 28.4395 5.16211C29.1914 4.51497 30.1051 4.19141 31.1807 4.19141ZM38.4541 4.66309V8.63477C38.4541 8.94922 38.4814 9.17936 38.5361 9.3252C38.5954 9.47103 38.7116 9.60547 38.8848 9.72852C39.026 9.82878 39.1195 9.91536 39.165 9.98828C39.2152 10.0566 39.2402 10.1455 39.2402 10.2549C39.2402 10.8428 38.4951 11.1367 37.0049 11.1367C36.2028 11.1367 35.5671 11.0729 35.0977 10.9453C34.9382 10.8997 34.8083 10.82 34.708 10.7061C34.6123 10.5921 34.5645 10.4622 34.5645 10.3164C34.5645 10.1934 34.5895 10.0977 34.6396 10.0293C34.6898 9.96094 34.8174 9.85156 35.0225 9.70117C35.1637 9.59635 35.264 9.42546 35.3232 9.18848C35.3825 8.9515 35.4121 8.59831 35.4121 8.12891C35.4121 7.97852 35.4007 7.69824 35.3779 7.28809C35.3597 6.87337 35.346 6.63184 35.3369 6.56348C35.3096 6.37663 35.182 6.23307 34.9541 6.13281C34.6715 6.00977 34.5303 5.82747 34.5303 5.58594C34.5303 5.29883 34.7148 5.08464 35.084 4.94336C35.5944 4.7474 36.1413 4.58105 36.7246 4.44434C37.3079 4.30762 37.7591 4.23926 38.0781 4.23926C38.3288 4.23926 38.4541 4.38053 38.4541 4.66309ZM37.1006 1.66895C37.4971 1.66895 37.8115 1.74414 38.0439 1.89453C38.2764 2.04036 38.3926 2.23861 38.3926 2.48926C38.3926 2.84017 38.2171 3.11816 37.8662 3.32324C37.3102 3.64681 36.638 3.80859 35.8496 3.80859C35.5169 3.80859 35.2526 3.74479 35.0566 3.61719C34.7923 3.45312 34.6602 3.22526 34.6602 2.93359C34.6602 2.54167 34.9404 2.23405 35.501 2.01074C36.0706 1.78288 36.6038 1.66895 37.1006 1.66895ZM43.5469 4.18457C44.3398 4.18457 45.012 4.38509 45.5635 4.78613C45.8551 5.00033 46.0579 5.24642 46.1719 5.52441C46.2904 5.79785 46.3496 6.17611 46.3496 6.65918L46.3359 7.67773C46.3359 8.38411 46.3861 8.84212 46.4863 9.05176C46.5365 9.15202 46.5843 9.21582 46.6299 9.24316C46.6755 9.27051 46.7712 9.29557 46.917 9.31836C47.0628 9.34115 47.1357 9.43685 47.1357 9.60547C47.1357 9.82422 47.0469 10.0521 46.8691 10.2891C46.696 10.526 46.4704 10.7243 46.1924 10.8838C45.8506 11.0843 45.4928 11.1846 45.1191 11.1846C44.6406 11.1846 44.2624 11.0205 43.9844 10.6924C43.8887 10.5739 43.7998 10.5146 43.7178 10.5146C43.6266 10.5146 43.5059 10.5716 43.3555 10.6855C42.8997 11.0182 42.3825 11.1846 41.8037 11.1846C41.2067 11.1846 40.7236 11.057 40.3545 10.8018C40.113 10.6331 39.9215 10.4144 39.7803 10.1455C39.639 9.87207 39.5684 9.58724 39.5684 9.29102C39.5684 8.81706 39.7598 8.39779 40.1426 8.0332C40.7396 7.45898 41.6328 7.1696 42.8223 7.16504C43.0866 7.16504 43.2529 7.13997 43.3213 7.08984C43.3896 7.03516 43.4238 6.91211 43.4238 6.7207C43.4238 6.23763 43.3737 5.889 43.2734 5.6748C43.1732 5.45605 43.0091 5.34668 42.7812 5.34668C42.6445 5.34668 42.5215 5.3877 42.4121 5.46973C42.3073 5.55176 42.1751 5.70215 42.0156 5.9209C41.61 6.49967 41.1862 6.78906 40.7441 6.78906C40.5208 6.78906 40.3385 6.72298 40.1973 6.59082C40.056 6.45866 39.9854 6.28548 39.9854 6.07129C39.9854 5.85254 40.0719 5.63379 40.2451 5.41504C40.4229 5.19629 40.6621 5.00488 40.9629 4.84082C41.7878 4.40332 42.6491 4.18457 43.5469 4.18457ZM43.0889 8.14258C42.8883 8.14258 42.7129 8.22461 42.5625 8.38867C42.4167 8.55273 42.3438 8.7487 42.3438 8.97656C42.3438 9.19531 42.3962 9.37305 42.501 9.50977C42.6058 9.64193 42.7448 9.70801 42.918 9.70801C43.2826 9.70801 43.4648 9.40039 43.4648 8.78516C43.4648 8.53451 43.4375 8.36589 43.3828 8.2793C43.3327 8.19271 43.2347 8.14714 43.0889 8.14258ZM51.4902 5.5791V7.77344C51.4902 8.74414 51.5039 9.30924 51.5312 9.46875C51.5632 9.62826 51.6771 9.7513 51.873 9.83789C52.0417 9.91081 52.1533 9.97917 52.208 10.043C52.2673 10.1068 52.2969 10.1979 52.2969 10.3164C52.2969 10.4668 52.2422 10.6035 52.1328 10.7266C52.028 10.8496 51.8867 10.9362 51.709 10.9863C51.3809 11.0866 50.8271 11.1367 50.0479 11.1367C49.1683 11.1367 48.5508 11.0706 48.1953 10.9385C48.0312 10.8792 47.8968 10.7881 47.792 10.665C47.6872 10.5374 47.6348 10.4053 47.6348 10.2686C47.6348 10.1592 47.6621 10.0749 47.7168 10.0156C47.776 9.95638 47.9014 9.88574 48.0928 9.80371C48.2705 9.72624 48.3799 9.51432 48.4209 9.16797C48.4938 8.57552 48.5303 7.73242 48.5303 6.63867C48.5303 5.52669 48.4984 4.8112 48.4346 4.49219C48.3708 4.17318 48.2113 3.9362 47.9561 3.78125C47.7646 3.67188 47.6325 3.56934 47.5596 3.47363C47.4912 3.37337 47.457 3.2526 47.457 3.11133C47.457 2.88802 47.5641 2.69434 47.7783 2.53027C47.9925 2.36165 48.3343 2.20671 48.8037 2.06543C49.1182 1.96973 49.526 1.87858 50.0273 1.79199C50.5286 1.7054 50.8932 1.66211 51.1211 1.66211C51.4811 1.66211 51.6611 1.88542 51.6611 2.33203C51.6611 2.47786 51.6383 2.81283 51.5928 3.33691C51.5335 4.15267 51.4993 4.90007 51.4902 5.5791ZM54.6348 8.22461C55.0312 8.22461 55.3708 8.37272 55.6533 8.66895C55.9359 8.96061 56.0771 9.30241 56.0771 9.69434C56.0771 10.0999 55.9313 10.4508 55.6396 10.7471C55.348 11.0387 54.9993 11.1846 54.5938 11.1846C54.1973 11.1846 53.8577 11.0501 53.5752 10.7812C53.2699 10.4896 53.1172 10.1296 53.1172 9.70117C53.1172 9.30469 53.2516 8.96973 53.5205 8.69629C53.8213 8.38184 54.1927 8.22461 54.6348 8.22461ZM54.6006 1.76465C55.0062 1.76465 55.3503 1.91048 55.6328 2.20215C56.0111 2.58496 56.2002 3.12728 56.2002 3.8291C56.2002 4.29395 56.1182 4.79525 55.9541 5.33301C55.7946 5.86621 55.5804 6.34245 55.3115 6.76172C55.0062 7.23568 54.7601 7.47266 54.5732 7.47266C54.391 7.47266 54.1335 7.1696 53.8008 6.56348C53.5547 6.11686 53.3587 5.63835 53.2129 5.12793C53.0716 4.61751 53.001 4.15039 53.001 3.72656C53.001 3.20703 53.1172 2.77181 53.3496 2.4209C53.6367 1.9834 54.0537 1.76465 54.6006 1.76465Z" fill="white"/>
<path d="M7.4873 1.82617L7.23763 2.64375L7.24167 2.64496L7.4873 1.82617ZM8.11621 1.74414L8.40579 2.54852L8.41636 2.54455L8.11621 1.74414ZM9.3125 2.42773L8.61155 2.91707L8.61467 2.92148L9.3125 2.42773ZM9.59277 4.45801L8.94842 3.89626L8.94734 3.8975L9.59277 4.45801ZM7.84277 3.95898L7.2595 4.58392L7.26082 4.58514L7.84277 3.95898ZM5.61426 3.37793L5.08259 2.70843L5.07294 2.71632L5.61426 3.37793ZM6.43457 4.75879L6.67621 3.9388L6.67083 3.93725L6.43457 4.75879ZM8.24609 5.36719L8.61993 4.59842L8.61773 4.59736L8.24609 5.36719ZM8.7998 10.2412L9.32357 10.9168L9.32382 10.9166L8.7998 10.2412ZM3.77539 10.9795L3.59306 11.8147L3.59869 11.8159L3.77539 10.9795ZM2.37402 10.4873L1.89982 11.1986L1.90775 11.2038L2.37402 10.4873ZM1.7793 9.53711L0.972866 9.82085L0.976144 9.82985L1.7793 9.53711ZM1.65625 7.5957L2.32381 8.12975L2.32988 8.12198L1.65625 7.5957ZM2.58594 7.64355L1.94973 8.21451L1.95851 8.22429L1.96759 8.2338L2.58594 7.64355ZM3.2627 8.60742L2.54775 9.07604L2.54947 9.07866L3.2627 8.60742ZM4.0625 9.24316L3.70365 10.019L3.70732 10.0207L4.0625 9.24316ZM6.02441 9.31152L6.45719 10.0488L6.46888 10.0417L6.02441 9.31152ZM5.29297 7.98535L5.03637 8.80078L5.04086 8.80217L5.29297 7.98535ZM3.80273 7.4248L3.41636 8.1874L3.42453 8.19143L3.80273 7.4248ZM2.8457 6.77539L2.27878 7.41521L2.28209 7.41811L2.8457 6.77539ZM2.0459 3.43262L2.81234 3.81122L2.81411 3.80758L2.0459 3.43262ZM2.83887 2.44141L3.37832 3.10467L3.38842 3.09619L2.83887 2.44141ZM5.6416 2.33238C5.98776 2.33238 6.5096 2.4214 7.23763 2.64374L7.73698 1.00861C6.94287 0.766096 6.23424 0.6227 5.6416 0.6227V2.33238ZM7.24167 2.64496C7.3629 2.68133 7.5287 2.72203 7.70605 2.72203V1.01235C7.72747 1.01235 7.74342 1.01366 7.75269 1.01465C7.76213 1.01566 7.76741 1.01665 7.76789 1.01674C7.76847 1.01685 7.76582 1.01636 7.75957 1.0148C7.75339 1.01325 7.74458 1.01088 7.73294 1.00739L7.24167 2.64496ZM7.70605 2.72203C7.81687 2.72203 7.91072 2.70119 7.94497 2.69349C7.99456 2.68233 8.04392 2.66856 8.08841 2.65521C8.17818 2.62828 8.28579 2.59164 8.40576 2.54845L7.82666 0.939834C7.71877 0.978676 7.64408 1.00356 7.59714 1.01764C7.57327 1.0248 7.56566 1.02641 7.56968 1.02551C7.57194 1.025 7.58309 1.02251 7.60061 1.01988C7.61496 1.01773 7.6536 1.01235 7.70605 1.01235V2.72203ZM8.41636 2.54455C8.38826 2.55509 8.36358 2.55796 8.34863 2.55796V0.848286C8.16963 0.848286 7.99 0.878502 7.81606 0.94373L8.41636 2.54455ZM8.34863 2.55796C8.26499 2.55796 8.24563 2.52299 8.30493 2.56757C8.3681 2.61506 8.47292 2.71845 8.61157 2.91706L10.0134 1.9384C9.65533 1.42545 9.11006 0.848286 8.34863 0.848286V2.55796ZM8.61467 2.92148C8.88967 3.31014 8.97036 3.60063 8.97036 3.80859H10.68C10.68 3.14156 10.4189 2.51148 10.0103 1.93399L8.61467 2.92148ZM8.97036 3.80859C8.97036 3.87566 8.95604 3.88753 8.94842 3.89626L10.2371 5.01975C10.5394 4.67302 10.68 4.25194 10.68 3.80859H8.97036ZM8.94734 3.8975C8.94056 3.90531 8.95005 3.89227 8.97849 3.87893C8.9917 3.87273 9.00508 3.86836 9.01728 3.86574C9.02928 3.86317 9.03706 3.86293 9.03906 3.86293V5.57261C9.5188 5.57261 9.93443 5.36832 10.2382 5.01851L8.94734 3.8975ZM9.03906 3.86293C9.00385 3.86293 8.9913 3.85931 8.99558 3.86037C9.001 3.8617 9.02424 3.86837 9.05553 3.88839L8.13392 5.3284C8.42552 5.51502 8.74865 5.57261 9.03906 5.57261V3.86293ZM9.05553 3.88839C9.05578 3.88855 9.00597 3.85316 8.88003 3.7444C8.76577 3.64572 8.61471 3.50939 8.42473 3.33283L7.26082 4.58514C7.62781 4.92623 7.94074 5.20477 8.13392 5.3284L9.05553 3.88839ZM8.42605 3.33405C7.78661 2.73724 7.05036 2.33852 6.22949 2.33852V4.0482C6.46592 4.0482 6.80519 4.15989 7.2595 4.58392L8.42605 3.33405ZM6.22949 2.33852C5.83783 2.33852 5.42783 2.43438 5.08265 2.7085L6.14587 4.04736C6.13161 4.05869 6.12272 4.06045 6.12991 4.05829C6.1392 4.0555 6.16963 4.0482 6.22949 4.0482V2.33852ZM5.07294 2.71632C4.7169 3.00763 4.53383 3.41584 4.53383 3.86328H6.24351C6.24351 3.87199 6.24129 3.90662 6.22027 3.95186C6.19888 3.99787 6.17101 4.02691 6.15557 4.03954L5.07294 2.71632ZM4.53383 3.86328C4.53383 4.35185 4.76337 4.75062 5.09417 5.03386C5.39992 5.29564 5.79293 5.46375 6.19831 5.58033L6.67083 3.93725C6.37895 3.85331 6.24901 3.7719 6.20612 3.73518C6.18999 3.72137 6.20238 3.72758 6.21813 3.75898C6.23544 3.79349 6.24351 3.83205 6.24351 3.86328H4.53383ZM6.19293 5.57877C7.15316 5.86173 7.68521 6.04566 7.87445 6.13701L8.61773 4.59736C8.27833 4.43351 7.6027 4.21184 6.67621 3.93881L6.19293 5.57877ZM7.87226 6.13595C8.35743 6.37188 8.6654 6.63627 8.85271 6.90437C9.03457 7.16469 9.13442 7.47307 9.13442 7.8623H10.8441C10.8441 7.15323 10.6534 6.4966 10.2542 5.92522C9.86048 5.36162 9.29687 4.9276 8.61992 4.59842L7.87226 6.13595ZM9.13442 7.8623C9.13442 8.55857 8.86832 9.10609 8.27579 9.56582L9.32382 10.9166C10.3172 10.1459 10.8441 9.10745 10.8441 7.8623H9.13442ZM8.27604 9.56563C7.65161 10.0497 6.79207 10.3297 5.62109 10.3297V12.0394C7.066 12.0394 8.32561 11.6905 9.32357 10.9168L8.27604 9.56563ZM5.62109 10.3297C5.10442 10.3297 4.54871 10.2692 3.95209 10.1431L3.59869 11.8159C4.29635 11.9633 4.9711 12.0394 5.62109 12.0394V10.3297ZM3.95772 10.1443C3.33535 10.0085 2.99323 9.87036 2.8403 9.77083L1.90775 11.2038C2.32903 11.478 2.92116 11.668 3.59307 11.8147L3.95772 10.1443ZM2.8482 9.77604C2.87273 9.79239 2.84587 9.78268 2.78589 9.68685C2.72807 9.59448 2.65811 9.45194 2.58245 9.24437L0.976144 9.82985C1.16521 10.3486 1.44058 10.8924 1.89984 11.1986L2.8482 9.77604ZM2.58568 9.25338C2.44068 8.8413 2.37437 8.45871 2.37437 8.10156H0.664693C0.664693 8.67411 0.771557 9.24855 0.972917 9.82084L2.58568 9.25338ZM2.37437 8.10156C2.37437 8.07451 2.37577 8.05535 2.37719 8.04307C2.37862 8.03077 2.37988 8.02719 2.37894 8.03065C2.37701 8.03779 2.36456 8.07873 2.32377 8.12972L0.988733 7.06169C0.726781 7.38913 0.664693 7.78201 0.664693 8.10156H2.37437ZM2.32988 8.12198C2.32127 8.13301 2.29186 8.16567 2.23649 8.1938C2.17938 8.22281 2.12446 8.23179 2.08691 8.23179V6.52211C1.63041 6.52211 1.24571 6.73266 0.982616 7.06943L2.32988 8.12198ZM2.08691 8.23179C2.05619 8.23179 2.02634 8.22774 1.99906 8.2206C1.97211 8.21354 1.95183 8.20458 1.93874 8.19759C1.91416 8.18445 1.91958 8.18091 1.94973 8.21451L3.22214 7.0726C2.96431 6.7853 2.58431 6.52211 2.08691 6.52211V8.23179ZM1.96759 8.2338C1.96435 8.23041 2.00986 8.28367 2.12729 8.45093C2.2326 8.60091 2.37225 8.80829 2.54775 9.07604L3.97764 8.1388C3.79767 7.86423 3.6468 7.63981 3.52652 7.4685C3.41837 7.31447 3.30323 7.15696 3.20429 7.05331L1.96759 8.2338ZM2.54947 9.07866C2.82905 9.50179 3.23909 9.80418 3.70366 10.019L4.42134 8.46729C4.15674 8.34491 4.03358 8.22347 3.97592 8.13619L2.54947 9.07866ZM3.70732 10.0207C4.18389 10.2384 4.68523 10.3509 5.2041 10.3509V8.64126C4.93912 8.64126 4.67939 8.58515 4.41768 8.46561L3.70732 10.0207ZM5.2041 10.3509C5.63722 10.3509 6.07505 10.273 6.45713 10.0487L5.59169 8.5743C5.5545 8.59613 5.44546 8.64126 5.2041 8.64126V10.3509ZM6.46888 10.0417C6.85924 9.80412 7.19371 9.39803 7.19371 8.82617H5.48403C5.48403 8.7621 5.50398 8.68963 5.54283 8.62967C5.57669 8.57741 5.60402 8.56666 5.57994 8.58132L6.46888 10.0417ZM7.19371 8.82617C7.19371 8.34314 6.95933 7.95485 6.62904 7.68878L5.55651 9.0202C5.5638 9.02608 5.54216 9.01046 5.51946 8.96695C5.49496 8.92 5.48403 8.86873 5.48403 8.82617H7.19371ZM6.62904 7.68878C6.33727 7.45375 5.94603 7.29229 5.54507 7.16853L5.04086 8.80217C5.37819 8.90628 5.52015 8.99091 5.55651 9.0202L6.62904 7.68878ZM5.54957 7.16993C4.91244 6.96944 4.46432 6.79798 4.18094 6.65818L3.42453 8.19143C3.82474 8.38887 4.37011 8.59111 5.03637 8.80077L5.54957 7.16993ZM4.18909 6.66226C3.91295 6.52235 3.65324 6.34657 3.40932 6.13267L2.28209 7.41811C2.63062 7.72374 3.00892 7.98091 3.41638 8.18735L4.18909 6.66226ZM3.41262 6.13558C2.83836 5.62675 2.62046 5.12234 2.62046 4.60156H0.910786C0.910786 5.70319 1.41294 6.64799 2.27879 7.4152L3.41262 6.13558ZM2.62046 4.60156C2.62046 4.33867 2.68053 4.07802 2.81233 3.81121L1.27947 3.05402C1.03757 3.54372 0.910786 4.06237 0.910786 4.60156H2.62046ZM2.81411 3.80758C2.94463 3.54017 3.12936 3.30702 3.37825 3.10459L2.29948 1.77822C1.86478 2.13178 1.52086 2.55943 1.27768 3.05766L2.81411 3.80758ZM3.38842 3.09619C3.98387 2.59644 4.71751 2.33238 5.6416 2.33238V0.6227C4.35996 0.6227 3.22512 1.00122 2.28932 1.78662L3.38842 3.09619ZM13.8857 4.22559V3.37066L13.8739 3.37083L13.8857 4.22559ZM14.4053 4.30078L13.8998 4.99013L13.9152 5.00144L13.9311 5.01205L14.4053 4.30078ZM15.1299 4.64941L15.6041 5.36069L15.6079 5.35814L15.1299 4.64941ZM15.875 4.32129L16.1115 5.14281L16.1195 5.14041L15.875 4.32129ZM18.2539 4.78613L18.8192 4.1449L18.8186 4.14439L18.2539 4.78613ZM19.0605 5.94141L19.8512 5.6163L19.851 5.61593L19.0605 5.94141ZM18.1992 10.3164L17.6076 9.69936L17.6042 9.70265L18.1992 10.3164ZM14.9248 12.0459L15.4023 11.3368L15.3959 11.3326L14.9248 12.0459ZM15.3213 12.3467L14.6597 12.888L14.6646 12.8939L15.3213 12.3467ZM14.9316 13.2422L14.5632 12.4708L14.5539 12.4753L14.9316 13.2422ZM11.042 12.873L11.4445 12.1189L11.4424 12.1178L11.042 12.873ZM10.5566 11.8135L9.91065 11.2536L9.89088 11.2764L9.87277 11.3006L10.5566 11.8135ZM10.8916 11.5947L10.5334 10.8185L10.5266 10.8217L10.8916 11.5947ZM11.3223 11L10.4824 10.84L10.4802 10.853L11.3223 11ZM11.4453 8.52539L12.3 8.54254L12.3004 8.52181L12.2998 8.50108L11.4453 8.52539ZM11.3223 6.63867L12.1249 6.34439L12.1206 6.33273L12.116 6.32119L11.3223 6.63867ZM11.2402 6.5498L10.9035 7.33553L10.9216 7.34329L10.9401 7.35021L11.2402 6.5498ZM10.9053 6.47461L11.0652 5.63486L11.0628 5.63441L10.9053 6.47461ZM10.5498 6.27637L9.8931 6.82362L9.89885 6.83052L9.90474 6.83729L10.5498 6.27637ZM10.6045 5.4082L11.2295 5.99155L11.2389 5.98119L10.6045 5.4082ZM11.2266 4.99805L10.8738 4.21938L10.8691 4.22153L11.2266 4.99805ZM14.5625 6.80957L13.7094 6.75511L13.7089 6.76301L14.5625 6.80957ZM14.46 8.68945L15.3133 8.73965L15.3135 8.73601L14.46 8.68945ZM14.6377 9.25684L14.1457 9.95593L14.6377 9.25684ZM15.6768 6.41992L16.2914 5.82579L16.2894 5.8238L15.6768 6.41992ZM13.8857 5.08042C13.9429 5.08042 13.9897 5.08172 14.0272 5.08381C14.0653 5.08592 14.0892 5.0886 14.1017 5.09041C14.1159 5.09247 14.1059 5.09206 14.0803 5.08408C14.0666 5.07983 14.0438 5.07197 14.015 5.05863C13.9867 5.0455 13.9458 5.02391 13.8998 4.99013L14.9108 3.61143C14.6961 3.45398 14.454 3.41391 14.3466 3.39836C14.203 3.37758 14.0449 3.37075 13.8857 3.37075V5.08042ZM13.9311 5.01205C13.7306 4.87841 13.6727 4.70185 13.6608 4.66076C13.647 4.61284 13.653 4.60172 13.653 4.65625H15.3627C15.3627 4.51938 15.3515 4.35331 15.3035 4.1869C15.2575 4.02732 15.1483 3.76873 14.8795 3.58951L13.9311 5.01205ZM13.653 4.65625C13.653 4.80564 13.6722 5.06539 13.8317 5.31114C14.0325 5.62077 14.358 5.76402 14.6719 5.76402V4.05434C14.7553 4.05434 14.8699 4.07092 14.9908 4.13305C15.1147 4.19674 15.206 4.2882 15.266 4.38075C15.3223 4.46755 15.3445 4.54435 15.3536 4.58625C15.3628 4.62872 15.3627 4.65486 15.3627 4.65625H13.653ZM14.6719 5.76402C14.8796 5.76402 15.0444 5.68676 15.0683 5.67632C15.1317 5.64864 15.192 5.6163 15.2423 5.58781C15.3451 5.52949 15.468 5.45138 15.6041 5.36068L14.6557 3.93815C14.5953 3.97841 14.5434 4.01211 14.4996 4.03974C14.4552 4.06767 14.4221 4.08745 14.3988 4.10067C14.3874 4.10717 14.3801 4.11105 14.3764 4.11293C14.3723 4.11504 14.3753 4.11335 14.384 4.10957C14.3909 4.10653 14.4142 4.09656 14.4489 4.08616C14.467 4.08076 14.4938 4.07354 14.5273 4.06738C14.5597 4.06144 14.6097 4.05434 14.6719 4.05434V5.76402ZM15.6079 5.35814C15.7101 5.28916 15.8705 5.21214 16.1115 5.14277L15.6385 3.49981C15.2779 3.60361 14.9416 3.74534 14.6519 3.94069L15.6079 5.35814ZM16.1195 5.14041C16.3675 5.06637 16.5591 5.03941 16.7021 5.03941V3.32973C16.353 3.32973 15.9931 3.39391 15.6305 3.50217L16.1195 5.14041ZM16.7021 5.03941C17.0622 5.03941 17.3812 5.15684 17.6892 5.42787L18.8186 4.14439C18.2152 3.61334 17.4997 3.32973 16.7021 3.32973V5.03941ZM17.6886 5.42737C17.9282 5.6386 18.1241 5.91222 18.2701 6.26689L19.851 5.61593C19.6142 5.04091 19.2723 4.54434 18.8192 4.1449L17.6886 5.42737ZM18.2699 6.26651C18.4272 6.64892 18.5065 7.05098 18.5065 7.47949H20.2162C20.2162 6.83249 20.0949 6.20916 19.8512 5.6163L18.2699 6.26651ZM18.5065 7.47949C18.5065 8.41315 18.2015 9.12992 17.6076 9.69937L18.7908 10.9334C19.7464 10.0172 20.2162 8.84271 20.2162 7.47949H18.5065ZM17.6042 9.70265C17.1505 10.1425 16.6795 10.3297 16.1621 10.3297V12.0394C17.1669 12.0394 18.0539 11.6479 18.7942 10.9302L17.6042 9.70265ZM16.1621 10.3297C15.9119 10.3297 15.6311 10.2713 15.313 10.13L14.6186 11.6923C15.1209 11.9155 15.6376 12.0394 16.1621 12.0394V10.3297ZM15.313 10.13C15.1946 10.0774 14.9973 10.0016 14.7676 10.0016V11.7113C14.6935 11.7113 14.6433 11.6986 14.6274 11.6942C14.6092 11.6892 14.6053 11.6864 14.6186 11.6923L15.313 10.13ZM14.7676 10.0016C14.5838 10.0016 14.3849 10.05 14.2037 10.1708C14.0278 10.2881 13.917 10.4411 13.8492 10.5767C13.7257 10.8237 13.7077 11.0862 13.7077 11.2666H15.4173C15.4173 11.1735 15.4335 11.231 15.3784 11.3413C15.3447 11.4085 15.2766 11.5103 15.152 11.5933C15.0221 11.68 14.883 11.7113 14.7676 11.7113V10.0016ZM13.7077 11.2666C13.7077 11.8341 13.913 12.4021 14.4537 12.7592L15.3959 11.3326C15.3979 11.3339 15.4049 11.3391 15.4131 11.3485C15.4213 11.3581 15.4262 11.3667 15.4282 11.3711C15.432 11.3792 15.4173 11.3531 15.4173 11.2666H13.7077ZM14.4473 12.7549C14.5527 12.8259 14.6268 12.8786 14.6748 12.9149C14.6988 12.9331 14.7102 12.9428 14.7129 12.9451C14.714 12.9461 14.71 12.9427 14.7026 12.9354C14.6962 12.9291 14.68 12.9128 14.6597 12.888L15.9829 11.8054C15.8903 11.6922 15.7699 11.5998 15.7081 11.5528C15.6238 11.489 15.5202 11.4163 15.4023 11.3369L14.4473 12.7549ZM14.6646 12.8939C14.5862 12.7998 14.5559 12.711 14.5445 12.6667C14.5332 12.6228 14.5348 12.6007 14.5348 12.6133H16.2445C16.2445 12.4224 16.2163 12.0854 15.978 11.7994L14.6646 12.8939ZM14.5348 12.6133C14.5348 12.6012 14.5367 12.5781 14.5459 12.5488C14.5553 12.519 14.5693 12.4928 14.5841 12.4723C14.613 12.4327 14.6256 12.441 14.5632 12.4708L15.3001 14.0136C15.543 13.8975 15.7846 13.7281 15.9662 13.4788C16.155 13.2196 16.2445 12.9204 16.2445 12.6133H14.5348ZM14.5539 12.4753C14.4178 12.5424 14.138 12.6129 13.6396 12.6129V14.3226C14.2533 14.3226 14.8348 14.2428 15.3094 14.0091L14.5539 12.4753ZM13.6396 12.6129C12.7666 12.6129 12.0435 12.4386 11.4445 12.1189L10.6395 13.6272C11.5261 14.1004 12.5348 14.3226 13.6396 14.3226V12.6129ZM11.4424 12.1178C11.3856 12.0877 11.3478 12.062 11.3242 12.0433C11.3007 12.0247 11.2943 12.0155 11.2966 12.0185C11.2995 12.0224 11.3092 12.0366 11.3176 12.0607C11.3261 12.0853 11.3294 12.1092 11.3294 12.1279H9.61977C9.61977 12.8723 10.1234 13.3536 10.6416 13.6283L11.4424 12.1178ZM11.3294 12.1279C11.3294 12.1143 11.331 12.1289 11.3223 12.1626C11.3131 12.1977 11.2911 12.259 11.2405 12.3264L9.87277 11.3006C9.66394 11.579 9.61977 11.8942 9.61977 12.1279H11.3294ZM11.2026 12.3733C11.1805 12.3989 11.1629 12.4142 11.1556 12.4202C11.1479 12.4265 11.1459 12.4274 11.1522 12.4233C11.1583 12.4193 11.1697 12.4123 11.1877 12.4024C11.2056 12.3927 11.2284 12.3811 11.2566 12.3677L10.5266 10.8217C10.3416 10.9091 10.0924 11.0439 9.91065 11.2536L11.2026 12.3733ZM11.2498 12.3709C11.7744 12.1288 12.0725 11.6729 12.1644 11.147L10.4802 10.853C10.4732 10.8927 10.467 10.8869 10.4846 10.8626C10.4929 10.8512 10.5033 10.8402 10.5144 10.8312C10.5253 10.8225 10.5328 10.8188 10.5334 10.8186L11.2498 12.3709ZM12.162 11.16C12.2336 10.7843 12.2733 9.87074 12.3 8.54254L10.5906 8.50824C10.5626 9.9053 10.5204 10.6414 10.4825 10.84L12.162 11.16ZM12.2998 8.50108C12.2837 7.93676 12.2652 7.48717 12.2437 7.15726C12.2329 6.99305 12.221 6.84965 12.207 6.73244C12.1965 6.64446 12.1764 6.48499 12.1249 6.34439L10.5197 6.93295C10.4932 6.86071 10.497 6.83113 10.5093 6.93455C10.5181 7.00875 10.5278 7.11827 10.5376 7.26852C10.5571 7.56752 10.575 7.99292 10.5908 8.54971L12.2998 8.50108ZM12.116 6.32119C12.0333 6.11458 11.8578 5.86843 11.5404 5.74939L10.9401 7.35021C10.6956 7.25852 10.5748 7.07161 10.5286 6.95615L12.116 6.32119ZM11.577 5.76408C11.4748 5.72029 11.3571 5.69505 11.3198 5.68667C11.2508 5.67118 11.1647 5.65381 11.0652 5.63487L10.7453 7.31435C10.8373 7.33186 10.9027 7.34526 10.9453 7.35483C10.9555 7.35713 10.9635 7.35899 10.9694 7.36043C10.9724 7.36114 10.9746 7.3617 10.9762 7.36211C10.977 7.36231 10.9776 7.36247 10.9781 7.36258C10.9785 7.36268 10.9787 7.36274 10.9787 7.36273C10.9786 7.36273 10.9784 7.36266 10.9779 7.36252C10.9774 7.36238 10.9766 7.36216 10.9755 7.36185C10.9735 7.36127 10.9699 7.3602 10.965 7.35862C10.9582 7.35645 10.9347 7.3489 10.9035 7.33553L11.577 5.76408ZM11.0628 5.63441C11.0722 5.63617 11.0948 5.642 11.1234 5.65796C11.1526 5.67426 11.1771 5.695 11.1949 5.71544L9.90474 6.83729C10.1312 7.09775 10.4264 7.25456 10.7477 7.31481L11.0628 5.63441ZM11.2065 5.72911C11.224 5.75011 11.2417 5.77921 11.2539 5.8139C11.2658 5.84795 11.2679 5.87444 11.2679 5.88672H9.55825C9.55825 6.22491 9.66634 6.55151 9.8931 6.82362L11.2065 5.72911ZM11.2679 5.88672C11.2679 5.8976 11.2655 5.92057 11.2546 5.94785C11.2439 5.97476 11.2314 5.98933 11.2294 5.99148L9.97956 4.82493C9.70846 5.1154 9.55825 5.48177 9.55825 5.88672H11.2679ZM11.2389 5.98119C11.2541 5.96428 11.3416 5.88615 11.584 5.77457L10.8691 4.22153C10.5373 4.37427 10.21 4.56957 9.97011 4.83522L11.2389 5.98119ZM11.5793 5.7767C12.6656 5.28454 13.4213 5.08696 13.8976 5.08034L13.8739 3.37083C13.0377 3.38244 12.0206 3.69983 10.8738 4.2194L11.5793 5.7767ZM13.7089 6.76301L13.6064 8.64289L15.3135 8.73601L15.4161 6.85613L13.7089 6.76301ZM13.6066 8.63926C13.6011 8.73238 13.5983 8.82435 13.5983 8.91504H15.308C15.308 8.85989 15.3097 8.80147 15.3133 8.73965L13.6066 8.63926ZM13.5983 8.91504C13.5983 9.35516 13.8126 9.7215 14.1457 9.95593L15.1296 8.55774C15.1589 8.57829 15.2099 8.62327 15.2514 8.70027C15.2941 8.77922 15.308 8.85709 15.308 8.91504H13.5983ZM14.1457 9.95593C14.4567 10.1747 14.8112 10.2416 15.1299 10.2416V8.53188C15.1085 8.53188 15.0933 8.53074 15.0833 8.52958C15.0735 8.52842 15.0698 8.52734 15.0711 8.5277C15.0726 8.5281 15.0794 8.53001 15.09 8.53481C15.1008 8.53967 15.1145 8.54706 15.1296 8.55774L14.1457 9.95593ZM15.1299 10.2416C15.7287 10.2416 16.2483 9.96842 16.5679 9.44284C16.8455 8.9861 16.9281 8.41098 16.9281 7.83496H15.2184C15.2184 8.29344 15.1437 8.49421 15.107 8.55472C15.0962 8.57233 15.1023 8.55627 15.1316 8.54018C15.1595 8.52491 15.1679 8.53188 15.1299 8.53188V10.2416ZM16.9281 7.83496C16.9281 7.0983 16.7915 6.34311 16.2914 5.82579L15.0621 7.01405C15.0907 7.0436 15.2184 7.23178 15.2184 7.83496H16.9281ZM16.2894 5.8238C15.9703 5.4958 15.5558 5.31215 15.0889 5.31215V7.02183C15.0929 7.02183 15.0918 7.02217 15.087 7.02121C15.082 7.02022 15.0756 7.01836 15.0689 7.01547C15.0622 7.0126 15.0579 7.00987 15.0563 7.00874C15.0549 7.00773 15.0576 7.00943 15.0641 7.01605L16.2894 5.8238ZM15.0889 5.31215C14.7191 5.31215 14.3317 5.44613 14.0533 5.78594C13.8054 6.08862 13.7286 6.45412 13.7094 6.75512L15.4156 6.86402C15.4192 6.80802 15.4262 6.78514 15.426 6.78572C15.4255 6.78727 15.4141 6.82265 15.3759 6.86934C15.3346 6.91972 15.2774 6.96426 15.2111 6.99269C15.1486 7.01953 15.1021 7.02183 15.0889 7.02183V5.31215ZM23.2305 8.96289L22.685 9.62121L22.6953 9.62949L23.2305 8.96289ZM24.9941 9.22949L25.2475 10.046L25.2562 10.0432L24.9941 9.22949ZM25.6572 8.91504L25.1643 8.21666L25.1621 8.21819L25.6572 8.91504ZM25.9307 10.3711L25.4202 9.6854L25.4184 9.68671L25.9307 10.3711ZM21.0156 10.3506L20.4547 10.9957L20.4586 10.999L21.0156 10.3506ZM20.2363 9.35938L19.4785 9.75503L19.4808 9.75934L20.2363 9.35938ZM20.5303 5.66797L21.2105 6.18573L21.2113 6.18462L20.5303 5.66797ZM22.0615 4.48535L22.392 5.27375L22.3936 5.27306L22.0615 4.48535ZM25.7803 4.92969L25.2414 5.5933L25.2438 5.59526L25.7803 4.92969ZM26.5186 5.80469L25.7708 6.21898L25.7726 6.22209L26.5186 5.80469ZM26.6553 7.65723L27.3693 8.12741L27.3743 8.11949L26.6553 7.65723ZM22.9023 5.72266L23.5922 6.22745L23.5937 6.22545L22.9023 5.72266ZM22.793 6.57715L22.2366 7.22619L22.2476 7.23562L22.259 7.24467L22.793 6.57715ZM26.1768 7.08266H22.9639V8.79234H26.1768V7.08266ZM22.9639 7.08266C22.7882 7.08266 22.4968 7.11836 22.2435 7.33902C21.9676 7.57934 21.8971 7.89568 21.8971 8.12207H23.6068C23.6068 8.22541 23.5717 8.44946 23.3664 8.62826C23.1837 8.7874 22.9982 8.79234 22.9639 8.79234V7.08266ZM21.8971 8.12207C21.8971 8.76278 22.2518 9.26218 22.6851 9.62113L23.7759 8.30465C23.6743 8.22051 23.631 8.1605 23.6145 8.13163C23.6014 8.10859 23.6068 8.10897 23.6068 8.12207H21.8971ZM22.6953 9.62949C23.1507 9.9951 23.6817 10.2074 24.2695 10.2074V8.4977C24.1191 8.4977 23.9574 8.45021 23.7656 8.29629L22.6953 9.62949ZM24.2695 10.2074C24.5934 10.2074 24.9218 10.147 25.2475 10.0459L24.7408 8.41307C24.5378 8.47605 24.3831 8.4977 24.2695 8.4977V10.2074ZM25.2562 10.0432C25.5826 9.93806 25.8888 9.79912 26.1524 9.61189L25.1621 8.21819C25.0793 8.27705 24.9434 8.34775 24.7321 8.4158L25.2562 10.0432ZM26.1502 9.61341C26.1989 9.57906 26.2186 9.57063 26.2129 9.57315C26.2089 9.57492 26.1919 9.58224 26.1635 9.5895C26.1353 9.59671 26.0881 9.60581 26.0264 9.60581V7.89614C25.6495 7.89614 25.3364 8.09514 25.1643 8.21666L26.1502 9.61341ZM26.0264 9.60581C25.9008 9.60581 25.8042 9.56498 25.7481 9.52977C25.6985 9.49868 25.6855 9.47574 25.7014 9.496L27.0486 8.44345C26.8648 8.20816 26.5281 7.89614 26.0264 7.89614V9.60581ZM25.7014 9.496C25.7132 9.51118 25.7099 9.51096 25.7038 9.4947C25.697 9.47687 25.6911 9.45079 25.6911 9.4209H27.4007C27.4007 9.04011 27.2564 8.70934 27.0486 8.44345L25.7014 9.496ZM25.6911 9.4209C25.6911 9.39646 25.7012 9.39869 25.6745 9.43993C25.6431 9.48847 25.5707 9.57333 25.4202 9.6854L26.4411 11.0568C26.9444 10.6822 27.4007 10.143 27.4007 9.4209H25.6911ZM25.4184 9.68671C24.849 10.1129 24.1945 10.3297 23.4219 10.3297V12.0394C24.5451 12.0394 25.5631 11.7139 26.4429 11.0555L25.4184 9.68671ZM23.4219 10.3297C22.6427 10.3297 22.0458 10.1086 21.5727 9.70219L20.4586 10.999C21.2798 11.7045 22.287 12.0394 23.4219 12.0394V10.3297ZM21.5766 9.70552C21.3455 9.50465 21.1503 9.25868 20.9918 8.95941L19.4808 9.75934C19.7325 10.2348 20.0568 10.6497 20.4547 10.9957L21.5766 9.70552ZM20.9941 8.96373C20.7877 8.56837 20.6878 8.1615 20.6878 7.73242H18.9782C18.9782 8.44267 19.1472 9.12043 19.4786 9.75502L20.9941 8.96373ZM20.6878 7.73242C20.6878 7.15433 20.8586 6.64796 21.2105 6.18573L19.8501 5.15021C19.2722 5.90933 18.9782 6.77926 18.9782 7.73242H20.6878ZM21.2113 6.18462C21.5202 5.77743 21.909 5.47614 22.392 5.27375L21.7311 3.69696C20.9744 4.01409 20.3424 4.50122 19.8492 5.15132L21.2113 6.18462ZM22.3936 5.27306C22.7456 5.12464 23.1354 5.04625 23.5723 5.04625V3.33657C22.9245 3.33657 22.3071 3.45413 21.7295 3.69765L22.3936 5.27306ZM23.5723 5.04625C24.2647 5.04625 24.8044 5.23843 25.2414 5.59329L26.3191 4.26608C25.5439 3.63657 24.6117 3.33657 23.5723 3.33657V5.04625ZM25.2438 5.59526C25.4647 5.77325 25.6384 5.98005 25.7708 6.21898L27.2663 5.3904C27.025 4.95485 26.7065 4.57831 26.3167 4.26411L25.2438 5.59526ZM25.7726 6.22209C25.9298 6.50321 25.985 6.73436 25.985 6.92578H27.6947C27.6947 6.38804 27.5357 5.87179 27.2646 5.38728L25.7726 6.22209ZM25.985 6.92578C25.985 7.1068 25.9475 7.17738 25.9362 7.19497L27.3743 8.11949C27.6091 7.75426 27.6947 7.33721 27.6947 6.92578H25.985ZM25.9413 7.18707C25.937 7.19362 25.9565 7.16194 26.0113 7.12981C26.0706 7.09511 26.1324 7.08266 26.1768 7.08266V8.79234C26.7048 8.79234 27.1142 8.51458 27.3692 8.12738L25.9413 7.18707ZM23.1416 7.51402H23.832V5.80434H23.1416V7.51402ZM23.832 7.51402C24.0932 7.51402 24.4484 7.45529 24.7396 7.18686C25.0439 6.90632 25.1244 6.54074 25.1244 6.25586H23.4147C23.4147 6.23986 23.4223 6.07594 23.5807 5.92983C23.7261 5.79585 23.8626 5.80434 23.832 5.80434V7.51402ZM25.1244 6.25586C25.1244 5.836 24.9986 5.41758 24.6893 5.07835L23.4259 6.23025C23.423 6.22705 23.4194 6.22242 23.4161 6.21679C23.4127 6.21118 23.4109 6.20682 23.4103 6.20493C23.4088 6.20082 23.4147 6.21459 23.4147 6.25586H25.1244ZM24.6893 5.07835C24.371 4.72921 23.9489 4.56704 23.5039 4.56704V6.27671C23.5199 6.27671 23.5084 6.27911 23.4824 6.2682C23.4701 6.26304 23.458 6.25631 23.4471 6.24855C23.4364 6.24087 23.4294 6.23405 23.4259 6.23025L24.6893 5.07835ZM23.5039 4.56704C22.9847 4.56704 22.5232 4.79061 22.211 5.21986L23.5937 6.22545C23.5951 6.22347 23.5918 6.22838 23.5825 6.2365C23.5729 6.24485 23.5599 6.25391 23.5444 6.26166C23.5105 6.27862 23.4905 6.27671 23.5039 6.27671V4.56704ZM22.2125 5.21787C21.9915 5.51979 21.8424 5.88173 21.8424 6.29004H23.5521C23.5521 6.29836 23.5502 6.30137 23.5525 6.29522C23.5552 6.28765 23.5648 6.26495 23.5922 6.22745L22.2125 5.21787ZM21.8424 6.29004C21.8424 6.52313 21.8918 6.93061 22.2366 7.22619L23.3493 5.92811C23.4566 6.02013 23.509 6.1245 23.5322 6.19403C23.5535 6.25813 23.5521 6.2969 23.5521 6.29004H21.8424ZM22.259 7.24467C22.5638 7.48852 22.931 7.51402 23.1416 7.51402V5.80434C23.1028 5.80434 23.1023 5.8007 23.1272 5.80656C23.1502 5.81196 23.2328 5.83431 23.327 5.90963L22.259 7.24467ZM33.3271 4.7998L33.7975 4.08599L33.7952 4.08452L33.3271 4.7998ZM33.7988 7.20605L33.227 6.57065L33.2232 6.57404L33.7988 7.20605ZM32.0215 7.14453L31.3159 7.62727L31.3212 7.63475L32.0215 7.14453ZM31.7617 6.48145L32.5758 6.22053L32.5756 6.21986L31.7617 6.48145ZM30.4219 6.23535L29.7516 5.70471L29.7448 5.71347L30.4219 6.23535ZM30.7568 8.49805L30.1292 9.07843L30.1319 9.08132L30.7568 8.49805ZM32.5342 8.95605L32.73 9.78817L32.7415 9.78546L32.7529 9.78243L32.5342 8.95605ZM33.1426 8.7168L33.5079 9.48963L33.5164 9.4856L33.5249 9.48139L33.1426 8.7168ZM33.7646 8.8877L34.4281 8.34864L33.7646 8.8877ZM33.6895 10.0498L34.3717 10.565L34.3766 10.5583L33.6895 10.0498ZM33.0264 10.6377L33.4744 11.3657L33.4751 11.3653L33.0264 10.6377ZM28.5283 10.3643L29.0733 9.70568L29.0692 9.70233L28.5283 10.3643ZM28.4395 5.16211L28.9952 5.81168L28.9971 5.81004L28.4395 5.16211ZM31.1807 5.04625C31.842 5.04625 32.3916 5.20917 32.8591 5.51509L33.7952 4.08452C33.0231 3.57925 32.1417 3.33657 31.1807 3.33657V5.04625ZM32.8568 5.51362C33.2667 5.78371 33.3541 6.02255 33.3541 6.24219H35.0638C35.0638 5.31339 34.5634 4.59064 33.7975 4.08599L32.8568 5.51362ZM33.3541 6.24219C33.3541 6.41752 33.3051 6.50033 33.227 6.57066L34.3707 7.84145C34.8394 7.41959 35.0638 6.85982 35.0638 6.24219H33.3541ZM33.2232 6.57404C33.1327 6.65646 33.0331 6.69985 32.876 6.69985V8.40953C33.4389 8.40953 33.9545 8.22049 34.3744 7.83807L33.2232 6.57404ZM32.876 6.69985C32.79 6.69985 32.755 6.68457 32.7486 6.68149C32.7448 6.67967 32.7427 6.67819 32.7404 6.67625C32.738 6.67414 32.7314 6.66805 32.7218 6.65431L31.3212 7.63475C31.6958 8.16986 32.2619 8.40953 32.876 8.40953V6.69985ZM32.727 6.66182C32.7482 6.69275 32.7536 6.70773 32.7444 6.68819C32.7372 6.67299 32.7251 6.64544 32.708 6.60201C32.6739 6.5149 32.63 6.3896 32.5758 6.22053L30.9477 6.74236C31.0074 6.92876 31.0637 7.09171 31.1162 7.22563C31.1611 7.34025 31.2269 7.49698 31.316 7.62724L32.727 6.66182ZM32.5756 6.21986C32.4797 5.92164 32.3147 5.61749 32.0337 5.38831C31.7421 5.15056 31.3978 5.05239 31.0576 5.05239V6.76206C31.0652 6.76206 31.0532 6.76302 31.029 6.75504C31.0033 6.74658 30.9763 6.73215 30.9531 6.71325C30.9068 6.67548 30.9207 6.65843 30.9479 6.74303L32.5756 6.21986ZM31.0576 5.05239C30.5139 5.05239 30.0661 5.30758 29.7516 5.70475L31.0921 6.76595C31.1043 6.75055 31.1118 6.74385 31.1134 6.74247C31.1148 6.7413 31.1113 6.74448 31.1028 6.74889C31.094 6.7534 31.0838 6.75721 31.0736 6.75963C31.0635 6.76201 31.0576 6.76206 31.0576 6.76206V5.05239ZM29.7448 5.71347C29.4436 6.10429 29.3141 6.56472 29.3141 7.04199H31.0238C31.0238 6.88125 31.0629 6.80391 31.0989 6.75724L29.7448 5.71347ZM29.3141 7.04199C29.3141 7.81681 29.6001 8.50627 30.1292 9.07843L31.3845 7.91767C31.1297 7.64217 31.0238 7.36093 31.0238 7.04199H29.3141ZM30.1319 9.08132C30.6186 9.60273 31.2488 9.86558 31.96 9.86558V8.1559C31.7049 8.1559 31.5331 8.07695 31.3818 7.91477L30.1319 9.08132ZM31.96 9.86558C32.228 9.86558 32.4899 9.84466 32.73 9.78817L32.3384 8.12394C32.2686 8.14037 32.1476 8.1559 31.96 8.1559V9.86558ZM32.7529 9.78243C32.9818 9.72186 33.2389 9.61682 33.5079 9.48963L32.7772 7.94396C32.545 8.05376 32.3965 8.10822 32.3154 8.12968L32.7529 9.78243ZM33.5249 9.48139C33.46 9.51383 33.3981 9.52378 33.3545 9.52378V7.81411C33.156 7.81411 32.9528 7.85596 32.7603 7.95221L33.5249 9.48139ZM33.3545 9.52378C33.2917 9.52378 33.2264 9.50747 33.171 9.4779C33.1198 9.45063 33.0989 9.4239 33.1012 9.42675L34.4281 8.34864C34.1854 8.04995 33.8218 7.81411 33.3545 7.81411V9.52378ZM33.1012 9.42675C33.1012 9.42678 33.1008 9.42622 33.1 9.42504C33.0992 9.42386 33.0981 9.4222 33.0969 9.4201C33.0944 9.41569 33.0921 9.41057 33.0903 9.40524C33.0884 9.39994 33.0876 9.39608 33.0874 9.3944C33.0871 9.39282 33.0875 9.39457 33.0875 9.40039H34.7972C34.7972 9.01721 34.676 8.65378 34.4281 8.34864L33.1012 9.42675ZM33.0875 9.40039C33.0875 9.36406 33.1028 9.40555 33.0023 9.54131L34.3766 10.5583C34.6134 10.2383 34.7972 9.84688 34.7972 9.40039H33.0875ZM33.0073 9.53468C32.9113 9.6617 32.774 9.78902 32.5777 9.91008L33.4751 11.3653C33.8256 11.1491 34.1303 10.8845 34.3717 10.5649L33.0073 9.53468ZM32.5783 9.90967C32.1409 10.1788 31.6019 10.3297 30.9277 10.3297V12.0394C31.8669 12.0394 32.7269 11.8257 33.4744 11.3657L32.5783 9.90967ZM30.9277 10.3297C30.1678 10.3297 29.566 10.1134 29.0733 9.7057L27.9833 11.0228C28.8122 11.7088 29.8101 12.0394 30.9277 12.0394V10.3297ZM29.0692 9.70233C28.4152 9.16781 28.1117 8.52662 28.1117 7.71875H26.402C26.402 9.0528 26.9462 10.1753 27.9874 11.0262L29.0692 9.70233ZM28.1117 7.71875C28.1117 6.94076 28.395 6.32514 28.9952 5.81168L27.8838 4.51254C26.9071 5.34804 26.402 6.43685 26.402 7.71875H28.1117ZM28.9971 5.81004C29.5804 5.30803 30.2912 5.04625 31.1807 5.04625V3.33657C29.9191 3.33657 28.8024 3.72192 27.8818 4.51418L28.9971 5.81004ZM38.5361 9.3252L37.7357 9.62535L37.7398 9.6362L37.7442 9.64694L38.5361 9.3252ZM38.8848 9.72852L38.3896 10.4254L38.39 10.4256L38.8848 9.72852ZM39.165 9.98828L38.4401 10.4413L38.4569 10.4682L38.4757 10.4938L39.165 9.98828ZM35.0977 10.9453L34.8628 11.7673L34.8734 11.7702L35.0977 10.9453ZM34.708 10.7061L34.0535 11.2559L34.0598 11.2634L34.0663 11.2708L34.708 10.7061ZM34.6396 10.0293L33.9503 9.52378L34.6396 10.0293ZM35.0225 9.70117L35.528 10.3905L35.5318 10.3877L35.0225 9.70117ZM35.3779 7.28809L34.5239 7.32563L34.5244 7.3355L35.3779 7.28809ZM35.3369 6.56348L36.1843 6.45049L36.1827 6.4397L35.3369 6.56348ZM34.9541 6.13281L35.2984 5.35036L35.2954 5.34907L34.9541 6.13281ZM35.084 4.94336L35.3895 5.74173L35.3904 5.7414L35.084 4.94336ZM38.0439 1.89453L37.5795 2.6123L37.5896 2.61863L38.0439 1.89453ZM37.8662 3.32324L38.2962 4.06207L38.2975 4.06129L37.8662 3.32324ZM35.0566 3.61719L35.5231 2.90083L35.5153 2.89577L35.5075 2.89088L35.0566 3.61719ZM35.501 2.01074L35.8173 2.80489L35.8185 2.80444L35.501 2.01074ZM37.5993 4.66309V8.63477H39.3089V4.66309H37.5993ZM37.5993 8.63477C37.5993 8.96903 37.6244 9.32845 37.7357 9.62535L39.3365 9.02504C39.3419 9.03935 39.3326 9.01896 39.3235 8.94236C39.3149 8.87015 39.3089 8.76929 39.3089 8.63477H37.5993ZM37.7442 9.64694C37.8826 9.98762 38.1289 10.2401 38.3896 10.4254L39.3799 9.03167C39.3387 9.00238 39.32 8.98283 39.3144 8.97638C39.3096 8.97079 39.3184 8.97951 39.3281 9.00345L37.7442 9.64694ZM38.39 10.4256C38.4144 10.443 38.434 10.4577 38.4493 10.4699C38.4648 10.4822 38.4745 10.4908 38.4797 10.4956C38.4851 10.5006 38.4835 10.4997 38.4774 10.4926C38.4716 10.486 38.4574 10.4689 38.4401 10.4413L39.8899 9.53522C39.7501 9.31144 39.5385 9.14419 39.3795 9.03139L38.39 10.4256ZM38.4757 10.4938C38.3908 10.378 38.3854 10.2745 38.3854 10.2549H40.0951C40.0951 10.0166 40.0396 9.73529 39.8544 9.48276L38.4757 10.4938ZM38.3854 10.2549C38.3854 10.2039 38.4077 10.1361 38.4476 10.089C38.4741 10.0575 38.4708 10.0804 38.3677 10.1211C38.1474 10.208 37.7188 10.2819 37.0049 10.2819V11.9916C37.7812 11.9916 38.4703 11.9185 38.9951 11.7115C39.2646 11.6052 39.5406 11.4443 39.7535 11.1924C39.9796 10.9248 40.0951 10.5998 40.0951 10.2549H38.3854ZM37.0049 10.2819C36.2364 10.2819 35.6864 10.2195 35.3219 10.1204L34.8734 11.7702C35.4477 11.9263 36.1692 11.9916 37.0049 11.9916V10.2819ZM35.3325 10.1234C35.3209 10.1201 35.3211 10.1186 35.3279 10.1228C35.3311 10.1248 35.335 10.1276 35.3392 10.1311C35.3433 10.1345 35.3469 10.1381 35.3497 10.1413L34.0663 11.2708C34.2847 11.519 34.5611 11.681 34.8628 11.7673L35.3325 10.1234ZM35.3626 10.1562C35.3734 10.1692 35.3898 10.1932 35.4025 10.2277C35.4152 10.2623 35.4193 10.2939 35.4193 10.3164H33.7096C33.7096 10.6678 33.8313 10.9914 34.0535 11.2559L35.3626 10.1562ZM35.4193 10.3164C35.4193 10.2964 35.4251 10.4037 35.329 10.5348L33.9503 9.52378C33.7539 9.79161 33.7096 10.0904 33.7096 10.3164H35.4193ZM35.329 10.5348C35.3067 10.5652 35.2916 10.5794 35.2962 10.5748C35.2988 10.5722 35.3088 10.5626 35.3293 10.545C35.3706 10.5096 35.435 10.4587 35.528 10.3905L34.5169 9.01183C34.4048 9.09405 34.3029 9.17303 34.2166 9.24695C34.1416 9.31125 34.0356 9.40751 33.9503 9.52378L35.329 10.5348ZM35.5318 10.3877C35.8839 10.1265 36.0638 9.7509 36.1526 9.39581L34.4939 8.98115C34.4797 9.03818 34.4669 9.06079 34.4663 9.06182C34.4663 9.06184 34.4671 9.0604 34.469 9.05778C34.4709 9.05515 34.4737 9.05142 34.4777 9.04688C34.4859 9.03754 34.4976 9.02614 34.5131 9.01465L35.5318 10.3877ZM36.1526 9.39581C36.2379 9.0546 36.2669 8.61661 36.2669 8.12891H34.5573C34.5573 8.58 34.5271 8.84839 34.4939 8.98115L36.1526 9.39581ZM36.2669 8.12891C36.2669 7.95142 36.2541 7.64855 36.2315 7.24067L34.5244 7.3355C34.5473 7.74793 34.5573 8.00561 34.5573 8.12891H36.2669ZM36.2319 7.25055C36.2148 6.85963 36.1998 6.56692 36.1843 6.4505L34.4896 6.67646C34.489 6.6719 34.4932 6.71428 34.5005 6.84421C34.5071 6.95974 34.5149 7.11972 34.5239 7.32563L36.2319 7.25055ZM36.1827 6.4397C36.0995 5.87061 35.6991 5.5267 35.2984 5.35037L34.6098 6.91526C34.6432 6.92996 34.62 6.92662 34.5818 6.8836C34.5619 6.86126 34.541 6.83141 34.5237 6.79442C34.5063 6.75732 34.4959 6.72045 34.4911 6.68726L36.1827 6.4397ZM35.2954 5.34907C35.2431 5.32629 35.2701 5.32618 35.3119 5.38016C35.3337 5.40829 35.3539 5.44421 35.3677 5.48566C35.3814 5.52665 35.3851 5.5619 35.3851 5.58594H33.6754C33.6754 5.88666 33.768 6.17902 33.9606 6.42746C34.1437 6.66373 34.3825 6.81629 34.6128 6.91656L35.2954 5.34907ZM35.3851 5.58594C35.3851 5.60736 35.3814 5.64085 35.3671 5.67963C35.3527 5.7186 35.333 5.74853 35.3163 5.76798C35.2868 5.80221 35.2874 5.78081 35.3895 5.74173L34.7784 4.14499C34.5114 4.24718 34.2352 4.40352 34.0211 4.65194C33.7929 4.91681 33.6754 5.24102 33.6754 5.58594H35.3851ZM35.3904 5.7414C35.8613 5.56062 36.3706 5.4053 36.9197 5.27662L36.5295 3.61205C35.9119 3.75681 35.3275 3.93417 34.7776 4.14532L35.3904 5.7414ZM36.9197 5.27662C37.4845 5.14425 37.8591 5.0941 38.0781 5.0941V3.38442C37.6592 3.38442 37.1314 3.47098 36.5295 3.61205L36.9197 5.27662ZM38.0781 5.0941C38.0434 5.0941 37.8689 5.07959 37.7206 4.9125C37.5897 4.76493 37.5993 4.63004 37.5993 4.66309H39.3089C39.3089 4.41358 39.2558 4.06678 38.9996 3.77793C38.726 3.46956 38.3635 3.38442 38.0781 3.38442V5.0941ZM37.1006 2.52378C37.4001 2.52378 37.5331 2.58218 37.5796 2.61223L38.5083 1.17683C38.0899 0.906096 37.594 0.814107 37.1006 0.814107V2.52378ZM37.5896 2.61863C37.6118 2.63257 37.5917 2.62534 37.568 2.5849C37.5567 2.56567 37.5483 2.54504 37.5432 2.52534C37.5382 2.50606 37.5377 2.49306 37.5377 2.48926H39.2474C39.2474 1.91258 38.9517 1.45493 38.4983 1.17043L37.5896 2.61863ZM37.5377 2.48926C37.5377 2.50513 37.5359 2.51061 37.5363 2.50905C37.5364 2.50856 37.5368 2.5075 37.5373 2.50623C37.5379 2.50496 37.5383 2.50438 37.5381 2.50468C37.538 2.5049 37.5333 2.51235 37.5185 2.52595C37.5032 2.53995 37.4771 2.56055 37.4349 2.5852L38.2975 4.06129C38.8613 3.73182 39.2474 3.19718 39.2474 2.48926H37.5377ZM37.4362 2.58441C37.0373 2.81659 36.5209 2.95375 35.8496 2.95375V4.66343C36.7552 4.66343 37.5832 4.47703 38.2962 4.06207L37.4362 2.58441ZM35.8496 2.95375C35.6157 2.95375 35.5332 2.90743 35.5231 2.90083L34.5902 4.33354C34.972 4.58215 35.4182 4.66343 35.8496 4.66343V2.95375ZM35.5075 2.89088C35.4895 2.87975 35.4833 2.87344 35.4841 2.87423C35.4853 2.87543 35.4916 2.88205 35.4987 2.89435C35.506 2.90685 35.5108 2.91946 35.5134 2.92963C35.5159 2.93933 35.515 2.94164 35.515 2.93359H33.8053C33.8053 3.54396 34.1105 4.03603 34.6058 4.34349L35.5075 2.89088ZM35.515 2.93359C35.515 2.94008 35.5133 2.95567 35.5062 2.97338C35.4995 2.99026 35.4939 2.99386 35.5023 2.98466C35.5249 2.95982 35.6073 2.88856 35.8173 2.80488L35.1846 1.2166C34.5006 1.48908 33.8053 2.01608 33.8053 2.93359H35.515ZM35.8185 2.80444C36.3101 2.60777 36.7349 2.52378 37.1006 2.52378V0.814107C36.4728 0.814107 35.8312 0.957981 35.1835 1.21704L35.8185 2.80444ZM45.5635 4.78613L46.0695 4.09712L46.0663 4.09479L45.5635 4.78613ZM46.1719 5.52441L45.3809 5.84859L45.3841 5.85648L45.3875 5.8643L46.1719 5.52441ZM46.3496 6.65918L47.2044 6.67065V6.65918H46.3496ZM46.3359 7.67773L45.4811 7.66626V7.67773H46.3359ZM46.4863 9.05176L45.7151 9.42058L45.7184 9.42735L45.7217 9.43405L46.4863 9.05176ZM46.8691 10.2891L46.1852 9.77612L46.179 9.78469L46.8691 10.2891ZM46.1924 10.8838L45.7669 10.1423L45.7598 10.1465L46.1924 10.8838ZM43.9844 10.6924L43.3194 11.2295L43.3257 11.2373L43.3321 11.245L43.9844 10.6924ZM43.3555 10.6855L43.8595 11.376L43.8656 11.3715L43.8717 11.3669L43.3555 10.6855ZM40.3545 10.8018L39.8652 11.5027L39.8684 11.5049L40.3545 10.8018ZM39.7803 10.1455L39.0208 10.5379L39.0235 10.5431L39.7803 10.1455ZM40.1426 8.0332L40.7321 8.65223L40.7352 8.64931L40.1426 8.0332ZM42.8223 7.16504V6.31019L42.819 6.31021L42.8223 7.16504ZM43.3213 7.08984L43.8268 7.77919L43.8413 7.76857L43.8553 7.75736L43.3213 7.08984ZM43.2734 5.6748L42.4963 6.03099L42.4992 6.0372L43.2734 5.6748ZM42.4121 5.46973L41.8992 4.78586L41.8922 4.79112L41.8853 4.79654L42.4121 5.46973ZM42.0156 5.9209L41.3249 5.41725L41.3202 5.42374L41.3156 5.43031L42.0156 5.9209ZM40.2451 5.41504L39.5816 4.87594L39.5749 4.88444L40.2451 5.41504ZM40.9629 4.84082L40.5623 4.08558L40.5536 4.09036L40.9629 4.84082ZM43.0889 8.14258L43.1156 7.28816L43.1022 7.28774H43.0889V8.14258ZM42.5625 8.38867L41.9323 7.81097L41.9236 7.82075L42.5625 8.38867ZM42.501 9.50977L41.8225 10.0299L41.8312 10.041L42.501 9.50977ZM43.3828 8.2793L42.643 8.7076L42.6513 8.72185L42.6601 8.73577L43.3828 8.2793ZM43.5469 5.03941C44.1896 5.03941 44.6782 5.19931 45.0607 5.47747L46.0663 4.09479C45.3459 3.57087 44.49 3.32973 43.5469 3.32973V5.03941ZM45.0575 5.47514C45.2485 5.61538 45.3378 5.74335 45.3809 5.84859L46.9629 5.20024C46.7781 4.74949 46.4618 4.38528 46.0695 4.09713L45.0575 5.47514ZM45.3875 5.8643C45.4395 5.98425 45.4948 6.22915 45.4948 6.65918H47.2044C47.2044 6.12306 47.1412 5.61145 46.9562 5.18452L45.3875 5.8643ZM45.4948 6.64771L45.4812 7.66626L47.1907 7.68921L47.2044 6.67065L45.4948 6.64771ZM45.4811 7.67773C45.4811 8.04751 45.494 8.37248 45.5238 8.64403C45.5511 8.89382 45.6002 9.18014 45.7151 9.42058L47.2575 8.68293C47.2722 8.71375 47.2461 8.66623 47.2233 8.45802C47.2029 8.27156 47.1908 8.01434 47.1908 7.67773H45.4811ZM45.7217 9.43405C45.78 9.5505 45.9186 9.81331 46.1901 9.97618L47.0697 8.51015C47.1264 8.54415 47.1667 8.57906 47.1922 8.60394C47.218 8.62911 47.2348 8.65009 47.2437 8.6619C47.2601 8.68377 47.2615 8.69059 47.2509 8.66946L45.7217 9.43405ZM46.1901 9.97618C46.3185 10.0533 46.4481 10.0908 46.5193 10.1094C46.6049 10.1319 46.696 10.149 46.785 10.163L47.049 8.47377C47.0218 8.46952 47 8.46565 46.9831 8.4623C46.966 8.4589 46.9562 8.45652 46.9524 8.45552C46.9479 8.45434 46.9553 8.45602 46.9708 8.46178C46.9789 8.4648 46.9914 8.46972 47.0071 8.47693C47.0225 8.48403 47.0441 8.49482 47.0697 8.51015L46.1901 9.97618ZM46.785 10.163C46.6922 10.1484 46.5272 10.0909 46.4011 9.9253C46.2865 9.77485 46.2809 9.6349 46.2809 9.60547H47.9906C47.9906 9.40742 47.9486 9.1353 47.761 8.88916C47.562 8.62788 47.2876 8.51106 47.049 8.47377L46.785 10.163ZM46.2809 9.60547C46.2809 9.58361 46.2908 9.63539 46.1853 9.77616L47.553 10.802C47.8029 10.4688 47.9906 10.0648 47.9906 9.60547H46.2809ZM46.179 9.78469C46.0827 9.91637 45.9507 10.0369 45.767 10.1423L46.6178 11.6252C46.99 11.4117 47.3092 11.1357 47.5593 10.7934L46.179 9.78469ZM45.7598 10.1465C45.541 10.2749 45.3315 10.3297 45.1191 10.3297V12.0394C45.6542 12.0394 46.1602 11.8938 46.6249 11.6211L45.7598 10.1465ZM45.1191 10.3297C44.86 10.3297 44.7326 10.2532 44.6366 10.1398L43.3321 11.245C43.7921 11.7879 44.4212 12.0394 45.1191 12.0394V10.3297ZM44.6494 10.1553C44.5208 9.996 44.2105 9.65981 43.7178 9.65981V11.3695C43.5459 11.3695 43.4258 11.3064 43.3718 11.2704C43.3206 11.2363 43.3048 11.2115 43.3194 11.2295L44.6494 10.1553ZM43.7178 9.65981C43.3247 9.65981 43.0074 9.87681 42.8393 10.0042L43.8717 11.3669C43.9174 11.3323 43.9336 11.3258 43.9235 11.3305C43.9173 11.3335 43.8975 11.3423 43.8658 11.3509C43.8341 11.3594 43.7833 11.3695 43.7178 11.3695V9.65981ZM42.8514 9.9951C42.546 10.218 42.2063 10.3297 41.8037 10.3297V12.0394C42.5587 12.0394 43.2534 11.8184 43.8595 11.376L42.8514 9.9951ZM41.8037 10.3297C41.3239 10.3297 41.0266 10.2272 40.8406 10.0986L39.8684 11.5049C40.4207 11.8868 41.0895 12.0394 41.8037 12.0394V10.3297ZM40.8438 10.1008C40.718 10.013 40.6167 9.89964 40.537 9.7479L39.0235 10.5431C39.2264 10.9291 39.508 11.2533 39.8652 11.5027L40.8438 10.1008ZM40.5397 9.75312C40.4586 9.59609 40.4232 9.4453 40.4232 9.29102H38.7135C38.7135 9.72918 38.8194 10.148 39.0208 10.5379L40.5397 9.75312ZM40.4232 9.29102C40.4232 9.0792 40.4972 8.87599 40.7321 8.65222L39.553 7.41418C39.0224 7.91958 38.7135 8.55492 38.7135 9.29102H40.4232ZM40.7352 8.64931C41.1161 8.28291 41.7603 8.02395 42.8255 8.01987L42.819 6.31021C41.5054 6.31524 40.3631 6.63506 39.55 7.4171L40.7352 8.64931ZM42.8223 8.01988C42.9759 8.01988 43.1306 8.01294 43.2726 7.99154C43.3831 7.97489 43.617 7.93305 43.8268 7.77919L42.8158 6.4005C42.8593 6.36856 42.8981 6.34766 42.9259 6.33453C42.954 6.32125 42.9767 6.3132 42.9908 6.30866C43.0175 6.30011 43.0294 6.29922 43.0179 6.30094C43.0081 6.30243 42.9871 6.30493 42.9525 6.30694C42.9184 6.30893 42.8753 6.3102 42.8223 6.3102V8.01988ZM43.8553 7.75736C44.0808 7.57699 44.1778 7.34396 44.2218 7.18534C44.2672 7.02217 44.2787 6.85932 44.2787 6.7207H42.569C42.569 6.77349 42.5634 6.76787 42.5745 6.72775C42.5844 6.69218 42.6302 6.54801 42.7873 6.42233L43.8553 7.75736ZM44.2787 6.7207C44.2787 6.21632 44.2322 5.70666 44.0477 5.3124L42.4992 6.0372C42.4987 6.03609 42.5047 6.04896 42.5134 6.08133C42.5219 6.11322 42.5314 6.15817 42.5401 6.21859C42.5577 6.34093 42.569 6.50607 42.569 6.7207H44.2787ZM44.0505 5.31863C43.9489 5.09691 43.7897 4.87769 43.5494 4.71744C43.306 4.55522 43.037 4.49184 42.7812 4.49184V6.20152C42.7534 6.20152 42.6803 6.19282 42.601 6.13998C42.5247 6.08911 42.4977 6.03395 42.4963 6.03098L44.0505 5.31863ZM42.7812 4.49184C42.4596 4.49184 42.1566 4.59285 41.8992 4.78586L42.925 6.1536C42.9102 6.16471 42.887 6.17833 42.8568 6.18841C42.8265 6.1985 42.7998 6.20152 42.7812 6.20152V4.49184ZM41.8853 4.79654C41.6826 4.95514 41.4933 5.18627 41.3249 5.41725L42.7063 6.42455C42.7757 6.32936 42.8323 6.25866 42.8765 6.20833C42.9232 6.15518 42.9435 6.13938 42.939 6.14292L41.8853 4.79654ZM41.3156 5.43031C40.9721 5.9204 40.772 5.93422 40.7441 5.93422V7.6439C41.6004 7.6439 42.2479 7.07895 42.7157 6.41149L41.3156 5.43031ZM40.7441 5.93422C40.717 5.93422 40.716 5.93031 40.7313 5.93584C40.7386 5.93851 40.7478 5.94268 40.7575 5.94864C40.7672 5.9546 40.7753 5.96094 40.7813 5.96656L39.6133 7.21509C39.9373 7.51821 40.3399 7.6439 40.7441 7.6439V5.93422ZM40.7813 5.96656C40.7976 5.98181 40.8169 6.00731 40.8299 6.03896C40.842 6.06867 40.8402 6.08362 40.8402 6.07129H39.1305C39.1305 6.49398 39.2797 6.90303 39.6133 7.21509L40.7813 5.96656ZM40.8402 6.07129C40.8402 6.07753 40.8385 6.07462 40.8451 6.05779C40.8526 6.03897 40.8713 6.0013 40.9153 5.94564L39.5749 4.88444C39.3156 5.21198 39.1305 5.61222 39.1305 6.07129H40.8402ZM40.9086 5.95409C41.0028 5.83812 41.1486 5.71326 41.3722 5.59128L40.5536 4.09036C40.1756 4.2965 39.8429 4.55446 39.5817 4.87598L40.9086 5.95409ZM41.3634 5.59601C42.07 5.22123 42.7944 5.03941 43.5469 5.03941V3.32973C42.5038 3.32973 41.5055 3.58541 40.5623 4.08563L41.3634 5.59601ZM43.0889 7.28774C42.6209 7.28774 42.2249 7.49192 41.9324 7.81104L43.1926 8.96631C43.2034 8.95459 43.1966 8.96557 43.1689 8.97849C43.1557 8.98468 43.1408 8.98978 43.1254 8.99315C43.1101 8.9965 43.0974 8.99742 43.0889 8.99742V7.28774ZM41.9236 7.82075C41.633 8.1477 41.4889 8.54808 41.4889 8.97656H43.1986C43.1986 8.9653 43.1995 8.95894 43.1999 8.95658C43.2003 8.95435 43.2004 8.95474 43.1996 8.9568C43.1988 8.9589 43.1979 8.96068 43.1974 8.96158C43.1969 8.96241 43.1977 8.96072 43.2014 8.9566L41.9236 7.82075ZM41.4889 8.97656C41.4889 9.332 41.5756 9.70772 41.8226 10.0299L43.1794 8.98965C43.1869 8.99944 43.1926 9.00897 43.1968 9.01724C43.2009 9.02541 43.2026 9.0308 43.203 9.03215C43.2037 9.03444 43.1986 9.01842 43.1986 8.97656H41.4889ZM41.8312 10.041C42.1031 10.3838 42.4919 10.5628 42.918 10.5628V8.85317C42.9424 8.85317 42.9921 8.85846 43.0509 8.88641C43.1103 8.91469 43.1499 8.95227 43.1707 8.97857L41.8312 10.041ZM42.918 10.5628C43.3949 10.5628 43.8148 10.3329 44.0635 9.91309C44.2707 9.56349 44.3197 9.14925 44.3197 8.78516H42.61C42.61 8.8993 42.6013 8.97614 42.592 9.02325C42.5825 9.07167 42.5759 9.06979 42.5927 9.0415C42.6128 9.00768 42.6583 8.95016 42.7381 8.90527C42.8171 8.86083 42.8863 8.85317 42.918 8.85317V10.5628ZM44.3197 8.78516C44.3197 8.63309 44.3117 8.47901 44.2882 8.33387C44.2667 8.20186 44.2221 8.00733 44.1056 7.82282L42.6601 8.73577C42.6422 8.70757 42.6299 8.68296 42.6216 8.66434C42.6132 8.64564 42.608 8.6308 42.6049 8.62121C42.599 8.60305 42.5988 8.5968 42.6005 8.60754C42.6021 8.61752 42.6047 8.63707 42.6067 8.66818C42.6087 8.69895 42.61 8.73764 42.61 8.78516H44.3197ZM44.1226 7.85099C43.8633 7.40313 43.4099 7.29735 43.1156 7.28816L43.0622 8.997C43.0577 8.99686 42.9968 8.99507 42.9112 8.95528C42.8146 8.91034 42.7129 8.82838 42.643 8.7076L44.1226 7.85099ZM51.4902 5.5791L50.6354 5.56763V5.5791H51.4902ZM51.5312 9.46875L50.6887 9.61319L50.6907 9.62482L50.693 9.6364L51.5312 9.46875ZM51.873 9.83789L51.5275 10.6198L51.5338 10.6225L51.873 9.83789ZM52.208 10.043L51.559 10.5993L51.57 10.6122L51.5816 10.6246L52.208 10.043ZM52.1328 10.7266L51.4939 10.1586L51.4879 10.1654L51.4821 10.1722L52.1328 10.7266ZM51.709 10.9863L51.4769 10.1636L51.468 10.1661L51.4592 10.1688L51.709 10.9863ZM48.1953 10.9385L48.4932 10.1372L48.4857 10.1345L48.1953 10.9385ZM47.792 10.665L47.1314 11.2076L47.1363 11.2135L47.1413 11.2194L47.792 10.665ZM47.7168 10.0156L47.1123 9.41116L47.1003 9.42325L47.0887 9.43581L47.7168 10.0156ZM48.0928 9.80371L48.4295 10.5894L48.4344 10.5873L48.0928 9.80371ZM48.4209 9.16797L47.5725 9.06354L47.572 9.06744L48.4209 9.16797ZM47.9561 3.78125L48.3997 3.05054L48.39 3.04466L48.3802 3.03904L47.9561 3.78125ZM47.5596 3.47363L46.8533 3.95519L46.866 3.97379L46.8796 3.9917L47.5596 3.47363ZM47.7783 2.53027L48.2982 3.20897L48.3071 3.20195L47.7783 2.53027ZM48.8037 2.06543L49.0501 2.884L49.0526 2.88323L48.8037 2.06543ZM51.5928 3.33691L50.7411 3.26285L50.7402 3.27499L51.5928 3.33691ZM50.6354 5.5791V7.77344H52.3451V5.5791H50.6354ZM50.6354 7.77344C50.6354 8.26156 50.6388 8.65337 50.6459 8.94597C50.6523 9.21101 50.6624 9.45962 50.6887 9.61319L52.3738 9.32431C52.3758 9.336 52.3717 9.3126 52.3668 9.22476C52.3624 9.14697 52.3584 9.04113 52.3551 8.90462C52.3485 8.63211 52.3451 8.25602 52.3451 7.77344H50.6354ZM50.693 9.6364C50.7961 10.1517 51.1661 10.4601 51.5276 10.6198L52.2185 9.05598C52.1988 9.04724 52.2269 9.05564 52.2679 9.09988C52.3145 9.15023 52.3535 9.22138 52.3695 9.3011L50.693 9.6364ZM51.5338 10.6225C51.5631 10.6352 51.5862 10.6461 51.6041 10.6551C51.6221 10.6642 51.6325 10.6702 51.6369 10.6729C51.6417 10.6758 51.6364 10.673 51.6245 10.6636C51.6184 10.6587 51.6094 10.6512 51.5986 10.641C51.5879 10.6309 51.5742 10.617 51.559 10.5993L52.857 9.48665C52.6647 9.26224 52.3911 9.13058 52.2123 9.05327L51.5338 10.6225ZM51.5816 10.6246C51.4479 10.4807 51.442 10.3347 51.442 10.3164H53.1517C53.1517 10.0611 53.0866 9.73287 52.8344 9.46129L51.5816 10.6246ZM51.442 10.3164C51.442 10.2852 51.4482 10.2491 51.4622 10.2143C51.4756 10.1806 51.4906 10.1624 51.4939 10.1586L52.7717 11.2945C53.006 11.031 53.1517 10.6966 53.1517 10.3164H51.442ZM51.4821 10.1722C51.4854 10.1683 51.4891 10.1646 51.493 10.1613C51.4969 10.158 51.5 10.1559 51.5015 10.155C51.5049 10.1529 51.4988 10.1574 51.4769 10.1636L51.941 11.8091C52.2579 11.7197 52.5538 11.5507 52.7836 11.2809L51.4821 10.1722ZM51.4592 10.1688C51.2635 10.2286 50.8222 10.2819 50.0479 10.2819V11.9916C50.8321 11.9916 51.4982 11.9446 51.9588 11.8039L51.4592 10.1688ZM50.0479 10.2819C49.171 10.2819 48.6913 10.2109 48.4932 10.1372L47.8974 11.7397C48.4102 11.9304 49.1656 11.9916 50.0479 11.9916V10.2819ZM48.4857 10.1345C48.45 10.1216 48.4436 10.1117 48.4427 10.1107L47.1413 11.2194C47.35 11.4645 47.6125 11.6369 47.905 11.7425L48.4857 10.1345ZM48.4525 10.1224C48.4475 10.1163 48.4575 10.1268 48.4687 10.1551C48.4807 10.1852 48.4896 10.2247 48.4896 10.2686H46.7799C46.7799 10.642 46.9281 10.9601 47.1314 11.2076L48.4525 10.1224ZM48.4896 10.2686C48.4896 10.2963 48.4813 10.4477 48.3449 10.5954L47.0887 9.43581C46.8429 9.70205 46.7799 10.022 46.7799 10.2686H48.4896ZM48.3213 10.6201C48.2918 10.6495 48.2698 10.6651 48.2656 10.6681C48.26 10.672 48.2621 10.6702 48.275 10.6629C48.3018 10.6478 48.3508 10.6231 48.4295 10.5894L47.756 9.01799C47.5705 9.0975 47.3013 9.22216 47.1123 9.41116L48.3213 10.6201ZM48.4344 10.5873C49.0577 10.3156 49.2216 9.6757 49.2698 9.2685L47.572 9.06744C47.5657 9.12099 47.558 9.15754 47.5519 9.18017C47.5457 9.20312 47.5428 9.20565 47.5485 9.1946C47.5545 9.18303 47.5716 9.15344 47.6064 9.11833C47.6427 9.08174 47.6915 9.04611 47.7512 9.02008L48.4344 10.5873ZM49.2693 9.27239C49.3487 8.62788 49.3851 7.74374 49.3851 6.63867H47.6754C47.6754 7.72111 47.639 8.52316 47.5725 9.06355L49.2693 9.27239ZM49.3851 6.63867C49.3851 5.54933 49.3565 4.74291 49.2728 4.32454L47.5963 4.65984C47.6403 4.87949 47.6754 5.50406 47.6754 6.63867H49.3851ZM49.2728 4.32454C49.1668 3.79438 48.8791 3.34159 48.3997 3.05054L47.5124 4.51196C47.5435 4.53081 47.5748 4.55197 47.5963 4.65984L49.2728 4.32454ZM48.3802 3.03904C48.3091 2.9984 48.2637 2.9673 48.2374 2.94692C48.2089 2.92485 48.2174 2.92652 48.2395 2.95556L46.8796 3.9917C47.0577 4.2255 47.3101 4.39667 47.5319 4.52346L48.3802 3.03904ZM48.2659 2.99207C48.2854 3.02066 48.2981 3.04988 48.3052 3.07507C48.312 3.09924 48.3119 3.11297 48.3119 3.11133H46.6022C46.6022 3.39543 46.673 3.6908 46.8533 3.95519L48.2659 2.99207ZM48.3119 3.11133C48.3119 3.12454 48.3102 3.14214 48.3051 3.16205C48.3 3.18199 48.2927 3.1991 48.2854 3.21223C48.2709 3.23849 48.2646 3.23462 48.2981 3.20891L47.2585 1.85164C46.8823 2.13982 46.6022 2.56568 46.6022 3.11133H48.3119ZM48.3071 3.20195C48.395 3.13276 48.6147 3.01504 49.0501 2.884L48.5573 1.24686C48.054 1.39837 47.59 1.59055 47.2495 1.85859L48.3071 3.20195ZM49.0526 2.88323C49.3201 2.80183 49.6898 2.71779 50.1728 2.63436L49.8818 0.949627C49.3623 1.03937 48.9162 1.13763 48.5548 1.24763L49.0526 2.88323ZM50.1728 2.63436C50.6699 2.5485 50.9722 2.51695 51.1211 2.51695V0.807271C50.8142 0.807271 50.3874 0.862312 49.8818 0.949627L50.1728 2.63436ZM51.1211 2.51695C51.1243 2.51695 51.0878 2.51756 51.0307 2.49395C50.9684 2.46817 50.9073 2.42397 50.8606 2.36608C50.817 2.31204 50.8039 2.26837 50.8018 2.26077C50.8002 2.2549 50.8063 2.275 50.8063 2.33203H52.516C52.516 2.01624 52.456 1.621 52.1916 1.2931C51.8989 0.929975 51.4875 0.807271 51.1211 0.807271V2.51695ZM50.8063 2.33203C50.8063 2.43306 50.7877 2.7276 50.7411 3.26286L52.4444 3.41097C52.489 2.89805 52.516 2.52267 52.516 2.33203H50.8063ZM50.7402 3.27499C50.68 4.10428 50.6449 4.86878 50.6355 5.56763L52.345 5.59057C52.3538 4.93135 52.3871 4.20106 52.4454 3.39883L50.7402 3.27499ZM55.6533 8.66895L55.0347 9.25898L55.0393 9.26374L55.6533 8.66895ZM55.6396 10.7471L56.2441 11.3516L56.2488 11.3468L55.6396 10.7471ZM53.5752 10.7812L52.9847 11.3994L52.9859 11.4005L53.5752 10.7812ZM53.5205 8.69629L54.1301 9.29571L54.1382 9.28717L53.5205 8.69629ZM55.6328 2.20215L55.0188 2.79697L55.0247 2.80298L55.6328 2.20215ZM55.9541 5.33301L55.1365 5.08356L55.1351 5.08801L55.9541 5.33301ZM55.3115 6.76172L56.0301 7.22468L56.0311 7.22319L55.3115 6.76172ZM53.8008 6.56348L54.5502 6.15216L54.5495 6.15093L53.8008 6.56348ZM53.2129 5.12793L52.389 5.35597L52.3909 5.36277L53.2129 5.12793ZM53.3496 2.4209L54.0623 2.89294L54.0643 2.88991L53.3496 2.4209ZM54.6348 9.07945C54.7891 9.07945 54.9076 9.12567 55.0348 9.25896L56.2719 8.07893C55.8339 7.61977 55.2734 7.36977 54.6348 7.36977V9.07945ZM55.0393 9.26374C55.1736 9.40234 55.2223 9.53318 55.2223 9.69434H56.932C56.932 9.07163 56.6981 8.51888 56.2673 8.07415L55.0393 9.26374ZM55.2223 9.69434C55.2223 9.86934 55.1691 10.0065 55.0305 10.1473L56.2488 11.3468C56.6935 10.8951 56.932 10.3305 56.932 9.69434H55.2223ZM55.0352 10.1426C54.9008 10.277 54.7684 10.3297 54.5938 10.3297V12.0394C55.2303 12.0394 55.7952 11.8005 56.2441 11.3515L55.0352 10.1426ZM54.5938 10.3297C54.4126 10.3297 54.2852 10.2769 54.1645 10.162L52.9859 11.4005C53.4303 11.8234 53.9819 12.0394 54.5938 12.0394V10.3297ZM54.1657 10.1631C54.0319 10.0354 53.972 9.89988 53.972 9.70117H52.2623C52.2623 10.3592 52.5078 10.9438 52.9847 11.3994L54.1657 10.1631ZM53.972 9.70117C53.972 9.52045 54.0242 9.40327 54.13 9.29565L52.911 8.09693C52.4791 8.53618 52.2623 9.08893 52.2623 9.70117H53.972ZM54.1382 9.28717C54.2749 9.14432 54.4218 9.07945 54.6348 9.07945V7.36977C53.9636 7.36977 53.3677 7.61935 52.9028 8.1054L54.1382 9.28717ZM54.6006 2.61949C54.7744 2.61949 54.8971 2.67127 55.0188 2.79694L56.2468 1.60736C55.8034 1.1497 55.2379 0.90981 54.6006 0.90981V2.61949ZM55.0247 2.80298C55.2011 2.98147 55.3454 3.28113 55.3454 3.8291H57.055C57.055 2.97343 56.821 2.18845 56.2409 1.60132L55.0247 2.80298ZM55.3454 3.8291C55.3454 4.19389 55.2808 4.61033 55.1365 5.08356L56.7717 5.58246C56.9555 4.98017 57.055 4.394 57.055 3.8291H55.3454ZM55.1351 5.08801C54.9958 5.55361 54.813 5.95549 54.5919 6.30025L56.0311 7.22319C56.3478 6.7294 56.5934 6.17881 56.7731 5.578L55.1351 5.08801ZM54.5929 6.29876C54.4561 6.51106 54.3597 6.62652 54.305 6.67916C54.2788 6.70438 54.2817 6.69609 54.314 6.67837C54.3468 6.66044 54.4378 6.61782 54.5732 6.61782V8.32749C55.0109 8.32749 55.3275 8.06799 55.4909 7.91068C55.6823 7.72634 55.8616 7.48634 56.0301 7.22468L54.5929 6.29876ZM54.5732 6.61782C54.7643 6.61782 54.8828 6.69495 54.9075 6.71194C54.9365 6.73196 54.9319 6.73543 54.8949 6.69187C54.821 6.60498 54.7059 6.43583 54.5502 6.15216L53.0514 6.97479C53.2284 7.29724 53.4083 7.58269 53.592 7.79885C53.6837 7.90683 53.7984 8.02394 53.9374 8.11972C54.072 8.21248 54.2911 8.32749 54.5732 8.32749V6.61782ZM54.5495 6.15093C54.3357 5.76287 54.1637 5.34424 54.0348 4.89309L52.3909 5.36277C52.5537 5.93246 52.7737 6.47086 53.0521 6.97603L54.5495 6.15093ZM54.0368 4.8999C53.9112 4.44612 53.8558 4.05696 53.8558 3.72656H52.1461C52.1461 4.24382 52.2321 4.78891 52.389 5.35596L54.0368 4.8999ZM53.8558 3.72656C53.8558 3.33538 53.9422 3.07419 54.0623 2.89294L52.6369 1.94886C52.2921 2.46943 52.1461 3.07868 52.1461 3.72656H53.8558ZM54.0643 2.88991C54.185 2.70594 54.3261 2.61949 54.6006 2.61949V0.90981C53.7813 0.90981 53.0884 1.26085 52.6349 1.95189L54.0643 2.88991Z" fill="#ED348C" mask="url(#path-1-outside-1_1340_1673)"/>
</svg>
