<svg width="9" height="9" viewBox="0 0 9 9" fill="none" xmlns="http://www.w3.org/2000/svg">
<path d="M4.51677 0.637195C4.60252 0.407868 4.92689 0.407867 5.01265 0.637194L5.87961 2.95575C5.91681 3.05523 6.00988 3.12285 6.11599 3.12749L8.58897 3.23555C8.83357 3.24624 8.93381 3.55474 8.74221 3.70716L6.80504 5.24816C6.72192 5.31428 6.68637 5.42369 6.71475 5.52605L7.37617 7.91138C7.44159 8.14731 7.17917 8.33798 6.975 8.20285L4.9108 6.83669C4.82222 6.77807 4.70719 6.77807 4.61861 6.83669L2.55441 8.20285C2.35024 8.33798 2.08782 8.14731 2.15324 7.91138L2.81466 5.52605C2.84304 5.42369 2.8075 5.31428 2.72437 5.24816L0.787204 3.70716C0.5956 3.55474 0.695838 3.24624 0.940439 3.23555L3.41342 3.12749C3.51953 3.12285 3.6126 3.05523 3.6498 2.95575L4.51677 0.637195Z" fill="#F7A6CC"/>
</svg>
