<svg width="15" height="16" viewBox="0 0 15 16" fill="none" xmlns="http://www.w3.org/2000/svg">
<path d="M5.6128 0.866054C5.63815 0.382356 6.26764 0.213681 6.53145 0.619901L9.05681 4.50862C9.17479 4.69029 9.39632 4.77533 9.60556 4.71927L14.0843 3.51918C14.5522 3.39382 14.9071 3.94039 14.6023 4.31681L11.6843 7.92025C11.548 8.08859 11.5356 8.32557 11.6535 8.50723L14.1789 12.396C14.4427 12.8022 14.0326 13.3086 13.5804 13.1351L9.25159 11.4734C9.04936 11.3958 8.82015 11.4572 8.68383 11.6255L5.76582 15.229C5.461 15.6054 4.85258 15.3718 4.87793 14.8881L5.1206 10.2577C5.13193 10.0414 5.00269 9.8424 4.80047 9.76477L0.471671 8.1031C0.0194808 7.92952 0.0535879 7.27871 0.521445 7.15335L5.00022 5.95326C5.20945 5.8972 5.35879 5.71278 5.37013 5.49647L5.6128 0.866054Z" fill="white"/>
</svg>
