<svg width="15" height="16" viewBox="0 0 15 16" fill="none" xmlns="http://www.w3.org/2000/svg">
<path d="M5.6128 0.866115C5.63815 0.382417 6.26764 0.213742 6.53145 0.619962L9.05681 4.50868C9.17479 4.69035 9.39632 4.77539 9.60556 4.71933L14.0843 3.51924C14.5522 3.39388 14.9071 3.94045 14.6023 4.31687L11.6843 7.92031C11.548 8.08865 11.5356 8.32563 11.6535 8.50729L14.1789 12.396C14.4427 12.8022 14.0326 13.3087 13.5804 13.1351L9.25159 11.4735C9.04936 11.3958 8.82015 11.4572 8.68383 11.6256L5.76582 15.229C5.461 15.6055 4.85258 15.3719 4.87793 14.8882L5.1206 10.2578C5.13193 10.0415 5.00269 9.84246 4.80047 9.76483L0.471671 8.10316C0.0194808 7.92958 0.0535879 7.27877 0.521445 7.15341L5.00022 5.95332C5.20945 5.89726 5.35879 5.71285 5.37013 5.49653L5.6128 0.866115Z" fill="#FDC349"/>
</svg>
