<svg width="17" height="17" viewBox="0 0 17 17" fill="none" xmlns="http://www.w3.org/2000/svg">
<path d="M4.14271 1.17525C3.99806 0.494735 4.80873 0.0266928 5.32575 0.49222L8.70892 3.53844C8.94014 3.74663 9.27912 3.78226 9.54857 3.62669L13.4912 1.35044C14.0937 1.00258 14.7893 1.62894 14.5063 2.26451L12.6547 6.42344C12.5281 6.70767 12.599 7.04107 12.8302 7.24926L16.2134 10.2955C16.7304 10.761 16.3497 11.6162 15.6578 11.5434L11.1302 11.0676C10.8208 11.0351 10.5256 11.2055 10.399 11.4897L8.54735 15.6486C8.26437 16.2842 7.33342 16.1864 7.18877 15.5058L6.24225 11.0528C6.17756 10.7485 5.92426 10.5204 5.61483 10.4879L1.08726 10.012C0.395353 9.9393 0.20073 9.02367 0.803241 8.67581L4.74583 6.39956C5.01528 6.24399 5.15391 5.93261 5.08923 5.62828L4.14271 1.17525Z" fill="white"/>
</svg>
