<svg width="35" height="36" viewBox="0 0 35 36" fill="none" xmlns="http://www.w3.org/2000/svg">
<g filter="url(#filter0_d_1492_130)">
<path d="M15.6128 10.8661C15.6381 10.3824 16.2676 10.2137 16.5314 10.6199L19.0568 14.5086C19.1748 14.6903 19.3963 14.7753 19.6056 14.7193L24.0843 13.5192C24.5522 13.3938 24.9071 13.9404 24.6023 14.3168L21.6843 17.9203C21.548 18.0886 21.5356 18.3256 21.6535 18.5072L24.1789 22.396C24.4427 22.8022 24.0326 23.3086 23.5804 23.1351L19.2516 21.4734C19.0494 21.3958 18.8201 21.4572 18.6838 21.6255L15.7658 25.229C15.461 25.6054 14.8526 25.3718 14.8779 24.8881L15.1206 20.2577C15.1319 20.0414 15.0027 19.8424 14.8005 19.7648L10.4717 18.1031C10.0195 17.9295 10.0536 17.2787 10.5214 17.1533L15.0002 15.9533C15.2095 15.8972 15.3588 15.7128 15.3701 15.4965L15.6128 10.8661Z" fill="white"/>
</g>
<defs>
<filter id="filter0_d_1492_130" x="0.150818" y="0.391479" width="34.5651" height="35.024" filterUnits="userSpaceOnUse" color-interpolation-filters="sRGB">
<feFlood flood-opacity="0" result="BackgroundImageFix"/>
<feColorMatrix in="SourceAlpha" type="matrix" values="0 0 0 0 0 0 0 0 0 0 0 0 0 0 0 0 0 0 127 0" result="hardAlpha"/>
<feOffset/>
<feGaussianBlur stdDeviation="5"/>
<feComposite in2="hardAlpha" operator="out"/>
<feColorMatrix type="matrix" values="0 0 0 0 0.960784 0 0 0 0 0.552941 0 0 0 0 0.788235 0 0 0 1 0"/>
<feBlend mode="normal" in2="BackgroundImageFix" result="effect1_dropShadow_1492_130"/>
<feBlend mode="normal" in="SourceGraphic" in2="effect1_dropShadow_1492_130" result="shape"/>
</filter>
</defs>
</svg>
