<svg width="25" height="25" viewBox="0 0 25 25" fill="none" xmlns="http://www.w3.org/2000/svg">
<g filter="url(#filter0_d_1604_620)">
<path d="M10.631 5.62878C10.6693 5.14594 11.3031 4.99425 11.5559 5.40741L13.9758 9.36263C14.0889 9.5474 14.3081 9.63836 14.5187 9.58795L19.0281 8.50871C19.4992 8.39597 19.8393 8.95188 19.5245 9.31997L16.5107 12.8437C16.3699 13.0083 16.3511 13.2448 16.4641 13.4296L18.884 17.3848C19.1368 17.798 18.7132 18.2932 18.2658 18.1076L13.9833 16.3301C13.7832 16.2471 13.5524 16.3023 13.4116 16.4669L10.3978 19.9906C10.083 20.3587 9.48106 20.1089 9.51941 19.626L9.88648 15.0038C9.90363 14.7879 9.77978 14.5855 9.57972 14.5024L5.29716 12.725C4.8498 12.5393 4.90139 11.8897 5.37245 11.7769L9.88187 10.6977C10.0925 10.6473 10.2468 10.4669 10.2639 10.251L10.631 5.62878Z" fill="#FDC349"/>
<path d="M11.7692 5.27694C11.39 4.65719 10.4393 4.88473 10.3818 5.60899L10.0147 10.2312C10.0061 10.3392 9.92901 10.4293 9.82368 10.4545L5.31426 11.5338C4.60767 11.7029 4.53028 12.6774 5.20132 12.9559L9.48388 14.7333C9.58391 14.7749 9.64584 14.8761 9.63726 14.984L9.27019 19.6063C9.21267 20.3305 10.1156 20.7052 10.5878 20.1531L13.6016 16.6294C13.672 16.5471 13.7874 16.5195 13.8875 16.561L18.17 18.3385C18.8411 18.617 19.4765 17.8741 19.0973 17.2543L16.6774 13.2991C16.6208 13.2067 16.6302 13.0885 16.7006 13.0062L19.7145 9.48247C20.1867 8.93033 19.6765 8.09647 18.9699 8.26557L14.4605 9.34481C14.3552 9.37002 14.2456 9.32454 14.1891 9.23215L11.7692 5.27694Z" stroke="white" stroke-width="0.5"/>
</g>
<defs>
<filter id="filter0_d_1604_620" x="0.488647" y="0.667236" width="23.66" height="24.0011" filterUnits="userSpaceOnUse" color-interpolation-filters="sRGB">
<feFlood flood-opacity="0" result="BackgroundImageFix"/>
<feColorMatrix in="SourceAlpha" type="matrix" values="0 0 0 0 0 0 0 0 0 0 0 0 0 0 0 0 0 0 127 0" result="hardAlpha"/>
<feOffset/>
<feGaussianBlur stdDeviation="2"/>
<feComposite in2="hardAlpha" operator="out"/>
<feColorMatrix type="matrix" values="0 0 0 0 0.956863 0 0 0 0 0.694118 0 0 0 0 0.847059 0 0 0 0.8 0"/>
<feBlend mode="normal" in2="BackgroundImageFix" result="effect1_dropShadow_1604_620"/>
<feBlend mode="normal" in="SourceGraphic" in2="effect1_dropShadow_1604_620" result="shape"/>
</filter>
</defs>
</svg>
