<svg width="175" height="145" viewBox="0 0 175 145" fill="none" xmlns="http://www.w3.org/2000/svg">
<g filter="url(#filter0_d_370_1650)">
<rect x="4" width="167" height="137" rx="5" fill="url(#paint0_linear_370_1650)" shape-rendering="crispEdges"/>
<rect x="4" width="167" height="137" rx="5" fill="url(#paint1_linear_370_1650)" fill-opacity="0.2" shape-rendering="crispEdges"/>
<rect x="4.5" y="0.5" width="166" height="136" rx="4.5" stroke="white" shape-rendering="crispEdges"/>
</g>
<g filter="url(#filter1_d_370_1650)">
<g filter="url(#filter2_d_370_1650)">
<path d="M33 50.25C33 48.8576 33.5531 47.5223 34.5377 46.5377C35.5223 45.5531 36.8576 45 38.25 45H59.25C59.9461 45.0001 60.6137 45.2768 61.1059 45.7691L74.2309 58.8941C74.7232 59.3863 74.9999 60.0539 75 60.75V92.25C75 93.6424 74.4469 94.9777 73.4623 95.9623C72.4777 96.9469 71.1424 97.5 69.75 97.5H38.25C36.8576 97.5 35.5223 96.9469 34.5377 95.9623C33.5531 94.9777 33 93.6424 33 92.25V50.25ZM68.6632 60.75L59.25 51.3368V60.75H68.6632ZM54 50.25H38.25V92.25H69.75V66H56.625C55.9288 66 55.2611 65.7234 54.7688 65.2312C54.2766 64.7389 54 64.0712 54 63.375V50.25ZM43.5 73.875C43.5 73.1788 43.7766 72.5111 44.2688 72.0188C44.7611 71.5266 45.4288 71.25 46.125 71.25H61.875C62.5712 71.25 63.2389 71.5266 63.7312 72.0188C64.2234 72.5111 64.5 73.1788 64.5 73.875C64.5 74.5712 64.2234 75.2389 63.7312 75.7312C63.2389 76.2234 62.5712 76.5 61.875 76.5H46.125C45.4288 76.5 44.7611 76.2234 44.2688 75.7312C43.7766 75.2389 43.5 74.5712 43.5 73.875ZM43.5 84.375C43.5 83.6788 43.7766 83.0111 44.2688 82.5188C44.7611 82.0266 45.4288 81.75 46.125 81.75H61.875C62.5712 81.75 63.2389 82.0266 63.7312 82.5188C64.2234 83.0111 64.5 83.6788 64.5 84.375C64.5 85.0712 64.2234 85.7389 63.7312 86.2312C63.2389 86.7234 62.5712 87 61.875 87H46.125C45.4288 87 44.7611 86.7234 44.2688 86.2312C43.7766 85.7389 43.5 85.0712 43.5 84.375Z" fill="white"/>
<path d="M59.25 44H59.2502C60.2115 44.0002 61.1333 44.3822 61.813 45.062L59.25 44ZM59.25 44H38.25C36.5924 44 35.0027 44.6585 33.8306 45.8306C32.6585 47.0027 32 48.5924 32 50.25V92.25C32 93.9076 32.6585 95.4973 33.8306 96.6694C35.0027 97.8415 36.5924 98.5 38.25 98.5H69.75C71.4076 98.5 72.9973 97.8415 74.1694 96.6694C75.3415 95.4973 76 93.9076 76 92.25V60.75V60.7498C75.9998 59.7885 75.6178 58.8667 74.938 58.187C74.938 58.187 74.9379 58.1869 74.9379 58.1869L61.8131 45.0621L59.25 44ZM60.25 59.75V53.751L66.249 59.75H60.25ZM39.25 51.25H53V63.375C53 64.3364 53.3819 65.2584 54.0617 65.9383C54.7416 66.6181 55.6636 67 56.625 67H68.75V91.25H39.25V51.25ZM43.5617 71.3117C42.8819 71.9916 42.5 72.9136 42.5 73.875C42.5 74.8364 42.8819 75.7584 43.5617 76.4383C44.2416 77.1181 45.1636 77.5 46.125 77.5H61.875C62.8364 77.5 63.7584 77.1181 64.4383 76.4383C65.1181 75.7584 65.5 74.8364 65.5 73.875C65.5 72.9136 65.1181 71.9916 64.4383 71.3117C63.7584 70.6319 62.8364 70.25 61.875 70.25H46.125C45.1636 70.25 44.2416 70.6319 43.5617 71.3117ZM43.5617 81.8117C42.8819 82.4916 42.5 83.4136 42.5 84.375C42.5 85.3364 42.8819 86.2584 43.5617 86.9383C44.2416 87.6181 45.1636 88 46.125 88H61.875C62.8364 88 63.7584 87.6181 64.4383 86.9383C65.1181 86.2584 65.5 85.3364 65.5 84.375C65.5 83.4136 65.1181 82.4916 64.4383 81.8117C63.7584 81.1319 62.8364 80.75 61.875 80.75H46.125C45.1636 80.75 44.2416 81.1319 43.5617 81.8117Z" stroke="#FA579B" stroke-width="2"/>
</g>
</g>
<g filter="url(#filter3_d_370_1650)">
<mask id="path-5-outside-1_370_1650" maskUnits="userSpaceOnUse" x="71" y="70" width="77" height="32" fill="black">
<rect fill="white" x="71" y="70" width="77" height="32"/>
<path d="M86.132 91.18C86.132 91.572 86.076 91.908 85.964 92.188C85.852 92.4493 85.7027 92.664 85.516 92.832C85.3293 92.9813 85.1147 93.0933 84.872 93.168C84.6293 93.2427 84.3867 93.28 84.144 93.28C83.6587 93.28 83.2107 93.1307 82.8 92.832C82.3893 92.5147 82.184 91.964 82.184 91.18V88.716C82.184 88.3427 82.0347 88.072 81.736 87.904C81.4373 87.736 80.896 87.652 80.112 87.652C79.16 87.652 78.4973 87.7733 78.124 88.016C77.7507 88.2587 77.564 88.5667 77.564 88.94C77.564 89.3133 77.6667 89.5653 77.872 89.696C78.096 89.8267 78.3667 89.892 78.684 89.892C79.0013 89.892 79.2533 89.864 79.44 89.808C79.6453 89.7333 79.86 89.696 80.084 89.696C80.4573 89.696 80.7467 89.8547 80.952 90.172C81.1573 90.4707 81.26 90.8067 81.26 91.18C81.26 91.964 80.9707 92.5147 80.392 92.832C79.832 93.1307 79.1227 93.28 78.264 93.28C77.6667 93.28 77.088 93.1867 76.528 93C75.9867 92.832 75.492 92.5707 75.044 92.216C74.6147 91.8613 74.2693 91.4227 74.008 90.9C73.7467 90.3587 73.616 89.7333 73.616 89.024C73.616 88.3147 73.7373 87.6707 73.98 87.092C74.2227 86.5133 74.596 86.0187 75.1 85.608C75.604 85.1973 76.248 84.88 77.032 84.656C77.8347 84.432 78.7867 84.32 79.888 84.32C80.2053 84.32 80.56 84.3387 80.952 84.376C81.3627 84.4133 81.7733 84.488 82.184 84.6V83.928C82.184 83.3493 81.9973 82.892 81.624 82.556C81.2507 82.22 80.7373 82.052 80.084 82.052C79.5427 82.052 79.1227 82.1453 78.824 82.332C78.544 82.5 78.2827 82.696 78.04 82.92C77.7973 83.1253 77.5267 83.3213 77.228 83.508C76.948 83.676 76.5467 83.76 76.024 83.76C75.52 83.76 75.1373 83.62 74.876 83.34C74.6147 83.06 74.484 82.7147 74.484 82.304C74.484 81.9307 74.596 81.5387 74.82 81.128C75.044 80.7173 75.3987 80.3347 75.884 79.98C77.004 79.14 78.4973 78.72 80.364 78.72C81.3907 78.72 82.3147 78.888 83.136 79.224C83.4533 78.8133 83.78 78.5333 84.116 78.384C84.4707 78.2347 84.8627 78.16 85.292 78.16C85.7773 78.16 86.188 78.272 86.524 78.496C86.86 78.7013 87.028 79.0187 87.028 79.448C87.028 79.8587 86.8693 80.2973 86.552 80.764L85.796 81.912C86.02 82.5093 86.132 83.1907 86.132 83.956V91.18ZM83.1482 95.352C83.1482 94.8107 83.2976 94.4187 83.5962 94.176C83.8762 93.9333 84.2029 93.812 84.5762 93.812C84.9309 93.812 85.2576 93.9333 85.5562 94.176C85.8549 94.4187 86.0042 94.8107 86.0042 95.352V96.36C86.0042 97.424 85.7242 98.18 85.1642 98.628C84.5856 99.076 83.8202 99.3 82.8682 99.3C81.9162 99.3 81.1602 99.076 80.6002 98.628C80.0216 98.18 79.7322 97.424 79.7322 96.36V95.352C79.7322 94.8107 79.8816 94.4187 80.1802 94.176C80.4602 93.9333 80.7869 93.812 81.1602 93.812C81.5149 93.812 81.8416 93.9333 82.1402 94.176C82.4389 94.4187 82.5882 94.8107 82.5882 95.352V96.332C82.5882 96.556 82.6162 96.7053 82.6722 96.78C82.7096 96.8733 82.7749 96.92 82.8682 96.92C82.9616 96.92 83.0362 96.8733 83.0922 96.78C83.1296 96.7053 83.1482 96.556 83.1482 96.332V95.352ZM90.9883 85.384C91.8283 85.384 92.4536 85.524 92.8643 85.804C93.2749 86.084 93.6016 86.588 93.8443 87.316L94.6003 89.668H94.7683C95.6456 89.668 96.3269 89.2947 96.8123 88.548C97.3163 87.7827 97.5683 86.756 97.5683 85.468C97.5683 84.1427 97.3349 83.2467 96.8683 82.78C96.4203 82.2947 95.7763 82.052 94.9363 82.052C94.3203 82.052 93.8349 82.1733 93.4803 82.416C93.1256 82.64 92.8083 82.9013 92.5283 83.2C92.2483 83.48 91.9683 83.7413 91.6883 83.984C91.4083 84.208 91.0536 84.32 90.6243 84.32C89.4856 84.32 88.9163 83.8253 88.9163 82.836C88.9163 81.9027 89.4109 81.016 90.4003 80.176C90.9603 79.7093 91.6136 79.3547 92.3603 79.112C93.1256 78.8507 93.9843 78.72 94.9363 78.72C97.1016 78.72 98.7349 79.252 99.8363 80.316C100.956 81.3613 101.516 83.0787 101.516 85.468C101.516 86.532 101.376 87.5307 101.096 88.464C100.816 89.3787 100.387 90.172 99.8083 90.844C99.2483 91.516 98.5203 92.048 97.6243 92.44C96.7469 92.8133 95.7109 93 94.5163 93H93.7043C93.2749 93 92.9203 92.972 92.6403 92.916C92.3603 92.8413 92.1176 92.7387 91.9123 92.608C91.7256 92.4587 91.5669 92.2627 91.4363 92.02C91.3243 91.7773 91.2123 91.488 91.1003 91.152L90.3443 88.716H90.1203C89.4296 88.716 88.9349 88.5667 88.6363 88.268C88.3376 87.9507 88.1883 87.5493 88.1883 87.064C88.1883 86.5787 88.3376 86.1773 88.6363 85.86C88.9349 85.5427 89.4296 85.384 90.1203 85.384H90.9883ZM92.1413 77.628C91.5253 77.628 91.0866 77.4693 90.8253 77.152C90.5639 76.816 90.4333 76.452 90.4333 76.06C90.4333 75.668 90.5639 75.304 90.8253 74.968C91.0866 74.632 91.5253 74.464 92.1413 74.464H99.9253C100.355 74.464 100.663 74.576 100.849 74.8C101.017 75.024 101.101 75.2947 101.101 75.612C101.101 75.836 101.055 76.0693 100.961 76.312C100.868 76.5547 100.719 76.7787 100.513 76.984C100.289 77.1707 99.9999 77.3293 99.6453 77.46C99.2719 77.572 98.8239 77.628 98.3013 77.628H92.1413ZM108.073 87.428C108.073 87.9133 108.129 88.3147 108.241 88.632C108.372 88.9493 108.531 89.2107 108.717 89.416C108.923 89.6027 109.156 89.7427 109.417 89.836C109.679 89.9107 109.94 89.948 110.201 89.948C110.481 89.948 110.743 89.9107 110.985 89.836C111.247 89.7427 111.48 89.6027 111.685 89.416C111.891 89.2107 112.049 88.9493 112.161 88.632C112.292 88.3147 112.357 87.9133 112.357 87.428V80.82C112.357 80.036 112.563 79.4947 112.973 79.196C113.384 78.8787 113.832 78.72 114.317 78.72C114.56 78.72 114.803 78.7573 115.045 78.832C115.288 78.9067 115.503 79.028 115.689 79.196C115.876 79.3453 116.025 79.56 116.137 79.84C116.249 80.1013 116.305 80.428 116.305 80.82V87.652C116.305 88.6973 116.128 89.584 115.773 90.312C115.437 91.0213 114.98 91.6 114.401 92.048C113.841 92.4773 113.197 92.7947 112.469 93C111.741 93.1867 110.985 93.28 110.201 93.28C109.436 93.28 108.689 93.1867 107.961 93C107.233 92.7947 106.58 92.4773 106.001 92.048C105.441 91.6 104.984 91.0213 104.629 90.312C104.293 89.584 104.125 88.6973 104.125 87.652V80.82C104.125 80.036 104.331 79.4947 104.741 79.196C105.152 78.8787 105.6 78.72 106.085 78.72C106.328 78.72 106.571 78.7573 106.813 78.832C107.056 78.9067 107.271 79.028 107.457 79.196C107.644 79.3453 107.793 79.56 107.905 79.84C108.017 80.1013 108.073 80.428 108.073 80.82V87.428ZM111.768 75.024C112.384 74.6507 113.168 74.464 114.12 74.464H117.088C117.518 74.464 117.816 74.576 117.984 74.8C118.171 75.024 118.264 75.2947 118.264 75.612C118.264 75.836 118.218 76.0693 118.124 76.312C118.031 76.5547 117.882 76.7787 117.676 76.984C117.452 77.1707 117.163 77.3293 116.808 77.46C116.435 77.572 115.987 77.628 115.464 77.628H110.564C109.724 77.628 109.118 77.4693 108.744 77.152C108.371 76.816 108.184 76.2 108.184 75.304V74.464C108.184 73.7733 108.371 73.2787 108.744 72.98C109.118 72.6813 109.547 72.532 110.032 72.532C110.48 72.532 110.882 72.6813 111.236 72.98C111.591 73.2787 111.768 73.7733 111.768 74.464V75.024ZM125.04 89.836C125.731 89.836 126.198 89.976 126.44 90.256C126.702 90.5173 126.832 90.8813 126.832 91.348C126.832 92.0387 126.59 92.5333 126.104 92.832C125.619 93.1307 124.872 93.28 123.864 93.28C122.222 93.28 120.924 92.6827 119.972 91.488C119.039 90.2747 118.572 88.604 118.572 86.476C118.572 83.7507 119.011 81.7813 119.888 80.568C120.766 79.336 122.016 78.72 123.64 78.72C124.163 78.72 124.63 78.776 125.04 78.888C125.451 79 125.815 79.168 126.132 79.392C126.468 79.616 126.767 79.9053 127.028 80.26C127.29 80.596 127.542 80.988 127.784 81.436H127.98L128.316 80.372C128.484 79.8493 128.699 79.448 128.96 79.168C129.222 78.8693 129.604 78.72 130.108 78.72C130.631 78.72 131.042 78.8413 131.34 79.084C131.658 79.3267 131.816 79.7933 131.816 80.484V91.18C131.816 91.572 131.76 91.908 131.648 92.188C131.536 92.4493 131.387 92.664 131.2 92.832C131.014 92.9813 130.799 93.0933 130.556 93.168C130.314 93.2427 130.071 93.28 129.828 93.28C129.343 93.28 128.895 93.1307 128.484 92.832C128.074 92.5147 127.868 91.964 127.868 91.18V84.768H127.252C126.674 84.768 126.263 84.656 126.02 84.432C125.778 84.1893 125.554 83.8533 125.348 83.424C125.124 82.976 124.9 82.64 124.676 82.416C124.471 82.1733 124.219 82.052 123.92 82.052C123.416 82.052 123.052 82.4067 122.828 83.116C122.623 83.8253 122.52 84.796 122.52 86.028C122.52 86.5133 122.548 86.98 122.604 87.428C122.679 87.876 122.791 88.2867 122.94 88.66C123.108 89.0147 123.323 89.304 123.584 89.528C123.864 89.7333 124.219 89.836 124.648 89.836H125.04ZM139.564 89.78C140.143 89.78 140.628 89.7147 141.02 89.584C141.412 89.4533 141.608 89.248 141.608 88.968C141.608 88.5947 141.431 88.3147 141.076 88.128C140.722 87.9227 140.283 87.736 139.76 87.568C139.238 87.4 138.659 87.232 138.024 87.064C137.408 86.8773 136.839 86.616 136.316 86.28C135.794 85.944 135.355 85.5053 135 84.964C134.646 84.404 134.468 83.676 134.468 82.78C134.468 82.052 134.618 81.436 134.916 80.932C135.215 80.4093 135.616 79.9893 136.12 79.672C136.624 79.336 137.203 79.0933 137.856 78.944C138.51 78.7947 139.2 78.72 139.928 78.72C140.451 78.72 141.002 78.7573 141.58 78.832C142.178 78.9067 142.728 79.0467 143.232 79.252C143.736 79.4387 144.147 79.7 144.464 80.036C144.8 80.3533 144.968 80.7547 144.968 81.24C144.968 81.7813 144.81 82.1733 144.492 82.416C144.194 82.64 143.858 82.752 143.484 82.752C143.26 82.752 143.027 82.724 142.784 82.668C142.542 82.612 142.271 82.556 141.972 82.5C141.692 82.4253 141.375 82.36 141.02 82.304C140.666 82.248 140.255 82.22 139.788 82.22C139.378 82.22 139.042 82.276 138.78 82.388C138.538 82.4813 138.416 82.64 138.416 82.864C138.416 83.1813 138.594 83.424 138.948 83.592C139.303 83.76 139.742 83.9187 140.264 84.068C140.787 84.1987 141.356 84.348 141.972 84.516C142.607 84.684 143.186 84.9267 143.708 85.244C144.231 85.5427 144.67 85.944 145.024 86.448C145.379 86.952 145.556 87.6053 145.556 88.408C145.556 89.3227 145.398 90.0973 145.08 90.732C144.763 91.348 144.334 91.8427 143.792 92.216C143.27 92.5893 142.654 92.86 141.944 93.028C141.254 93.196 140.535 93.28 139.788 93.28C139.266 93.28 138.678 93.2427 138.024 93.168C137.371 93.0933 136.755 92.9627 136.176 92.776C135.598 92.5707 135.112 92.3093 134.72 91.992C134.328 91.656 134.132 91.2453 134.132 90.76C134.132 90.2187 134.282 89.8267 134.58 89.584C134.898 89.3413 135.224 89.22 135.56 89.22C135.878 89.22 136.176 89.248 136.456 89.304C136.736 89.36 137.016 89.4253 137.296 89.5C137.595 89.5747 137.922 89.64 138.276 89.696C138.65 89.752 139.079 89.78 139.564 89.78Z"/>
</mask>
<path d="M86.132 91.18C86.132 91.572 86.076 91.908 85.964 92.188C85.852 92.4493 85.7027 92.664 85.516 92.832C85.3293 92.9813 85.1147 93.0933 84.872 93.168C84.6293 93.2427 84.3867 93.28 84.144 93.28C83.6587 93.28 83.2107 93.1307 82.8 92.832C82.3893 92.5147 82.184 91.964 82.184 91.18V88.716C82.184 88.3427 82.0347 88.072 81.736 87.904C81.4373 87.736 80.896 87.652 80.112 87.652C79.16 87.652 78.4973 87.7733 78.124 88.016C77.7507 88.2587 77.564 88.5667 77.564 88.94C77.564 89.3133 77.6667 89.5653 77.872 89.696C78.096 89.8267 78.3667 89.892 78.684 89.892C79.0013 89.892 79.2533 89.864 79.44 89.808C79.6453 89.7333 79.86 89.696 80.084 89.696C80.4573 89.696 80.7467 89.8547 80.952 90.172C81.1573 90.4707 81.26 90.8067 81.26 91.18C81.26 91.964 80.9707 92.5147 80.392 92.832C79.832 93.1307 79.1227 93.28 78.264 93.28C77.6667 93.28 77.088 93.1867 76.528 93C75.9867 92.832 75.492 92.5707 75.044 92.216C74.6147 91.8613 74.2693 91.4227 74.008 90.9C73.7467 90.3587 73.616 89.7333 73.616 89.024C73.616 88.3147 73.7373 87.6707 73.98 87.092C74.2227 86.5133 74.596 86.0187 75.1 85.608C75.604 85.1973 76.248 84.88 77.032 84.656C77.8347 84.432 78.7867 84.32 79.888 84.32C80.2053 84.32 80.56 84.3387 80.952 84.376C81.3627 84.4133 81.7733 84.488 82.184 84.6V83.928C82.184 83.3493 81.9973 82.892 81.624 82.556C81.2507 82.22 80.7373 82.052 80.084 82.052C79.5427 82.052 79.1227 82.1453 78.824 82.332C78.544 82.5 78.2827 82.696 78.04 82.92C77.7973 83.1253 77.5267 83.3213 77.228 83.508C76.948 83.676 76.5467 83.76 76.024 83.76C75.52 83.76 75.1373 83.62 74.876 83.34C74.6147 83.06 74.484 82.7147 74.484 82.304C74.484 81.9307 74.596 81.5387 74.82 81.128C75.044 80.7173 75.3987 80.3347 75.884 79.98C77.004 79.14 78.4973 78.72 80.364 78.72C81.3907 78.72 82.3147 78.888 83.136 79.224C83.4533 78.8133 83.78 78.5333 84.116 78.384C84.4707 78.2347 84.8627 78.16 85.292 78.16C85.7773 78.16 86.188 78.272 86.524 78.496C86.86 78.7013 87.028 79.0187 87.028 79.448C87.028 79.8587 86.8693 80.2973 86.552 80.764L85.796 81.912C86.02 82.5093 86.132 83.1907 86.132 83.956V91.18ZM83.1482 95.352C83.1482 94.8107 83.2976 94.4187 83.5962 94.176C83.8762 93.9333 84.2029 93.812 84.5762 93.812C84.9309 93.812 85.2576 93.9333 85.5562 94.176C85.8549 94.4187 86.0042 94.8107 86.0042 95.352V96.36C86.0042 97.424 85.7242 98.18 85.1642 98.628C84.5856 99.076 83.8202 99.3 82.8682 99.3C81.9162 99.3 81.1602 99.076 80.6002 98.628C80.0216 98.18 79.7322 97.424 79.7322 96.36V95.352C79.7322 94.8107 79.8816 94.4187 80.1802 94.176C80.4602 93.9333 80.7869 93.812 81.1602 93.812C81.5149 93.812 81.8416 93.9333 82.1402 94.176C82.4389 94.4187 82.5882 94.8107 82.5882 95.352V96.332C82.5882 96.556 82.6162 96.7053 82.6722 96.78C82.7096 96.8733 82.7749 96.92 82.8682 96.92C82.9616 96.92 83.0362 96.8733 83.0922 96.78C83.1296 96.7053 83.1482 96.556 83.1482 96.332V95.352ZM90.9883 85.384C91.8283 85.384 92.4536 85.524 92.8643 85.804C93.2749 86.084 93.6016 86.588 93.8443 87.316L94.6003 89.668H94.7683C95.6456 89.668 96.3269 89.2947 96.8123 88.548C97.3163 87.7827 97.5683 86.756 97.5683 85.468C97.5683 84.1427 97.3349 83.2467 96.8683 82.78C96.4203 82.2947 95.7763 82.052 94.9363 82.052C94.3203 82.052 93.8349 82.1733 93.4803 82.416C93.1256 82.64 92.8083 82.9013 92.5283 83.2C92.2483 83.48 91.9683 83.7413 91.6883 83.984C91.4083 84.208 91.0536 84.32 90.6243 84.32C89.4856 84.32 88.9163 83.8253 88.9163 82.836C88.9163 81.9027 89.4109 81.016 90.4003 80.176C90.9603 79.7093 91.6136 79.3547 92.3603 79.112C93.1256 78.8507 93.9843 78.72 94.9363 78.72C97.1016 78.72 98.7349 79.252 99.8363 80.316C100.956 81.3613 101.516 83.0787 101.516 85.468C101.516 86.532 101.376 87.5307 101.096 88.464C100.816 89.3787 100.387 90.172 99.8083 90.844C99.2483 91.516 98.5203 92.048 97.6243 92.44C96.7469 92.8133 95.7109 93 94.5163 93H93.7043C93.2749 93 92.9203 92.972 92.6403 92.916C92.3603 92.8413 92.1176 92.7387 91.9123 92.608C91.7256 92.4587 91.5669 92.2627 91.4363 92.02C91.3243 91.7773 91.2123 91.488 91.1003 91.152L90.3443 88.716H90.1203C89.4296 88.716 88.9349 88.5667 88.6363 88.268C88.3376 87.9507 88.1883 87.5493 88.1883 87.064C88.1883 86.5787 88.3376 86.1773 88.6363 85.86C88.9349 85.5427 89.4296 85.384 90.1203 85.384H90.9883ZM92.1413 77.628C91.5253 77.628 91.0866 77.4693 90.8253 77.152C90.5639 76.816 90.4333 76.452 90.4333 76.06C90.4333 75.668 90.5639 75.304 90.8253 74.968C91.0866 74.632 91.5253 74.464 92.1413 74.464H99.9253C100.355 74.464 100.663 74.576 100.849 74.8C101.017 75.024 101.101 75.2947 101.101 75.612C101.101 75.836 101.055 76.0693 100.961 76.312C100.868 76.5547 100.719 76.7787 100.513 76.984C100.289 77.1707 99.9999 77.3293 99.6453 77.46C99.2719 77.572 98.8239 77.628 98.3013 77.628H92.1413ZM108.073 87.428C108.073 87.9133 108.129 88.3147 108.241 88.632C108.372 88.9493 108.531 89.2107 108.717 89.416C108.923 89.6027 109.156 89.7427 109.417 89.836C109.679 89.9107 109.94 89.948 110.201 89.948C110.481 89.948 110.743 89.9107 110.985 89.836C111.247 89.7427 111.48 89.6027 111.685 89.416C111.891 89.2107 112.049 88.9493 112.161 88.632C112.292 88.3147 112.357 87.9133 112.357 87.428V80.82C112.357 80.036 112.563 79.4947 112.973 79.196C113.384 78.8787 113.832 78.72 114.317 78.72C114.56 78.72 114.803 78.7573 115.045 78.832C115.288 78.9067 115.503 79.028 115.689 79.196C115.876 79.3453 116.025 79.56 116.137 79.84C116.249 80.1013 116.305 80.428 116.305 80.82V87.652C116.305 88.6973 116.128 89.584 115.773 90.312C115.437 91.0213 114.98 91.6 114.401 92.048C113.841 92.4773 113.197 92.7947 112.469 93C111.741 93.1867 110.985 93.28 110.201 93.28C109.436 93.28 108.689 93.1867 107.961 93C107.233 92.7947 106.58 92.4773 106.001 92.048C105.441 91.6 104.984 91.0213 104.629 90.312C104.293 89.584 104.125 88.6973 104.125 87.652V80.82C104.125 80.036 104.331 79.4947 104.741 79.196C105.152 78.8787 105.6 78.72 106.085 78.72C106.328 78.72 106.571 78.7573 106.813 78.832C107.056 78.9067 107.271 79.028 107.457 79.196C107.644 79.3453 107.793 79.56 107.905 79.84C108.017 80.1013 108.073 80.428 108.073 80.82V87.428ZM111.768 75.024C112.384 74.6507 113.168 74.464 114.12 74.464H117.088C117.518 74.464 117.816 74.576 117.984 74.8C118.171 75.024 118.264 75.2947 118.264 75.612C118.264 75.836 118.218 76.0693 118.124 76.312C118.031 76.5547 117.882 76.7787 117.676 76.984C117.452 77.1707 117.163 77.3293 116.808 77.46C116.435 77.572 115.987 77.628 115.464 77.628H110.564C109.724 77.628 109.118 77.4693 108.744 77.152C108.371 76.816 108.184 76.2 108.184 75.304V74.464C108.184 73.7733 108.371 73.2787 108.744 72.98C109.118 72.6813 109.547 72.532 110.032 72.532C110.48 72.532 110.882 72.6813 111.236 72.98C111.591 73.2787 111.768 73.7733 111.768 74.464V75.024ZM125.04 89.836C125.731 89.836 126.198 89.976 126.44 90.256C126.702 90.5173 126.832 90.8813 126.832 91.348C126.832 92.0387 126.59 92.5333 126.104 92.832C125.619 93.1307 124.872 93.28 123.864 93.28C122.222 93.28 120.924 92.6827 119.972 91.488C119.039 90.2747 118.572 88.604 118.572 86.476C118.572 83.7507 119.011 81.7813 119.888 80.568C120.766 79.336 122.016 78.72 123.64 78.72C124.163 78.72 124.63 78.776 125.04 78.888C125.451 79 125.815 79.168 126.132 79.392C126.468 79.616 126.767 79.9053 127.028 80.26C127.29 80.596 127.542 80.988 127.784 81.436H127.98L128.316 80.372C128.484 79.8493 128.699 79.448 128.96 79.168C129.222 78.8693 129.604 78.72 130.108 78.72C130.631 78.72 131.042 78.8413 131.34 79.084C131.658 79.3267 131.816 79.7933 131.816 80.484V91.18C131.816 91.572 131.76 91.908 131.648 92.188C131.536 92.4493 131.387 92.664 131.2 92.832C131.014 92.9813 130.799 93.0933 130.556 93.168C130.314 93.2427 130.071 93.28 129.828 93.28C129.343 93.28 128.895 93.1307 128.484 92.832C128.074 92.5147 127.868 91.964 127.868 91.18V84.768H127.252C126.674 84.768 126.263 84.656 126.02 84.432C125.778 84.1893 125.554 83.8533 125.348 83.424C125.124 82.976 124.9 82.64 124.676 82.416C124.471 82.1733 124.219 82.052 123.92 82.052C123.416 82.052 123.052 82.4067 122.828 83.116C122.623 83.8253 122.52 84.796 122.52 86.028C122.52 86.5133 122.548 86.98 122.604 87.428C122.679 87.876 122.791 88.2867 122.94 88.66C123.108 89.0147 123.323 89.304 123.584 89.528C123.864 89.7333 124.219 89.836 124.648 89.836H125.04ZM139.564 89.78C140.143 89.78 140.628 89.7147 141.02 89.584C141.412 89.4533 141.608 89.248 141.608 88.968C141.608 88.5947 141.431 88.3147 141.076 88.128C140.722 87.9227 140.283 87.736 139.76 87.568C139.238 87.4 138.659 87.232 138.024 87.064C137.408 86.8773 136.839 86.616 136.316 86.28C135.794 85.944 135.355 85.5053 135 84.964C134.646 84.404 134.468 83.676 134.468 82.78C134.468 82.052 134.618 81.436 134.916 80.932C135.215 80.4093 135.616 79.9893 136.12 79.672C136.624 79.336 137.203 79.0933 137.856 78.944C138.51 78.7947 139.2 78.72 139.928 78.72C140.451 78.72 141.002 78.7573 141.58 78.832C142.178 78.9067 142.728 79.0467 143.232 79.252C143.736 79.4387 144.147 79.7 144.464 80.036C144.8 80.3533 144.968 80.7547 144.968 81.24C144.968 81.7813 144.81 82.1733 144.492 82.416C144.194 82.64 143.858 82.752 143.484 82.752C143.26 82.752 143.027 82.724 142.784 82.668C142.542 82.612 142.271 82.556 141.972 82.5C141.692 82.4253 141.375 82.36 141.02 82.304C140.666 82.248 140.255 82.22 139.788 82.22C139.378 82.22 139.042 82.276 138.78 82.388C138.538 82.4813 138.416 82.64 138.416 82.864C138.416 83.1813 138.594 83.424 138.948 83.592C139.303 83.76 139.742 83.9187 140.264 84.068C140.787 84.1987 141.356 84.348 141.972 84.516C142.607 84.684 143.186 84.9267 143.708 85.244C144.231 85.5427 144.67 85.944 145.024 86.448C145.379 86.952 145.556 87.6053 145.556 88.408C145.556 89.3227 145.398 90.0973 145.08 90.732C144.763 91.348 144.334 91.8427 143.792 92.216C143.27 92.5893 142.654 92.86 141.944 93.028C141.254 93.196 140.535 93.28 139.788 93.28C139.266 93.28 138.678 93.2427 138.024 93.168C137.371 93.0933 136.755 92.9627 136.176 92.776C135.598 92.5707 135.112 92.3093 134.72 91.992C134.328 91.656 134.132 91.2453 134.132 90.76C134.132 90.2187 134.282 89.8267 134.58 89.584C134.898 89.3413 135.224 89.22 135.56 89.22C135.878 89.22 136.176 89.248 136.456 89.304C136.736 89.36 137.016 89.4253 137.296 89.5C137.595 89.5747 137.922 89.64 138.276 89.696C138.65 89.752 139.079 89.78 139.564 89.78Z" fill="white"/>
<path d="M85.964 92.188L87.8023 92.9758L87.8119 92.9534L87.821 92.9308L85.964 92.188ZM85.516 92.832L86.7654 94.3937L86.8108 94.3574L86.8539 94.3186L85.516 92.832ZM84.872 93.168L85.4602 95.0796H85.4602L84.872 93.168ZM82.8 92.832L81.5771 94.4146L81.6001 94.4324L81.6237 94.4495L82.8 92.832ZM78.124 88.016L79.214 89.6929L79.214 89.6929L78.124 88.016ZM77.872 89.696L76.7983 91.3833L76.8309 91.4041L76.8643 91.4236L77.872 89.696ZM79.44 89.808L80.0147 91.7237L80.0696 91.7072L80.1235 91.6876L79.44 89.808ZM80.952 90.172L79.2729 91.2585L79.2881 91.282L79.3039 91.3051L80.952 90.172ZM80.392 92.832L81.3332 94.5967L81.3435 94.5912L81.3537 94.5856L80.392 92.832ZM76.528 93L77.1605 91.1026L77.1407 91.096L77.1208 91.0899L76.528 93ZM75.044 92.216L73.7702 93.7579L73.7863 93.7712L73.8026 93.7841L75.044 92.216ZM74.008 90.9L72.2069 91.7695L72.2129 91.782L72.2191 91.7944L74.008 90.9ZM73.98 87.092L72.1356 86.3185H72.1356L73.98 87.092ZM75.1 85.608L76.3633 87.1585H76.3633L75.1 85.608ZM77.032 84.656L76.4944 82.7296L76.4826 82.733L77.032 84.656ZM80.952 84.376L80.7624 86.367L80.7709 86.3678L80.952 84.376ZM82.184 84.6L81.6578 86.5295L84.184 87.2185V84.6H82.184ZM81.624 82.556L82.9619 81.0694L82.9619 81.0694L81.624 82.556ZM78.824 82.332L79.853 84.047L79.8686 84.0376L79.884 84.028L78.824 82.332ZM78.04 82.92L79.3319 84.4468L79.3648 84.4189L79.3966 84.3896L78.04 82.92ZM77.228 83.508L78.257 85.223L78.2726 85.2136L78.288 85.204L77.228 83.508ZM74.876 83.34L76.3381 81.9754L76.3381 81.9754L74.876 83.34ZM74.82 81.128L73.0642 80.1703L73.0642 80.1703L74.82 81.128ZM75.884 79.98L77.064 81.5948L77.0741 81.5875L77.084 81.58L75.884 79.98ZM83.136 79.224L82.3787 81.0751L83.7877 81.6515L84.7186 80.4469L83.136 79.224ZM84.116 78.384L83.3399 76.5407L83.3217 76.5484L83.3037 76.5564L84.116 78.384ZM86.524 78.496L85.4146 80.1601L85.4474 80.182L85.4811 80.2026L86.524 78.496ZM86.552 80.764L84.8981 79.6394L84.8898 79.6516L84.8817 79.664L86.552 80.764ZM85.796 81.912L84.1257 80.812L83.5661 81.6617L83.9233 82.6142L85.796 81.912ZM84.132 91.18C84.132 91.3902 84.1009 91.4606 84.107 91.4452L87.821 92.9308C88.0511 92.3554 88.132 91.7538 88.132 91.18H84.132ZM84.1257 91.4002C84.1185 91.4171 84.1172 91.4158 84.1262 91.4029C84.1356 91.3893 84.1526 91.3683 84.1781 91.3454L86.8539 94.3186C87.2829 93.9326 87.5912 93.4683 87.8023 92.9758L84.1257 91.4002ZM84.2666 91.2703C84.2708 91.2669 84.2752 91.2638 84.2794 91.261C84.2836 91.2582 84.2872 91.2562 84.2899 91.2548C84.2955 91.2519 84.2945 91.2532 84.2838 91.2564L85.4602 95.0796C85.9282 94.9356 86.3703 94.7098 86.7654 94.3937L84.2666 91.2703ZM84.2838 91.2564C84.2229 91.2752 84.1782 91.28 84.144 91.28V95.28C84.5951 95.28 85.0358 95.2101 85.4602 95.0796L84.2838 91.2564ZM84.144 91.28C84.1017 91.28 84.062 91.2768 83.9763 91.2145L81.6237 94.4495C82.3593 94.9845 83.2156 95.28 84.144 95.28V91.28ZM84.0229 91.2494C84.0805 91.2939 84.1271 91.3443 84.1615 91.3928C84.1949 91.4398 84.2088 91.4738 84.212 91.4822C84.2147 91.4895 84.2072 91.4717 84.1992 91.4201C84.1913 91.3684 84.184 91.29 84.184 91.18H80.184C80.184 92.2582 80.4664 93.5563 81.5771 94.4146L84.0229 91.2494ZM84.184 91.18V88.716H80.184V91.18H84.184ZM84.184 88.716C84.184 87.6991 83.7109 86.7202 82.7165 86.1608L80.7555 89.6472C80.617 89.5692 80.4449 89.424 80.3208 89.1992C80.2016 88.983 80.184 88.7974 80.184 88.716H84.184ZM82.7165 86.1608C81.9212 85.7135 80.9031 85.652 80.112 85.652V89.652C80.4411 89.652 80.6631 89.6702 80.7993 89.6913C80.8653 89.7016 80.8931 89.7098 80.8918 89.7094C80.8902 89.7089 80.8773 89.705 80.8554 89.696C80.8336 89.6871 80.799 89.6716 80.7555 89.6472L82.7165 86.1608ZM80.112 85.652C79.1241 85.652 77.936 85.7528 77.034 86.3391L79.214 89.6929C79.0953 89.77 79.0695 89.7454 79.2612 89.7103C79.4363 89.6782 79.7116 89.652 80.112 89.652V85.652ZM77.034 86.3391C76.2196 86.8685 75.564 87.7515 75.564 88.94H79.564C79.564 89.1048 79.5176 89.2952 79.4144 89.4656C79.3193 89.6225 79.2213 89.6881 79.214 89.6929L77.034 86.3391ZM75.564 88.94C75.564 89.6109 75.7521 90.7176 76.7983 91.3833L78.9457 88.0087C79.2338 88.192 79.4073 88.4436 79.4932 88.6544C79.5685 88.8392 79.564 88.9579 79.564 88.94H75.564ZM76.8643 91.4236C77.4557 91.7686 78.0914 91.892 78.684 91.892V87.892C78.6419 87.892 78.7363 87.8847 78.8797 87.9684L76.8643 91.4236ZM78.684 91.892C79.0902 91.892 79.5619 91.8595 80.0147 91.7237L78.8653 87.8923C78.9159 87.8772 78.9299 87.8788 78.8901 87.8832C78.853 87.8874 78.7863 87.892 78.684 87.892V91.892ZM80.1235 91.6876C80.1158 91.6904 80.1067 91.6929 80.0977 91.6944C80.0887 91.696 80.0836 91.696 80.084 91.696V87.696C79.6329 87.696 79.1865 87.7721 78.7565 87.9284L80.1235 91.6876ZM80.084 91.696C79.9793 91.696 79.8064 91.6712 79.6193 91.5686C79.4333 91.4666 79.3239 91.3374 79.2729 91.2585L82.6311 89.0855C82.0628 88.2072 81.1459 87.696 80.084 87.696V91.696ZM79.3039 91.3051C79.2946 91.2915 79.2805 91.2659 79.2703 91.2324C79.2602 91.1995 79.26 91.179 79.26 91.18H83.26C83.26 90.415 83.0418 89.6815 82.6001 89.0389L79.3039 91.3051ZM79.26 91.18C79.26 91.3304 79.2322 91.3274 79.2725 91.2507C79.2926 91.2125 79.3216 91.1719 79.3575 91.136C79.3927 91.1008 79.4213 91.0833 79.4303 91.0784L81.3537 94.5856C82.7047 93.8447 83.26 92.5301 83.26 91.18H79.26ZM79.4508 91.0673C79.2646 91.1666 78.9051 91.28 78.264 91.28V95.28C79.3402 95.28 80.3994 95.0947 81.3332 94.5967L79.4508 91.0673ZM78.264 91.28C77.879 91.28 77.5141 91.2205 77.1605 91.1026L75.8955 94.8974C76.6619 95.1528 77.4543 95.28 78.264 95.28V91.28ZM77.1208 91.0899C76.8168 90.9955 76.5417 90.8508 76.2854 90.6479L73.8026 93.7841C74.4423 94.2905 75.1565 94.6685 75.9352 94.9101L77.1208 91.0899ZM76.3178 90.6741C76.114 90.5057 75.9398 90.2914 75.7969 90.0056L72.2191 91.7944C72.5989 92.5539 73.1154 93.217 73.7702 93.7579L76.3178 90.6741ZM75.8091 90.0305C75.7002 89.8049 75.616 89.486 75.616 89.024H71.616C71.616 89.9806 71.7931 90.9124 72.2069 91.7695L75.8091 90.0305ZM75.616 89.024C75.616 88.5457 75.697 88.1692 75.8244 87.8655L72.1356 86.3185C71.7777 87.1721 71.616 88.0836 71.616 89.024H75.616ZM75.8244 87.8655C75.9354 87.6007 76.1043 87.3695 76.3633 87.1585L73.8367 84.0575C73.0877 84.6678 72.5099 85.426 72.1356 86.3185L75.8244 87.8655ZM76.3633 87.1585C76.611 86.9567 76.9941 86.7468 77.5814 86.579L76.4826 82.733C75.5019 83.0132 74.597 83.438 73.8367 84.0575L76.3633 87.1585ZM77.5696 86.5824C78.1515 86.42 78.9138 86.32 79.888 86.32V82.32C78.6595 82.32 77.5178 82.444 76.4944 82.7296L77.5696 86.5824ZM79.888 86.32C80.1291 86.32 80.4191 86.3343 80.7624 86.367L81.1416 82.385C80.7009 82.343 80.2815 82.32 79.888 82.32V86.32ZM80.7709 86.3678C81.0612 86.3942 81.3565 86.4474 81.6578 86.5295L82.7102 82.6705C82.1902 82.5286 81.6641 82.4325 81.1331 82.3842L80.7709 86.3678ZM84.184 84.6V83.928H80.184V84.6H84.184ZM84.184 83.928C84.184 82.8774 83.8225 81.844 82.9619 81.0694L80.2861 84.0426C80.2724 84.0303 80.2539 84.0108 80.2351 83.9841C80.2161 83.9573 80.2019 83.9304 80.1923 83.9068C80.1724 83.8581 80.184 83.8541 80.184 83.928H84.184ZM82.9619 81.0694C82.1219 80.3134 81.079 80.052 80.084 80.052V84.052C80.2422 84.052 80.3181 84.0726 80.3369 84.0788C80.3455 84.0816 80.3416 84.0811 80.3294 84.0742C80.3169 84.0671 80.3015 84.0565 80.2861 84.0426L82.9619 81.0694ZM80.084 80.052C79.3537 80.052 78.508 80.171 77.764 80.636L79.884 84.028C79.8034 84.0784 79.7612 84.0823 79.7969 84.0744C79.8334 84.0662 79.9237 84.052 80.084 84.052V80.052ZM77.795 80.617C77.3964 80.8562 77.0255 81.1347 76.6834 81.4504L79.3966 84.3896C79.5399 84.2573 79.6916 84.1438 79.853 84.047L77.795 80.617ZM76.7481 81.3932C76.5859 81.5305 76.394 81.6708 76.168 81.812L78.288 85.204C78.6593 84.9719 79.0087 84.7202 79.3319 84.4468L76.7481 81.3932ZM76.199 81.793C76.2922 81.7371 76.3429 81.732 76.3073 81.7394C76.2722 81.7468 76.1832 81.76 76.024 81.76V85.76C76.7121 85.76 77.5322 85.6579 78.257 85.223L76.199 81.793ZM76.024 81.76C75.9529 81.76 75.9722 81.7497 76.0462 81.7768C76.1306 81.8076 76.2408 81.8711 76.3381 81.9754L73.4139 84.7046C74.1629 85.5071 75.1494 85.76 76.024 85.76V81.76ZM76.3381 81.9754C76.3783 82.0184 76.4224 82.0833 76.4526 82.1632C76.4819 82.2407 76.484 82.2946 76.484 82.304H72.484C72.484 83.1812 72.7805 84.026 73.4139 84.7046L76.3381 81.9754ZM76.484 82.304C76.484 82.3397 76.4722 82.2756 76.5758 82.0857L73.0642 80.1703C72.7198 80.8017 72.484 81.5217 72.484 82.304H76.484ZM76.5758 82.0857C76.6244 81.9966 76.7513 81.8233 77.064 81.5948L74.704 78.3652C74.046 78.846 73.4636 79.4381 73.0642 80.1703L76.5758 82.0857ZM77.084 81.58C77.7585 81.0741 78.7868 80.72 80.364 80.72V76.72C78.2078 76.72 76.2495 77.2059 74.684 78.38L77.084 81.58ZM80.364 80.72C81.1713 80.72 81.8324 80.8516 82.3787 81.0751L83.8933 77.3729C82.7969 76.9244 81.6101 76.72 80.364 76.72V80.72ZM84.7186 80.4469C84.8103 80.3281 84.8793 80.2599 84.9206 80.2245C84.961 80.1898 84.9646 80.1955 84.9283 80.2116L83.3037 76.5564C82.5658 76.8843 81.9949 77.4298 81.5534 78.0011L84.7186 80.4469ZM84.8921 80.2273C84.9742 80.1927 85.0984 80.16 85.292 80.16V76.16C84.627 76.16 83.9671 76.2766 83.3399 76.5407L84.8921 80.2273ZM85.292 80.16C85.3813 80.16 85.426 80.1703 85.4378 80.1735C85.447 80.176 85.4349 80.1737 85.4146 80.1601L87.6334 76.8319C86.9075 76.348 86.0913 76.16 85.292 76.16V80.16ZM85.4811 80.2026C85.3733 80.1367 85.2344 80.0126 85.1344 79.8238C85.0386 79.6428 85.028 79.496 85.028 79.448H89.028C89.028 78.3976 88.5592 77.3959 87.5669 76.7894L85.4811 80.2026ZM85.028 79.448C85.028 79.333 85.0719 79.3838 84.8981 79.6394L88.2059 81.8886C88.6667 81.2109 89.028 80.3843 89.028 79.448H85.028ZM84.8817 79.664L84.1257 80.812L87.4663 83.012L88.2223 81.864L84.8817 79.664ZM83.9233 82.6142C84.0482 82.9472 84.132 83.3839 84.132 83.956H88.132C88.132 82.9975 87.9918 82.0715 87.6687 81.2098L83.9233 82.6142ZM84.132 83.956V91.18H88.132V83.956H84.132ZM83.5962 94.176L84.8574 95.7282L84.8821 95.7082L84.9061 95.6874L83.5962 94.176ZM85.5562 94.176L86.8174 92.6238L85.5562 94.176ZM85.1643 98.628L86.3886 100.209L86.4012 100.2L86.4136 100.19L85.1643 98.628ZM80.6002 98.628L81.8496 97.0663L81.8372 97.0563L81.8246 97.0466L80.6002 98.628ZM80.1802 94.176L81.4414 95.7282L81.4661 95.7082L81.4901 95.6874L80.1802 94.176ZM82.1402 94.176L80.8791 95.7282L82.1402 94.176ZM82.6722 96.78L84.5292 96.0372L84.431 95.7916L84.2722 95.58L82.6722 96.78ZM83.0922 96.78L84.8072 97.809L84.8468 97.7431L84.8811 97.6744L83.0922 96.78ZM85.1482 95.352C85.1482 95.2574 85.1623 95.2772 85.1292 95.364C85.0903 95.4662 85.0053 95.6081 84.8574 95.7282L82.3351 92.6238C81.4007 93.3829 81.1482 94.4652 81.1482 95.352H85.1482ZM84.9061 95.6874C84.8766 95.713 84.8228 95.7499 84.7476 95.7779C84.6727 95.8057 84.6102 95.812 84.5763 95.812V91.812C83.7258 91.812 82.933 92.1042 82.2864 92.6646L84.9061 95.6874ZM84.5763 95.812C84.5202 95.812 84.4544 95.8014 84.3909 95.7779C84.3294 95.755 84.2976 95.7303 84.2951 95.7282L86.8174 92.6238C86.1947 92.1178 85.4304 91.812 84.5763 91.812V95.812ZM84.2951 95.7282C84.1472 95.6081 84.0622 95.4662 84.0233 95.364C83.9902 95.2772 84.0042 95.2574 84.0042 95.352H88.0042C88.0042 94.4652 87.7518 93.3829 86.8174 92.6238L84.2951 95.7282ZM84.0042 95.352V96.36H88.0042V95.352H84.0042ZM84.0042 96.36C84.0042 96.7264 83.9548 96.9331 83.9188 97.0304C83.8888 97.1112 83.8773 97.0963 83.9149 97.0663L86.4136 100.19C87.6424 99.2067 88.0042 97.7291 88.0042 96.36H84.0042ZM83.9399 97.0466C83.8047 97.1512 83.5111 97.3 82.8682 97.3V101.3C84.1294 101.3 85.3665 101.001 86.3886 100.209L83.9399 97.0466ZM82.8682 97.3C82.2213 97.3 81.9539 97.1497 81.8496 97.0663L79.3509 100.19C80.3666 101.002 81.6112 101.3 82.8682 101.3V97.3ZM81.8246 97.0466C81.8553 97.0703 81.8451 97.0832 81.8171 97.0101C81.7825 96.9196 81.7322 96.7203 81.7322 96.36H77.7322C77.7322 97.7496 78.1154 99.2335 79.3759 100.209L81.8246 97.0466ZM81.7322 96.36V95.352H77.7322V96.36H81.7322ZM81.7322 95.352C81.7322 95.2574 81.7463 95.2772 81.7132 95.364C81.6743 95.4662 81.5893 95.6081 81.4414 95.7282L78.9191 92.6238C77.9847 93.3829 77.7322 94.4652 77.7322 95.352H81.7322ZM81.4901 95.6874C81.4606 95.713 81.4068 95.7499 81.3316 95.7779C81.2567 95.8057 81.1942 95.812 81.1602 95.812V91.812C80.3098 91.812 79.517 92.1042 78.8704 92.6646L81.4901 95.6874ZM81.1602 95.812C81.1042 95.812 81.0384 95.8014 80.9749 95.7779C80.9134 95.755 80.8816 95.7303 80.8791 95.7282L83.4014 92.6238C82.7787 92.1178 82.0144 91.812 81.1602 91.812V95.812ZM80.8791 95.7282C80.7312 95.6081 80.6462 95.4662 80.6073 95.364C80.5742 95.2772 80.5882 95.2574 80.5882 95.352H84.5883C84.5883 94.4652 84.3358 93.3829 83.4014 92.6238L80.8791 95.7282ZM80.5882 95.352V96.332H84.5883V95.352H80.5882ZM80.5882 96.332C80.5882 96.5154 80.5988 96.742 80.6435 96.9806C80.6826 97.1892 80.7797 97.5899 81.0723 97.98L84.2722 95.58C84.3992 95.7492 84.4697 95.9051 84.5082 96.0078C84.5474 96.1125 84.5661 96.1959 84.575 96.2434C84.5917 96.3327 84.5883 96.3726 84.5883 96.332H80.5882ZM80.8153 97.5228C80.9404 97.8354 81.1728 98.2168 81.5868 98.5125C82.0114 98.8158 82.4747 98.92 82.8682 98.92V94.92C83.1685 94.92 83.5524 95.0009 83.9117 95.2575C84.2604 95.5066 84.4415 95.8179 84.5292 96.0372L80.8153 97.5228ZM82.8682 98.92C83.792 98.92 84.4608 98.3863 84.8072 97.809L81.3773 95.751C81.4741 95.5896 81.6477 95.3681 81.9343 95.189C82.2341 95.0016 82.5636 94.92 82.8682 94.92V98.92ZM84.8811 97.6744C85.052 97.3327 85.1001 97.0093 85.1188 96.8601C85.1421 96.6739 85.1482 96.4911 85.1482 96.332H81.1482C81.1482 96.3969 81.1451 96.4008 81.1497 96.3639C81.1522 96.3439 81.1591 96.2942 81.1765 96.2249C81.1925 96.161 81.228 96.0363 81.3034 95.8856L84.8811 97.6744ZM85.1482 96.332V95.352H81.1482V96.332H85.1482ZM92.8643 85.804L91.7376 87.4565L91.7376 87.4565L92.8643 85.804ZM93.8442 87.316L95.7483 86.704L95.745 86.6937L95.7416 86.6835L93.8442 87.316ZM94.6003 89.668L92.6962 90.28L93.1423 91.668H94.6003V89.668ZM96.8123 88.548L95.1419 87.448L95.1354 87.458L96.8123 88.548ZM96.8682 82.78L95.3986 84.1366L95.4258 84.1659L95.454 84.1942L96.8682 82.78ZM93.4802 82.416L94.5482 84.107L94.5793 84.0874L94.6096 84.0666L93.4802 82.416ZM92.5282 83.2L93.9425 84.6142L93.9653 84.5914L93.9873 84.5679L92.5282 83.2ZM91.6882 83.984L92.9376 85.5457L92.9684 85.5212L92.9981 85.4954L91.6882 83.984ZM90.4002 80.176L89.1199 78.6396L89.1128 78.6455L89.1058 78.6514L90.4002 80.176ZM92.3603 79.112L92.9784 81.0141L92.9925 81.0095L93.0065 81.0047L92.3603 79.112ZM99.8363 80.316L98.4466 81.7544L98.459 81.7664L98.4716 81.7781L99.8363 80.316ZM101.096 88.464L103.009 89.0494L103.012 89.0387L101.096 88.464ZM99.8083 90.844L98.2927 89.539L98.2822 89.5512L98.2718 89.5636L99.8083 90.844ZM97.6243 92.44L98.4074 94.2803L98.4166 94.2764L98.4259 94.2723L97.6243 92.44ZM92.6402 92.916L92.1249 94.8485L92.186 94.8648L92.248 94.8772L92.6402 92.916ZM91.9123 92.608L90.6629 94.1697L90.7473 94.2373L90.8385 94.2953L91.9123 92.608ZM91.4363 92.02L89.6203 92.8581L89.6461 92.914L89.6753 92.9682L91.4363 92.02ZM91.1003 91.152L89.1901 91.7448L89.1963 91.7647L89.2029 91.7845L91.1003 91.152ZM90.3442 88.716L92.2544 88.1232L91.8177 86.716H90.3442V88.716ZM88.6362 88.268L87.1799 89.6387L87.2006 89.6608L87.222 89.6822L88.6362 88.268ZM88.6362 85.86L87.1799 84.4893L87.1798 84.4893L88.6362 85.86ZM90.9883 87.384C91.3039 87.384 91.5174 87.4109 91.6503 87.4407C91.7843 87.4707 91.792 87.4935 91.7376 87.4565L93.9909 84.1515C93.0896 83.537 91.9819 83.384 90.9883 83.384V87.384ZM91.7376 87.4565C91.6827 87.419 91.6907 87.4054 91.7389 87.4798C91.789 87.557 91.865 87.7029 91.9469 87.9485L95.7416 86.6835C95.4314 85.7529 94.9126 84.7799 93.9909 84.1515L91.7376 87.4565ZM91.9402 87.928L92.6962 90.28L96.5043 89.056L95.7483 86.704L91.9402 87.928ZM94.6003 91.668H94.7682V87.668H94.6003V91.668ZM94.7682 91.668C96.3348 91.668 97.6416 90.9419 98.4891 89.638L95.1354 87.458C95.0462 87.5952 94.9871 87.6281 94.9762 87.634C94.9665 87.6394 94.9151 87.668 94.7682 87.668V91.668ZM98.4826 89.648C99.2724 88.4487 99.5683 86.9947 99.5683 85.468H95.5683C95.5683 86.5173 95.3601 87.1167 95.1419 87.448L98.4826 89.648ZM99.5683 85.468C99.5683 84.0753 99.358 82.4414 98.2825 81.3658L95.454 84.1942C95.3543 84.0944 95.3965 84.0705 95.4578 84.306C95.5176 84.5356 95.5683 84.9089 95.5683 85.468H99.5683ZM98.3379 81.4234C97.4141 80.4227 96.1731 80.052 94.9363 80.052V84.052C95.1668 84.052 95.2911 84.0856 95.344 84.1055C95.3872 84.1218 95.3948 84.1324 95.3986 84.1366L98.3379 81.4234ZM94.9363 80.052C94.0844 80.052 93.1537 80.2161 92.3509 80.7654L94.6096 84.0666C94.5618 84.0993 94.5458 84.0957 94.5953 84.0833C94.6478 84.0702 94.7557 84.052 94.9363 84.052V80.052ZM92.4123 80.725C91.9176 81.0374 91.4681 81.4066 91.0692 81.8321L93.9873 84.5679C94.1484 84.3961 94.3336 84.2426 94.5482 84.107L92.4123 80.725ZM91.114 81.7858C90.8654 82.0344 90.6201 82.2631 90.3784 82.4726L92.9981 85.4954C93.3164 85.2195 93.6311 84.9256 93.9425 84.6142L91.114 81.7858ZM90.4389 82.4223C90.4986 82.3745 90.5611 82.3443 90.61 82.3288C90.6549 82.3147 90.6655 82.32 90.6243 82.32V86.32C91.4148 86.32 92.2367 86.1065 92.9376 85.5457L90.4389 82.4223ZM90.6243 82.32C90.4779 82.32 90.4237 82.3034 90.4334 82.3062C90.4492 82.3108 90.5426 82.3416 90.655 82.4393C90.7734 82.5421 90.8506 82.6654 90.8903 82.7689C90.9254 82.8604 90.9163 82.8962 90.9163 82.836H86.9163C86.9163 83.7179 87.183 84.7216 88.0315 85.4587C88.8262 86.1492 89.8102 86.32 90.6243 86.32V82.32ZM90.9163 82.836C90.9163 82.6932 90.9703 82.3157 91.6947 81.7006L89.1058 78.6514C87.8515 79.7163 86.9163 81.1121 86.9163 82.836H90.9163ZM91.6806 81.7124C92.0305 81.4209 92.4549 81.1842 92.9784 81.0141L91.7421 77.2099C90.7722 77.5251 89.89 77.9978 89.1199 78.6396L91.6806 81.7124ZM93.0065 81.0047C93.5307 80.8257 94.1661 80.72 94.9363 80.72V76.72C93.8024 76.72 92.7205 76.8756 91.714 77.2193L93.0065 81.0047ZM94.9363 80.72C96.799 80.72 97.849 81.177 98.4466 81.7544L101.226 78.8776C99.6209 77.327 97.4042 76.72 94.9363 76.72V80.72ZM98.4716 81.7781C99.0072 82.278 99.5163 83.328 99.5163 85.468H103.516C103.516 82.8293 102.905 80.4446 101.201 78.8539L98.4716 81.7781ZM99.5163 85.468C99.5163 86.3551 99.3998 87.1587 99.1806 87.8893L103.012 89.0387C103.353 87.9026 103.516 86.7089 103.516 85.468H99.5163ZM99.1839 87.8786C98.9784 88.5496 98.6769 89.0929 98.2927 89.539L101.324 92.149C102.097 91.2511 102.654 90.2078 103.009 89.0494L99.1839 87.8786ZM98.2718 89.5636C97.933 89.9702 97.4681 90.3253 96.8226 90.6077L98.4259 94.2723C99.5724 93.7707 100.563 93.0618 101.345 92.1244L98.2718 89.5636ZM96.8411 90.5997C96.2655 90.8446 95.5076 91 94.5163 91V95C95.9142 95 97.2283 94.782 98.4074 94.2803L96.8411 90.5997ZM94.5163 91H93.7043V95H94.5163V91ZM93.7043 91C93.3479 91 93.1363 90.9756 93.0325 90.9548L92.248 94.8772C92.7042 94.9684 93.2019 95 93.7043 95V91ZM93.1556 90.9835C93.0366 90.9518 92.9896 90.923 92.986 90.9207L90.8385 94.2953C91.2456 94.5544 91.6839 94.7309 92.1249 94.8485L93.1556 90.9835ZM93.1616 91.0463C93.1866 91.0662 93.2015 91.0829 93.2077 91.0906C93.2136 91.0978 93.2089 91.0935 93.1972 91.0718L89.6753 92.9682C89.9142 93.4118 90.2365 93.8286 90.6629 94.1697L93.1616 91.0463ZM93.2522 91.1819C93.1792 91.0237 93.0933 90.8065 92.9976 90.5195L89.2029 91.7845C89.3312 92.1695 89.4693 92.531 89.6203 92.8581L93.2522 91.1819ZM93.0104 90.5592L92.2544 88.1232L88.4341 89.3088L89.1901 91.7448L93.0104 90.5592ZM90.3442 86.716H90.1203V90.716H90.3442V86.716ZM90.1203 86.716C90.0186 86.716 89.9426 86.7104 89.889 86.7037C89.8352 86.6969 89.8107 86.6898 89.8093 86.6893C89.8079 86.6889 89.92 86.7233 90.0505 86.8538L87.222 89.6822C88.0742 90.5343 89.2204 90.716 90.1203 90.716V86.716ZM90.0926 86.8973C90.1057 86.9112 90.1217 86.9309 90.1375 86.9562C90.1533 86.9816 90.1657 87.0075 90.1747 87.0315C90.1934 87.0817 90.1882 87.1 90.1882 87.064H86.1882C86.1882 87.996 86.4912 88.907 87.1799 89.6387L90.0926 86.8973ZM90.1882 87.064C90.1882 87.028 90.1934 87.0463 90.1747 87.0965C90.1657 87.1205 90.1533 87.1464 90.1375 87.1718C90.1217 87.1971 90.1057 87.2168 90.0927 87.2307L87.1798 84.4893C86.4912 85.221 86.1882 86.132 86.1882 87.064H90.1882ZM90.0926 87.2307C90.0338 87.2932 89.9748 87.3375 89.926 87.3667C89.8786 87.3952 89.847 87.4059 89.8421 87.4074C89.8378 87.4088 89.8563 87.4025 89.9044 87.3961C89.9523 87.3896 90.0231 87.384 90.1203 87.384V83.384C89.1927 83.384 88.0283 83.5878 87.1799 84.4893L90.0926 87.2307ZM90.1203 87.384H90.9883V83.384H90.1203V87.384ZM90.8253 77.152L89.2466 78.3799L89.2637 78.4019L89.2814 78.4234L90.8253 77.152ZM90.8253 74.968L89.2466 73.7401V73.7401L90.8253 74.968ZM100.849 74.8L102.449 73.6L102.419 73.559L102.386 73.5196L100.849 74.8ZM100.961 76.312L99.0946 75.594L100.961 76.312ZM100.513 76.984L101.794 78.5204L101.863 78.4624L101.927 78.3982L100.513 76.984ZM99.6453 77.46L100.22 79.3757L100.279 79.358L100.337 79.3367L99.6453 77.46ZM92.1413 75.628C91.9952 75.628 91.9744 75.6079 92.0306 75.6282C92.0621 75.6397 92.1153 75.663 92.1792 75.7064C92.2442 75.7506 92.3101 75.8088 92.3691 75.8806L89.2814 78.4234C90.0809 79.3942 91.2316 79.628 92.1413 79.628V75.628ZM92.404 75.9241C92.3901 75.9063 92.4008 75.9154 92.4137 75.9513C92.4272 75.989 92.4333 76.0289 92.4333 76.06H88.4333C88.4333 76.9358 88.7371 77.7249 89.2466 78.3799L92.404 75.9241ZM92.4333 76.06C92.4333 76.0911 92.4272 76.131 92.4137 76.1687C92.4008 76.2046 92.3901 76.2137 92.404 76.1959L89.2466 73.7401C88.7371 74.3951 88.4333 75.1842 88.4333 76.06H92.4333ZM92.404 76.1959C92.3506 76.2645 92.2884 76.3236 92.2231 76.3706C92.1589 76.4168 92.1027 76.4435 92.0656 76.4577C91.9977 76.4837 92.0057 76.464 92.1413 76.464V72.464C91.1964 72.464 90.0343 72.7274 89.2466 73.7401L92.404 76.1959ZM92.1413 76.464H99.9253V72.464H92.1413V76.464ZM99.9253 76.464C99.9751 76.464 99.916 76.4717 99.7948 76.4276C99.6586 76.3781 99.4729 76.2724 99.3128 76.0804L102.386 73.5196C101.667 72.6572 100.661 72.464 99.9253 72.464V76.464ZM99.2493 76C99.1942 75.9266 99.1532 75.8444 99.1282 75.7638C99.1039 75.6857 99.1013 75.6306 99.1013 75.612H103.101C103.101 74.9223 102.911 74.2156 102.449 73.6L99.2493 76ZM99.1013 75.612C99.1013 75.5844 99.1042 75.5673 99.1051 75.5628C99.1059 75.5587 99.1043 75.5688 99.0946 75.594L102.828 77.03C102.995 76.5944 103.101 76.1175 103.101 75.612H99.1013ZM99.0946 75.594C99.0985 75.584 99.1025 75.5752 99.1063 75.5678C99.1102 75.5605 99.1133 75.5554 99.1152 75.5526C99.119 75.5468 99.1158 75.553 99.0991 75.5698L101.927 78.3982C102.307 78.0182 102.623 77.5628 102.828 77.03L99.0946 75.594ZM99.2329 75.4476C99.2277 75.4519 99.1544 75.5094 98.9539 75.5833L100.337 79.3367C100.846 79.1492 101.351 78.8894 101.794 78.5204L99.2329 75.4476ZM99.0706 75.5443C98.9348 75.5851 98.6911 75.628 98.3013 75.628V79.628C98.9568 79.628 99.609 79.5589 100.22 79.3757L99.0706 75.5443ZM98.3013 75.628H92.1413V79.628H98.3013V75.628ZM108.241 88.632L106.355 89.2976L106.372 89.346L106.392 89.3935L108.241 88.632ZM108.717 89.416L107.237 90.7613L107.301 90.8318L107.372 90.8959L108.717 89.416ZM109.417 89.836L108.745 91.7195L108.806 91.7413L108.868 91.759L109.417 89.836ZM110.985 89.836L111.573 91.7476L111.616 91.7345L111.658 91.7195L110.985 89.836ZM111.685 89.416L113.031 90.8959L113.066 90.8639L113.099 90.8302L111.685 89.416ZM112.161 88.632L110.312 87.8705L110.292 87.918L110.275 87.9664L112.161 88.632ZM112.973 79.196L114.15 80.8135L114.173 80.7964L114.196 80.7786L112.973 79.196ZM115.045 78.832L115.633 76.9204L115.633 76.9204L115.045 78.832ZM115.689 79.196L114.351 80.6826L114.395 80.7214L114.44 80.7577L115.689 79.196ZM116.137 79.84L114.28 80.5828L114.289 80.6054L114.299 80.6278L116.137 79.84ZM115.773 90.312L113.975 89.4361L113.971 89.4459L113.966 89.4558L115.773 90.312ZM114.401 92.048L115.618 93.6352L115.626 93.6294L114.401 92.048ZM112.469 93L112.966 94.9373L112.989 94.9314L113.012 94.9249L112.469 93ZM107.961 93L107.418 94.9249L107.441 94.9314L107.465 94.9373L107.961 93ZM106.001 92.048L104.752 93.6097L104.78 93.6325L104.81 93.6542L106.001 92.048ZM104.629 90.312L102.813 91.1501L102.826 91.1785L102.84 91.2064L104.629 90.312ZM104.741 79.196L105.918 80.8135L105.941 80.7964L105.964 80.7786L104.741 79.196ZM107.457 79.196L106.119 80.6826L106.163 80.7214L106.208 80.7577L107.457 79.196ZM107.905 79.84L106.048 80.5828L106.057 80.6054L106.067 80.6278L107.905 79.84ZM106.073 87.428C106.073 88.0486 106.142 88.6946 106.355 89.2976L110.127 87.9664C110.116 87.9348 110.073 87.7781 110.073 87.428H106.073ZM106.392 89.3935C106.591 89.8765 106.863 90.3491 107.237 90.7613L110.197 88.0707C110.199 88.0722 110.153 88.0222 110.091 87.8705L106.392 89.3935ZM107.372 90.8959C107.773 91.2602 108.235 91.5373 108.745 91.7195L110.09 87.9525C110.077 87.948 110.073 87.9452 110.063 87.9361L107.372 90.8959ZM108.868 91.759C109.301 91.8827 109.747 91.948 110.201 91.948V87.948C110.133 87.948 110.057 87.9386 109.967 87.913L108.868 91.759ZM110.201 91.948C110.66 91.948 111.122 91.8865 111.573 91.7476L110.397 87.9244C110.363 87.9348 110.302 87.948 110.201 87.948V91.948ZM111.658 91.7195C112.168 91.5373 112.63 91.2602 113.031 90.8959L110.34 87.9361C110.33 87.9452 110.325 87.948 110.313 87.9525L111.658 91.7195ZM113.099 90.8302C113.547 90.3826 113.852 89.852 114.047 89.2976L110.275 87.9664C110.261 88.008 110.25 88.0262 110.249 88.028C110.248 88.029 110.25 88.0265 110.254 88.0214C110.258 88.0163 110.263 88.0095 110.271 88.0018L113.099 90.8302ZM114.011 89.3935C114.273 88.7567 114.357 88.0744 114.357 87.428H110.357C110.357 87.7522 110.311 87.8727 110.312 87.8705L114.011 89.3935ZM114.357 87.428V80.82H110.357V87.428H114.357ZM114.357 80.82C114.357 80.7098 114.365 80.6328 114.372 80.5837C114.38 80.5346 114.386 80.5218 114.381 80.5353C114.376 80.5501 114.357 80.5926 114.317 80.6482C114.275 80.7055 114.218 80.7635 114.15 80.8135L111.797 77.5785C110.635 78.4238 110.357 79.7546 110.357 80.82H114.357ZM114.196 80.7786C114.249 80.7377 114.278 80.7266 114.285 80.7243C114.29 80.7225 114.297 80.72 114.317 80.72V76.72C113.358 76.72 112.485 77.0455 111.75 77.6134L114.196 80.7786ZM114.317 80.72C114.352 80.72 114.396 80.7248 114.457 80.7436L115.633 76.9204C115.209 76.7899 114.768 76.72 114.317 76.72V80.72ZM114.457 80.7436C114.445 80.7398 114.426 80.7324 114.404 80.7201C114.382 80.7078 114.364 80.6943 114.351 80.6826L117.027 77.7094C116.622 77.3448 116.151 77.0796 115.633 76.9204L114.457 80.7436ZM114.44 80.7577C114.295 80.6417 114.264 80.5411 114.28 80.5828L117.994 79.0972C117.787 78.5789 117.457 78.049 116.939 77.6343L114.44 80.7577ZM114.299 80.6278C114.284 80.5928 114.286 80.5854 114.292 80.6189C114.298 80.6526 114.305 80.7174 114.305 80.82H118.305C118.305 80.2531 118.227 79.6377 117.976 79.0522L114.299 80.6278ZM114.305 80.82V87.652H118.305V80.82H114.305ZM114.305 87.652C114.305 88.479 114.164 89.0484 113.975 89.4361L117.571 91.1879C118.092 90.1196 118.305 88.9157 118.305 87.652H114.305ZM113.966 89.4558C113.754 89.902 113.489 90.2249 113.177 90.4666L115.626 93.6294C116.471 92.9751 117.12 92.1406 117.581 91.1682L113.966 89.4558ZM113.184 90.4608C112.84 90.725 112.428 90.9336 111.926 91.0751L113.012 94.9249C113.967 94.6557 114.843 94.2296 115.618 93.6352L113.184 90.4608ZM111.973 91.0627C111.414 91.206 110.825 91.28 110.201 91.28V95.28C111.146 95.28 112.069 95.1674 112.966 94.9373L111.973 91.0627ZM110.201 91.28C109.6 91.28 109.021 91.207 108.458 91.0627L107.465 94.9373C108.358 95.1664 109.271 95.28 110.201 95.28V91.28ZM108.504 91.0751C107.998 90.9324 107.567 90.7193 107.193 90.4418L104.81 93.6542C105.593 94.2354 106.468 94.6569 107.418 94.9249L108.504 91.0751ZM107.251 90.4863C106.94 90.2374 106.657 89.8957 106.418 89.4176L102.84 91.2064C103.311 92.147 103.943 92.9626 104.752 93.6097L107.251 90.4863ZM106.445 89.4739C106.261 89.0757 106.125 88.4922 106.125 87.652H102.125C102.125 88.9025 102.325 90.0923 102.813 91.1501L106.445 89.4739ZM106.125 87.652V80.82H102.125V87.652H106.125ZM106.125 80.82C106.125 80.7098 106.133 80.6328 106.14 80.5837C106.148 80.5346 106.154 80.5218 106.149 80.5353C106.144 80.5501 106.125 80.5926 106.085 80.6482C106.043 80.7055 105.986 80.7635 105.918 80.8135L103.565 77.5785C102.403 78.4238 102.125 79.7546 102.125 80.82H106.125ZM105.964 80.7786C106.017 80.7377 106.046 80.7266 106.053 80.7243C106.058 80.7225 106.065 80.72 106.085 80.72V76.72C105.126 76.72 104.253 77.0455 103.518 77.6134L105.964 80.7786ZM106.085 80.72C106.12 80.72 106.164 80.7248 106.225 80.7436L107.401 76.9204C106.977 76.7899 106.536 76.72 106.085 76.72V80.72ZM106.225 80.7436C106.213 80.7398 106.194 80.7324 106.172 80.7201C106.15 80.7078 106.132 80.6943 106.119 80.6826L108.795 77.7094C108.39 77.3448 107.919 77.0796 107.401 76.9204L106.225 80.7436ZM106.208 80.7577C106.063 80.6417 106.032 80.5411 106.048 80.5828L109.762 79.0972C109.555 78.5789 109.225 78.049 108.707 77.6343L106.208 80.7577ZM106.067 80.6278C106.052 80.5928 106.054 80.5854 106.06 80.6189C106.066 80.6526 106.073 80.7174 106.073 80.82H110.073C110.073 80.2531 109.995 79.6377 109.744 79.0522L106.067 80.6278ZM106.073 80.82V87.428H110.073V80.82H106.073ZM111.768 75.024H109.768V78.5748L112.805 76.7344L111.768 75.024ZM117.984 74.8L116.384 76L116.415 76.041L116.448 76.0804L117.984 74.8ZM118.124 76.312L119.991 77.03L118.124 76.312ZM117.676 76.984L118.957 78.5204L119.026 78.4624L119.091 78.3982L117.676 76.984ZM116.808 77.46L117.383 79.3757L117.442 79.358L117.5 79.3367L116.808 77.46ZM108.744 77.152L107.406 78.6386L107.428 78.6575L107.449 78.6759L108.744 77.152ZM108.744 72.98L109.994 74.5417L109.994 74.5417L108.744 72.98ZM111.236 72.98L109.948 74.5098V74.5098L111.236 72.98ZM112.805 76.7344C113.023 76.6022 113.419 76.464 114.12 76.464V72.464C112.917 72.464 111.746 72.6992 110.732 73.3136L112.805 76.7344ZM114.12 76.464H117.088V72.464H114.12V76.464ZM117.088 76.464C117.141 76.464 117.07 76.4724 116.932 76.4207C116.775 76.3618 116.56 76.2341 116.384 76L119.584 73.6C118.871 72.6489 117.802 72.464 117.088 72.464V76.464ZM116.448 76.0804C116.389 76.0096 116.338 75.9211 116.304 75.823C116.271 75.7271 116.264 75.6513 116.264 75.612H120.264C120.264 74.8711 120.034 74.1357 119.521 73.5196L116.448 76.0804ZM116.264 75.612C116.264 75.5844 116.267 75.5673 116.268 75.5628C116.269 75.5587 116.267 75.5688 116.258 75.594L119.991 77.03C120.159 76.5944 120.264 76.1175 120.264 75.612H116.264ZM116.258 75.594C116.262 75.584 116.266 75.5752 116.269 75.5678C116.273 75.5605 116.276 75.5554 116.278 75.5526C116.282 75.5468 116.279 75.553 116.262 75.5698L119.091 78.3982C119.471 78.0182 119.786 77.5628 119.991 77.03L116.258 75.594ZM116.396 75.4476C116.391 75.4519 116.318 75.5094 116.117 75.5833L117.5 79.3367C118.009 79.1492 118.514 78.8894 118.957 78.5204L116.396 75.4476ZM116.234 75.5443C116.098 75.5851 115.854 75.628 115.464 75.628V79.628C116.12 79.628 116.772 79.5589 117.383 79.3757L116.234 75.5443ZM115.464 75.628H110.564V79.628H115.464V75.628ZM110.564 75.628C110.261 75.628 110.079 75.5984 109.985 75.5741C109.894 75.5502 109.943 75.5457 110.04 75.6281L107.449 78.6759C108.365 79.4545 109.559 79.628 110.564 79.628V75.628ZM110.082 75.6654C110.233 75.8012 110.255 75.9136 110.238 75.858C110.22 75.7956 110.184 75.6263 110.184 75.304H106.184C106.184 76.3528 106.38 77.7144 107.406 78.6386L110.082 75.6654ZM110.184 75.304V74.464H106.184V75.304H110.184ZM110.184 74.464C110.184 74.2899 110.209 74.2454 110.196 74.2811C110.188 74.302 110.169 74.3432 110.133 74.3941C110.097 74.446 110.049 74.4972 109.994 74.5417L107.495 71.4183C106.464 72.2428 106.184 73.4468 106.184 74.464H110.184ZM109.994 74.5417C110.004 74.5333 110.01 74.5304 110.01 74.5304C110.01 74.5303 110.009 74.5306 110.008 74.5312C110.007 74.5318 110.005 74.5324 110.003 74.533C110 74.5343 109.998 74.5343 110.001 74.5339C110.004 74.5334 110.014 74.532 110.032 74.532V70.532C109.1 70.532 108.229 70.8313 107.495 71.4183L109.994 74.5417ZM110.032 74.532C110.033 74.532 110.026 74.532 110.013 74.5298C110.001 74.5276 109.986 74.5238 109.972 74.5184C109.958 74.5131 109.947 74.5078 109.942 74.5046C109.937 74.5015 109.939 74.5021 109.948 74.5098L112.525 71.4502C111.823 70.8594 110.969 70.532 110.032 70.532V74.532ZM109.948 74.5098C109.889 74.4604 109.843 74.4062 109.808 74.3547C109.774 74.3043 109.758 74.2658 109.753 74.2499C109.747 74.235 109.752 74.242 109.757 74.2787C109.763 74.3154 109.768 74.3758 109.768 74.464H113.768C113.768 73.4776 113.515 72.2845 112.525 71.4502L109.948 74.5098ZM109.768 74.464V75.024H113.768V74.464H109.768ZM126.44 90.256L124.929 91.5659L124.976 91.6198L125.026 91.6702L126.44 90.256ZM126.104 92.832L125.056 91.1287H125.056L126.104 92.832ZM119.972 91.488L118.387 92.7074L118.398 92.721L118.408 92.7344L119.972 91.488ZM119.888 80.568L121.509 81.7399L121.513 81.734L121.518 81.7281L119.888 80.568ZM125.04 78.888L124.514 80.8175L124.514 80.8175L125.04 78.888ZM126.132 79.392L124.979 81.0259L125.001 81.0413L125.023 81.0561L126.132 79.392ZM127.028 80.26L125.418 81.4464L125.434 81.4673L125.45 81.4879L127.028 80.26ZM127.784 81.436L126.026 82.3886L126.593 83.436H127.784V81.436ZM127.98 81.436V83.436H129.446L129.888 82.0383L127.98 81.436ZM128.316 80.372L126.412 79.76L126.409 79.7697L128.316 80.372ZM128.96 79.168L130.423 80.5326L130.444 80.5092L130.466 80.485L128.96 79.168ZM131.34 79.084L130.079 80.6362L130.102 80.6548L130.126 80.6727L131.34 79.084ZM131.648 92.188L133.487 92.9758L133.496 92.9534L133.505 92.9308L131.648 92.188ZM131.2 92.832L132.45 94.3937L132.495 94.3574L132.538 94.3186L131.2 92.832ZM130.556 93.168L129.968 91.2564V91.2564L130.556 93.168ZM128.484 92.832L127.262 94.4146L127.285 94.4324L127.308 94.4495L128.484 92.832ZM127.868 84.768H129.868V82.768H127.868V84.768ZM126.02 84.432L124.606 85.8462L124.634 85.8745L124.664 85.9016L126.02 84.432ZM125.348 83.424L127.153 82.5611L127.145 82.5453L127.137 82.5296L125.348 83.424ZM124.676 82.416L123.15 83.7079L123.203 83.7714L123.262 83.8302L124.676 82.416ZM122.828 83.116L120.921 82.5137L120.914 82.5367L120.907 82.5599L122.828 83.116ZM122.604 87.428L120.62 87.6761L120.625 87.7166L120.632 87.7568L122.604 87.428ZM122.94 88.66L121.083 89.4028L121.106 89.4602L121.133 89.5162L122.94 88.66ZM123.584 89.528L122.283 91.0465L122.34 91.0959L122.402 91.1408L123.584 89.528ZM125.04 91.836C125.147 91.836 125.224 91.8415 125.276 91.8478C125.329 91.8541 125.345 91.8601 125.334 91.8567C125.316 91.8513 125.123 91.7897 124.929 91.5659L127.952 88.9461C127.107 87.9709 125.851 87.836 125.04 87.836V91.836ZM125.026 91.6702C124.939 91.5826 124.882 91.4832 124.852 91.4007C124.825 91.3264 124.832 91.2988 124.832 91.348H128.832C128.832 90.4976 128.583 89.5705 127.855 88.8418L125.026 91.6702ZM124.832 91.348C124.832 91.4634 124.812 91.4435 124.855 91.3561C124.876 91.3122 124.908 91.2641 124.949 91.219C124.99 91.1743 125.029 91.1452 125.056 91.1287L127.153 94.5353C128.362 93.7911 128.832 92.562 128.832 91.348H124.832ZM125.056 91.1287C125.07 91.12 125.003 91.1639 124.788 91.2068C124.578 91.2489 124.276 91.28 123.864 91.28V95.28C124.995 95.28 126.193 95.126 127.153 94.5353L125.056 91.1287ZM123.864 91.28C122.778 91.28 122.077 90.9203 121.537 90.2416L118.408 92.7344C119.771 94.445 121.666 95.28 123.864 95.28V91.28ZM121.558 90.2686C120.981 89.5185 120.572 88.3318 120.572 86.476H116.572C116.572 88.8762 117.097 91.0308 118.387 92.7074L121.558 90.2686ZM120.572 86.476C120.572 83.8707 121.01 82.4303 121.509 81.7399L118.268 79.3961C117.012 81.1324 116.572 83.6306 116.572 86.476H120.572ZM121.518 81.7281C121.988 81.0671 122.607 80.72 123.64 80.72V76.72C121.425 76.72 119.543 77.6049 118.259 79.4079L121.518 81.7281ZM123.64 80.72C124.024 80.72 124.309 80.7615 124.514 80.8175L125.567 76.9585C124.951 76.7905 124.302 76.72 123.64 76.72V80.72ZM124.514 80.8175C124.722 80.8741 124.869 80.9485 124.979 81.0259L127.286 77.7581C126.761 77.3875 126.18 77.1259 125.567 76.9585L124.514 80.8175ZM125.023 81.0561C125.149 81.1399 125.282 81.2618 125.418 81.4464L128.639 79.0736C128.252 78.5488 127.788 78.0921 127.242 77.7279L125.023 81.0561ZM125.45 81.4879C125.632 81.7223 125.826 82.0189 126.026 82.3886L129.543 80.4834C129.258 79.9571 128.947 79.4697 128.607 79.0321L125.45 81.4879ZM127.784 83.436H127.98V79.436H127.784V83.436ZM129.888 82.0383L130.224 80.9743L126.409 79.7697L126.073 80.8337L129.888 82.0383ZM130.22 80.984C130.335 80.629 130.43 80.525 130.423 80.5326L127.498 77.8034C126.968 78.371 126.634 79.0697 126.412 79.76L130.22 80.984ZM130.466 80.485C130.377 80.5862 130.268 80.6572 130.17 80.6952C130.084 80.7289 130.05 80.72 130.108 80.72V76.72C129.195 76.72 128.194 77.0066 127.455 77.851L130.466 80.485ZM130.108 80.72C130.219 80.72 130.256 80.7332 130.242 80.729C130.234 80.7266 130.212 80.7196 130.182 80.7041C130.152 80.6885 130.116 80.6663 130.079 80.6362L132.602 77.5318C131.837 76.9106 130.926 76.72 130.108 76.72V80.72ZM130.126 80.6727C129.903 80.5023 129.822 80.3134 129.804 80.2598C129.796 80.2358 129.8 80.2391 129.805 80.2797C129.811 80.3198 129.816 80.3863 129.816 80.484H133.816C133.816 79.6114 133.636 78.3214 132.555 77.4953L130.126 80.6727ZM129.816 80.484V91.18H133.816V80.484H129.816ZM129.816 91.18C129.816 91.3902 129.785 91.4606 129.791 91.4452L133.505 92.9308C133.736 92.3554 133.816 91.7538 133.816 91.18H129.816ZM129.81 91.4002C129.803 91.4171 129.802 91.4159 129.811 91.4029C129.82 91.3893 129.837 91.3683 129.862 91.3454L132.538 94.3186C132.967 93.9326 133.276 93.4683 133.487 92.9758L129.81 91.4002ZM129.951 91.2703C129.955 91.2669 129.96 91.2638 129.964 91.261C129.968 91.2582 129.972 91.2562 129.974 91.2548C129.98 91.2519 129.979 91.2532 129.968 91.2564L131.145 95.0796C131.613 94.9356 132.055 94.7098 132.45 94.3937L129.951 91.2703ZM129.968 91.2564C129.907 91.2752 129.863 91.28 129.828 91.28V95.28C130.28 95.28 130.72 95.2101 131.145 95.0796L129.968 91.2564ZM129.828 91.28C129.786 91.28 129.746 91.2768 129.661 91.2145L127.308 94.4495C128.044 94.9845 128.9 95.28 129.828 95.28V91.28ZM129.707 91.2494C129.765 91.2939 129.812 91.3443 129.846 91.3928C129.879 91.4398 129.893 91.4738 129.896 91.4822C129.899 91.4895 129.892 91.4717 129.884 91.4201C129.876 91.3684 129.868 91.29 129.868 91.18H125.868C125.868 92.2582 126.151 93.5563 127.262 94.4146L129.707 91.2494ZM129.868 91.18V84.768H125.868V91.18H129.868ZM127.868 82.768H127.252V86.768H127.868V82.768ZM127.252 82.768C127.171 82.768 127.113 82.764 127.075 82.7597C127.036 82.7553 127.026 82.7515 127.037 82.7545C127.054 82.7593 127.204 82.8029 127.377 82.9624L124.664 85.9016C125.469 86.6449 126.517 86.768 127.252 86.768V82.768ZM127.435 83.0178C127.401 82.9842 127.295 82.8591 127.153 82.5611L123.544 84.2869C123.812 84.8476 124.154 85.3944 124.606 85.8462L127.435 83.0178ZM127.137 82.5296C126.866 81.9875 126.529 81.4397 126.091 81.0018L123.262 83.8302C123.26 83.8278 123.291 83.8587 123.348 83.9454C123.405 84.0303 123.476 84.1518 123.56 84.3184L127.137 82.5296ZM126.203 81.1241C125.646 80.4653 124.849 80.052 123.92 80.052V84.052C123.79 84.052 123.629 84.0234 123.466 83.945C123.306 83.8682 123.204 83.7717 123.15 83.7079L126.203 81.1241ZM123.92 80.052C123.142 80.052 122.426 80.3477 121.874 80.8855C121.371 81.3753 121.09 81.9799 120.921 82.5137L124.736 83.7183C124.791 83.5427 124.804 83.6153 124.665 83.7505C124.588 83.8261 124.474 83.9091 124.325 83.9699C124.176 84.0309 124.034 84.052 123.92 84.052V80.052ZM120.907 82.5599C120.626 83.5303 120.52 84.7154 120.52 86.028H124.52C124.52 84.8766 124.62 84.1204 124.75 83.6721L120.907 82.5599ZM120.52 86.028C120.52 86.5901 120.553 87.1399 120.62 87.6761L124.589 87.1799C124.544 86.8201 124.52 86.4365 124.52 86.028H120.52ZM120.632 87.7568C120.727 88.3286 120.874 88.8801 121.083 89.4028L124.797 87.9172C124.708 87.6932 124.631 87.4234 124.577 87.0992L120.632 87.7568ZM121.133 89.5162C121.404 90.0892 121.78 90.6158 122.283 91.0465L124.886 88.0095C124.866 87.9922 124.812 87.9401 124.748 87.8038L121.133 89.5162ZM122.402 91.1408C123.099 91.6521 123.896 91.836 124.648 91.836V87.836C124.592 87.836 124.587 87.8292 124.617 87.8379C124.65 87.8476 124.706 87.8705 124.767 87.9152L122.402 91.1408ZM124.648 91.836H125.04V87.836H124.648V91.836ZM141.02 89.584L140.388 87.6866L141.02 89.584ZM141.076 88.128L140.074 89.8589L140.109 89.8791L140.145 89.8978L141.076 88.128ZM139.76 87.568L139.148 89.4721L139.76 87.568ZM138.024 87.064L137.444 88.978L137.478 88.9883L137.513 88.9974L138.024 87.064ZM136.316 86.28L135.235 87.9624L136.316 86.28ZM135 84.964L133.311 86.0341L133.319 86.0471L133.327 86.0601L135 84.964ZM134.916 80.932L136.637 81.9516L136.645 81.938L136.653 81.9243L134.916 80.932ZM136.12 79.672L137.186 81.3645L137.208 81.3506L137.23 81.3361L136.12 79.672ZM137.856 78.944L137.411 76.9943L137.856 78.944ZM141.58 78.832L141.324 80.8156L141.332 80.8166L141.58 78.832ZM143.232 79.252L142.478 81.1042L142.508 81.1163L142.538 81.1275L143.232 79.252ZM144.464 80.036L143.01 81.4092L143.05 81.4508L143.091 81.49L144.464 80.036ZM144.492 82.416L145.692 84.016L145.7 84.0104L145.707 84.0047L144.492 82.416ZM142.784 82.668L143.234 80.7192V80.7192L142.784 82.668ZM141.972 82.5L141.457 84.4325L141.53 84.4519L141.604 84.4657L141.972 82.5ZM141.02 82.304L141.332 80.3285V80.3285L141.02 82.304ZM138.78 82.388L139.498 84.2547L139.533 84.2411L139.568 84.2263L138.78 82.388ZM138.948 83.592L138.092 85.3995L138.948 83.592ZM140.264 84.068L139.715 85.991L139.747 86.0002L139.779 86.0083L140.264 84.068ZM141.972 84.516L141.446 86.4455L141.453 86.4475L141.461 86.4494L141.972 84.516ZM143.708 85.244L142.67 86.9536L142.693 86.9673L142.716 86.9805L143.708 85.244ZM145.024 86.448L146.66 85.297L145.024 86.448ZM145.08 90.732L146.858 91.6479L146.864 91.6372L146.869 91.6264L145.08 90.732ZM143.792 92.216L142.657 90.5696L142.643 90.5789L142.63 90.5885L143.792 92.216ZM141.944 93.028L141.483 91.0818L141.472 91.0847L141.944 93.028ZM138.024 93.168L138.251 91.1809L138.024 93.168ZM136.176 92.776L135.507 94.6609L135.535 94.6705L135.562 94.6794L136.176 92.776ZM134.72 91.992L133.419 93.5105L133.44 93.5288L133.462 93.5465L134.72 91.992ZM134.58 89.584L133.365 87.9953L133.342 88.0132L133.319 88.0318L134.58 89.584ZM136.456 89.304L136.064 91.2652H136.064L136.456 89.304ZM137.296 89.5L136.781 91.4325L136.796 91.4365L136.811 91.4403L137.296 89.5ZM138.276 89.696L137.964 91.6715L137.972 91.6727L137.98 91.6739L138.276 89.696ZM139.564 91.78C140.279 91.78 140.993 91.7012 141.653 91.4814L140.388 87.6866C140.263 87.7281 140.007 87.78 139.564 87.78V91.78ZM141.653 91.4814C142.027 91.3566 142.506 91.1346 142.908 90.713C143.356 90.244 143.608 89.6302 143.608 88.968H139.608C139.608 88.5858 139.763 88.2147 140.015 87.951C140.122 87.8386 140.222 87.7715 140.285 87.7355C140.348 87.6998 140.387 87.6869 140.388 87.6866L141.653 91.4814ZM143.608 88.968C143.608 88.4517 143.481 87.9072 143.165 87.4079C142.854 86.9162 142.43 86.5804 142.008 86.3582L140.145 89.8978C140.077 89.8623 139.92 89.7598 139.786 89.5481C139.647 89.3288 139.608 89.1109 139.608 88.968H143.608ZM142.078 86.3971C141.567 86.1009 140.988 85.8619 140.372 85.6639L139.148 89.4721C139.578 89.6101 139.877 89.7444 140.074 89.8589L142.078 86.3971ZM140.372 85.6639C139.811 85.4835 139.198 85.3058 138.536 85.1306L137.513 88.9974C138.12 89.1582 138.664 89.3165 139.148 89.4721L140.372 85.6639ZM138.604 85.15C138.159 85.015 137.759 84.83 137.398 84.5976L135.235 87.9624C135.919 88.402 136.658 88.7397 137.444 88.978L138.604 85.15ZM137.398 84.5976C137.121 84.4197 136.881 84.1845 136.673 83.8679L133.327 86.0601C133.829 86.8262 134.466 87.4683 135.235 87.9624L137.398 84.5976ZM136.69 83.8939C136.598 83.748 136.468 83.4264 136.468 82.78H132.468C132.468 83.9256 132.694 85.06 133.311 86.0341L136.69 83.8939ZM136.468 82.78C136.468 82.3244 136.561 82.0803 136.637 81.9516L133.196 79.9124C132.675 80.7917 132.468 81.7796 132.468 82.78H136.468ZM136.653 81.9243C136.79 81.6833 136.963 81.505 137.186 81.3645L135.055 77.9795C134.27 78.4736 133.639 79.1354 133.18 79.9397L136.653 81.9243ZM137.23 81.3361C137.511 81.1484 137.86 80.9947 138.302 80.8937L137.411 76.9943C136.546 77.192 135.737 77.5236 135.011 78.0079L137.23 81.3361ZM138.302 80.8937C138.797 80.7805 139.338 80.72 139.928 80.72V76.72C139.063 76.72 138.222 76.8088 137.411 76.9943L138.302 80.8937ZM139.928 80.72C140.356 80.72 140.821 80.7506 141.324 80.8156L141.836 76.8484C141.182 76.7641 140.546 76.72 139.928 76.72V80.72ZM141.332 80.8166C141.774 80.8718 142.152 80.9716 142.478 81.1042L143.987 77.3998C143.304 77.1218 142.581 76.9416 141.828 76.8474L141.332 80.8166ZM142.538 81.1275C142.8 81.2247 142.936 81.3305 143.01 81.4092L145.918 78.6628C145.358 78.0694 144.672 77.6526 143.927 77.3765L142.538 81.1275ZM143.091 81.49C143.069 81.469 143.028 81.4201 142.997 81.3473C142.968 81.2766 142.968 81.2319 142.968 81.24H146.968C146.968 80.2354 146.596 79.2979 145.838 78.582L143.091 81.49ZM142.968 81.24C142.968 81.3224 142.955 81.2885 142.995 81.1896C143.042 81.0743 143.135 80.9361 143.277 80.8273L145.707 84.0047C146.682 83.2595 146.968 82.1666 146.968 81.24H142.968ZM143.292 80.816C143.306 80.806 143.337 80.7862 143.384 80.7706C143.431 80.7551 143.468 80.752 143.484 80.752V84.752C144.29 84.752 145.047 84.4996 145.692 84.016L143.292 80.816ZM143.484 80.752C143.427 80.752 143.345 80.7449 143.234 80.7192L142.335 84.6168C142.709 84.7031 143.093 84.752 143.484 84.752V80.752ZM143.234 80.7192C142.959 80.6558 142.661 80.5943 142.341 80.5343L141.604 84.4657C141.881 84.5177 142.124 84.5682 142.335 84.6168L143.234 80.7192ZM142.488 80.5675C142.127 80.4714 141.74 80.3929 141.332 80.3285L140.708 84.2795C141.01 84.3271 141.258 84.3793 141.457 84.4325L142.488 80.5675ZM141.332 80.3285C140.849 80.2522 140.33 80.22 139.788 80.22V84.22C140.18 84.22 140.482 84.2438 140.708 84.2795L141.332 80.3285ZM139.788 80.22C139.218 80.22 138.588 80.2947 137.992 80.5497L139.568 84.2263C139.526 84.2443 139.517 84.2415 139.557 84.2348C139.597 84.2281 139.672 84.22 139.788 84.22V80.22ZM138.062 80.5213C137.698 80.6614 137.262 80.9131 136.919 81.3621C136.559 81.8324 136.416 82.369 136.416 82.864H140.416C140.416 83.135 140.334 83.4803 140.096 83.7919C139.874 84.0822 139.62 84.2079 139.498 84.2547L138.062 80.5213ZM136.416 82.864C136.416 83.4217 136.581 83.9804 136.935 84.464C137.271 84.9242 137.703 85.2151 138.092 85.3995L139.804 81.7845C139.839 81.8009 140.005 81.8864 140.164 82.104C140.34 82.345 140.416 82.6236 140.416 82.864H136.416ZM138.092 85.3995C138.575 85.6283 139.124 85.8222 139.715 85.991L140.814 82.145C140.359 82.0151 140.031 81.8917 139.804 81.7845L138.092 85.3995ZM139.779 86.0083C140.286 86.135 140.841 86.2806 141.446 86.4455L142.499 82.5865C141.871 82.4154 141.288 82.2624 140.749 82.1277L139.779 86.0083ZM141.461 86.4494C141.924 86.572 142.323 86.7427 142.67 86.9536L144.746 83.5344C144.048 83.1106 143.29 82.796 142.484 82.5826L141.461 86.4494ZM142.716 86.9805C142.978 87.13 143.199 87.3291 143.389 87.599L146.66 85.297C146.141 84.5589 145.484 83.9553 144.701 83.5075L142.716 86.9805ZM143.389 87.599C143.444 87.6772 143.556 87.8935 143.556 88.408H147.556C147.556 87.3171 147.314 86.2268 146.66 85.297L143.389 87.599ZM143.556 88.408C143.556 89.099 143.436 89.549 143.291 89.8376L146.869 91.6264C147.36 90.6456 147.556 89.5464 147.556 88.408H143.556ZM143.302 89.8161C143.127 90.1557 142.912 90.3933 142.657 90.5696L144.928 93.8624C145.755 93.2921 146.399 92.5403 146.858 91.6479L143.302 89.8161ZM142.63 90.5885C142.345 90.7922 141.974 90.9656 141.483 91.0818L142.405 94.9742C143.333 94.7544 144.195 94.3865 144.955 93.8435L142.63 90.5885ZM141.472 91.0847C140.943 91.2132 140.384 91.28 139.788 91.28V95.28C140.686 95.28 141.564 95.1788 142.417 94.9713L141.472 91.0847ZM139.788 91.28C139.358 91.28 138.848 91.2491 138.251 91.1809L137.797 95.1551C138.508 95.2363 139.173 95.28 139.788 95.28V91.28ZM138.251 91.1809C137.719 91.1201 137.233 91.0155 136.79 90.8726L135.562 94.6794C136.277 94.9098 137.023 95.0666 137.797 95.1551L138.251 91.1809ZM136.845 90.8911C136.435 90.7457 136.161 90.5849 135.979 90.4375L133.462 93.5465C134.064 94.0338 134.76 94.3956 135.507 94.6609L136.845 90.8911ZM136.022 90.4735C136.009 90.4626 136.047 90.4924 136.084 90.5705C136.123 90.6519 136.132 90.7248 136.132 90.76H132.132C132.132 91.8703 132.616 92.8221 133.419 93.5105L136.022 90.4735ZM136.132 90.76C136.132 90.6654 136.146 90.6852 136.113 90.772C136.074 90.8741 135.989 91.0161 135.841 91.1362L133.319 88.0318C132.385 88.7909 132.132 89.8732 132.132 90.76H136.132ZM135.795 91.1727C135.819 91.1547 135.807 91.1681 135.76 91.1859C135.709 91.2048 135.639 91.22 135.56 91.22V87.22C134.706 87.22 133.963 87.538 133.365 87.9953L135.795 91.1727ZM135.56 91.22C135.76 91.22 135.927 91.2377 136.064 91.2652L136.849 87.3428C136.426 87.2583 135.995 87.22 135.56 87.22V91.22ZM136.064 91.2652C136.302 91.3128 136.541 91.3685 136.781 91.4325L137.812 87.5675C137.492 87.4822 137.17 87.4072 136.849 87.3428L136.064 91.2652ZM136.811 91.4403C137.176 91.5314 137.561 91.6078 137.964 91.6715L138.588 87.7205C138.282 87.6722 138.014 87.618 137.781 87.5597L136.811 91.4403ZM137.98 91.6739C138.474 91.7481 139.006 91.78 139.564 91.78V87.78C139.152 87.78 138.825 87.7559 138.573 87.7181L137.98 91.6739Z" fill="#DD579B" mask="url(#path-5-outside-1_370_1650)"/>
</g>
<g filter="url(#filter4_d_370_1650)">
<path d="M73.1974 64.745C73.4317 64.9122 73.7124 65.0019 74.0002 65.0016C74.2879 65.0013 74.5685 64.9111 74.8024 64.7435C75.0363 64.5687 75.2141 64.3294 75.3139 64.055L75.8344 62.4545C75.9593 62.0775 76.1705 61.7348 76.4512 61.4538C76.732 61.1728 77.0745 60.9612 77.4514 60.836L79.0804 60.3065C79.3536 60.2085 79.5891 60.0272 79.7536 59.7881C79.9181 59.549 80.0033 59.2642 79.9972 58.9741C79.991 58.6839 79.8939 58.403 79.7194 58.1711C79.5449 57.9391 79.302 57.7679 79.0249 57.6815L77.4214 57.1625C77.0441 57.0379 76.7011 56.8268 76.4198 56.546C76.1385 56.2653 75.9268 55.9227 75.8014 55.5455L75.2719 53.9195C75.1758 53.651 74.9989 53.4189 74.7655 53.255C74.5321 53.0912 74.2536 53.0037 73.9684 53.0045C73.6792 53.0033 73.3968 53.093 73.1613 53.261C72.9258 53.4289 72.749 53.6666 72.6559 53.9405L72.1219 55.5755C71.9965 55.9415 71.79 56.2743 71.5178 56.5491C71.2455 56.824 70.9147 57.0337 70.5499 57.1625L68.9239 57.689C68.6523 57.785 68.4174 57.9634 68.2519 58.1992C68.0864 58.435 67.9986 58.7166 68.0008 59.0047C68.0029 59.2928 68.0949 59.5731 68.2639 59.8064C68.4328 60.0398 68.6704 60.2146 68.9434 60.3065L70.5439 60.827C70.9218 60.9533 71.2651 61.1658 71.5465 61.4478C71.828 61.7298 72.0399 62.0734 72.1654 62.4515L72.6934 64.0715C72.7879 64.3415 72.9649 64.577 73.1989 64.7435M71.0104 59.3945L69.7279 58.997L71.0239 58.5755C71.6158 58.3716 72.1523 58.0332 72.5914 57.587C73.0294 57.137 73.3594 56.597 73.5574 56.003L73.9549 54.7145L74.3749 56.0075C74.5738 56.6077 74.9105 57.153 75.358 57.5997C75.8055 58.0464 76.3514 58.3822 76.9519 58.58L78.2719 58.9835L76.9819 59.4035C76.3809 59.6018 75.8347 59.9383 75.3872 60.3858C74.9397 60.8333 74.6032 61.3795 74.4049 61.9805L74.0074 63.266L73.5889 61.9775C73.3911 61.3755 73.0547 60.8283 72.6068 60.38C72.159 59.9316 71.6122 59.5931 71.0104 59.3945ZM80.8009 70.7765C81.0046 70.9214 81.2485 70.999 81.4984 70.9985C81.7503 70.996 81.9952 70.9152 82.1991 70.7674C82.4031 70.6196 82.5561 70.4121 82.6369 70.1735L83.0089 69.0305C83.0884 68.7935 83.2234 68.576 83.3989 68.399C83.5744 68.222 83.7919 68.0885 84.0289 68.0105L85.1869 67.6325C85.4264 67.5504 85.6338 67.3946 85.7794 67.1875C85.925 66.9803 86.0014 66.7324 85.9976 66.4793C85.9937 66.2261 85.9099 65.9806 85.7581 65.778C85.6063 65.5753 85.3943 65.4259 85.1524 65.351L84.0064 64.9775C83.7695 64.8982 83.5541 64.7651 83.3772 64.5886C83.2002 64.4122 83.0665 64.1972 82.9864 63.9605L82.6084 62.7995C82.5271 62.5611 82.3728 62.3543 82.1674 62.2085C81.962 62.0626 81.7159 61.9851 81.464 61.9869C81.2121 61.9888 80.9671 62.0698 80.7638 62.2186C80.5606 62.3674 80.4093 62.5764 80.3314 62.816L79.9609 63.959C79.8845 64.194 79.7549 64.4082 79.5821 64.5848C79.4094 64.7615 79.1981 64.8959 78.9649 64.9775L77.8009 65.357C77.6247 65.4183 77.4652 65.5198 77.3351 65.6534C77.205 65.7871 77.1078 65.9493 77.0514 66.1271C76.9949 66.3048 76.9806 66.4933 77.0097 66.6776C77.0388 66.8619 77.1104 67.0368 77.2189 67.1885C77.3674 67.3985 77.5774 67.556 77.8189 67.6385L78.9634 68.009C79.2012 68.0892 79.417 68.2234 79.594 68.4012C79.771 68.579 79.9043 68.7954 79.9834 69.0335L80.3629 70.1945C80.4451 70.4292 80.5981 70.6326 80.8009 70.7765ZM79.4299 66.587L79.1629 66.4985L79.4389 66.4025C79.8938 66.2451 80.3063 65.9849 80.6445 65.6424C80.9826 65.2998 81.2374 64.8839 81.3889 64.427L81.4759 64.16L81.5659 64.4315C81.7191 64.8913 81.9772 65.309 82.3198 65.6516C82.6625 65.9943 83.0802 66.2524 83.5399 66.4055L83.8324 66.5L83.5624 66.5885C83.1016 66.7422 82.6831 67.0014 82.3401 67.3454C81.9971 67.6894 81.7392 68.1088 81.5869 68.57L81.4984 68.8415L81.4114 68.57C81.2599 68.1074 81.0018 67.6869 80.6578 67.3425C80.3139 66.998 79.8938 66.7392 79.4314 66.587" fill="#FA5E9D"/>
</g>
<g filter="url(#filter5_d_370_1650)">
<path d="M149.094 77.6423C149.001 77.2971 148.818 76.9832 148.562 76.733C148.307 76.4829 147.989 76.3057 147.642 76.22L141.492 74.7004C141.387 74.6718 141.294 74.6097 141.228 74.5235C141.161 74.4374 141.124 74.3319 141.123 74.2231C141.122 74.1143 141.157 74.0081 141.221 73.9207C141.286 73.8332 141.378 73.7692 141.482 73.7385L147.601 72.0932C147.946 72.0005 148.259 71.817 148.51 71.5619C148.76 71.3069 148.937 70.9894 149.023 70.6426L150.542 64.4919C150.571 64.3865 150.633 64.2933 150.719 64.2265C150.805 64.1596 150.911 64.1229 151.02 64.1217C151.129 64.1206 151.236 64.1553 151.323 64.2203C151.411 64.2854 151.475 64.3773 151.505 64.4821L153.149 70.6007C153.241 70.9458 153.425 71.2598 153.68 71.51C153.936 71.7601 154.253 71.9373 154.6 72.023L160.751 73.5416C160.857 73.5696 160.95 73.6316 161.018 73.7179C161.085 73.8043 161.122 73.9104 161.123 74.0198C161.124 74.1292 161.089 74.236 161.024 74.3238C160.958 74.4115 160.866 74.4754 160.761 74.5055L154.642 76.1488C154.297 76.2416 153.983 76.4252 153.733 76.6805C153.483 76.9357 153.306 77.2534 153.22 77.6003L151.7 83.7511C151.672 83.8565 151.61 83.9497 151.524 84.0165C151.437 84.0833 151.332 84.1201 151.222 84.1212C151.113 84.1223 151.007 84.0877 150.919 84.0227C150.832 83.9576 150.768 83.8657 150.737 83.7609L149.094 77.6423Z" fill="white" stroke="#FA5E9D" stroke-width="2" stroke-linecap="round" stroke-linejoin="round"/>
</g>
<defs>
<filter id="filter0_d_370_1650" x="0" y="0" width="175" height="145" filterUnits="userSpaceOnUse" color-interpolation-filters="sRGB">
<feFlood flood-opacity="0" result="BackgroundImageFix"/>
<feColorMatrix in="SourceAlpha" type="matrix" values="0 0 0 0 0 0 0 0 0 0 0 0 0 0 0 0 0 0 127 0" result="hardAlpha"/>
<feOffset dy="4"/>
<feGaussianBlur stdDeviation="2"/>
<feComposite in2="hardAlpha" operator="out"/>
<feColorMatrix type="matrix" values="0 0 0 0 0 0 0 0 0 0 0 0 0 0 0 0 0 0 0.25 0"/>
<feBlend mode="normal" in2="BackgroundImageFix" result="effect1_dropShadow_370_1650"/>
<feBlend mode="normal" in="SourceGraphic" in2="effect1_dropShadow_370_1650" result="shape"/>
</filter>
<filter id="filter1_d_370_1650" x="21.5" y="37.5" width="66" height="66" filterUnits="userSpaceOnUse" color-interpolation-filters="sRGB">
<feFlood flood-opacity="0" result="BackgroundImageFix"/>
<feColorMatrix in="SourceAlpha" type="matrix" values="0 0 0 0 0 0 0 0 0 0 0 0 0 0 0 0 0 0 127 0" result="hardAlpha"/>
<feOffset/>
<feGaussianBlur stdDeviation="0.75"/>
<feComposite in2="hardAlpha" operator="out"/>
<feColorMatrix type="matrix" values="0 0 0 0 0.996078 0 0 0 0 0.996078 0 0 0 0 0.996078 0 0 0 1 0"/>
<feBlend mode="normal" in2="BackgroundImageFix" result="effect1_dropShadow_370_1650"/>
<feBlend mode="normal" in="SourceGraphic" in2="effect1_dropShadow_370_1650" result="shape"/>
</filter>
<filter id="filter2_d_370_1650" x="27" y="39" width="54" height="64.5" filterUnits="userSpaceOnUse" color-interpolation-filters="sRGB">
<feFlood flood-opacity="0" result="BackgroundImageFix"/>
<feColorMatrix in="SourceAlpha" type="matrix" values="0 0 0 0 0 0 0 0 0 0 0 0 0 0 0 0 0 0 127 0" result="hardAlpha"/>
<feOffset/>
<feGaussianBlur stdDeviation="2"/>
<feComposite in2="hardAlpha" operator="out"/>
<feColorMatrix type="matrix" values="0 0 0 0 1 0 0 0 0 1 0 0 0 0 1 0 0 0 1 0"/>
<feBlend mode="normal" in2="BackgroundImageFix" result="effect1_dropShadow_370_1650"/>
<feBlend mode="normal" in="SourceGraphic" in2="effect1_dropShadow_370_1650" result="shape"/>
</filter>
<filter id="filter3_d_370_1650" x="67.616" y="70.532" width="83.9404" height="38.7681" filterUnits="userSpaceOnUse" color-interpolation-filters="sRGB">
<feFlood flood-opacity="0" result="BackgroundImageFix"/>
<feColorMatrix in="SourceAlpha" type="matrix" values="0 0 0 0 0 0 0 0 0 0 0 0 0 0 0 0 0 0 127 0" result="hardAlpha"/>
<feOffset dy="4"/>
<feGaussianBlur stdDeviation="2"/>
<feComposite in2="hardAlpha" operator="out"/>
<feColorMatrix type="matrix" values="0 0 0 0 0 0 0 0 0 0 0 0 0 0 0 0 0 0 0.25 0"/>
<feBlend mode="normal" in2="BackgroundImageFix" result="effect1_dropShadow_370_1650"/>
<feBlend mode="normal" in="SourceGraphic" in2="effect1_dropShadow_370_1650" result="shape"/>
</filter>
<filter id="filter4_d_370_1650" x="57" y="42" width="40" height="40" filterUnits="userSpaceOnUse" color-interpolation-filters="sRGB">
<feFlood flood-opacity="0" result="BackgroundImageFix"/>
<feColorMatrix in="SourceAlpha" type="matrix" values="0 0 0 0 0 0 0 0 0 0 0 0 0 0 0 0 0 0 127 0" result="hardAlpha"/>
<feOffset/>
<feGaussianBlur stdDeviation="4"/>
<feComposite in2="hardAlpha" operator="out"/>
<feColorMatrix type="matrix" values="0 0 0 0 1 0 0 0 0 1 0 0 0 0 1 0 0 0 1 0"/>
<feBlend mode="normal" in2="BackgroundImageFix" result="effect1_dropShadow_370_1650"/>
<feBlend mode="normal" in="SourceGraphic" in2="effect1_dropShadow_370_1650" result="shape"/>
</filter>
<filter id="filter5_d_370_1650" x="135" y="58.0001" width="32.2427" height="32.2428" filterUnits="userSpaceOnUse" color-interpolation-filters="sRGB">
<feFlood flood-opacity="0" result="BackgroundImageFix"/>
<feColorMatrix in="SourceAlpha" type="matrix" values="0 0 0 0 0 0 0 0 0 0 0 0 0 0 0 0 0 0 127 0" result="hardAlpha"/>
<feOffset/>
<feGaussianBlur stdDeviation="2"/>
<feComposite in2="hardAlpha" operator="out"/>
<feColorMatrix type="matrix" values="0 0 0 0 1 0 0 0 0 1 0 0 0 0 1 0 0 0 1 0"/>
<feBlend mode="normal" in2="BackgroundImageFix" result="effect1_dropShadow_370_1650"/>
<feBlend mode="normal" in="SourceGraphic" in2="effect1_dropShadow_370_1650" result="shape"/>
</filter>
<linearGradient id="paint0_linear_370_1650" x1="19.5" y1="137" x2="19.5" y2="5.5704e-08" gradientUnits="userSpaceOnUse">
<stop offset="0.114072" stop-color="#FF1493" stop-opacity="0.8"/>
<stop offset="0.547978" stop-color="#F2AFD4"/>
<stop offset="0.966745" stop-color="#E7E7E7"/>
</linearGradient>
<linearGradient id="paint1_linear_370_1650" x1="4" y1="7.5" x2="158.766" y2="142.344" gradientUnits="userSpaceOnUse">
<stop stop-color="#DEF744" stop-opacity="0"/>
<stop offset="1" stop-color="#DEF744"/>
</linearGradient>
</defs>
</svg>
