<svg width="48" height="36" viewBox="0 0 48 36" fill="none" xmlns="http://www.w3.org/2000/svg">
<path d="M36.5529 19.6048C32.8543 25.4156 25.9446 24.439 25.9446 24.439C25.9446 24.439 21.7986 19.1207 25.8334 12.7817C29.8682 6.44273 36.4417 7.94743 36.4417 7.94743C36.4417 7.94743 40.2516 13.794 36.5529 19.6048ZM28.044 21.1407L31.4176 20.3914L28.044 21.1407ZM29.881 18.2547L29.1317 14.8811L29.881 18.2547ZM31.4556 15.7809L34.8292 15.0316L31.4556 15.7809ZM25.9446 24.439L33.8174 12.0703L25.9446 24.439Z" fill="#7FB8AE"/>
<path d="M25.9446 24.439C25.9446 24.439 32.8543 25.4156 36.5529 19.6048C40.2516 13.794 36.4417 7.94743 36.4417 7.94743C36.4417 7.94743 29.8682 6.44273 25.8334 12.7817C21.7986 19.1207 25.9446 24.439 25.9446 24.439ZM25.9446 24.439L33.8174 12.0703M28.044 21.1407L31.4176 20.3914M29.881 18.2547L29.1317 14.8811M31.4556 15.7809L34.8292 15.0316" stroke="#064E41" stroke-width="2" stroke-linecap="round" stroke-linejoin="round"/>
<path d="M15.5 6.29175C16.8703 6.29175 18.1844 6.83609 19.1534 7.80503C20.1223 8.77397 20.6666 10.0881 20.6666 11.4584L20.6641 11.5295L20.7028 11.5062C21.7913 10.8748 23.0739 10.6656 24.3066 10.9185L24.6127 10.9908C25.2651 11.1672 25.8762 11.4709 26.4109 11.8843C26.9456 12.2977 27.3933 12.8128 27.7282 13.3998C28.4096 14.5855 28.5944 15.9926 28.2423 17.314C27.8902 18.6355 27.0298 19.7641 25.8488 20.4536L25.761 20.5001L25.8527 20.5505C26.9912 21.2161 27.8328 22.291 28.2061 23.5559C28.5793 24.8208 28.456 26.1804 27.8612 27.3575L27.7308 27.5978C27.3957 28.1856 26.9475 28.7014 26.4122 29.1152C25.8769 29.5291 25.2649 29.8329 24.6116 30.0092C23.9583 30.1854 23.2766 30.2307 22.6057 30.1422C21.9349 30.0538 21.2881 29.8335 20.7028 29.494L20.6641 29.4681L20.6666 29.5417C20.6666 30.8673 20.1572 32.1422 19.2436 33.1026C18.33 34.0631 17.0822 34.6357 15.7583 34.702L15.5 34.7084C14.1297 34.7084 12.8155 34.1641 11.8466 33.1951C10.8777 32.2262 10.3333 30.912 10.3333 29.5417L10.3346 29.4694L10.2971 29.494C9.20886 30.1258 7.92622 30.3355 6.6934 30.083L6.38856 30.0106C5.7359 29.8344 5.12453 29.5308 4.58962 29.1174C4.05472 28.7039 3.60685 28.1888 3.27177 27.6017C2.59057 26.4164 2.40559 25.0099 2.75716 23.6887C3.10873 22.3676 3.96834 21.2391 5.14856 20.5492L5.23898 20.5001L5.14727 20.451C4.0088 19.7853 3.16713 18.7104 2.79391 17.4455C2.42068 16.1806 2.544 14.821 3.13873 13.6439L3.2679 13.4024C3.603 12.814 4.05131 12.2978 4.58695 11.8836C5.12259 11.4694 5.73496 11.1654 6.38872 10.9891C7.04248 10.8128 7.72467 10.7678 8.39594 10.8565C9.06721 10.9453 9.71425 11.1661 10.2997 11.5062L10.3333 11.5295V11.4584C10.3333 10.1329 10.8428 8.85799 11.7564 7.89753C12.67 6.93707 13.9177 6.36448 15.2416 6.29821L15.5 6.29175ZM15.5 16.6251C14.4723 16.6251 13.4866 17.0333 12.7599 17.76C12.0332 18.4867 11.625 19.4724 11.625 20.5001C11.625 21.5278 12.0332 22.5134 12.7599 23.2401C13.4866 23.9668 14.4723 24.3751 15.5 24.3751C16.5277 24.3751 17.5133 23.9668 18.24 23.2401C18.9667 22.5134 19.375 21.5278 19.375 20.5001C19.375 19.4724 18.9667 18.4867 18.24 17.76C17.5133 17.0333 16.5277 16.6251 15.5 16.6251Z" fill="#EC88BC"/>
</svg>
