<svg width="20" height="20" viewBox="0 0 20 20" fill="none" xmlns="http://www.w3.org/2000/svg">
<mask id="mask0_415_616" style="mask-type:alpha" maskUnits="userSpaceOnUse" x="0" y="0" width="20" height="20">
<rect width="20" height="20" fill="#D9D9D9"/>
</mask>
<g mask="url(#mask0_415_616)">
<path d="M10.4167 9.9585C10.8194 9.51405 11.1285 9.00711 11.3438 8.43766C11.559 7.86822 11.6667 7.27794 11.6667 6.66683C11.6667 6.05572 11.559 5.46544 11.3438 4.896C11.1285 4.32655 10.8194 3.81961 10.4167 3.37516C11.25 3.48627 11.9444 3.85433 12.5 4.47933C13.0556 5.10433 13.3333 5.8335 13.3333 6.66683C13.3333 7.50016 13.0556 8.22933 12.5 8.85433C11.9444 9.47933 11.25 9.84738 10.4167 9.9585ZM15 16.6668V14.1668C15 13.6668 14.8889 13.1911 14.6667 12.7397C14.4444 12.2884 14.1528 11.8891 13.7917 11.5418C14.5 11.7918 15.1562 12.1147 15.7604 12.5106C16.3646 12.9064 16.6667 13.4585 16.6667 14.1668V16.6668H15ZM16.6667 10.8335V9.16683H15V7.50016H16.6667V5.8335H18.3333V7.50016H20V9.16683H18.3333V10.8335H16.6667ZM6.66667 10.0002C5.75 10.0002 4.96528 9.67377 4.3125 9.021C3.65972 8.36822 3.33333 7.5835 3.33333 6.66683C3.33333 5.75016 3.65972 4.96544 4.3125 4.31266C4.96528 3.65989 5.75 3.3335 6.66667 3.3335C7.58333 3.3335 8.36806 3.65989 9.02083 4.31266C9.67361 4.96544 10 5.75016 10 6.66683C10 7.5835 9.67361 8.36822 9.02083 9.021C8.36806 9.67377 7.58333 10.0002 6.66667 10.0002ZM0 16.6668V14.3335C0 13.8613 0.121528 13.4272 0.364583 13.0314C0.607639 12.6356 0.930556 12.3335 1.33333 12.1252C2.19444 11.6946 3.06944 11.3717 3.95833 11.1564C4.84722 10.9411 5.75 10.8335 6.66667 10.8335C7.58333 10.8335 8.48611 10.9411 9.375 11.1564C10.2639 11.3717 11.1389 11.6946 12 12.1252C12.4028 12.3335 12.7257 12.6356 12.9688 13.0314C13.2118 13.4272 13.3333 13.8613 13.3333 14.3335V16.6668H0Z" fill="white"/>
</g>
</svg>
