<svg width="21" height="14" viewBox="0 0 21 14" fill="none" xmlns="http://www.w3.org/2000/svg">
<path d="M10.9167 6.9585C11.3194 6.51405 11.6285 6.00711 11.8438 5.43766C12.059 4.86822 12.1667 4.27794 12.1667 3.66683C12.1667 3.05572 12.059 2.46544 11.8438 1.896C11.6285 1.32655 11.3194 0.819607 10.9167 0.375163C11.75 0.486274 12.4444 0.854329 13 1.47933C13.5556 2.10433 13.8333 2.8335 13.8333 3.66683C13.8333 4.50016 13.5556 5.22933 13 5.85433C12.4444 6.47933 11.75 6.84738 10.9167 6.9585ZM15.5 13.6668V11.1668C15.5 10.6668 15.3889 10.1911 15.1667 9.73975C14.9444 9.28836 14.6528 8.88905 14.2917 8.54183C15 8.79183 15.6562 9.11475 16.2604 9.51058C16.8646 9.90641 17.1667 10.4585 17.1667 11.1668V13.6668H15.5ZM17.1667 7.8335V6.16683H15.5V4.50016H17.1667V2.8335H18.8333V4.50016H20.5V6.16683H18.8333V7.8335H17.1667ZM7.16667 7.00016C6.25 7.00016 5.46528 6.67377 4.8125 6.021C4.15972 5.36822 3.83333 4.5835 3.83333 3.66683C3.83333 2.75016 4.15972 1.96544 4.8125 1.31266C5.46528 0.659885 6.25 0.333496 7.16667 0.333496C8.08333 0.333496 8.86806 0.659885 9.52083 1.31266C10.1736 1.96544 10.5 2.75016 10.5 3.66683C10.5 4.5835 10.1736 5.36822 9.52083 6.021C8.86806 6.67377 8.08333 7.00016 7.16667 7.00016ZM0.5 13.6668V11.3335C0.5 10.8613 0.621528 10.4272 0.864583 10.0314C1.10764 9.63558 1.43056 9.3335 1.83333 9.12516C2.69444 8.69461 3.56944 8.37169 4.45833 8.15641C5.34722 7.94113 6.25 7.8335 7.16667 7.8335C8.08333 7.8335 8.98611 7.94113 9.875 8.15641C10.7639 8.37169 11.6389 8.69461 12.5 9.12516C12.9028 9.3335 13.2257 9.63558 13.4688 10.0314C13.7118 10.4272 13.8333 10.8613 13.8333 11.3335V13.6668H0.5Z" fill="#064E41"/>
</svg>
