<svg width="14" height="15" viewBox="0 0 14 15" fill="none" xmlns="http://www.w3.org/2000/svg">
<path d="M12.8961 14.4792C11.2155 14.3542 9.62176 13.941 8.11482 13.2396C6.60787 12.5382 5.25718 11.5903 4.06273 10.3958C2.86829 9.20139 1.92732 7.85417 1.23982 6.35417C0.552316 4.85417 0.139122 3.26389 0.000232806 1.58333C-0.027545 1.29167 0.0578021 1.03819 0.256274 0.822917C0.454608 0.607639 0.702594 0.5 1.00023 0.5H3.83357C4.06968 0.5 4.27454 0.572917 4.44815 0.71875C4.62176 0.864583 4.73634 1.04861 4.7919 1.27083L5.2919 3.47917C5.31968 3.65972 5.30926 3.83333 5.26065 4C5.21204 4.16667 5.13218 4.30556 5.02107 4.41667L3.00023 6.45833C3.27801 6.98611 3.59746 7.49306 3.95857 7.97917C4.31968 8.46528 4.72225 8.92347 5.16627 9.35375C5.58336 9.77069 6.02801 10.1562 6.50023 10.5104C6.97246 10.8646 7.47246 11.1806 8.00023 11.4583L10.0627 9.45833C10.1738 9.34722 10.3127 9.26736 10.4794 9.21875C10.6461 9.17014 10.8197 9.15972 11.0002 9.1875L13.2294 9.66667C13.4655 9.73611 13.653 9.85764 13.7919 10.0312C13.9308 10.2049 14.0002 10.4097 14.0002 10.6458V13.4792C14.0002 13.7768 13.8891 14.0248 13.6669 14.2231C13.4447 14.4216 13.1877 14.5069 12.8961 14.4792ZM2.31273 5L3.77107 3.54167L3.41357 2H1.5419C1.61134 2.52778 1.70857 3.03819 1.83357 3.53125C1.95857 4.02431 2.11829 4.51389 2.31273 5ZM9.4794 12.1667C9.9669 12.3644 10.4638 12.5215 10.97 12.6379C11.4763 12.7543 11.9863 12.8472 12.5002 12.9167V11.0417L10.9377 10.7083L9.4794 12.1667Z" fill="#064E41"/>
</svg>
