<svg width="19" height="19" viewBox="0 0 19 19" fill="none" xmlns="http://www.w3.org/2000/svg">
<path d="M17.45 18.1635L14 14.7135V17.65H13V13H17.65V14H14.6885L18.1385 17.45L17.45 18.1635ZM9 18C7.755 18 6.585 17.7638 5.49 17.2915C4.395 16.8192 3.4425 16.1782 2.6325 15.3685C1.8225 14.5588 1.18125 13.6067 0.70875 12.512C0.23625 11.4175 0 10.2479 0 9.00325C0 7.75875 0.236167 6.58867 0.7085 5.493C1.18083 4.3975 1.82183 3.4445 2.6315 2.634C3.44117 1.8235 4.39333 1.18192 5.488 0.70925C6.5825 0.236417 7.75208 0 8.99675 0C10.2413 0 11.4113 0.236249 12.507 0.708749C13.6025 1.18125 14.5555 1.8225 15.366 2.6325C16.1765 3.4425 16.8181 4.395 17.2908 5.49C17.7636 6.585 18 7.755 18 9C18 9.26917 17.9882 9.53842 17.9645 9.80775C17.9407 10.0769 17.9051 10.3462 17.8577 10.6155H16.827C16.8847 10.3462 16.9279 10.0769 16.9568 9.80775C16.9856 9.53842 17 9.26917 17 9C17 8.60683 16.9727 8.21367 16.9182 7.8205C16.8637 7.42733 16.7756 7.03842 16.6538 6.65375H12.6193C12.6949 7.03842 12.7484 7.42733 12.7797 7.8205C12.8112 8.21367 12.827 8.60683 12.827 9C12.827 9.26917 12.8193 9.53842 12.8038 9.80775C12.7884 10.0769 12.7653 10.3462 12.7345 10.6155H11.7345C11.7653 10.3462 11.7884 10.0769 11.8038 9.80775C11.8193 9.53842 11.827 9.26917 11.827 9C11.827 8.60683 11.8112 8.21367 11.7797 7.8205C11.7484 7.42733 11.6949 7.03842 11.6193 6.65375H6.38075C6.30508 7.03842 6.25158 7.42783 6.22025 7.822C6.18875 8.21633 6.173 8.61058 6.173 9.00475C6.173 9.39908 6.18875 9.79175 6.22025 10.1827C6.25158 10.5737 6.30508 10.9616 6.38075 11.3463H10.3845V12.3463H6.61925C6.86225 13.2029 7.17625 14.0247 7.56125 14.8117C7.94608 15.5987 8.42567 16.3307 9 17.0077C9.26917 17.0077 9.53842 16.9933 9.80775 16.9645C10.0769 16.9357 10.3462 16.9046 10.6155 16.8713V17.8635C10.3462 17.8968 10.0769 17.9279 9.80775 17.9568C9.53842 17.9856 9.26917 18 9 18ZM1.34625 11.3463H5.38075C5.30508 10.9616 5.25158 10.5722 5.22025 10.178C5.18875 9.78367 5.173 9.38942 5.173 8.99525C5.173 8.60092 5.18875 8.20825 5.22025 7.81725C5.25158 7.42625 5.30508 7.03842 5.38075 6.65375H1.34625C1.22442 7.03842 1.13625 7.42783 1.08175 7.822C1.02725 8.21633 1 8.61058 1 9.00475C1 9.39908 1.02725 9.79175 1.08175 10.1827C1.13625 10.5737 1.22442 10.9616 1.34625 11.3463ZM1.75375 5.65375H5.57925C5.77392 4.81925 6.04458 4.01958 6.39125 3.25475C6.73808 2.49008 7.18333 1.77308 7.727 1.10375C6.4 1.30125 5.21283 1.8035 4.1655 2.6105C3.118 3.41767 2.31408 4.43208 1.75375 5.65375ZM7.727 16.8962C7.22183 16.2141 6.79267 15.4907 6.4395 14.726C6.08617 13.9612 5.8025 13.1679 5.5885 12.3463H1.75375C2.31408 13.5551 3.12117 14.5631 4.175 15.3702C5.22883 16.1772 6.41283 16.6859 7.727 16.8962ZM6.61925 5.65375H11.3807C11.1551 4.79608 10.8402 3.98083 10.436 3.208C10.0318 2.43517 9.55317 1.69658 9 0.99225C8.4385 1.66925 7.95775 2.401 7.55775 3.1875C7.15775 3.974 6.84492 4.79608 6.61925 5.65375ZM12.4115 5.65375H16.2463C15.6859 4.43208 14.882 3.4145 13.8345 2.601C12.7872 1.7875 11.6 1.28842 10.273 1.10375C10.7782 1.78592 11.1978 2.51258 11.5318 3.28375C11.8658 4.05492 12.159 4.84492 12.4115 5.65375Z" fill="#064E41"/>
</svg>
