<svg width="12" height="13" viewBox="0 0 12 13" fill="none" xmlns="http://www.w3.org/2000/svg">
    <path
        d="M10.6167 0.591451C10.4293 0.403889 10.2067 0.255112 9.96171 0.153627C9.71672 0.052142 9.45412 -6.18596e-05 9.18894 5.50091e-08C8.92376 6.19696e-05 8.6612 0.0523884 8.41625 0.153988C8.17131 0.255587 7.94879 0.404468 7.76142 0.592118L1.42341 6.93878C1.04577 7.3173 0.833603 7.8301 0.833415 8.36478V10.5001C0.833415 10.7761 1.05741 11.0001 1.33341 11.0001H3.48208C4.01741 11.0001 4.53075 10.7868 4.90875 10.4088L11.2421 4.07145C11.6199 3.69277 11.832 3.17969 11.832 2.64478C11.832 2.10987 11.6199 1.5968 11.2421 1.21812L10.6167 0.591451ZM0.666748 12.0001C0.53414 12.0001 0.406963 12.0528 0.313195 12.1466C0.219426 12.2403 0.166748 12.3675 0.166748 12.5001C0.166748 12.6327 0.219426 12.7599 0.313195 12.8537C0.406963 12.9474 0.53414 13.0001 0.666748 13.0001H11.3334C11.466 13.0001 11.5932 12.9474 11.687 12.8537C11.7807 12.7599 11.8334 12.6327 11.8334 12.5001C11.8334 12.3675 11.7807 12.2403 11.687 12.1466C11.5932 12.0528 11.466 12.0001 11.3334 12.0001H0.666748Z"
        fill="#064E41" />
</svg>