<svg width="16" height="17" viewBox="0 0 16 17" fill="none" xmlns="http://www.w3.org/2000/svg">
    <path
        d="M7.25 12.5H8.75V7.5H7.25V12.5ZM7.99563 6C8.20688 6 8.38542 5.92854 8.53125 5.78563C8.67708 5.64271 8.75 5.46563 8.75 5.25438C8.75 5.04313 8.67854 4.86458 8.53563 4.71875C8.39271 4.57292 8.21563 4.5 8.00438 4.5C7.79313 4.5 7.61458 4.57146 7.46875 4.71437C7.32292 4.85729 7.25 5.03437 7.25 5.24562C7.25 5.45687 7.32146 5.63542 7.46438 5.78125C7.60729 5.92708 7.78438 6 7.99563 6ZM8.00583 16.5C6.90472 16.5 5.86806 16.2917 4.89583 15.875C3.92361 15.4583 3.07292 14.8854 2.34375 14.1562C1.61458 13.4271 1.04167 12.5767 0.625 11.605C0.208333 10.6333 0 9.59514 0 8.49042C0 7.38569 0.208333 6.35069 0.625 5.38542C1.04167 4.42014 1.61458 3.57292 2.34375 2.84375C3.07292 2.11458 3.92333 1.54167 4.895 1.125C5.86667 0.708333 6.90486 0.5 8.00958 0.5C9.11431 0.5 10.1493 0.708333 11.1146 1.125C12.0799 1.54167 12.9271 2.11458 13.6562 2.84375C14.3854 3.57292 14.9583 4.42167 15.375 5.39C15.7917 6.35847 16 7.39319 16 8.49417C16 9.59528 15.7917 10.6319 15.375 11.6042C14.9583 12.5764 14.3854 13.4271 13.6562 14.1562C12.9271 14.8854 12.0783 15.4583 11.11 15.875C10.1415 16.2917 9.10681 16.5 8.00583 16.5ZM8 15C9.80556 15 11.3403 14.3681 12.6042 13.1042C13.8681 11.8403 14.5 10.3056 14.5 8.5C14.5 6.69444 13.8681 5.15972 12.6042 3.89583C11.3403 2.63194 9.80556 2 8 2C6.19444 2 4.65972 2.63194 3.39583 3.89583C2.13194 5.15972 1.5 6.69444 1.5 8.5C1.5 10.3056 2.13194 11.8403 3.39583 13.1042C4.65972 14.3681 6.19444 15 8 15Z"
        fill="#064E41" />
</svg>