<svg width="14" height="17" viewBox="0 0 14 17" fill="none" xmlns="http://www.w3.org/2000/svg">
<path d="M7.00437 8.5C7.41813 8.5 7.77083 8.35271 8.0625 8.05813C8.35417 7.76354 8.5 7.40937 8.5 6.99562C8.5 6.58187 8.35271 6.22917 8.05812 5.9375C7.76354 5.64583 7.40938 5.5 6.99563 5.5C6.58188 5.5 6.22917 5.64729 5.9375 5.94188C5.64583 6.23646 5.5 6.59063 5.5 7.00438C5.5 7.41813 5.64729 7.77083 5.94187 8.0625C6.23646 8.35417 6.59062 8.5 7.00437 8.5ZM7 14.5208C8.65278 13.0347 9.89931 11.6667 10.7396 10.4167C11.5799 9.16667 12 8.04861 12 7.0625C12 5.60417 11.5243 4.39583 10.5729 3.4375C9.62153 2.47917 8.43056 2 7 2C5.56944 2 4.37847 2.47917 3.42708 3.4375C2.47569 4.39583 2 5.60417 2 7.0625C2 8.04861 2.42014 9.16667 3.26042 10.4167C4.10069 11.6667 5.34722 13.0347 7 14.5208ZM7 16.5C4.81986 14.679 3.19146 12.9877 2.11479 11.426C1.03826 9.86424 0.5 8.40972 0.5 7.0625C0.5 5.20139 1.11806 3.64236 2.35417 2.38542C3.59028 1.12847 5.13542 0.5 6.98958 0.5C8.84375 0.5 10.3924 1.12847 11.6354 2.38542C12.8785 3.64236 13.5 5.20139 13.5 7.0625C13.5 8.40972 12.9653 9.86111 11.8958 11.4167C10.8264 12.9722 9.19444 14.6667 7 16.5Z" fill="#064E41"/>
</svg>
