<svg width="12" height="13" viewBox="0 0 12 13" fill="none" xmlns="http://www.w3.org/2000/svg">
<path d="M11.0667 12.5L6.86667 8.3C6.53333 8.56667 6.15 8.77778 5.71667 8.93333C5.28333 9.08889 4.82222 9.16667 4.33333 9.16667C3.12222 9.16667 2.09722 8.74722 1.25833 7.90833C0.419445 7.06944 0 6.04444 0 4.83333C0 3.62222 0.419445 2.59722 1.25833 1.75833C2.09722 0.919445 3.12222 0.5 4.33333 0.5C5.54444 0.5 6.56944 0.919445 7.40833 1.75833C8.24722 2.59722 8.66667 3.62222 8.66667 4.83333C8.66667 5.32222 8.58889 5.78333 8.43333 6.21667C8.27778 6.65 8.06667 7.03333 7.8 7.36667L12 11.5667L11.0667 12.5ZM4.33333 7.83333C5.16667 7.83333 5.875 7.54167 6.45833 6.95833C7.04167 6.375 7.33333 5.66667 7.33333 4.83333C7.33333 4 7.04167 3.29167 6.45833 2.70833C5.875 2.125 5.16667 1.83333 4.33333 1.83333C3.5 1.83333 2.79167 2.125 2.20833 2.70833C1.625 3.29167 1.33333 4 1.33333 4.83333C1.33333 5.66667 1.625 6.375 2.20833 6.95833C2.79167 7.54167 3.5 7.83333 4.33333 7.83333Z" fill="#1C1B1F"/>
</svg>
