<svg width="18" height="18" viewBox="0 0 18 18" fill="none" xmlns="http://www.w3.org/2000/svg">
<path d="M4.64025 6H13.359L12.8378 14.3438C12.8139 14.7246 12.6458 15.082 12.3677 15.3433C12.0896 15.6045 11.7223 15.75 11.3408 15.75H6.65925C6.27767 15.75 5.91043 15.6045 5.63231 15.3433C5.35419 15.082 5.1861 14.7246 5.16225 14.3438L4.64025 6ZM14.25 3.75V5.25H3.75V3.75H6V3C6 2.60218 6.15804 2.22064 6.43934 1.93934C6.72064 1.65804 7.10218 1.5 7.5 1.5H10.5C10.8978 1.5 11.2794 1.65804 11.5607 1.93934C11.842 2.22064 12 2.60218 12 3V3.75H14.25ZM7.5 3.75H10.5V3H7.5V3.75Z" fill="white"/>
</svg>
