<svg width="36" height="36" viewBox="0 0 36 36" fill="none" xmlns="http://www.w3.org/2000/svg">
<circle cx="18" cy="18" r="18" fill="#25B73D"/>
<mask id="mask0_415_1306" style="mask-type:alpha" maskUnits="userSpaceOnUse" x="0" y="0" width="36" height="36">
<rect width="36" height="36" fill="#D9D9D9"/>
</mask>
<g mask="url(#mask0_415_1306)">
<path d="M14.3246 22.725L27.0371 10.0125C27.3371 9.7125 27.6871 9.5625 28.0871 9.5625C28.4871 9.5625 28.8371 9.7125 29.1371 10.0125C29.4371 10.3125 29.5871 10.6688 29.5871 11.0813C29.5871 11.4938 29.4371 11.85 29.1371 12.15L15.3746 25.95C15.0746 26.25 14.7246 26.4 14.3246 26.4C13.9246 26.4 13.5746 26.25 13.2746 25.95L6.82458 19.5C6.52458 19.2 6.38083 18.8438 6.39333 18.4313C6.40583 18.0188 6.56208 17.6625 6.86208 17.3625C7.16208 17.0625 7.51833 16.9125 7.93083 16.9125C8.34333 16.9125 8.69958 17.0625 8.99958 17.3625L14.3246 22.725Z" fill="white"/>
</g>
</svg>
