<svg width="18" height="16" viewBox="0 0 18 16" fill="none" xmlns="http://www.w3.org/2000/svg">
<path d="M15.7843 2.18747C14.8965 1.29739 13.7197 0.754143 12.4664 0.655846C11.2132 0.55755 9.96605 0.910691 8.95037 1.65148C7.8848 0.858911 6.5585 0.499522 5.23855 0.645685C3.91861 0.791849 2.70307 1.43271 1.83671 2.43921C0.970357 3.44571 0.517539 4.74309 0.569446 6.07009C0.621352 7.39708 1.17413 8.65513 2.11646 9.59088L7.31727 14.8001C7.75278 15.2287 8.33933 15.4689 8.95037 15.4689C9.56142 15.4689 10.148 15.2287 10.5835 14.8001L15.7843 9.59088C16.7621 8.60705 17.311 7.27629 17.311 5.88918C17.311 4.50206 16.7621 3.1713 15.7843 2.18747ZM14.6034 8.43514L9.40262 13.636C9.34344 13.6957 9.273 13.7431 9.19537 13.7755C9.11775 13.8079 9.03448 13.8246 8.95037 13.8246C8.86627 13.8246 8.783 13.8079 8.70537 13.7755C8.62775 13.7431 8.55731 13.6957 8.49813 13.636L3.29732 8.41002C2.64052 7.73864 2.27274 6.83677 2.27274 5.89755C2.27274 4.95834 2.64052 4.05646 3.29732 3.38508C3.9666 2.72429 4.86926 2.35377 5.80979 2.35377C6.75031 2.35377 7.65297 2.72429 8.32226 3.38508C8.40011 3.46358 8.49274 3.52588 8.59479 3.5684C8.69685 3.61092 8.80631 3.63281 8.91687 3.63281C9.02743 3.63281 9.1369 3.61092 9.23895 3.5684C9.34101 3.52588 9.43364 3.46358 9.51149 3.38508C10.1808 2.72429 11.0834 2.35377 12.024 2.35377C12.9645 2.35377 13.8671 2.72429 14.5364 3.38508C15.2022 4.04766 15.5821 4.94465 15.5946 5.88389C15.6072 6.82313 15.2513 7.72992 14.6034 8.41002V8.43514Z" fill="#EA88BD"/>
<path d="M14.6034 8.43514L9.40262 13.636C9.34344 13.6957 9.273 13.7431 9.19537 13.7755C9.11775 13.8079 9.03448 13.8246 8.95037 13.8246C8.86627 13.8246 8.783 13.8079 8.70537 13.7755C8.62775 13.7431 8.55731 13.6957 8.49813 13.636L3.29732 8.41002C2.64052 7.73864 2.27274 6.83677 2.27274 5.89755C2.27274 4.95834 2.64052 4.05646 3.29732 3.38508C3.9666 2.72429 4.86926 2.35377 5.80979 2.35377C6.75031 2.35377 7.65297 2.72429 8.32226 3.38508C8.40011 3.46358 8.49274 3.52588 8.59479 3.5684C8.69685 3.61092 8.80631 3.63281 8.91687 3.63281C9.02743 3.63281 9.1369 3.61092 9.23895 3.5684C9.34101 3.52588 9.43364 3.46358 9.51149 3.38508C10.1808 2.72429 11.0834 2.35377 12.024 2.35377C12.9645 2.35377 13.8671 2.72429 14.5364 3.38508C15.2022 4.04766 15.5821 4.94465 15.5946 5.88389C15.6072 6.82313 15.2513 7.72992 14.6034 8.41002V8.43514Z" fill="#EA88BD"/>
</svg>
