<svg width="20" height="21" viewBox="0 0 20 21" fill="none" xmlns="http://www.w3.org/2000/svg">
    <mask id="mask0_1499_1850" style="mask-type:alpha" maskUnits="userSpaceOnUse" x="0" y="0"
        width="20" height="21">
        <rect y="0.5" width="20" height="20" fill="#D9D9D9" />
    </mask>
    <g mask="url(#mask0_1499_1850)">
        <path
            d="M4.16667 7.16663H15.8333V5.49996H4.16667V7.16663ZM4.16667 18.8333C3.70833 18.8333 3.31597 18.6701 2.98958 18.3437C2.66319 18.0173 2.5 17.625 2.5 17.1666V5.49996C2.5 5.04163 2.66319 4.64926 2.98958 4.32288C3.31597 3.99649 3.70833 3.83329 4.16667 3.83329H5V2.16663H6.66667V3.83329H13.3333V2.16663H15V3.83329H15.8333C16.2917 3.83329 16.684 3.99649 17.0104 4.32288C17.3368 4.64926 17.5 5.04163 17.5 5.49996V10.2291C17.2361 10.1041 16.9653 9.99996 16.6875 9.91663C16.4097 9.83329 16.125 9.77079 15.8333 9.72913V8.83329H4.16667V17.1666H9.41667C9.51389 17.4722 9.62847 17.7638 9.76042 18.0416C9.89236 18.3194 10.0486 18.5833 10.2292 18.8333H4.16667ZM15 19.6666C13.8472 19.6666 12.8646 19.2604 12.0521 18.4479C11.2396 17.6354 10.8333 16.6527 10.8333 15.5C10.8333 14.3472 11.2396 13.3645 12.0521 12.552C12.8646 11.7395 13.8472 11.3333 15 11.3333C16.1528 11.3333 17.1354 11.7395 17.9479 12.552C18.7604 13.3645 19.1667 14.3472 19.1667 15.5C19.1667 16.6527 18.7604 17.6354 17.9479 18.4479C17.1354 19.2604 16.1528 19.6666 15 19.6666ZM16.3958 17.4791L16.9792 16.8958L15.4167 15.3333V13H14.5833V15.6666L16.3958 17.4791Z"
            fill="#064E41" />
    </g>
</svg>