<svg width="20" height="21" viewBox="0 0 20 21" fill="none" xmlns="http://www.w3.org/2000/svg">
<mask id="mask0_1497_549" style="mask-type:alpha" maskUnits="userSpaceOnUse" x="0" y="0" width="20" height="21">
<rect y="0.5" width="20" height="20" fill="#D9D9D9"/>
</mask>
<g mask="url(#mask0_1497_549)">
<path d="M15.8961 17.4792C14.2155 17.3542 12.6218 16.941 11.1148 16.2396C9.60787 15.5382 8.25718 14.5903 7.06273 13.3958C5.86829 12.2014 4.92732 10.8542 4.23982 9.35417C3.55232 7.85417 3.13912 6.26389 3.00023 4.58333C2.97246 4.29167 3.0578 4.03819 3.25627 3.82292C3.45461 3.60764 3.70259 3.5 4.00023 3.5H6.83357C7.06968 3.5 7.27454 3.57292 7.44815 3.71875C7.62176 3.86458 7.73634 4.04861 7.7919 4.27083L8.2919 6.47917C8.31968 6.65972 8.30926 6.83333 8.26065 7C8.21204 7.16667 8.13218 7.30556 8.02107 7.41667L6.00023 9.45833C6.27801 9.98611 6.59746 10.4931 6.95857 10.9792C7.31968 11.4653 7.72225 11.9235 8.16627 12.3538C8.58336 12.7707 9.02801 13.1562 9.50023 13.5104C9.97246 13.8646 10.4725 14.1806 11.0002 14.4583L13.0627 12.4583C13.1738 12.3472 13.3127 12.2674 13.4794 12.2188C13.6461 12.1701 13.8197 12.1597 14.0002 12.1875L16.2294 12.6667C16.4655 12.7361 16.653 12.8576 16.7919 13.0312C16.9308 13.2049 17.0002 13.4097 17.0002 13.6458V16.4792C17.0002 16.7768 16.8891 17.0248 16.6669 17.2231C16.4447 17.4216 16.1877 17.5069 15.8961 17.4792ZM5.31273 8L6.77107 6.54167L6.41357 5H4.5419C4.61134 5.52778 4.70857 6.03819 4.83357 6.53125C4.95857 7.02431 5.11829 7.51389 5.31273 8ZM12.4794 15.1667C12.9669 15.3644 13.4638 15.5215 13.97 15.6379C14.4763 15.7543 14.9863 15.8472 15.5002 15.9167V14.0417L13.9377 13.7083L12.4794 15.1667Z" fill="#064E41"/>
</g>
</svg>
