<svg width="23" height="23" viewBox="0 0 23 23" fill="none" xmlns="http://www.w3.org/2000/svg">
<path d="M11.5002 15.3333C10.4835 15.3333 9.50848 14.9294 8.78959 14.2105C8.0707 13.4916 7.66683 12.5166 7.66683 11.5C7.66683 10.4833 8.0707 9.50827 8.78959 8.78938C9.50848 8.07049 10.4835 7.66663 11.5002 7.66663C12.5168 7.66663 13.4918 8.07049 14.2107 8.78938C14.9296 9.50827 15.3335 10.4833 15.3335 11.5C15.3335 12.5166 14.9296 13.4916 14.2107 14.2105C13.4918 14.9294 12.5168 15.3333 11.5002 15.3333Z" stroke="#064E41" stroke-width="1.5" stroke-linecap="round" stroke-linejoin="round"/>
<path d="M20.125 15.3333V7.66667C20.125 6.39584 19.6202 5.17706 18.7216 4.27845C17.8229 3.37983 16.6042 2.875 15.3333 2.875H7.66667C6.39584 2.875 5.17706 3.37983 4.27845 4.27845C3.37984 5.17706 2.875 6.39584 2.875 7.66667V15.3333C2.875 16.6042 3.37984 17.8229 4.27845 18.7216C5.17706 19.6202 6.39584 20.125 7.66667 20.125H15.3333C16.6042 20.125 17.8229 19.6202 18.7216 18.7216C19.6202 17.8229 20.125 16.6042 20.125 15.3333Z" stroke="#064E41" stroke-width="1.5"/>
<path d="M6.229 6.23777L6.22025 6.22815" stroke="#064E41" stroke-width="1.5" stroke-linecap="round" stroke-linejoin="round"/>
</svg>
