<svg width="20" height="21" viewBox="0 0 20 21" fill="none" xmlns="http://www.w3.org/2000/svg">
<mask id="mask0_1499_1278" style="mask-type:alpha" maskUnits="userSpaceOnUse" x="0" y="0" width="20" height="21">
<rect y="0.5" width="20" height="20" fill="#D9D9D9"/>
</mask>
<g mask="url(#mask0_1499_1278)">
<path d="M9.99967 10.5001C10.458 10.5001 10.8504 10.3369 11.1768 10.0105C11.5031 9.68411 11.6663 9.29175 11.6663 8.83341C11.6663 8.37508 11.5031 7.98272 11.1768 7.65633C10.8504 7.32994 10.458 7.16675 9.99967 7.16675C9.54134 7.16675 9.14898 7.32994 8.82259 7.65633C8.4962 7.98272 8.33301 8.37508 8.33301 8.83341C8.33301 9.29175 8.4962 9.68411 8.82259 10.0105C9.14898 10.3369 9.54134 10.5001 9.99967 10.5001ZM9.99967 16.6251C11.6941 15.0695 12.9511 13.6563 13.7705 12.3855C14.59 11.1147 14.9997 9.98619 14.9997 9.00008C14.9997 7.48619 14.517 6.24661 13.5518 5.28133C12.5865 4.31605 11.4025 3.83341 9.99967 3.83341C8.5969 3.83341 7.41287 4.31605 6.44759 5.28133C5.48231 6.24661 4.99967 7.48619 4.99967 9.00008C4.99967 9.98619 5.4094 11.1147 6.22884 12.3855C7.04829 13.6563 8.30523 15.0695 9.99967 16.6251ZM9.99967 18.8334C7.76356 16.9306 6.09342 15.1633 4.98926 13.5313C3.88509 11.8994 3.33301 10.389 3.33301 9.00008C3.33301 6.91675 4.00315 5.25703 5.34342 4.02091C6.6837 2.7848 8.23579 2.16675 9.99967 2.16675C11.7636 2.16675 13.3156 2.7848 14.6559 4.02091C15.9962 5.25703 16.6663 6.91675 16.6663 9.00008C16.6663 10.389 16.1143 11.8994 15.0101 13.5313C13.9059 15.1633 12.2358 16.9306 9.99967 18.8334Z" fill="#064E41"/>
</g>
</svg>
