<svg width="20" height="21" viewBox="0 0 20 21" fill="none" xmlns="http://www.w3.org/2000/svg">
<mask id="mask0_1499_1276" style="mask-type:alpha" maskUnits="userSpaceOnUse" x="0" y="0" width="20" height="21">
<rect y="0.5" width="20" height="20" fill="#D9D9D9"/>
</mask>
<g mask="url(#mask0_1499_1276)">
<path d="M10.0002 10.5C9.0835 10.5 8.29877 10.1737 7.646 9.52087C6.99322 8.8681 6.66683 8.08337 6.66683 7.16671C6.66683 6.25004 6.99322 5.46532 7.646 4.81254C8.29877 4.15976 9.0835 3.83337 10.0002 3.83337C10.9168 3.83337 11.7016 4.15976 12.3543 4.81254C13.0071 5.46532 13.3335 6.25004 13.3335 7.16671C13.3335 8.08337 13.0071 8.8681 12.3543 9.52087C11.7016 10.1737 10.9168 10.5 10.0002 10.5ZM3.3335 17.1667V14.8334C3.3335 14.3612 3.45502 13.9271 3.69808 13.5313C3.94113 13.1355 4.26405 12.8334 4.66683 12.625C5.52794 12.1945 6.40294 11.8716 7.29183 11.6563C8.18072 11.441 9.0835 11.3334 10.0002 11.3334C10.9168 11.3334 11.8196 11.441 12.7085 11.6563C13.5974 11.8716 14.4724 12.1945 15.3335 12.625C15.7363 12.8334 16.0592 13.1355 16.3022 13.5313C16.5453 13.9271 16.6668 14.3612 16.6668 14.8334V17.1667H3.3335ZM5.00016 15.5H15.0002V14.8334C15.0002 14.6806 14.962 14.5417 14.8856 14.4167C14.8092 14.2917 14.7085 14.1945 14.5835 14.125C13.8335 13.75 13.0766 13.4688 12.3127 13.2813C11.5488 13.0938 10.7779 13 10.0002 13C9.22238 13 8.45155 13.0938 7.68766 13.2813C6.92377 13.4688 6.16683 13.75 5.41683 14.125C5.29183 14.1945 5.19113 14.2917 5.11475 14.4167C5.03836 14.5417 5.00016 14.6806 5.00016 14.8334V15.5ZM10.0002 8.83337C10.4585 8.83337 10.8509 8.67018 11.1772 8.34379C11.5036 8.0174 11.6668 7.62504 11.6668 7.16671C11.6668 6.70837 11.5036 6.31601 11.1772 5.98962C10.8509 5.66324 10.4585 5.50004 10.0002 5.50004C9.54183 5.50004 9.14947 5.66324 8.82308 5.98962C8.49669 6.31601 8.3335 6.70837 8.3335 7.16671C8.3335 7.62504 8.49669 8.0174 8.82308 8.34379C9.14947 8.67018 9.54183 8.83337 10.0002 8.83337Z" fill="#064E41"/>
</g>
</svg>
