<svg width="20" height="21" viewBox="0 0 20 21" fill="none" xmlns="http://www.w3.org/2000/svg">
    <mask id="mask0_1499_1259" style="mask-type:alpha" maskUnits="userSpaceOnUse" x="0" y="0"
        width="20" height="21">
        <rect y="0.5" width="20" height="20" fill="#D9D9D9" />
    </mask>
    <g mask="url(#mask0_1499_1259)">
        <path
            d="M12.7503 14.4167L13.917 13.2501L10.8337 10.1667V6.33341H9.16699V10.8334L12.7503 14.4167ZM10.0003 18.8334C8.84755 18.8334 7.76421 18.6147 6.75033 18.1772C5.73644 17.7397 4.85449 17.1459 4.10449 16.3959C3.35449 15.6459 2.76074 14.764 2.32324 13.7501C1.88574 12.7362 1.66699 11.6529 1.66699 10.5001C1.66699 9.3473 1.88574 8.26397 2.32324 7.25008C2.76074 6.23619 3.35449 5.35425 4.10449 4.60425C4.85449 3.85425 5.73644 3.2605 6.75033 2.823C7.76421 2.3855 8.84755 2.16675 10.0003 2.16675C11.1531 2.16675 12.2364 2.3855 13.2503 2.823C14.2642 3.2605 15.1462 3.85425 15.8962 4.60425C16.6462 5.35425 17.2399 6.23619 17.6774 7.25008C18.1149 8.26397 18.3337 9.3473 18.3337 10.5001C18.3337 11.6529 18.1149 12.7362 17.6774 13.7501C17.2399 14.764 16.6462 15.6459 15.8962 16.3959C15.1462 17.1459 14.2642 17.7397 13.2503 18.1772C12.2364 18.6147 11.1531 18.8334 10.0003 18.8334ZM10.0003 17.1667C11.8475 17.1667 13.4205 16.5174 14.7191 15.2188C16.0177 13.9202 16.667 12.3473 16.667 10.5001C16.667 8.65286 16.0177 7.07994 14.7191 5.78133C13.4205 4.48272 11.8475 3.83341 10.0003 3.83341C8.1531 3.83341 6.58019 4.48272 5.28158 5.78133C3.98296 7.07994 3.33366 8.65286 3.33366 10.5001C3.33366 12.3473 3.98296 13.9202 5.28158 15.2188C6.58019 16.5174 8.1531 17.1667 10.0003 17.1667Z"
            fill="#064E41" />
    </g>
</svg>