<svg width="20" height="21" viewBox="0 0 20 21" fill="none" xmlns="http://www.w3.org/2000/svg">
<mask id="mask0_1499_1268" style="mask-type:alpha" maskUnits="userSpaceOnUse" x="0" y="0" width="20" height="21">
<rect y="0.5" width="20" height="20" fill="#D9D9D9"/>
</mask>
<g mask="url(#mask0_1499_1268)">
<path d="M6.66699 15.4584C6.80588 15.4723 6.9413 15.4827 7.07324 15.4897C7.20519 15.4966 7.34755 15.5001 7.50033 15.5001C7.6531 15.5001 7.79546 15.4966 7.92741 15.4897C8.05935 15.4827 8.19477 15.4723 8.33366 15.4584V17.1667H16.667V8.83341H14.9587C14.9725 8.69453 14.983 8.55911 14.9899 8.42717C14.9969 8.29522 15.0003 8.15286 15.0003 8.00008C15.0003 7.8473 14.9969 7.70494 14.9899 7.573C14.983 7.44105 14.9725 7.30564 14.9587 7.16675H16.667C17.1253 7.16675 17.5177 7.32994 17.8441 7.65633C18.1705 7.98272 18.3337 8.37508 18.3337 8.83341V17.1667C18.3337 17.6251 18.1705 18.0174 17.8441 18.3438C17.5177 18.6702 17.1253 18.8334 16.667 18.8334H8.33366C7.87533 18.8334 7.48296 18.6702 7.15658 18.3438C6.83019 18.0174 6.66699 17.6251 6.66699 17.1667V15.4584ZM7.50033 13.8334C5.87533 13.8334 4.49685 13.2674 3.36491 12.1355C2.23296 11.0036 1.66699 9.62508 1.66699 8.00008C1.66699 6.37508 2.23296 4.99661 3.36491 3.86466C4.49685 2.73272 5.87533 2.16675 7.50033 2.16675C9.12533 2.16675 10.5038 2.73272 11.6357 3.86466C12.7677 4.99661 13.3337 6.37508 13.3337 8.00008C13.3337 9.62508 12.7677 11.0036 11.6357 12.1355C10.5038 13.2674 9.12533 13.8334 7.50033 13.8334ZM7.50033 12.1667C8.6531 12.1667 9.63574 11.7605 10.4482 10.948C11.2607 10.1355 11.667 9.15286 11.667 8.00008C11.667 6.8473 11.2607 5.86466 10.4482 5.05216C9.63574 4.23966 8.6531 3.83341 7.50033 3.83341C6.34755 3.83341 5.36491 4.23966 4.55241 5.05216C3.73991 5.86466 3.33366 6.8473 3.33366 8.00008C3.33366 9.15286 3.73991 10.1355 4.55241 10.948C5.36491 11.7605 6.34755 12.1667 7.50033 12.1667Z" fill="#064E41"/>
</g>
</svg>
