<svg width="58" height="100" viewBox="0 0 58 100" fill="none" xmlns="http://www.w3.org/2000/svg">
<g filter="url(#filter0_d_370_3588)">
<path d="M34.5 50C34.5 53.05 35.7116 55.9751 37.8683 58.1317C40.0249 60.2884 42.95 61.5 46 61.5C49.05 61.5 51.9751 60.2884 54.1317 58.1317C56.2884 55.9751 57.5 53.05 57.5 50C57.5 46.95 56.2884 44.0249 54.1317 41.8683C51.9751 39.7116 49.05 38.5 46 38.5C42.95 38.5 40.0249 39.7116 37.8683 41.8683C35.7116 44.0249 34.5 46.95 34.5 50Z" stroke="white" stroke-opacity="0.7" stroke-width="3" stroke-linecap="round" stroke-linejoin="round"/>
<path d="M45.9999 11.6667C49.0499 11.6667 51.975 12.8784 54.1317 15.035C56.2883 17.1917 57.4999 20.1168 57.4999 23.1667C57.4999 25.3211 56.5084 28.6944 54.5253 33.2867L51.7499 38.5001L58.4966 31.2436C60.4082 28.9461 62.0309 27.4064 63.3649 26.6244C64.6646 25.871 66.1004 25.3822 67.5898 25.1863C69.0792 24.9903 70.5926 25.091 72.0429 25.4827C73.4931 25.8743 74.8516 26.549 76.0399 27.468C77.2282 28.387 78.2229 29.5321 78.9666 30.8372C80.4838 33.4772 80.896 36.6099 80.1133 39.5524C79.3306 42.495 77.4166 45.0089 74.7883 46.5462C73.3546 47.3794 70.9958 48.063 67.7119 48.5971L57.4999 50.0001L66.6999 51.2497C70.5333 51.8056 73.2089 52.5416 74.7883 53.4577C77.4166 54.9951 79.3306 57.509 80.1133 60.4516C80.896 63.3941 80.4838 66.5268 78.9666 69.1667C78.2225 70.4716 77.2276 71.6163 76.0392 72.5349C74.8507 73.4535 73.4922 74.1279 72.042 74.5191C70.5917 74.9104 69.0784 75.0108 67.5892 74.8145C66.1 74.6183 64.6643 74.1293 63.3649 73.3757C62.0309 72.6014 60.4082 71.0617 58.4966 68.7566L51.7499 61.5001L54.5253 66.7134C56.5058 71.3109 57.4974 74.6842 57.4999 76.8334C57.4999 79.8834 56.2883 82.8085 54.1317 84.9651C51.975 87.1218 49.0499 88.3334 45.9999 88.3334C42.9499 88.3334 40.0249 87.1218 37.8682 84.9651C35.7115 82.8085 34.4999 79.8834 34.4999 76.8334C34.4999 74.6791 35.4915 71.3057 37.4746 66.7134L40.2499 61.5001L33.5033 68.7566C31.5917 71.0566 29.9689 72.5963 28.6349 73.3757C27.3356 74.1293 25.8999 74.6183 24.4107 74.8145C22.9215 75.0108 21.4081 74.9104 19.9579 74.5191C18.5077 74.1279 17.1492 73.4535 15.9607 72.5349C14.7723 71.6163 13.7773 70.4716 13.0333 69.1667C11.5161 66.5268 11.1039 63.3941 11.8866 60.4516C12.6692 57.509 14.5833 54.9951 17.2116 53.4577C18.6453 52.6246 21.0041 51.9397 24.2879 51.4031L34.4999 50.0001L25.2999 48.7542C21.4666 48.1984 18.7909 47.4624 17.2116 46.5462C14.5823 45.0089 12.6675 42.4943 11.8847 39.5508C11.102 36.6073 11.5149 33.4737 13.0333 30.8334C13.777 29.5282 14.7717 28.3832 15.96 27.4642C17.1483 26.5452 18.5068 25.8704 19.957 25.4788C21.4073 25.0872 22.9207 24.9865 24.4101 25.1824C25.8995 25.3784 27.3353 25.8672 28.6349 26.6206C29.9689 27.3975 31.5917 28.9372 33.5033 31.2397L40.2499 38.5001C36.4166 29.7141 34.4999 24.603 34.4999 23.1667C34.4999 20.1168 35.7115 17.1917 37.8682 15.035C40.0249 12.8784 42.9499 11.6667 45.9999 11.6667Z" stroke="white" stroke-opacity="0.7" stroke-width="3" stroke-linecap="round" stroke-linejoin="round"/>
</g>
<defs>
<filter id="filter0_d_370_3588" x="-10" y="-6" width="112" height="112" filterUnits="userSpaceOnUse" color-interpolation-filters="sRGB">
<feFlood flood-opacity="0" result="BackgroundImageFix"/>
<feColorMatrix in="SourceAlpha" type="matrix" values="0 0 0 0 0 0 0 0 0 0 0 0 0 0 0 0 0 0 127 0" result="hardAlpha"/>
<feOffset/>
<feGaussianBlur stdDeviation="5"/>
<feComposite in2="hardAlpha" operator="out"/>
<feColorMatrix type="matrix" values="0 0 0 0 1 0 0 0 0 1 0 0 0 0 1 0 0 0 1 0"/>
<feBlend mode="normal" in2="BackgroundImageFix" result="effect1_dropShadow_370_3588"/>
<feBlend mode="normal" in="SourceGraphic" in2="effect1_dropShadow_370_3588" result="shape"/>
</filter>
</defs>
</svg>
