<svg width="25" height="26" viewBox="0 0 25 26" fill="none" xmlns="http://www.w3.org/2000/svg">
<path d="M9.375 8.83325H10.4167M12.5 5.70825V6.74992M15.625 8.83325H14.5833" stroke="#064E41" stroke-width="2" stroke-linecap="round" stroke-linejoin="round"/>
<path d="M12.5 10.9167C13.6506 10.9167 14.5833 9.98393 14.5833 8.83333C14.5833 7.68274 13.6506 6.75 12.5 6.75C11.3494 6.75 10.4166 7.68274 10.4166 8.83333C10.4166 9.98393 11.3494 10.9167 12.5 10.9167Z" stroke="#064E41" stroke-width="2" stroke-linecap="round" stroke-linejoin="round"/>
<path d="M12.5 10.9166V23.4166M12.5 23.4166C8.12498 23.4166 5.20831 21.6801 5.20831 18.2083C9.58331 18.2083 12.5 19.9447 12.5 23.4166ZM12.5 23.4166C16.875 23.4166 19.7916 21.6801 19.7916 18.2083C15.4166 18.2083 12.5 19.9447 12.5 23.4166ZM12.5 11.9583C12.5 12.5763 12.3167 13.1805 11.9733 13.6944C11.6299 14.2083 11.1419 14.6089 10.5709 14.8454C9.99985 15.0819 9.37151 15.1438 8.76532 15.0232C8.15913 14.9026 7.60231 14.605 7.16527 14.168C6.72823 13.7309 6.4306 13.1741 6.31003 12.5679C6.18945 11.9617 6.25133 11.3334 6.48786 10.7624C6.72438 10.1913 7.12492 9.70329 7.63882 9.35991C8.15273 9.01653 8.75691 8.83325 9.37498 8.83325C8.75691 8.83325 8.15273 8.64998 7.63882 8.3066C7.12492 7.96322 6.72438 7.47516 6.48786 6.90414C6.25133 6.33312 6.18945 5.70479 6.31003 5.0986C6.4306 4.49241 6.72823 3.93558 7.16527 3.49854C7.60231 3.06151 8.15913 2.76388 8.76532 2.6433C9.37151 2.52272 9.99985 2.58461 10.5709 2.82113C11.1419 3.05765 11.6299 3.45819 11.9733 3.9721C12.3167 4.486 12.5 5.09019 12.5 5.70825C12.5 5.09019 12.6833 4.486 13.0266 3.9721C13.37 3.45819 13.8581 3.05765 14.4291 2.82113C15.0001 2.58461 15.6284 2.52272 16.2346 2.6433C16.8408 2.76388 17.3976 3.06151 17.8347 3.49854C18.2717 3.93558 18.5694 4.49241 18.6899 5.0986C18.8105 5.70479 18.7486 6.33312 18.5121 6.90414C18.2756 7.47516 17.875 7.96322 17.3611 8.3066C16.8472 8.64998 16.243 8.83325 15.625 8.83325C16.243 8.83325 16.8472 9.01653 17.3611 9.35991C17.875 9.70329 18.2756 10.1913 18.5121 10.7624C18.7486 11.3334 18.8105 11.9617 18.6899 12.5679C18.5694 13.1741 18.2717 13.7309 17.8347 14.168C17.3976 14.605 16.8408 14.9026 16.2346 15.0232C15.6284 15.1438 15.0001 15.0819 14.4291 14.8454C13.8581 14.6089 13.37 14.2083 13.0266 13.6944C12.6833 13.1805 12.5 12.5763 12.5 11.9583Z" stroke="#064E41" stroke-width="2" stroke-linecap="round" stroke-linejoin="round"/>
</svg>
