<svg width="72" height="100" viewBox="0 0 72 100" fill="none" xmlns="http://www.w3.org/2000/svg">
<g filter="url(#filter0_d_432_1745)">
<path d="M14.5 50C14.5 53.05 15.7116 55.9751 17.8683 58.1317C20.0249 60.2884 22.95 61.5 26 61.5C29.05 61.5 31.9751 60.2884 34.1317 58.1317C36.2884 55.9751 37.5 53.05 37.5 50C37.5 46.95 36.2884 44.0249 34.1317 41.8683C31.9751 39.7116 29.05 38.5 26 38.5C22.95 38.5 20.0249 39.7116 17.8683 41.8683C15.7116 44.0249 14.5 46.95 14.5 50Z" stroke="white" stroke-opacity="0.7" stroke-width="3" stroke-linecap="round" stroke-linejoin="round"/>
<path d="M25.9999 11.6667C29.0499 11.6667 31.975 12.8784 34.1317 15.035C36.2883 17.1917 37.4999 20.1168 37.4999 23.1667C37.4999 25.3211 36.5084 28.6944 34.5253 33.2867L31.7499 38.5001L38.4966 31.2436C40.4082 28.9461 42.0309 27.4064 43.3649 26.6244C44.6646 25.871 46.1004 25.3822 47.5898 25.1863C49.0792 24.9903 50.5926 25.091 52.0429 25.4827C53.4931 25.8743 54.8516 26.549 56.0399 27.468C57.2282 28.387 58.2229 29.5321 58.9666 30.8372C60.4838 33.4772 60.896 36.6099 60.1133 39.5524C59.3306 42.495 57.4166 45.0089 54.7883 46.5462C53.3546 47.3794 50.9958 48.063 47.7119 48.5971L37.4999 50.0001L46.6999 51.2497C50.5333 51.8056 53.2089 52.5416 54.7883 53.4577C57.4166 54.9951 59.3306 57.509 60.1133 60.4516C60.896 63.3941 60.4838 66.5268 58.9666 69.1667C58.2225 70.4716 57.2276 71.6163 56.0392 72.5349C54.8507 73.4535 53.4922 74.1279 52.042 74.5191C50.5917 74.9104 49.0784 75.0108 47.5892 74.8145C46.1 74.6183 44.6643 74.1293 43.3649 73.3757C42.0309 72.6014 40.4082 71.0617 38.4966 68.7566L31.7499 61.5001L34.5253 66.7134C36.5058 71.3109 37.4974 74.6842 37.4999 76.8334C37.4999 79.8834 36.2883 82.8085 34.1317 84.9651C31.975 87.1218 29.0499 88.3334 25.9999 88.3334C22.9499 88.3334 20.0249 87.1218 17.8682 84.9651C15.7115 82.8085 14.4999 79.8834 14.4999 76.8334C14.4999 74.6791 15.4915 71.3057 17.4746 66.7134L20.2499 61.5001L13.5033 68.7566C11.5917 71.0566 9.96894 72.5963 8.63494 73.3757C7.33555 74.1293 5.89989 74.6183 4.41068 74.8145C2.92146 75.0108 1.40813 74.9104 -0.0421064 74.5191C-1.49235 74.1279 -2.85083 73.4535 -4.03928 72.5349C-5.22774 71.6163 -6.22266 70.4716 -6.96673 69.1667C-8.48392 66.5268 -8.89611 63.3941 -8.11343 60.4516C-7.33076 57.509 -5.41668 54.9951 -2.7884 53.4577C-1.35473 52.6246 1.00405 51.9397 4.28794 51.4031L14.4999 50.0001L5.29994 48.7542C1.46661 48.1984 -1.20906 47.4624 -2.7884 46.5462C-5.41772 45.0089 -7.33253 42.4943 -8.11526 39.5508C-8.89799 36.6073 -8.48513 33.4737 -6.96673 30.8334C-6.22298 29.5282 -5.22829 28.3832 -4.03998 27.4642C-2.85168 26.5452 -1.49325 25.8704 -0.042982 25.4788C1.40728 25.0872 2.92071 24.9865 4.41009 25.1824C5.89946 25.3784 7.33532 25.8672 8.63494 26.6206C9.96894 27.3975 11.5917 28.9372 13.5033 31.2397L20.2499 38.5001C16.4166 29.7141 14.4999 24.603 14.4999 23.1667C14.4999 20.1168 15.7115 17.1917 17.8682 15.035C20.0249 12.8784 22.9499 11.6667 25.9999 11.6667Z" stroke="white" stroke-opacity="0.7" stroke-width="3" stroke-linecap="round" stroke-linejoin="round"/>
</g>
<defs>
<filter id="filter0_d_432_1745" x="-30" y="-6" width="112" height="112" filterUnits="userSpaceOnUse" color-interpolation-filters="sRGB">
<feFlood flood-opacity="0" result="BackgroundImageFix"/>
<feColorMatrix in="SourceAlpha" type="matrix" values="0 0 0 0 0 0 0 0 0 0 0 0 0 0 0 0 0 0 127 0" result="hardAlpha"/>
<feOffset/>
<feGaussianBlur stdDeviation="5"/>
<feComposite in2="hardAlpha" operator="out"/>
<feColorMatrix type="matrix" values="0 0 0 0 1 0 0 0 0 1 0 0 0 0 1 0 0 0 1 0"/>
<feBlend mode="normal" in2="BackgroundImageFix" result="effect1_dropShadow_432_1745"/>
<feBlend mode="normal" in="SourceGraphic" in2="effect1_dropShadow_432_1745" result="shape"/>
</filter>
</defs>
</svg>
