<svg width="29" height="29" viewBox="0 0 29 29" fill="none" xmlns="http://www.w3.org/2000/svg">
<path d="M16.6723 15.3802C16.5266 16.0271 16.1299 16.5896 15.5696 16.9439C15.0092 17.2983 14.3309 17.4156 13.6841 17.2699C13.0373 17.1242 12.4748 16.7275 12.1204 16.1671C11.766 15.6067 11.6488 14.9285 11.7945 14.2817C11.9401 13.6348 12.3368 13.0724 12.8972 12.718C13.4576 12.3636 14.1358 12.2464 14.7827 12.3921C15.4295 12.5377 15.992 12.9344 16.3464 13.4948C16.7007 14.0552 16.818 14.7334 16.6723 15.3802Z" stroke="#DD579B" stroke-width="1.5" stroke-linecap="round" stroke-linejoin="round"/>
<path d="M16.3207 5.56318C18.4767 6.04874 19.7998 8.31174 19.3142 10.4677C19.6463 10.4557 19.9814 10.4878 20.3196 10.564C21.2063 10.7632 21.9986 11.2585 22.5663 11.9681C23.1339 12.6778 23.443 13.5595 23.4426 14.4683C23.4423 15.377 23.1325 16.2586 22.5642 16.9678C21.996 17.6769 21.2033 18.1715 20.3165 18.37C20.5373 18.8706 20.6531 19.4112 20.6567 19.9584C20.6603 20.5055 20.5516 21.0475 20.3374 21.551C20.1231 22.0544 19.8078 22.5086 19.411 22.8853C19.0143 23.2621 18.5444 23.5534 18.0305 23.7413C17.5167 23.9292 16.9697 24.0097 16.4235 23.9778C15.8773 23.9459 15.3434 23.8023 14.8549 23.5558C14.3665 23.3093 13.9337 22.9652 13.5835 22.5449C13.2333 22.1245 12.9731 21.6367 12.8189 21.1117C12.4546 21.5199 12.0103 21.849 11.5137 22.0787C11.0171 22.3084 10.4787 22.4337 9.93169 22.447C9.3847 22.4603 8.84081 22.3612 8.33365 22.1558C7.82649 21.9505 7.36684 21.6433 6.98314 21.2533C6.59944 20.8632 6.29984 20.3986 6.10288 19.8881C5.90591 19.3777 5.81576 18.8322 5.83801 18.2855C5.86026 17.7388 5.99443 17.2025 6.23222 16.7097C6.47001 16.217 6.80637 15.7782 7.2205 15.4206C6.43279 14.8085 5.90225 13.9241 5.73298 12.9409C5.5637 11.9578 5.76791 10.9469 6.30554 10.1065C6.84317 9.2662 7.67541 8.65708 8.63898 8.3987C9.60255 8.14033 10.6279 8.25133 11.5138 8.70995C11.999 6.5559 14.1656 5.07783 16.3207 5.56318Z" stroke="#DD579B" stroke-width="1.5" stroke-linecap="round" stroke-linejoin="round"/>
</svg>
