<svg width="16" height="17" viewBox="0 0 16 17" fill="none" xmlns="http://www.w3.org/2000/svg">
<path d="M7.52863 2.02869C7.65364 1.90371 7.82318 1.8335 7.99996 1.8335C8.17674 1.8335 8.34627 1.90371 8.47129 2.02869L10.4713 4.02869C10.5927 4.15442 10.6599 4.32282 10.6584 4.49762C10.6569 4.67242 10.5868 4.83963 10.4632 4.96323C10.3396 5.08684 10.1724 5.15695 9.99756 5.15847C9.82276 5.15999 9.65436 5.09279 9.52863 4.97135L8.66663 4.10935V10.5C8.66663 10.6768 8.59639 10.8464 8.47136 10.9714C8.34634 11.0964 8.17677 11.1667 7.99996 11.1667C7.82315 11.1667 7.65358 11.0964 7.52855 10.9714C7.40353 10.8464 7.33329 10.6768 7.33329 10.5V4.10935L6.47129 4.97135C6.34556 5.09279 6.17716 5.15999 6.00236 5.15847C5.82756 5.15695 5.66035 5.08684 5.53675 4.96323C5.41314 4.83963 5.34303 4.67242 5.34151 4.49762C5.33999 4.32282 5.40719 4.15442 5.52863 4.02869L7.52863 2.02869ZM2.66663 7.83335C2.66663 7.47973 2.8071 7.14059 3.05715 6.89054C3.3072 6.6405 3.64634 6.50002 3.99996 6.50002H5.33329C5.5101 6.50002 5.67967 6.57026 5.8047 6.69528C5.92972 6.82031 5.99996 6.98988 5.99996 7.16669C5.99996 7.3435 5.92972 7.51307 5.8047 7.63809C5.67967 7.76312 5.5101 7.83335 5.33329 7.83335H3.99996V13.8334H12V7.83335H10.6666C10.4898 7.83335 10.3202 7.76312 10.1952 7.63809C10.0702 7.51307 9.99996 7.3435 9.99996 7.16669C9.99996 6.98988 10.0702 6.82031 10.1952 6.69528C10.3202 6.57026 10.4898 6.50002 10.6666 6.50002H12C12.3536 6.50002 12.6927 6.6405 12.9428 6.89054C13.1928 7.14059 13.3333 7.47973 13.3333 7.83335V13.8334C13.3333 14.187 13.1928 14.5261 12.9428 14.7762C12.6927 15.0262 12.3536 15.1667 12 15.1667H3.99996C3.64634 15.1667 3.3072 15.0262 3.05715 14.7762C2.8071 14.5261 2.66663 14.187 2.66663 13.8334V7.83335Z" fill="white"/>
</svg>
